<svg width="309" height="157" viewBox="0 0 309 157" fill="none" xmlns="http://www.w3.org/2000/svg">
<g clip-path="url(#clip0_1765_486)">
<mask id="mask0_1765_486" style="mask-type:alpha" maskUnits="userSpaceOnUse" x="0" y="3" width="309" height="154">
<rect width="309" height="154" transform="translate(0 3)" fill="url(#paint0_radial_1765_486)"/>
</mask>
<g mask="url(#mask0_1765_486)">
<g style="mix-blend-mode:difference" opacity="0.5">
<path d="M7.7537 144.04L6.47699 146.174C3.62433 150.942 7.05953 157 12.616 157H297.316C303.769 157 309 151.769 309 145.316V28.1599C309 25.6227 305.31 25.3198 304.897 27.8231C304.732 28.8203 303.869 29.5517 302.859 29.5517H301.42C299.825 29.5517 298.406 30.5569 297.864 32.0572C296.2 36.6685 293.882 42.8276 293.491 42.8276C293.377 42.8276 293.109 43.1446 292.748 43.6625C289.636 48.1241 286.107 52.3188 281.511 55.2285L277.587 57.7126C276.497 58.4028 275.557 59.3065 274.825 60.3692C271.541 65.1381 264.806 65.9187 260.517 62.0274L257.298 59.1065C257.043 58.875 256.809 58.6215 256.599 58.3487C253.933 54.8937 248.558 55.476 246.695 59.4217L243.873 65.3963C242.724 67.8281 240.276 69.3793 237.587 69.3793C234.764 69.3793 232.222 67.673 231.153 65.0609L227.232 55.4818C225.968 52.3951 224.038 49.6217 221.537 47.4145C218.915 45.0996 216.255 42.8276 215.949 42.8276C215.598 42.8276 213.359 39.8397 211.479 37.2258C210.42 35.7517 208.722 34.8621 206.907 34.8621C205.746 34.8621 204.615 35.2255 203.671 35.9013L194.003 42.8276L190.901 45.3861C186.649 48.8941 183.661 53.6974 182.394 59.0627C180.835 65.6615 176.689 71.3565 170.887 74.866L170.49 75.1064C168.04 76.5888 165.847 78.4606 163.999 80.6482L162.458 82.472C160.862 84.3604 159.441 86.3894 158.212 88.5343L152.452 98.5862L146.228 113.41C145.567 114.986 144.024 116.011 142.315 116.011C142.051 116.011 141.787 116.036 141.527 116.085L140.989 116.186C136.389 117.056 131.795 114.648 129.894 110.371L124.653 98.5862L118.567 87.5401C117.809 86.1646 116.363 85.3104 114.792 85.3104C113.615 85.3104 112.489 84.8287 111.676 83.9773L110.459 82.7039C107.532 79.6394 102.785 79.2252 99.3717 81.7365L97.4568 83.1454C95.5452 84.5518 93.2342 85.3104 90.861 85.3104H90.4136C86.541 85.3104 82.8873 87.1063 80.5218 90.1726L74.0312 98.5862L63.7898 114.517L57.0494 128.632C56.4756 129.833 55.6931 130.923 54.7383 131.852L52.9782 133.563C50.0902 136.371 45.6059 136.707 42.3314 134.361C39.1446 132.078 34.7966 132.329 31.8934 134.963L28.0909 138.414L22.9201 143.106C20.8922 144.946 17.7831 144.892 15.8197 142.984C13.4201 140.651 9.4719 141.168 7.7537 144.04Z" fill="#3E3E3E"/>
</g>
</g>
<path d="M0 157L7.7537 144.04C9.4719 141.168 13.4201 140.651 15.8197 142.984V142.984C17.7831 144.892 20.8922 144.946 22.9201 143.106L28.0909 138.414L31.8934 134.963C34.7966 132.329 39.1446 132.078 42.3314 134.361V134.361C45.6059 136.707 50.0902 136.371 52.9782 133.563L54.7383 131.852C55.6931 130.923 56.4756 129.833 57.0494 128.632L63.7898 114.517L74.0313 98.5862L80.5218 90.1726C82.8873 87.1063 86.541 85.3104 90.4136 85.3104H90.861C93.2342 85.3104 95.5453 84.5518 97.4568 83.1454L99.3717 81.7365C102.785 79.2252 107.532 79.6394 110.459 82.7039L111.676 83.9773C112.489 84.8287 113.615 85.3104 114.792 85.3104V85.3104C116.363 85.3104 117.809 86.1646 118.567 87.5401L124.653 98.5862L129.894 110.371C131.795 114.648 136.389 117.056 140.989 116.186L141.527 116.085C141.787 116.036 142.051 116.011 142.315 116.011V116.011C144.024 116.011 145.567 114.986 146.228 113.41L152.452 98.5862L159.247 86.7288C159.788 85.7851 160.413 84.8924 161.115 84.0616L164.884 79.6006C166.146 78.1067 167.643 76.8286 169.317 75.8163L173.493 73.2901C177.628 70.7886 180.583 66.7294 181.694 62.0259L182.955 56.6875C183.858 52.8632 185.987 49.4396 189.019 46.9391L194.003 42.8276L203.671 35.9013C204.615 35.2255 205.746 34.8621 206.907 34.8621V34.8621C208.722 34.8621 210.42 35.7517 211.479 37.2258C213.359 39.8397 215.598 42.8276 215.949 42.8276C216.284 42.8276 219.44 45.55 222.279 48.071C224.285 49.8526 225.84 52.082 226.857 54.5654L231.153 65.0609C232.222 67.6729 234.764 69.3793 237.587 69.3793V69.3793C240.276 69.3793 242.724 67.8281 243.873 65.3963L246.695 59.4217C248.558 55.476 253.933 54.8937 256.599 58.3487V58.3487C256.809 58.6215 257.043 58.875 257.298 59.1065L260.517 62.0274C264.806 65.9187 271.541 65.1381 274.825 60.3692V60.3692C275.557 59.3065 276.497 58.4028 277.587 57.7126L284.611 53.2658C287.173 51.6437 289.265 49.3887 290.804 46.7759C292.028 44.6993 293.214 42.8276 293.491 42.8276C293.882 42.8276 296.2 36.6685 297.864 32.0572C298.406 30.5569 299.825 29.5517 301.42 29.5517V29.5517C303.261 29.5517 304.831 28.2198 305.131 26.404L309 3" stroke="url(#paint1_linear_1765_486)" stroke-width="2" stroke-linecap="round" stroke-linejoin="round"/>
<g filter="url(#filter0_b_1765_486)">
<rect x="168" width="74" height="73" rx="36.5" fill="white" fill-opacity="0.04"/>
<rect x="169" y="1" width="72" height="71" rx="35.5" stroke="white" stroke-opacity="0.05" stroke-width="2"/>
</g>
<g filter="url(#filter1_b_1765_486)">
<rect x="178.641" y="10.2188" width="53.1094" height="52.9375" rx="26.4688" fill="white" fill-opacity="0.04"/>
<g opacity="0.2">
<rect x="179.641" y="11.2188" width="51.1094" height="50.9375" rx="25.4688" stroke="#AFAFAF" stroke-width="2"/>
</g>
<rect x="191.711" y="23.25" width="26.9688" height="26.875" rx="13.4375" fill="#F0F0F0"/>
<rect x="191.711" y="23.25" width="26.9688" height="26.875" rx="13.4375" stroke="#AFAFAF" stroke-width="2"/>
</g>
</g>
<defs>
<filter id="filter0_b_1765_486" x="166" y="-2" width="78" height="77" filterUnits="userSpaceOnUse" color-interpolation-filters="sRGB">
<feFlood flood-opacity="0" result="BackgroundImageFix"/>
<feGaussianBlur in="BackgroundImageFix" stdDeviation="1"/>
<feComposite in2="SourceAlpha" operator="in" result="effect1_backgroundBlur_1765_486"/>
<feBlend mode="normal" in="SourceGraphic" in2="effect1_backgroundBlur_1765_486" result="shape"/>
</filter>
<filter id="filter1_b_1765_486" x="176.641" y="8.21875" width="57.1094" height="56.9375" filterUnits="userSpaceOnUse" color-interpolation-filters="sRGB">
<feFlood flood-opacity="0" result="BackgroundImageFix"/>
<feGaussianBlur in="BackgroundImageFix" stdDeviation="1"/>
<feComposite in2="SourceAlpha" operator="in" result="effect1_backgroundBlur_1765_486"/>
<feBlend mode="normal" in="SourceGraphic" in2="effect1_backgroundBlur_1765_486" result="shape"/>
</filter>
<radialGradient id="paint0_radial_1765_486" cx="0" cy="0" r="1" gradientUnits="userSpaceOnUse" gradientTransform="translate(154.5 54.5) scale(154.5 99.5)">
<stop/>
<stop offset="1" stop-opacity="0"/>
</radialGradient>
<linearGradient id="paint1_linear_1765_486" x1="309" y1="3" x2="0" y2="3" gradientUnits="userSpaceOnUse">
<stop stop-color="#3E3E3E" stop-opacity="0"/>
<stop offset="0.247296" stop-color="#3E3E3E"/>
<stop offset="0.732503" stop-color="#3E3E3E"/>
<stop offset="1" stop-color="#3E3E3E" stop-opacity="0"/>
</linearGradient>
<clipPath id="clip0_1765_486">
<rect width="309" height="157" fill="white"/>
</clipPath>
</defs>
</svg>
