<?xml version="1.0" encoding="UTF-8"?><svg id="Layer_1" xmlns="http://www.w3.org/2000/svg" xmlns:xlink="http://www.w3.org/1999/xlink" viewBox="0 0 2280 2030"><defs><style>.cls-1{clip-path:url(#clippath);}.cls-2{fill:#557ebe;}.cls-2,.cls-3,.cls-4,.cls-5,.cls-6,.cls-7,.cls-8,.cls-9,.cls-10,.cls-11,.cls-12,.cls-13{stroke-width:0px;}.cls-3{fill:none;}.cls-4{fill:url(#linear-gradient);}.cls-5{fill:url(#radial-gradient);}.cls-6{fill:#f7bb16;}.cls-14{fill:url(#linear-gradient-2);stroke:#aab9d6;}.cls-14,.cls-15{stroke-miterlimit:10;}.cls-16{clip-path:url(#clippath-1);}.cls-17{clip-path:url(#clippath-4);}.cls-18{clip-path:url(#clippath-3);}.cls-19{clip-path:url(#clippath-2);}.cls-7{fill:#36a952;}.cls-8{fill:url(#radial-gradient-2);}.cls-9{fill:#232323;}.cls-10{fill:#929497;}.cls-11{fill:url(#linear-gradient-4);}.cls-15{fill:url(#linear-gradient-3);stroke:#757575;}.cls-12{fill:#e94435;}.cls-13{fill:#fff;}</style><linearGradient id="linear-gradient" x1="1051.55" y1="1563.1" x2="1300.34" y2="1275.11" gradientTransform="translate(126.94 2147.75) rotate(-90)" gradientUnits="userSpaceOnUse"><stop offset=".2" stop-color="#232323"/><stop offset=".93" stop-color="#505254"/></linearGradient><clipPath id="clippath"><rect class="cls-3" x="1300.47" y="824.6" width="590.89" height="380.57"/></clipPath><clipPath id="clippath-1"><rect class="cls-3" x="1300.47" y="824.6" width="590.89" height="380.57"/></clipPath><clipPath id="clippath-2"><rect class="cls-3" x="1300.47" y="824.6" width="590.89" height="380.57"/></clipPath><clipPath id="clippath-3"><rect class="cls-3" x="1300.47" y="824.6" width="590.89" height="380.57"/></clipPath><linearGradient id="linear-gradient-2" x1="991.71" y1="427.47" x2="1281.95" y2="-40.67" gradientTransform="translate(-806.14 815.1)" gradientUnits="userSpaceOnUse"><stop offset=".26" stop-color="#2d3f74"/><stop offset=".93" stop-color="#799acc"/></linearGradient><radialGradient id="radial-gradient" cx="-8283.51" cy="-6586.4" fx="-8283.51" fy="-6586.4" r="1042.47" gradientTransform="translate(1120.1 -209.93) rotate(-90) scale(.15 .13)" gradientUnits="userSpaceOnUse"><stop offset="0" stop-color="#313e6a"/><stop offset="1" stop-color="#2c3966" stop-opacity="0"/></radialGradient><radialGradient id="radial-gradient-2" cx="-8267.45" cy="-7116.89" fx="-8267.45" fy="-7116.89" r="1042.47" gradientTransform="translate(1120.1 -209.93) rotate(-90) scale(.15 .13)" gradientUnits="userSpaceOnUse"><stop offset="0" stop-color="#83a2cf"/><stop offset="1" stop-color="#83a2d0" stop-opacity="0"/></radialGradient><linearGradient id="linear-gradient-3" x1="963.32" y1="717.62" x2="1432.04" y2="993.52" gradientTransform="translate(-164.79 201.18)" gradientUnits="userSpaceOnUse"><stop offset=".18" stop-color="#1a1a1a"/><stop offset=".93" stop-color="#666"/></linearGradient><clipPath id="clippath-4"><path class="cls-3" d="M827.39,1138.12v.32c0,7.7,6.37,13.97,14.2,13.97h29.7c1.03,0,1.87-.82,1.87-1.84s-.84-1.83-1.87-1.83h-29.7c-5.77,0-10.47-4.62-10.47-10.29v-.32c0-1.01-.84-1.83-1.87-1.83s-1.87.82-1.87,1.83M996.15,1137.11v1.33c0,5.68-4.7,10.29-10.47,10.29h-28.67c-1.03,0-1.87.82-1.87,1.83s.84,1.84,1.87,1.84h28.67c7.83,0,14.2-6.27,14.2-13.97v-1.33c0-1.01-.84-1.83-1.87-1.83s-1.87.82-1.87,1.83M827.39,1067.28v55.92c0,1.02.84,1.84,1.87,1.84s1.87-.82,1.87-1.84v-55.92c0-1.01-.84-1.83-1.87-1.83s-1.87.82-1.87,1.83M996.15,1066.27v55.92c0,1.01.84,1.83,1.87,1.83s1.87-.82,1.87-1.83v-55.92c0-1.02-.84-1.84-1.87-1.84s-1.87.82-1.87,1.84M827.39,996.45v55.92c0,1.01.84,1.83,1.87,1.83s1.87-.82,1.87-1.83v-55.92c0-1.01-.84-1.84-1.87-1.84s-1.87.82-1.87,1.84M996.15,995.43v55.92c0,1.02.84,1.84,1.87,1.84s1.87-.82,1.87-1.84v-55.92c0-1.01-.84-1.83-1.87-1.83s-1.87.82-1.87,1.83M841.59,966.65c-7.83,0-14.2,6.26-14.2,13.97v.92c0,1.01.84,1.83,1.87,1.83s1.87-.82,1.87-1.83v-.92c0-5.68,4.69-10.3,10.47-10.3h28.34c1.03,0,1.87-.82,1.87-1.83s-.84-1.83-1.87-1.83h-28.34ZM913.15,966.65h-27.99c-1.03,0-1.87.82-1.87,1.83s.84,1.83,1.87,1.83h55.99c1.03,0,1.87-.82,1.87-1.83s-.84-1.83-1.87-1.83h-27.99ZM956.31,966.65c-1.03,0-1.87.82-1.87,1.83s.84,1.83,1.87,1.83h29.37c5.73,0,10.43,4.58,10.47,10.22,0,1.01.84,1.82,1.87,1.82h.01c1.03,0,1.86-.83,1.85-1.85-.06-7.64-6.43-13.86-14.2-13.86h-29.37Z"/></clipPath><linearGradient id="linear-gradient-4" x1="1014" y1="1097.13" x2="1016.34" y2="1097.13" gradientTransform="translate(87993.26 81633.66) rotate(-90) scale(79.37 -79.37)" gradientUnits="userSpaceOnUse"><stop offset="0" stop-color="#e94434"/><stop offset=".16" stop-color="#e94833"/><stop offset=".35" stop-color="#ea5533"/><stop offset=".54" stop-color="#ed6c33"/><stop offset=".74" stop-color="#f08b32"/><stop offset=".94" stop-color="#f4b232"/><stop offset="1" stop-color="#f6c132"/></linearGradient></defs><rect class="cls-4" x="1300.47" y="824.6" width="590.89" height="380.57" rx="20.98" ry="20.98"/><g class="cls-1"><path class="cls-13" d="M1413.43,1014.89c0-20.12-16.31-36.42-36.42-36.42s-36.42,16.31-36.42,36.42,16.31,36.42,36.42,36.42,36.42-16.31,36.42-36.42"/><path class="cls-12" d="M1360.37,1014.27c0-3.82,1.35-7.26,3.57-9.97l-7.88-7.87c-4.18,4.8-6.77,10.95-6.77,17.84,0,10.7,6.13,19.89,15.08,24.3l6.97-9.11c-6.38-2.1-10.97-8.08-10.97-15.19"/><path class="cls-6" d="M1376.37,1030.27c-1.76,0-3.44-.29-5.03-.81l-6.96,9.11c3.61,1.78,7.68,2.78,11.99,2.78s8.38-1,11.98-2.77c0,0,0,0,0,0l-6.96-9.11s-.02,0-.02,0c-1.57.52-3.25.8-5,.8"/><path class="cls-2" d="M1371.45,1014.27h10.46v-14.52c3.57.73,6.31,2.7,8.09,5.53l6.7-8.65c-4.62-4.97-11.5-8.2-20.32-8.2-1.6,0-3.32.24-4.92.61v25.23Z"/><path class="cls-7" d="M1392.37,1014.27c0,7.1-4.59,13.08-10.97,15.19l6.97,9.11c8.95-4.4,15.08-13.6,15.08-24.3,0-6.6-2.35-12.91-6.75-17.64l-6.69,8.65c1.54,2.44,2.37,5.51,2.37,8.99"/></g><path class="cls-13" d="M1435.68,1059.55c-.61-.43-1.36-.65-2.25-.65-1.31,0-2.32.42-3.01,1.26-.7.84-1.04,2.03-1.04,3.58v4.71h13.4v-2.33h-5.15v-2.6l5.15-2.69v-2.49h-.12l-5.58,3.01c-.33-.77-.79-1.37-1.39-1.81ZM1435.74,1063.73v2.39h-4.49v-2.46c.01-.81.21-1.42.61-1.83.39-.41.95-.61,1.66-.61s1.23.22,1.63.66c.39.44.59,1.05.59,1.84Z"/><path class="cls-13" d="M1432.64,1052.78c0,.85.22,1.63.65,2.32.44.7,1.04,1.23,1.83,1.61.78.38,1.67.58,2.66.58h.27c1.48,0,2.67-.44,3.57-1.32.89-.88,1.34-2.03,1.34-3.45,0-.83-.16-1.58-.49-2.24-.33-.67-.79-1.2-1.39-1.6l-1.15,1.21c.83.64,1.24,1.48,1.24,2.5,0,.73-.24,1.34-.72,1.82s-1.13.75-1.95.82v-6.5h-.9c-1.58,0-2.81.37-3.67,1.11-.86.74-1.3,1.79-1.3,3.14ZM1436.87,1050.74v4.26c-.77-.1-1.37-.34-1.8-.72-.43-.38-.64-.87-.64-1.48s.19-1.1.58-1.45.95-.55,1.7-.6h.16Z"/><polygon class="cls-13" points="1439.94 1043.4 1432.82 1045.53 1432.82 1047.85 1442.78 1044.38 1442.78 1042.43 1432.82 1038.98 1432.82 1041.29 1439.94 1043.4"/><rect class="cls-13" x="1432.82" y="1035.21" width="9.96" height="2.24"/><path class="cls-13" d="M1429.04,1036.32c0,.4.11.72.34.93.23.22.51.33.86.33s.62-.11.84-.33.33-.53.33-.93-.11-.72-.33-.94c-.22-.22-.51-.33-.84-.33s-.63.11-.86.33c-.23.22-.34.53-.34.94Z"/><path class="cls-13" d="M1432.64,1028.65c0,.85.22,1.63.65,2.32.44.7,1.04,1.23,1.83,1.61.78.38,1.67.58,2.66.58h.27c1.48,0,2.67-.44,3.57-1.32.89-.88,1.34-2.03,1.34-3.45,0-.83-.16-1.58-.49-2.24-.33-.67-.79-1.2-1.39-1.6l-1.15,1.21c.83.64,1.24,1.48,1.24,2.5,0,.73-.24,1.34-.72,1.82s-1.13.75-1.95.82v-6.5h-.9c-1.58,0-2.81.37-3.67,1.11-.86.74-1.3,1.79-1.3,3.14ZM1436.87,1026.61v4.26c-.77-.1-1.37-.34-1.8-.72-.43-.38-.64-.87-.64-1.48s.19-1.1.58-1.45.95-.55,1.7-.6h.16Z"/><polygon class="cls-13" points="1439.69 1013.92 1432.82 1015.99 1432.82 1017.67 1439.62 1019.72 1432.82 1021.33 1432.82 1023.51 1442.78 1020.78 1442.78 1018.94 1435.94 1016.85 1442.78 1014.71 1442.78 1012.87 1432.82 1010.16 1432.82 1012.34 1439.69 1013.92"/><path class="cls-13" d="M1439.97,998.01c.78.38,1.17,1.11,1.17,2.2s-.63,1.57-1.9,1.57h-6.42v2.24h6.45c1.2,0,2.11-.28,2.74-.83.63-.56.95-1.37.95-2.45,0-1.21-.39-2.14-1.16-2.8l.98-.05v-2.11h-9.96v2.24h7.15Z"/><path class="cls-13" d="M1437.63,987.2c-.27.5-.5,1.19-.69,2.07-.19.88-.38,1.46-.57,1.75-.19.29-.46.43-.8.43-.38,0-.68-.15-.91-.46s-.34-.71-.34-1.2c0-.53.14-.95.43-1.27.29-.32.64-.48,1.07-.48v-2.24c-.94,0-1.7.37-2.29,1.1s-.88,1.7-.88,2.88c0,1.12.29,2.04.86,2.76s1.29,1.09,2.15,1.09c1.03,0,1.81-.56,2.35-1.67.24-.51.45-1.14.61-1.91.16-.76.34-1.3.55-1.63.21-.33.51-.49.91-.49.36,0,.66.15.88.46.22.31.33.75.33,1.34s-.14,1.1-.43,1.46c-.29.37-.69.57-1.22.6v2.17c.59,0,1.15-.18,1.67-.53.51-.36.92-.85,1.21-1.49.29-.64.44-1.36.44-2.18,0-1.2-.28-2.18-.83-2.92-.55-.74-1.28-1.11-2.18-1.11-.53,0-.99.12-1.36.36-.37.24-.7.61-.96,1.11Z"/><path class="cls-13" d="M1433.93,971.61c-.86.84-1.3,1.93-1.3,3.27,0,.91.21,1.71.63,2.41.42.7,1.02,1.24,1.8,1.63s1.66.58,2.64.58h.11c1.56,0,2.8-.42,3.74-1.27.93-.84,1.4-1.97,1.4-3.37,0-.92-.21-1.73-.64-2.44-.42-.7-1.02-1.24-1.79-1.62-.77-.38-1.65-.57-2.63-.57h-.53c-1.43.08-2.58.53-3.44,1.37ZM1440.29,973.1c.59.42.88,1.01.88,1.76s-.29,1.34-.87,1.77c-.58.42-1.38.63-2.4.63-1.15,0-2.02-.21-2.6-.64-.58-.43-.87-1.01-.87-1.74s.29-1.33.88-1.76,1.39-.65,2.39-.65c1.14,0,2,.21,2.58.63Z"/><path class="cls-13" d="M1432.64,963.31c0,1.2.44,2.16,1.34,2.9l-1.15.06v2.11h9.96v-2.24h-7.08c-.82-.44-1.23-1.12-1.23-2.02,0-.62.15-1.07.46-1.34s.77-.41,1.4-.41h6.45v-2.24h-6.58c-2.38.04-3.56,1.09-3.56,3.16Z"/><g class="cls-16"><path class="cls-13" d="M1468.47,1065.68v23.32h6.92v-16.54c9.69.82,13.84,8.89,13.84,16.51.04,10.04-8.06,18.22-18.1,18.26-.11,0-.22,0-.33,0-10.47,0-18.54-8.11-18.54-18.28,0-7.85,5-12.47,5-12.47l-5.02-4.84s-6.92,6.22-6.92,17.57c0,14.44,12.19,25.62,25.36,25.62s25.49-10.51,25.49-25.98c0-13.61-9.32-23.58-23.11-23.58-2.91,0-4.59.42-4.59.42h0Z"/><path class="cls-13" d="M1469.88,1046.48c0-4.7,3.81-9.16,9.94-9.16s9.91,4.44,9.91,9.19c0,5.21-4.18,9.31-9.96,9.31s-9.89-4.06-9.89-9.35h0ZM1463.46,1046.57c0,9.57,7.48,16.43,16.21,16.43s16.48-6.65,16.48-16.54c0-8.95-6.84-16.29-16.29-16.29-10.8,0-16.4,8.53-16.4,16.4h0Z"/><path class="cls-13" d="M1469.88,1010.75c0-4.7,3.81-9.16,9.94-9.16s9.91,4.44,9.91,9.19c0,5.21-4.18,9.31-9.96,9.31s-9.89-4.06-9.89-9.35h0ZM1463.46,1010.84c0,9.57,7.48,16.43,16.21,16.43s16.48-6.65,16.48-16.54c0-8.95-6.84-16.29-16.29-16.29-10.8,0-16.4,8.53-16.4,16.4h0Z"/><path class="cls-13" d="M1469.88,975.17c0-4.31,3.68-8.73,9.96-8.73s9.9,4.42,9.9,8.82c0,4.68-3.8,9.04-9.84,9.04s-10.02-4.52-10.02-9.13ZM1463.48,975.8c0,8.79,7.69,15.69,16.33,15.69,9.84,0,16.36-8,16.36-15.53,0-4.66-1.85-7.13-3.97-8.94h3.22c5.64,0,9.01,3.42,9.01,8.59s-3.71,7.5-5.82,8.38l2.61,6.28c4.71-2.23,9.62-6.72,9.62-14.72,0-8.75-5.5-15.39-17.04-15.39h-29.35v6.83h2.77c-2.27,2.1-3.75,4.99-3.75,8.81h0Z"/><path class="cls-13" d="M1469.72,929.37c0-2.99,1.59-5.13,3.49-6.05l6.12,14.63c-4.74.63-9.61-3.86-9.61-8.57v-.02ZM1463.44,929.66c0,8.29,6.6,15.24,16.32,15.24,10.29,0,16.4-7.75,16.4-16.02,0-6.91-3.78-11.18-7.17-13.69l-3.76,5.65c2.27,1.47,4.5,3.92,4.5,8.01,0,4.59-2.52,6.71-4.96,8.02l-9.09-21.91-2.66,1.12c-5.21,2.12-9.57,7.05-9.57,13.59h0Z"/></g><rect class="cls-13" x="1447.02" y="948.16" width="48.17" height="7.2"/><g class="cls-19"><polygon class="cls-6" points="1528.89 1082.75 1528.04 1091.62 1527.89 1093.16 1518.09 1097.31 1527.9 1101.45 1528.9 1111.85 1535.95 1104 1541.77 1105.28 1546.38 1106.29 1540.92 1097.3 1546.37 1088.3 1535.95 1090.6 1528.89 1082.75"/><polygon class="cls-6" points="1528.89 1041.54 1528.04 1050.42 1527.89 1051.95 1518.09 1056.1 1527.9 1060.24 1528.9 1070.64 1535.95 1062.79 1541.77 1064.07 1546.38 1065.08 1540.92 1056.09 1546.37 1047.09 1535.95 1049.39 1528.89 1041.54"/><polygon class="cls-6" points="1528.89 1000.33 1528.04 1009.21 1527.89 1010.74 1518.09 1014.89 1527.9 1019.03 1528.9 1029.44 1535.95 1021.58 1541.77 1022.86 1546.38 1023.87 1540.92 1014.88 1546.37 1005.88 1535.95 1008.18 1528.89 1000.33"/><polygon class="cls-6" points="1528.89 959.13 1528.04 968 1527.89 969.53 1518.09 973.68 1527.9 977.82 1528.9 988.23 1535.95 980.38 1541.77 981.65 1546.38 982.66 1540.92 973.67 1546.37 964.68 1535.95 966.97 1528.89 959.13"/><polygon class="cls-6" points="1528.89 917.92 1528.04 926.79 1527.89 928.33 1518.09 932.47 1527.9 936.61 1528.9 947.02 1535.95 939.17 1541.77 940.44 1546.38 941.45 1540.92 932.46 1546.37 923.47 1535.95 925.76 1528.89 917.92"/></g><polygon class="cls-13" points="1568.82 1059.71 1568.82 1056.46 1578.76 1056.46 1578.76 1054.38 1568.82 1054.38 1568.82 1051.15 1567.22 1051.15 1567.22 1059.71 1568.82 1059.71"/><path class="cls-13" d="M1569.76,1047.01c0,1.23.31,2.35.92,3.36l1.27-.63c-.22-.44-.39-.86-.5-1.26-.11-.4-.16-.83-.16-1.3,0-.53.12-.92.35-1.18.24-.26.61-.39,1.13-.39h.59v1.62c0,1.13.23,2.02.69,2.67s1.08.97,1.85.97h.58c.5,0,.93-.13,1.31-.4.38-.26.67-.62.88-1.06s.3-.93.3-1.46c0-1.02-.35-1.89-1.05-2.61l.84-.16v-1.6h-5.92c-.97,0-1.72.29-2.27.86-.55.57-.82,1.42-.82,2.56ZM1576.6,1045.63c.29.25.5.55.64.88.14.34.21.69.21,1.06,0,.43-.1.75-.31.96-.2.22-.48.32-.83.32h-.33c-.89,0-1.34-.6-1.34-1.81v-1.42h1.95Z"/><path class="cls-13" d="M1570.27,1034.87c-.34.5-.51,1.07-.51,1.72,0,1.02.36,1.85,1.07,2.47l-.84.12v1.75h12.07v-2.04h-3.79c.47-.59.71-1.27.71-2.03,0-.67-.18-1.28-.53-1.82-.36-.54-.86-.97-1.49-1.29-.64-.31-1.36-.47-2.16-.47h-.87c-.83,0-1.55.14-2.19.42-.63.28-1.12.67-1.46,1.17ZM1574.86,1035.32c.85,0,1.49.17,1.93.5.44.33.66.8.66,1.39,0,.63-.2,1.18-.61,1.67h-4.6c-.29-.22-.51-.49-.68-.81-.17-.32-.25-.66-.25-1.02,0-.55.21-.97.64-1.28.43-.3,1.06-.45,1.9-.45h1Z"/><path class="cls-13" d="M1570.29,1021.03c-.35.62-.53,1.38-.53,2.26s.18,1.63.53,2.24.84,1.08,1.47,1.39c.62.31,1.35.47,2.16.47h.89c1.26,0,2.27-.36,3.04-1.07.76-.71,1.14-1.73,1.14-3.04s-.38-2.34-1.14-3.07c-.76-.72-1.77-1.09-3.04-1.09h-.89c-.81,0-1.54.16-2.16.48-.63.32-1.12.79-1.47,1.42ZM1574.81,1021.17c.87,0,1.53.18,1.97.54.44.36.67.89.67,1.57s-.22,1.2-.67,1.54c-.44.35-1.1.52-1.97.52h-.92c-.84,0-1.49-.18-1.92-.53-.44-.35-.65-.86-.65-1.54s.22-1.2.66-1.57c.44-.36,1.08-.54,1.91-.54h.92Z"/><path class="cls-13" d="M1570.18,1014.13c.26.42.66.75,1.19,1l-1.38.33v1.48h8.77v-2.04h-5.24c-.62-.23-1.06-.54-1.32-.93-.26-.39-.4-.85-.4-1.38,0-.19.02-.36.05-.53l-1.9-.36c-.11.33-.16.68-.16,1.06,0,.49.13.95.39,1.38Z"/><path class="cls-13" d="M1572.19,1000.85l-.49,1.53c-.2.65-.42,1.12-.66,1.41-.24.29-.51.44-.81.44h-.28c-.36,0-.68-.18-.95-.54s-.4-.89-.4-1.58c0-.58.08-1.09.23-1.52s.43-.91.82-1.43l-1.14-1.02c-.49.54-.87,1.14-1.12,1.8-.26.66-.38,1.41-.38,2.26s.13,1.58.4,2.21c.27.63.63,1.1,1.08,1.43.45.32.94.49,1.47.49h.38c1.36,0,2.34-.91,2.92-2.72l.56-1.7c.22-.68.45-1.15.7-1.39.24-.25.57-.37.99-.37h.21c.43,0,.81.21,1.13.63s.49,1.02.49,1.81c0,.49-.04.92-.13,1.27-.09.35-.2.65-.34.91-.14.25-.35.59-.62,1.01l1.24,1.04c1-1.08,1.5-2.52,1.5-4.32,0-.86-.13-1.62-.4-2.28-.27-.66-.65-1.18-1.15-1.56s-1.06-.56-1.7-.56h-.44c-.82,0-1.48.25-1.96.73s-.86,1.17-1.14,2.05Z"/><path class="cls-13" d="M1571.98,993.78c-.45-.36-.67-.87-.67-1.53,0-.38.05-.72.16-1.01s.29-.57.53-.84l-1.09-.97c-.4.41-.69.85-.88,1.32-.19.47-.28,1-.28,1.58,0,1.28.38,2.26,1.15,2.97.76.7,1.8,1.06,3.09,1.06h.74c1.29,0,2.31-.35,3.08-1.06.77-.71,1.15-1.68,1.15-2.93,0-.52-.1-1.03-.29-1.54-.19-.51-.44-.95-.75-1.33l-1.2.84c.23.33.41.64.53.94s.18.63.18.99c0,.67-.23,1.18-.68,1.52-.45.35-1.12.52-2,.52h-.81c-.88,0-1.54-.18-1.99-.53Z"/><path class="cls-13" d="M1569.76,984.51c0,1.23.31,2.35.92,3.36l1.27-.63c-.22-.44-.39-.86-.5-1.26-.11-.4-.16-.83-.16-1.3,0-.53.12-.92.35-1.18.24-.26.61-.39,1.13-.39h.59v1.62c0,1.13.23,2.02.69,2.67s1.08.97,1.85.97h.58c.5,0,.93-.13,1.31-.4.38-.26.67-.62.88-1.06s.3-.93.3-1.46c0-1.02-.35-1.89-1.05-2.61l.84-.16v-1.6h-5.92c-.97,0-1.72.29-2.27.86-.55.57-.82,1.42-.82,2.56ZM1576.6,983.12c.29.25.5.55.64.88.14.34.21.69.21,1.06,0,.43-.1.75-.31.96-.2.22-.48.32-.83.32h-.33c-.89,0-1.34-.6-1.34-1.81v-1.42h1.95Z"/><path class="cls-13" d="M1570.54,971.87c-.52.53-.78,1.22-.78,2.07,0,1.11.37,1.98,1.12,2.6l-.89.13v1.75h8.77v-2.04h-6.36c-.73-.52-1.09-1.15-1.09-1.9,0-.91.52-1.37,1.55-1.37h5.9v-2.04h-6.07c-.92,0-1.64.27-2.16.8Z"/><g class="cls-18"><path class="cls-13" d="M1589.24,1108.36c0,5.53,4.39,10.02,9.81,10.02h202.67c5.42,0,9.81-4.48,9.81-10.02v-186.95c0-5.53-4.39-10.02-9.81-10.02h-202.67c-5.42,0-9.81,4.48-9.81,10.02v186.95Z"/></g><path class="cls-10" d="M1847.1,1070.37c0,.89.28,1.58.84,2.09h-3.58v1.75h10.46v-1.75h-5.43c-.64-.43-.96-.97-.96-1.63,0-.79.44-1.19,1.33-1.19h5.06v-1.75h-5.2c-.79,0-1.41.23-1.85.69-.44.46-.66,1.05-.66,1.78Z"/><path class="cls-10" d="M1852.72,1061.25c.3.22.54.48.71.78.17.3.26.61.26.92,0,.35-.09.61-.27.79s-.45.27-.79.27h-5.33v1.75h5.41c.46,0,.86-.11,1.21-.32.34-.21.61-.5.8-.86s.28-.77.28-1.21c0-.88-.34-1.64-1.02-2.26l.83-.13v-1.48h-7.52v1.75h5.43Z"/><path class="cls-10" d="M1849,1055.41c-.38-.31-.57-.74-.57-1.31,0-.33.05-.62.14-.86.1-.25.25-.49.45-.72l-.93-.83c-.34.35-.59.73-.75,1.13-.16.4-.24.86-.24,1.36,0,1.09.33,1.94.98,2.54.65.6,1.54.9,2.65.9h.63c1.1,0,1.98-.3,2.64-.91.66-.61.99-1.45.99-2.51,0-.44-.08-.88-.25-1.32s-.38-.82-.64-1.14l-1.03.72c.2.28.35.55.45.81.1.26.15.54.15.85,0,.57-.19,1.01-.58,1.31-.38.3-.95.44-1.71.44h-.7c-.75,0-1.32-.15-1.7-.46Z"/><polygon class="cls-10" points="1847.3 1043.89 1847.3 1045.81 1850.19 1048.38 1844.36 1048.38 1844.36 1050.13 1854.82 1050.13 1854.82 1048.38 1852.12 1048.38 1851.4 1047.75 1854.82 1045.37 1854.82 1043.42 1850.34 1046.57 1847.3 1043.89"/><path class="cls-10" d="M1853.64,1040.17c0,.19-.05.32-.13.4-.09.07-.24.11-.44.11h-8.71v1.75h8.96c.55,0,.96-.16,1.25-.47.29-.31.43-.73.43-1.27,0-.32-.06-.66-.18-1.01l-1.2.18c.02.15.03.25.03.3Z"/><path class="cls-10" d="M1847.1,1035.14c0,.68.16,1.27.47,1.78.31.51.74.9,1.28,1.17s1.15.41,1.83.41h.78c.69,0,1.3-.14,1.83-.42.53-.28.95-.69,1.26-1.24.31-.54.46-1.18.46-1.93,0-.52-.09-1.02-.26-1.5-.17-.48-.38-.9-.64-1.24l-1.04.62c.2.36.35.69.46,1,.11.31.16.64.16,1.01,0,.66-.17,1.15-.5,1.48-.33.33-.86.5-1.58.51v-4.85c-.3-.04-.59-.06-.85-.06-1.19,0-2.09.28-2.72.85-.63.57-.94,1.37-.94,2.4ZM1850.47,1033.46v3.33c-.69-.02-1.21-.17-1.56-.45-.35-.28-.52-.68-.52-1.22s.17-.96.52-1.25c.34-.28.84-.42,1.49-.42h.07Z"/><path class="cls-10" d="M1847.54,1024.83c-.29.43-.44.93-.44,1.5,0,.8.26,1.45.78,1.95h-3.52v1.75h10.46v-1.37l-.64-.15c.55-.53.82-1.18.82-1.96,0-.57-.15-1.08-.46-1.56-.3-.47-.73-.84-1.28-1.11-.55-.27-1.16-.4-1.84-.4h-.76c-.71,0-1.34.12-1.88.35-.54.24-.95.57-1.24,1ZM1851.48,1025.23c.71,0,1.25.15,1.63.43.38.29.57.68.57,1.18,0,.57-.21,1.04-.62,1.44h-3.83c-.26-.19-.45-.42-.59-.69-.14-.27-.21-.57-.21-.9,0-.97.73-1.46,2.18-1.46h.88Z"/><path class="cls-10" d="M1847.1,1018.72c0,.68.16,1.27.47,1.78.31.51.74.9,1.28,1.17s1.15.41,1.83.41h.78c.69,0,1.3-.14,1.83-.42.53-.28.95-.69,1.26-1.24.31-.54.46-1.18.46-1.93,0-.52-.09-1.02-.26-1.5-.17-.48-.38-.9-.64-1.24l-1.04.62c.2.36.35.69.46,1,.11.31.16.64.16,1.01,0,.66-.17,1.15-.5,1.48-.33.33-.86.5-1.58.51v-4.85c-.3-.04-.59-.06-.85-.06-1.19,0-2.09.28-2.72.85-.63.57-.94,1.37-.94,2.4ZM1850.47,1017.04v3.33c-.69-.02-1.21-.17-1.56-.45-.35-.28-.52-.68-.52-1.22s.17-.96.52-1.25c.34-.28.84-.42,1.49-.42h.07Z"/><path class="cls-10" d="M1847.46,1011.21c.22.36.56.65,1.03.86l-1.19.28v1.27h7.52v-1.75h-4.49c-.53-.2-.9-.46-1.13-.8s-.34-.73-.34-1.18c0-.16.02-.31.04-.45l-1.62-.31c-.1.28-.14.58-.14.9,0,.42.11.82.33,1.18Z"/><path class="cls-10" d="M1847.46,1005.33c.22.36.56.65,1.03.86l-1.19.28v1.27h7.52v-1.75h-4.49c-.53-.2-.9-.46-1.13-.8s-.34-.73-.34-1.18c0-.16.02-.31.04-.45l-1.62-.31c-.1.28-.14.58-.14.9,0,.42.11.82.33,1.18Z"/><path class="cls-10" d="M1853.52,998.86l-6.22,1.78v1.81l7.52-2.42v-.76l.82.24c.34.09.58.23.73.43.15.2.22.47.22.81,0,.25-.03.51-.09.79l1.15.24c.05-.13.1-.3.13-.5.03-.2.05-.41.05-.61,0-.67-.16-1.22-.47-1.64-.31-.42-.86-.75-1.62-.98l-8.44-2.56v1.74l6.22,1.63Z"/><polygon class="cls-10" points="1853.35 987.13 1847.3 988.49 1847.3 990.44 1853.35 991.78 1847.3 992.9 1847.3 994.65 1854.82 992.96 1854.82 990.84 1848.82 989.49 1854.82 988.18 1854.82 986.02 1847.3 984.35 1847.3 986.07 1853.35 987.13"/><path class="cls-10" d="M1847.1,980.02c0,1.06.26,2.02.79,2.88l1.09-.54c-.19-.38-.33-.74-.42-1.08-.09-.34-.14-.71-.14-1.11,0-.45.1-.79.3-1.01.2-.22.52-.33.97-.33h.51v1.38c0,.97.2,1.73.59,2.29s.92.83,1.58.83h.5c.42,0,.8-.11,1.12-.34s.58-.53.75-.91c.18-.38.26-.8.26-1.25,0-.88-.3-1.62-.91-2.23l.72-.14v-1.37h-5.07c-.83,0-1.48.25-1.94.74-.47.49-.7,1.22-.7,2.19ZM1852.96,978.84c.25.22.43.47.55.75.12.29.18.59.18.91,0,.37-.09.64-.26.83-.18.18-.41.27-.71.27h-.28c-.76,0-1.14-.52-1.14-1.56v-1.21h1.67Z"/><path class="cls-10" d="M1853.52,972.28l-6.22,1.78v1.81l7.52-2.42v-.76l.82.24c.34.09.58.23.73.43.15.2.22.47.22.81,0,.25-.03.51-.09.79l1.15.24c.05-.13.1-.3.13-.5.03-.2.05-.41.05-.61,0-.67-.16-1.22-.47-1.64-.31-.42-.86-.75-1.62-.98l-8.44-2.56v1.74l6.22,1.63Z"/><path class="cls-10" d="M1852.77,966.97c0,.31.11.57.33.79.22.22.48.32.78.32s.58-.11.79-.32c.22-.22.33-.48.33-.79s-.11-.57-.33-.79c-.22-.21-.48-.32-.79-.32s-.57.11-.79.32c-.22.21-.33.47-.33.79Z"/><path class="cls-10" d="M1849,962.23c-.38-.31-.57-.74-.57-1.31,0-.33.05-.62.14-.86.1-.25.25-.49.45-.72l-.93-.83c-.34.35-.59.73-.75,1.13-.16.4-.24.86-.24,1.36,0,1.09.33,1.94.98,2.54.65.6,1.54.9,2.65.9h.63c1.1,0,1.98-.3,2.64-.91.66-.61.99-1.45.99-2.51,0-.44-.08-.88-.25-1.32s-.38-.82-.64-1.14l-1.03.72c.2.28.35.55.45.81.1.26.15.54.15.85,0,.57-.19,1.01-.58,1.31-.38.3-.95.44-1.71.44h-.7c-.75,0-1.32-.15-1.7-.46Z"/><path class="cls-10" d="M1847.8,952.09c-.47.49-.7,1.22-.7,2.19,0,1.06.26,2.02.79,2.88l1.09-.54c-.19-.38-.33-.74-.42-1.08-.09-.34-.14-.71-.14-1.11,0-.45.1-.79.3-1.01.2-.22.52-.33.97-.33h.51v1.38c0,.97.2,1.73.59,2.29s.92.83,1.58.83h.5c.42,0,.8-.11,1.12-.34s.58-.53.75-.91c.18-.38.26-.8.26-1.25,0-.88-.3-1.62-.91-2.23l.72-.14v-1.37h-5.07c-.83,0-1.48.25-1.94.74ZM1852.96,953.09c.25.22.43.47.55.75.12.29.18.59.18.91,0,.37-.09.64-.26.83-.18.18-.41.27-.71.27h-.28c-.76,0-1.14-.52-1.14-1.56v-1.21h1.67Z"/><rect class="cls-3" x="1300.47" y="824.6" width="590.89" height="380.57"/><rect class="cls-9" x="1628.16" y="1003.84" width="7.21" height="7.21"/><polygon class="cls-9" points="1642.57 1032.67 1649.78 1032.67 1656.99 1032.67 1656.99 1025.46 1649.78 1025.46 1642.57 1025.46 1635.37 1025.46 1635.37 1032.67 1642.57 1032.67"/><rect class="cls-9" x="1635.37" y="1011.05" width="7.21" height="7.21"/><polygon class="cls-9" points="1649.78 1039.88 1642.57 1039.88 1642.57 1047.09 1649.78 1047.09 1656.99 1047.09 1656.99 1039.88 1649.78 1039.88"/><polygon class="cls-9" points="1649.78 996.63 1649.78 989.42 1642.57 989.42 1642.57 982.21 1635.37 982.21 1628.16 982.21 1620.95 982.21 1613.74 982.21 1613.74 989.42 1613.74 996.63 1613.74 1003.84 1613.74 1011.05 1613.74 1018.25 1613.74 1025.46 1620.95 1025.46 1620.95 1032.67 1613.74 1032.67 1606.53 1032.67 1606.53 1039.88 1613.74 1039.88 1613.74 1047.09 1620.95 1047.09 1620.95 1039.88 1628.16 1039.88 1628.16 1047.09 1635.37 1047.09 1635.37 1039.88 1635.37 1032.67 1628.16 1032.67 1628.16 1025.46 1635.37 1025.46 1635.37 1018.25 1628.16 1018.25 1620.95 1018.25 1620.95 1011.05 1620.95 1003.84 1628.16 1003.84 1628.16 996.63 1620.95 996.63 1620.95 989.42 1628.16 989.42 1628.16 996.63 1635.37 996.63 1642.57 996.63 1642.57 1003.84 1642.57 1011.05 1649.78 1011.05 1649.78 1003.84 1656.99 1003.84 1656.99 1011.05 1649.78 1011.05 1649.78 1018.25 1656.99 1018.25 1664.2 1018.25 1671.41 1018.25 1671.41 1011.05 1664.2 1011.05 1664.2 1003.84 1664.2 996.63 1656.99 996.63 1649.78 996.63"/><polygon class="cls-9" points="1664.2 989.42 1664.2 982.21 1656.99 982.21 1649.78 982.21 1649.78 989.42 1656.99 989.42 1664.2 989.42"/><rect class="cls-9" x="1664.2" y="989.42" width="7.21" height="7.21"/><rect class="cls-9" x="1664.2" y="975" width="7.21" height="7.21"/><rect class="cls-9" x="1664.2" y="960.59" width="7.21" height="7.21"/><rect class="cls-9" x="1664.2" y="946.17" width="7.21" height="7.21"/><rect class="cls-9" x="1664.2" y="931.75" width="7.21" height="7.21"/><rect class="cls-9" x="1671.41" y="924.55" width="7.21" height="7.21"/><polygon class="cls-9" points="1685.82 960.59 1685.82 953.38 1678.62 953.38 1671.41 953.38 1671.41 960.59 1678.62 960.59 1685.82 960.59"/><rect class="cls-9" x="1678.62" y="938.96" width="7.21" height="7.21"/><rect class="cls-9" x="1693.03" y="1054.3" width="7.21" height="7.21"/><polygon class="cls-9" points="1693.03 938.96 1700.24 938.96 1700.24 931.75 1707.45 931.75 1707.45 924.55 1700.24 924.55 1693.03 924.55 1693.03 931.75 1693.03 938.96"/><rect class="cls-9" x="1700.24" y="1025.46" width="7.21" height="7.21"/><rect class="cls-9" x="1707.45" y="938.96" width="7.21" height="7.21"/><path class="cls-9" d="M1714.66,1047.09v-14.42h-7.21v7.21h-7.21v-7.21h-7.21v-7.21h7.21v-7.21h21.63v-7.21h-7.21v-21.63h-7.21v-7.21h7.21v-14.42h-7.21v-7.21h7.21v-7.21h-14.42v-7.21h-7.21v14.42h-7.21v7.21h7.21v7.21h-7.21v-7.21h-14.42v7.21h7.21v7.21h7.21v7.21h7.21v7.21h-7.21v-7.21h-7.21v7.21h-7.21v7.21h7.21v21.62h7.21v7.21h-14.42v-7.21h-7.21v36.04h7.21v-14.42h36.04v21.62h-14.42v-7.21h-7.21v-7.21h-7.21v7.21h-7.21v7.21h7.21v7.21h-7.21v-7.21h-7.21v36.04h64.88v-7.21h-28.83v-7.21h-7.21v7.21h-7.21v-7.21h-7.21v7.21h-7.21v-14.42h14.42v-7.21h14.42v7.21h7.21v7.21h14.42v-14.42h-7.21v-7.21h14.42v-21.62h-14.42ZM1707.45,1011.05h-7.21v-7.21h7.21v7.21ZM1685.82,1011.05v-7.21h7.21v14.42h-7.21v-7.21ZM1721.87,1061.5h-7.21v-7.21h7.21v7.21Z"/><polygon class="cls-9" points="1714.66 938.96 1721.87 938.96 1721.87 931.75 1729.07 931.75 1736.28 931.75 1736.28 938.96 1736.28 946.17 1743.49 946.17 1743.49 938.96 1743.49 931.75 1743.49 924.55 1736.28 924.55 1729.07 924.55 1721.87 924.55 1714.66 924.55 1714.66 931.75 1714.66 938.96"/><rect class="cls-9" x="1736.28" y="967.8" width="7.21" height="7.21"/><path class="cls-9" d="M1736.28,953.38h-7.21v-7.21h-7.21v36.04h-7.21v7.21h7.21v7.21h7.21v7.21h7.21v7.21h-7.21v7.21h14.42v-7.21h7.21v-14.42h-7.21v-7.21h14.42v14.42h7.21v-21.63h-7.21v-7.21h7.21v-7.21h7.21v-7.21h7.21v-7.21h7.21v-28.83h-7.21v7.21h-7.21v7.21h-7.21v7.21h7.21v7.21h-7.21v-7.21h-21.63v7.21h-7.21ZM1750.7,960.59v21.62h-21.62v-21.62h21.62Z"/><polygon class="cls-9" points="1765.12 975 1765.12 982.21 1772.32 982.21 1772.32 989.42 1779.53 989.42 1779.53 996.63 1779.53 1003.84 1772.32 1003.84 1765.12 1003.84 1765.12 1011.05 1757.91 1011.05 1757.91 1018.25 1757.91 1025.46 1757.91 1032.67 1750.7 1032.67 1750.7 1025.46 1750.7 1018.25 1743.49 1018.25 1743.49 1025.46 1743.49 1032.67 1736.28 1032.67 1736.28 1039.88 1729.07 1039.88 1729.07 1047.09 1736.28 1047.09 1743.49 1047.09 1743.49 1039.88 1750.7 1039.88 1750.7 1047.09 1757.91 1047.09 1765.12 1047.09 1772.32 1047.09 1779.53 1047.09 1786.74 1047.09 1786.74 1039.88 1779.53 1039.88 1779.53 1032.67 1772.32 1032.67 1772.32 1039.88 1765.12 1039.88 1765.12 1032.67 1772.32 1032.67 1772.32 1025.46 1765.12 1025.46 1765.12 1018.25 1772.32 1018.25 1772.32 1011.05 1779.53 1011.05 1779.53 1018.25 1786.74 1018.25 1786.74 1011.05 1786.74 1003.84 1786.74 996.63 1786.74 989.42 1786.74 982.21 1779.53 982.21 1779.53 975 1779.53 967.8 1772.32 967.8 1772.32 975 1765.12 975"/><polygon class="cls-9" points="1772.32 931.75 1772.32 924.55 1765.12 924.55 1757.91 924.55 1757.91 931.75 1757.91 938.96 1765.12 938.96 1765.12 931.75 1772.32 931.75"/><rect class="cls-9" x="1772.32" y="1018.25" width="7.21" height="7.21"/><path class="cls-9" d="M1656.99,1090.27v-36.04h-50.46v50.46h50.46v-14.42ZM1642.57,1097.47h-28.83v-36.04h36.04v36.04h-7.21Z"/><polygon class="cls-9" points="1642.57 1075.92 1642.57 1075.92 1642.57 1068.71 1635.37 1068.71 1628.16 1068.71 1620.95 1068.71 1620.95 1075.92 1620.95 1075.92 1620.95 1083.13 1620.95 1090.34 1628.16 1090.34 1635.37 1090.34 1642.57 1090.34 1642.57 1083.13 1642.57 1075.92"/><path class="cls-9" d="M1606.53,931.68v14.42h0v28.83h50.46v-28.83h0v-21.63h-50.46v7.21ZM1620.95,931.68h28.83v14.42h0v21.62h-36.04v-21.62h0v-14.42h7.21Z"/><polygon class="cls-9" points="1620.95 946.17 1620.95 953.38 1620.95 960.59 1628.16 960.59 1635.37 960.59 1642.57 960.59 1642.57 953.38 1642.57 946.17 1642.57 946.17 1642.57 938.96 1635.37 938.96 1628.16 938.96 1620.95 938.96 1620.95 946.17 1620.95 946.17"/><path class="cls-9" d="M1736.28,1068.64v36.04h50.46v-50.46h-50.46v14.42ZM1750.7,1061.43h28.83v36.04h-36.04v-36.04h7.21Z"/><polygon class="cls-9" points="1750.7 1075.92 1750.7 1083.13 1750.7 1090.34 1757.91 1090.34 1765.12 1090.34 1772.32 1090.34 1772.32 1083.13 1772.32 1075.92 1772.32 1075.92 1772.32 1068.71 1765.12 1068.71 1757.91 1068.71 1750.7 1068.71 1750.7 1075.92 1750.7 1075.92"/><rect class="cls-14" x="137.51" y="718.67" width="378.44" height="592.43" rx="18.41" ry="18.41" transform="translate(-688.16 1341.61) rotate(-90)"/><path class="cls-5" d="M244.45,1168.63c74.01,0,134-70.95,134-158.47s-60-158.47-134-158.47c-74.01,0-134,70.95-134,158.47,0,87.52,60,158.47,134,158.47Z"/><path class="cls-8" d="M173.92,1166.26c74.01,0,134-70.95,134-158.47,0-87.52-60-158.47-134-158.47-74.01,0-134,70.95-134,158.47,0,87.52,60,158.47,134,158.47Z"/><path class="cls-13" d="M64.39,883.96c0,10.7,8.65,19.41,19.29,19.41s19.29-8.71,19.29-19.41-8.65-19.41-19.29-19.41-19.29,8.71-19.29,19.41M104.66,883.96c0,11.64-9.41,21.11-20.98,21.11s-20.98-9.47-20.98-21.11,9.41-21.11,20.98-21.11,20.98,9.47,20.98,21.11"/><path class="cls-13" d="M83.98,875.08c5.56.15,10.14,2.47,13.5,7.14.16.23.33.46.45.71.29.61.22,1.18-.36,1.57-.61.42-1.18.28-1.64-.29-.52-.66-.98-1.37-1.54-1.99-6.27-6.88-17.03-6.14-22.34,1.52-.09.13-.17.26-.26.39-.45.62-1.03.82-1.69.38-.65-.44-.68-1.07-.28-1.72.23-.37.47-.74.74-1.08,3.38-4.32,7.82-6.5,13.42-6.62"/><path class="cls-13" d="M83.83,880.53c4.25.12,7.65,1.86,10.11,5.37.58.83.54,1.52-.07,1.98-.61.45-1.27.25-1.86-.57-4.17-5.83-12.11-5.84-16.33-.01-.61.84-1.23,1.04-1.86.59-.62-.45-.67-1.13-.09-1.97,2.45-3.53,5.85-5.26,10.09-5.39"/><path class="cls-13" d="M83.87,886.13c2.64.13,4.62,1.18,6.09,3.19.55.75.52,1.47-.05,1.91-.62.48-1.28.3-1.88-.49-2.25-2.95-6.12-2.94-8.41.01-.59.77-1.19.94-1.81.52-.63-.43-.69-1.16-.09-1.97,1.57-2.13,3.69-3.16,6.15-3.17"/><path class="cls-13" d="M339.89,1018.72c0-67.25-54.18-121.76-121.02-121.76s-121.02,54.51-121.02,121.76,54.18,121.76,121.02,121.76,121.02-54.51,121.02-121.76"/><path class="cls-12" d="M163.6,1016.66c0-12.75,4.5-24.27,11.86-33.32l-26.17-26.33c-13.9,16.04-22.49,36.61-22.49,59.64,0,35.76,20.36,66.5,50.1,81.22l23.15-30.45c-21.2-7.02-36.45-27.03-36.45-50.76"/><path class="cls-6" d="M216.75,1070.14c-5.84,0-11.44-.97-16.7-2.71l-23.15,30.45c12,5.94,25.51,9.28,39.85,9.28s27.83-3.34,39.82-9.27c0,0,.02,0,.03-.01l-23.15-30.45s-.05.02-.07.03c-5.23,1.72-10.81,2.69-16.62,2.69"/><path class="cls-2" d="M200.4,1016.66h34.75v-48.54c11.85,2.43,20.96,9.03,26.89,18.48l22.25-28.91c-15.35-16.61-38.21-27.42-67.53-27.42-5.32,0-11.04.82-16.36,2.06v84.33Z"/><path class="cls-7" d="M269.9,1016.66c0,23.74-15.25,43.74-36.45,50.76l23.15,30.45c29.75-14.72,50.1-45.46,50.1-81.22,0-22.07-7.8-43.15-22.42-58.97l-22.25,28.91c5.11,8.16,7.87,18.43,7.87,30.06"/><path class="cls-13" d="M415.71,1087.66c-.9-.65-2.03-.98-3.37-.98-1.97,0-3.47.63-4.51,1.9-1.04,1.27-1.56,3.06-1.56,5.39v7.1h20.06v-3.51h-7.71v-3.91l7.71-4.05v-3.76h-.18l-8.35,4.53c-.49-1.16-1.18-2.07-2.09-2.72ZM415.81,1093.95v3.6h-6.72v-3.7c.02-1.22.32-2.14.91-2.75s1.42-.92,2.49-.92,1.84.33,2.43,1,.89,1.59.89,2.77Z"/><path class="cls-13" d="M411.15,1077.46c0,1.28.33,2.45.98,3.49s1.56,1.85,2.73,2.43,2.5.87,3.99.87h.41c2.22,0,4-.66,5.34-1.99s2-3.06,2-5.19c0-1.25-.25-2.37-.74-3.37s-1.18-1.8-2.07-2.4l-1.72,1.82c1.24.97,1.86,2.23,1.86,3.77,0,1.1-.36,2.01-1.07,2.74s-1.69,1.14-2.92,1.24v-9.8h-1.35c-2.37,0-4.2.56-5.5,1.67s-1.94,2.69-1.94,4.73ZM417.49,1074.39v6.42c-1.15-.16-2.04-.52-2.69-1.09s-.96-1.31-.96-2.24.29-1.66.86-2.19,1.42-.83,2.54-.9h.25Z"/><polygon class="cls-13" points="422.09 1063.33 411.43 1066.55 411.43 1070.04 426.33 1064.8 426.33 1061.88 411.43 1056.68 411.43 1060.16 422.09 1063.33"/><rect class="cls-13" x="411.43" y="1051" width="14.9" height="3.37"/><path class="cls-13" d="M405.77,1052.67c0,.61.17,1.08.51,1.4s.77.49,1.28.49.93-.17,1.26-.49.5-.79.5-1.4-.17-1.08-.5-1.41-.76-.5-1.26-.5-.94.17-1.28.5-.51.8-.51,1.41Z"/><path class="cls-13" d="M411.15,1041.12c0,1.28.33,2.45.98,3.49s1.56,1.85,2.73,2.43,2.5.87,3.99.87h.41c2.22,0,4-.67,5.34-1.99,1.34-1.33,2-3.05,2-5.19,0-1.25-.25-2.37-.74-3.38s-1.18-1.8-2.07-2.4l-1.72,1.82c1.24.97,1.86,2.23,1.86,3.77,0,1.1-.36,2.01-1.07,2.73s-1.69,1.14-2.92,1.24v-9.8h-1.35c-2.37,0-4.2.55-5.5,1.67s-1.94,2.69-1.94,4.74ZM417.49,1038.04v6.42c-1.15-.16-2.04-.52-2.69-1.09s-.96-1.31-.96-2.24.29-1.66.86-2.19,1.42-.83,2.54-.9h.25Z"/><polygon class="cls-13" points="421.72 1018.93 411.43 1022.05 411.43 1024.58 421.61 1027.66 411.43 1030.08 411.43 1033.37 426.33 1029.27 426.33 1026.49 416.1 1023.33 426.33 1020.12 426.33 1017.35 411.43 1013.26 411.43 1016.54 421.72 1018.93"/><path class="cls-13" d="M422.13,994.97c1.17.57,1.75,1.68,1.75,3.31s-.95,2.37-2.84,2.37h-9.61v3.37h9.66c1.79,0,3.16-.42,4.1-1.25s1.42-2.07,1.42-3.69c0-1.82-.58-3.22-1.74-4.21l1.46-.08v-3.17h-14.9v3.37h10.7Z"/><path class="cls-13" d="M418.62,978.67c-.4.75-.74,1.79-1.03,3.11s-.58,2.2-.86,2.63-.68.65-1.2.65c-.57,0-1.02-.23-1.36-.7s-.51-1.07-.51-1.81c0-.79.21-1.43.64-1.91s.96-.72,1.6-.72v-3.37c-1.41,0-2.55.55-3.43,1.66s-1.32,2.55-1.32,4.34c0,1.68.43,3.07,1.29,4.16s1.94,1.64,3.22,1.64c1.53,0,2.7-.84,3.51-2.52.37-.77.67-1.72.91-2.87s.51-1.97.83-2.46.77-.74,1.36-.74c.54,0,.98.23,1.32.69s.5,1.14.5,2.02-.21,1.65-.64,2.2-1.04.85-1.83.9v3.27c.89,0,1.72-.27,2.49-.8s1.38-1.28,1.82-2.25.66-2.06.66-3.28c0-1.81-.42-3.28-1.25-4.39s-1.92-1.68-3.26-1.68c-.8,0-1.48.18-2.04.55s-1.04.92-1.44,1.68Z"/><path class="cls-13" d="M413.09,955.2c-1.29,1.26-1.94,2.9-1.94,4.93,0,1.37.31,2.58.94,3.63s1.53,1.87,2.7,2.45,2.49.87,3.95.87h.17c2.33,0,4.2-.64,5.6-1.91s2.1-2.96,2.1-5.08c0-1.39-.32-2.61-.95-3.67s-1.53-1.87-2.69-2.44-2.47-.85-3.94-.85h-.79c-2.14.12-3.86.8-5.15,2.06ZM422.61,957.44c.88.63,1.32,1.52,1.32,2.65s-.43,2.02-1.3,2.66-2.07.96-3.6.96c-1.73,0-3.02-.32-3.89-.97s-1.3-1.52-1.3-2.62.44-2,1.32-2.65,2.08-.98,3.58-.98c1.7,0,2.99.32,3.87.95Z"/><path class="cls-13" d="M411.15,942.7c0,1.8.67,3.26,2,4.37l-1.72.1v3.17h14.9v-3.37h-10.61c-1.22-.67-1.83-1.68-1.83-3.04,0-.93.23-1.61.68-2.02s1.15-.62,2.1-.62h9.66v-3.37h-9.85c-3.55.06-5.33,1.64-5.33,4.77Z"/><path class="cls-13" d="M464.61,1094.87v34.96h10.31v-24.8c14.43,1.23,20.63,13.33,20.63,24.75.07,15.05-12.01,27.31-26.97,27.38-.16,0-.32,0-.48,0-15.61,0-27.63-12.16-27.63-27.41,0-11.76,7.45-18.69,7.45-18.69l-7.48-7.26s-10.32,9.33-10.32,26.33c0,21.66,18.17,38.41,37.79,38.41s37.98-15.76,37.98-38.96c0-20.4-13.9-35.34-34.44-35.34-4.34,0-6.84.63-6.84.63h0Z"/><path class="cls-13" d="M466.71,1066.08c0-7.05,5.67-13.74,14.8-13.74s14.77,6.66,14.77,13.77c0,7.82-6.22,13.96-14.84,13.96s-14.73-6.09-14.73-14.02v.02ZM457.14,1066.22c0,14.35,11.15,24.63,24.15,24.63s24.55-9.97,24.55-24.8c0-13.42-10.2-24.41-24.27-24.41-16.1,0-24.43,12.79-24.43,24.58h0Z"/><path class="cls-13" d="M466.71,1012.52c0-7.05,5.67-13.74,14.8-13.74s14.77,6.66,14.77,13.77c0,7.82-6.22,13.96-14.84,13.96s-14.73-6.09-14.73-14.02v.02ZM457.14,1012.66c0,14.35,11.15,24.63,24.15,24.63s24.55-9.97,24.55-24.8c0-13.42-10.2-24.41-24.27-24.41-16.1,0-24.43,12.79-24.43,24.58h0Z"/><path class="cls-13" d="M466.72,959.17c0-6.46,5.48-13.09,14.84-13.09s14.75,6.62,14.75,13.23c0,7.02-5.66,13.55-14.66,13.55s-14.93-6.79-14.93-13.69h0ZM457.17,960.12c0,13.17,11.46,23.52,24.33,23.52,14.66,0,24.37-12,24.37-23.29,0-6.98-2.76-10.7-5.92-13.4h4.8c8.4,0,13.43,5.13,13.43,12.88s-5.53,11.24-8.67,12.57l3.89,9.42c7.02-3.34,14.34-10.06,14.34-22.06,0-13.12-8.2-23.07-25.39-23.07h-43.73v10.23h4.13c-3.39,3.16-5.59,7.48-5.59,13.21h0Z"/><path class="cls-13" d="M466.48,890.52c0-4.48,2.37-7.7,5.2-9.06l9.11,21.94c-7.06.95-14.31-5.78-14.31-12.85v-.03ZM457.11,890.95c0,12.42,9.83,22.85,24.32,22.85,15.34,0,24.43-11.63,24.43-24.01,0-10.37-5.64-16.76-10.69-20.53l-5.6,8.47c3.39,2.2,6.7,5.87,6.7,12,0,6.89-3.75,10.05-7.38,12.02l-13.55-32.85-3.97,1.68c-7.77,3.17-14.27,10.57-14.27,20.37h0Z"/><rect class="cls-13" x="432.65" y="918.69" width="71.77" height="10.79"/><polygon class="cls-6" points="550.08 1088.08 549.2 1097.15 549.05 1098.71 538.84 1102.95 549.05 1107.18 550.1 1117.82 557.44 1109.8 563.49 1111.1 563.49 1111.1 568.29 1112.13 562.62 1102.94 568.28 1093.75 557.43 1096.1 550.08 1088.08"/><polygon class="cls-6" points="550.08 1045.96 549.2 1055.03 549.05 1056.6 538.84 1060.84 549.05 1065.07 550.1 1075.71 557.44 1067.68 563.49 1068.98 563.49 1068.98 568.29 1070.02 562.62 1060.83 568.28 1051.64 557.43 1053.98 550.08 1045.96"/><polygon class="cls-6" points="550.08 1003.85 549.2 1012.92 549.05 1014.48 538.84 1018.72 549.05 1022.95 550.1 1033.59 557.44 1025.57 563.49 1026.87 563.49 1026.87 568.29 1027.9 562.62 1018.71 568.28 1009.52 557.43 1011.87 550.08 1003.85"/><polygon class="cls-6" points="550.08 961.73 549.2 970.8 549.05 972.37 538.84 976.61 549.05 980.84 550.1 991.48 557.44 983.45 563.49 984.75 563.49 984.75 568.29 985.79 562.62 976.6 568.28 967.41 557.43 969.75 550.08 961.73"/><polygon class="cls-6" points="550.08 919.62 549.2 928.69 549.05 930.25 538.84 934.49 549.05 938.72 550.1 949.36 557.44 941.34 563.49 942.64 563.49 942.64 568.29 943.67 562.62 934.48 568.28 925.29 557.43 927.64 550.08 919.62"/><path class="cls-13" d="M363.81,863.07l-.59.52c-.72.64-1.47,1.3-2.2,1.96-.74.66-1.56,1.14-2.43,1.4-1.18.36-2.5.52-4.05.49-2.05-.05-3.6.08-5.04.41l-.07.02c-.71.16-1.46.33-2.17.57h-.02c-.93.32-1.89.64-2.78,1.08-.97.48-1.92,1.04-2.83,1.58-.24.14-.49.29-.73.43-1.21.7-2.1,1.68-2.68,2.91-.42.9-.74,1.64-1.03,2.32-.09.22-.21.31-.47.36-6.42,1.18-12.22,2.24-17.73,3.27-.38.07-.72.2-.99.37-1.02.63-1.48,1.72-1.27,2.97,1.05,6.28,2.13,12.78,3.22,19.23.07.4.21.8.41,1.11.64,1.02,1.57,1.43,2.77,1.21,1.5-.28,3.01-.56,4.51-.83l2.26-.42.11-.02c.05,0,.1-.02.15-.03.04,0,.05,0,.06,0,0,0,0,.03,0,.08-.01.1-.03.2-.04.29-.01.11-.03.22-.05.33-.19,1.2-.01,2.06.56,2.81.43.56,1.09.92,1.81,1,.71.07,1.41-.16,1.92-.62.55-.49.91-1.13,1.27-1.74.08-.13.15-.26.22-.39.46-.78.88-1.61,1.28-2.41.08-.15.15-.31.23-.46.09-.19.2-.27.41-.3.66-.11,1.32-.24,1.97-.36.55-.1,1.11-.21,1.66-.3.25-.05.41-.17.51-.42.18-.44.39-.88.6-1.3.35-.7.69-1.33,1.22-1.81.32-.28.74-.42,1.15-.38.38.04.7.23.92.52.33.44.47.96.41,1.52-.14,1.44-.7,2.76-1.66,3.94-.27.33-.59.66-1.02.8-.71.22-1.36,0-1.97-.66-.36-.39-.54-.88-.67-1.27-.07-.22-.22-.4-.41-.5-.17-.09-.36-.1-.53-.04-.37.14-.59.6-.47.99.29.89.69,1.58,1.24,2.12,1.28,1.25,3.1,1.32,4.34.17.63-.59,1.15-1.25,1.55-1.97,0,0,0,.02-.01.03-.14.4.04.83.42,1,.18.08.37.15.56.2,1.13.3,2.04.09,2.76-.64.32-.32.6-.66.84-1,.91-1.32,1.36-2.61,1.4-3.92.01-.48.15-.86.42-1.19.11-.13.21-.26.31-.39.26-.32.52-.66.83-.93.22-.2.48-.27.75-.22.3.06.58.28.75.6.19.35.14.74.07,1.07-.3,1.49-.94,2.8-1.91,3.9-.24.28-.54.41-.91.4-.13,0-.27-.03-.41-.07-.05-.01-.1-.02-.16-.04-.4-.09-.77.13-.88.52-.11.39.08.81.45.94,1.03.39,2.1.19,2.79-.52,1.07-1.1,1.85-2.5,2.31-4.16.05-.17.11-.23.27-.26,1.11-.2,2.11-.38,3.04-.56l.14-.03c.36-.07.73-.14,1.07-.27,1.14-.42,1.84-1.72,1.64-3.03-.08-.49-.16-.98-.24-1.46-.04-.23-.08-.46-.12-.68-.03-.18-.05-.3-.03-.35.02-.05.11-.11.26-.21h.01c.87-.59,1.69-1.32,2.42-2.18,1.35-1.58,2.31-3.51,2.86-5.72.12-.46.2-.94.28-1.4.05-.27.1-.55.15-.82.24-1.21.81-2.35,1.77-3.57.36-.45.75-.89,1.14-1.31.15-.16.29-.32.44-.48.18-.2.27-.4.26-.6,0-.08-.02-.17-.05-.25-.12-.33-.39-.52-.69-.48-.18.02-.39.13-.56.29-1.05,1-1.92,2.11-2.6,3.29-.57,1-.94,1.96-1.12,2.93-.21,1.12-.41,2.06-.69,2.97-.66,2.18-1.86,4-3.56,5.42-.15.13-.31.25-.48.38-.04.03-.08.06-.13.09,0-.04-.02-.07-.02-.09l-.51-3.07c-.41-2.47-.83-4.94-1.24-7.42-.02-.14-.01-.17.12-.19.58-.11,1.05-.21,1.49-.33.63-.16,1.14-.31,1.62-.46.2-.06.35-.2.44-.39.08-.18.09-.39.03-.59-.13-.38-.53-.57-.92-.46-1.67.5-3.05.8-4.34.94-1.46.16-2.96.11-4.47-.13-2-.32-3.9-.96-5.5-1.53-1.42-.51-2.92-.76-4.33-.97-.6-.09-1.11.14-1.46.65-.26.39-.58.84-.93,1.28-.85,1.06-1.92,2.21-3.48,2.7-.57.18-1.16.16-1.75-.06-.16-.06-.27-.15-.33-.27-.06-.12-.05-.29,0-.47.07-.18.14-.38.25-.53.83-1.18,1.55-2.54,2.25-4.27.31-.76.8-1.41,1.47-1.92.93-.71,1.99-1.37,3.35-2.07,1.79-.93,3.45-1.53,5.08-1.87l.24-.05c.7-.14,1.43-.3,2.14-.35.74-.05,1.49-.06,2.22-.06.41,0,.84,0,1.26-.02,1.8-.05,3.15-.3,4.36-.79.99-.4,1.73-.83,2.33-1.35.72-.62,1.42-1.28,2.1-1.92.25-.23.5-.47.75-.7.17-.16.27-.36.28-.57.01-.18-.05-.36-.18-.51-.28-.34-.71-.36-1.05-.06ZM335.72,902.97l-.07.13c-.11.2-.21.39-.32.58-.09.16-.17.32-.25.48-.19.36-.38.73-.61,1.06-.14.19-.25.39-.36.59-.21.38-.4.73-.74.97-.29.21-.7.25-1.08.09-.35-.14-.61-.43-.69-.76-.03-.14-.04-.29-.05-.44,0-.2.01-.4.02-.6v-.03c.02-.25.06-.51.1-.75.02-.15.05-.29.07-.44.01-.12.04-.15.14-.17.75-.14,1.51-.27,2.26-.41.52-.1,1.05-.19,1.57-.29h0ZM350.91,897.98c.29.42.37.95.26,1.65-.19,1.15-.68,2.19-1.5,3.2-.43.52-.94.7-1.57.55-.12-.03-.23-.07-.35-.11-.04-.02-.09-.03-.13-.05-.33-.12-.68,0-.86.27.47-.9.79-1.89.93-2.98.02-.12.02-.24.01-.36,0-.18,0-.36.06-.49.32-.75.73-1.34,1.23-1.79.33-.3.74-.44,1.12-.39.33.04.61.22.81.51ZM335.82,879.04c-.32.65-.41,1.19-.3,1.75.17.81.69,1.33,1.57,1.58,1.23.34,2.44.13,3.73-.63,1.12-.67,2.13-1.65,3.16-3.07l.05-.06c.16-.22.32-.44.47-.67.09-.14.2-.19.35-.15.36.08.71.15,1.07.23.84.17,1.7.35,2.54.58.79.22,1.6.48,2.37.73.57.19,1.17.38,1.76.55.55.16,1.12.26,1.67.36l.14.02,1.94.24h.01c.77.01,1.59.02,2.41-.03h.09c.22-.02.36-.03.41.01.05.04.08.22.12.46.21,1.25.42,2.5.63,3.75.57,3.44,1.16,6.99,1.77,10.48.08.44-.01.87-.25,1.19-.23.3-.57.49-.94.51-.41.03-.81.12-1.2.2-.1.02-.2.05-.3.07l-1.64.29h-.01c-.1.03-.12.02-.13.02,0,0-.03-.02-.04-.12-.2-1.2-.88-1.97-1.95-2.23-.84-.2-1.65.06-2.33.75-.25.26-.48.53-.73.82-.08.09-.16.19-.24.29-.01-.01-.03-.03-.04-.05-.1-.11-.22-.25-.35-.36-.98-.85-2.41-.85-3.39,0-.27.24-.51.52-.74.79-.1.12-.21.24-.32.36h0c-.09-.08-.18-.15-.26-.23-.26-.24-.51-.46-.79-.65-.53-.36-1.15-.45-1.95-.28-1.28.26-1.97,1.28-2.51,2.22-.24.42-.45.87-.66,1.3l-.11.24c-.07.15-.14.21-.28.23-5.7,1.05-10.69,1.97-15.25,2.81l-1.82.33c-.06,0-.12.02-.19.03-.26.04-.52.09-.78.1-.59.02-1.08-.4-1.18-1.02-.58-3.47-1.16-6.94-1.74-10.41l-.67-4.04c-.08-.46-.16-.92-.23-1.38-.2-1.17-.39-2.37-.6-3.56-.06-.32.03-.7.23-.99.18-.26.42-.42.69-.45.3-.04.6-.09.91-.17l15.94-2.94c-.04.07-.07.13-.1.19Z"/><path class="cls-13" d="M322.48,888.94l1.26,7.51c.06.38.41.63.77.57.32-.06.55-.36.55-.7,0-.04,0-.07-.01-.11l-1.26-7.51c-.06-.38-.41-.63-.76-.57-.36.07-.6.43-.54.81Z"/><path class="cls-13" d="M314,883.27c-.35-1.09-.24-2.17.3-3.02.53-.84,1.42-1.35,2.48-1.43.66-.05,1.03-.38,1.02-.93,0-.02,0-.04,0-.06-.04-.55-.46-.87-1.1-.84-1.59.08-2.84.81-3.84,2.24h0c-.88,1.42-1.05,3.02-.49,4.64.12.37.32.62.57.74.2.09.42.09.64,0,.34-.15.69-.5.43-1.34Z"/><path class="cls-13" d="M365.42,896.29c.35,1.09.24,2.17-.3,3.02-.53.84-1.42,1.35-2.48,1.43-.33.03-.59.12-.77.29-.18.17-.26.41-.25.7.04.55.46.87,1.1.83,1.59-.08,2.84-.81,3.84-2.24h0c.56-.9.83-1.87.81-2.88,0-.58-.12-1.17-.32-1.76-.12-.37-.32-.63-.57-.74-.2-.09-.42-.09-.64,0-.34.15-.69.5-.43,1.34Z"/><path class="cls-13" d="M370.23,952.36c.61,4.94-.47,9.86-3.04,13.86-3.01,4.68-7.92,8.11-14.59,10.21.92-1.54,2.17-3.47,3.27-4.63.35-.37.34-.95-.03-1.3-.37-.35-.95-.34-1.29.03-2.23,2.35-4.81,7.21-4.91,7.42-.12.23-.14.51-.05.75.09.24.28.44.52.53.03.01,3.23,1.27,7.21,3.06.16.07.32.09.48.07.31-.04.59-.23.72-.54.21-.46,0-1.01-.46-1.22-2.11-.95-4-1.75-5.33-2.29,7.29-2.22,12.67-5.95,15.98-11.09,2.81-4.36,3.99-9.71,3.32-15.08-.06-.5-.52-.86-1.02-.8-.5.06-.86.52-.79,1.03Z"/><path class="cls-13" d="M351.45,944.46c.21-.33.28-.63.22-.9-.03-.13-.11-.33-.22-.59s-.27-.57-.45-.93c1.99.06,3.66.14,5.02.25,1.36.11,2.41.08,3.15-.1.3-.08.58-.27.84-.6.26-.32.44-.73.54-1.22.1-.49.08-1-.05-1.54-.1-.4-.3-.82-.59-1.26-.3-.44-.64-.84-1.02-1.22-.39-.37-.77-.67-1.14-.87s-.68-.27-.93-.21c-.32.08-.44.27-.37.58.02.09.12.25.3.5.18.25.39.55.62.9.24.35.46.72.67,1.09.21.38.36.74.44,1.09.09.37-.02.6-.34.67-.08.02-.37.03-.85.01-.48-.01-1.07-.03-1.77-.05-.7-.02-1.42-.05-2.16-.07-.74-.03-1.42-.06-2.03-.08-.61-.02-1.06-.04-1.34-.04-.53-1.19-.95-2.07-1.28-2.63-.33-.56-.58-.92-.78-1.08-.19-.16-.33-.23-.41-.21-.45.11-.55.67-.3,1.68.07.29.17.61.3.98.13.37.27.79.42,1.28-.55,0-1.02,0-1.42.02s-.73.06-.99.13c-.42.11-.73.31-.94.61-.21.3-.35.6-.42.9-.07.29-.09.51-.05.64.08.34.37.44.88.32,1.07-.27,2.33-.43,3.8-.47.91,2.1,1.57,3.1,1.97,2.99.25-.06.48-.26.69-.59Z"/><path class="cls-13" d="M349.87,924.79c-.18.05-.38.2-.58.47-.39-.15-.76-.23-1.1-.24-.34-.02-.67.02-.99.1-.32.08-.62.24-.9.49-.29.25-.57.57-.87.97-.59.83-.8,1.62-.61,2.38.14.55.5,1.11,1.07,1.67.57.56,1.28,1.08,2.12,1.55.84.47,1.74.87,2.7,1.2.96.33,1.91.55,2.84.66.93.11,1.77.07,2.5-.12.47-.12.89-.41,1.27-.88.38-.47.66-1.01.84-1.62.18-.61.2-1.16.08-1.67-.32-1.28-1.6-2.43-3.87-3.46.2-.05.46-.13.76-.26.31-.12.61-.26.91-.42.3-.15.53-.33.71-.53.17-.19.23-.39.19-.59-.06-.25-.31-.35-.74-.3-1.51.16-2.78.26-3.83.3-1.05.04-1.88.14-2.5.29ZM349.53,926.99c1.08,0,2.11.17,3.07.52.96.35,1.77.78,2.41,1.29.64.51,1.03,1.03,1.16,1.57.08.32.06.62-.06.9-.12.28-.32.46-.6.53-.44.11-.99.12-1.67.04-.68-.08-1.4-.24-2.17-.47-.77-.24-1.5-.52-2.19-.84-.7-.33-1.28-.69-1.76-1.09-.48-.4-.77-.81-.88-1.23-.15-.62.55-1.13,2.1-1.52.14.22.34.32.58.31Z"/><path class="cls-13" d="M357.51,921.32c1.14,0,2.02,0,2.66-.02.64-.02,1.04-.05,1.21-.09.17-.04.36-.16.57-.34.21-.19.38-.39.52-.6.13-.21.19-.37.16-.47-.04-.17-.21-.28-.51-.35s-.77-.11-1.42-.13c-.56-.02-1.07-.03-1.56,0-.48.01-1.01.03-1.58.03s-1.26.02-2.07.02c0-.36-.04-.69-.11-.99-.18-.72-.53-1.44-1.05-2.15-.52-.71-1.16-1.37-1.91-1.97-.76-.61-1.57-1.13-2.43-1.57-.86-.43-1.73-.73-2.59-.89-.86-.16-1.67-.15-2.4.04-.4.1-.82.27-1.27.52-.45.25-.86.54-1.25.89-.39.35-.68.72-.88,1.12-.2.4-.25.81-.15,1.23.38,1.55,1.73,2.83,4.04,3.84-.3,0-.6.04-.9.12-.37.09-.68.28-.95.56-.27.28-.47.59-.61.92-.14.33-.18.6-.13.8.09.37.39.49.89.36,2.26-.57,6.84-.85,13.75-.87ZM351.61,919.36c-.96,0-1.89-.15-2.81-.41-.91-.26-1.73-.6-2.47-1-.74-.41-1.34-.83-1.8-1.26-.47-.44-.73-.82-.82-1.14-.16-.66.45-1.16,1.84-1.51.72-.18,1.5-.17,2.33.03.83.2,1.64.56,2.42,1.07.78.51,1.46,1.13,2.04,1.85s.97,1.51,1.18,2.37h-1.92Z"/><path class="cls-13" d="M371.01,935.25c-.5.13-.98.39-1.44.8-.46.41-.82.85-1.07,1.31-.26.47-.35.85-.28,1.13.04.17.13.36.25.58.13.22.37.47.75.75.37.28.93.6,1.66.95.74.35,1.72.75,2.96,1.19,1.24.44,2.81.92,4.72,1.45l.02.07c-1.41-.11-2.84-.18-4.28-.2-1.43-.03-2.8-.01-4.09.03-1.29.05-2.44.12-3.44.22-1,.1-1.77.21-2.32.35-.32.08-.62.25-.92.5-.29.25-.53.53-.71.83-.18.31-.25.57-.2.79.1.41.48.53,1.13.36.72-.18,1.62-.33,2.68-.46,1.07-.13,2.23-.22,3.47-.3s2.49-.12,3.74-.16c1.25-.04,2.43-.06,3.53-.07,1.1,0,2.03,0,2.8,0,.36,0,.65,0,.88,0,.23,0,.43-.03.62-.08.2-.05.4-.19.6-.41.2-.22.37-.46.49-.71.12-.26.17-.45.14-.59-.04-.17-.34-.36-.88-.59-.55-.23-1.24-.49-2.08-.77-.84-.28-1.74-.57-2.68-.88-.95-.31-1.85-.63-2.7-.96-.85-.33-1.57-.67-2.14-1-.57-.34-.9-.67-.98-.99-.06-.24-.02-.46.12-.66.14-.21.38-.35.73-.44.53-.13,1.19-.2,1.97-.18.78.01,1.57.05,2.39.12.82.07,1.57.12,2.26.15.69.03,1.24,0,1.64-.1.51-.13.71-.37.62-.74-.08-.3-.33-.55-.77-.75-.44-.19-.99-.35-1.65-.47-.66-.12-1.37-.21-2.13-.26-.76-.05-1.5-.07-2.23-.07-.73,0-1.38.03-1.94.07s-.97.1-1.23.16Z"/><path class="cls-13" d="M375.19,925.12c.03.1.16.34.4.71.24.38.51.83.8,1.37.29.54.51,1.1.67,1.71.21.84.2,1.48-.03,1.92-.23.44-.64.73-1.22.88-.57.14-1.25.19-2.04.14.03-1.03-.09-2.09-.36-3.18-.12-.5-.31-1.03-.57-1.59-.25-.55-.56-1.05-.93-1.49-.37-.44-.78-.78-1.25-1-.47-.22-.97-.27-1.53-.13-.43.11-.87.33-1.3.67-.43.34-.81.75-1.13,1.24-.32.48-.56.99-.7,1.52-.14.53-.16,1.04-.03,1.55.17.67.51,1.28,1.02,1.81s1.14,1,1.88,1.39c.74.39,1.52.71,2.35.94.83.23,1.65.36,2.46.4.81.04,1.55-.03,2.22-.19.79-.2,1.44-.56,1.97-1.09.52-.53.88-1.18,1.08-1.94.2-.75.18-1.57-.03-2.44-.12-.49-.32-.98-.6-1.47-.28-.49-.59-.94-.93-1.34-.34-.4-.68-.71-1.02-.93-.34-.22-.62-.3-.83-.24-.34.08-.45.34-.34.78ZM369.37,930.52c-.81-.51-1.29-1.08-1.45-1.7-.07-.27-.03-.58.12-.91.14-.34.36-.65.64-.92.28-.28.57-.45.87-.53.45-.11.9.12,1.33.68.44.57.76,1.29.97,2.15s.33,1.64.34,2.35c-1.07-.23-2.01-.61-2.82-1.12Z"/><path class="cls-13" d="M363.15,917.97c.33,1.31,1.77,2.43,4.34,3.34-.35.03-.73.1-1.15.21-.54.13-1.01.39-1.41.77-.4.38-.56.77-.46,1.17.05.18.17.3.38.35s.43.04.69-.02c.32-.08.67-.18,1.06-.31.38-.12.74-.22,1.06-.3,1.1-.28,2.09-.44,2.97-.5.87-.06,1.65-.07,2.32-.05.67.03,1.27.06,1.78.09.51.03.97,0,1.35-.1.25-.06.52-.22.82-.47.29-.25.4-.53.33-.83-.05-.18-.17-.34-.38-.46s-.49-.2-.85-.22c-1.81-.08-3.34-.19-4.59-.34-1.24-.14-2.27-.34-3.09-.59-.82-.25-1.49-.56-2.02-.93-.54-.36-1.01-.8-1.42-1.31-.29-.38-.54-.63-.77-.76-.23-.13-.44-.17-.64-.12-.4.1-.5.56-.3,1.39Z"/><path class="cls-13" d="M370.79,907.39c.02.1.16.34.4.71.24.38.51.83.8,1.37.29.54.51,1.1.67,1.71.21.84.2,1.48-.03,1.92-.23.44-.64.74-1.22.88-.57.14-1.25.19-2.04.14.03-1.03-.09-2.09-.36-3.18-.12-.5-.31-1.03-.57-1.59-.25-.55-.56-1.05-.93-1.5-.37-.44-.78-.78-1.25-1-.47-.22-.97-.27-1.53-.13-.43.11-.87.33-1.3.67-.43.34-.81.75-1.13,1.24-.32.49-.56.99-.7,1.52-.14.53-.16,1.04-.03,1.55.17.67.51,1.28,1.02,1.81.51.53,1.14,1,1.88,1.39.74.39,1.52.71,2.35.94.83.23,1.65.36,2.46.4.81.04,1.55-.03,2.22-.19.79-.2,1.44-.56,1.97-1.09.52-.53.88-1.18,1.08-1.94.2-.75.18-1.57-.03-2.44-.12-.49-.32-.98-.6-1.47-.28-.49-.59-.94-.93-1.34-.34-.4-.68-.71-1.02-.93-.34-.22-.62-.3-.83-.25-.34.09-.45.35-.34.79ZM364.98,912.79c-.81-.51-1.29-1.08-1.45-1.7-.07-.27-.03-.58.12-.91s.36-.65.64-.92c.28-.28.57-.45.87-.53.45-.11.9.12,1.33.69.44.57.76,1.28.97,2.14s.33,1.64.34,2.35c-1.07-.23-2.01-.61-2.82-1.12Z"/><rect class="cls-15" x="772.54" y="718.67" width="378.44" height="592.43" rx="18.41" ry="18.41" transform="translate(-53.13 1976.64) rotate(-90)"/><polygon class="cls-6" points="853.95 919.63 844.75 918.73 844.75 918.73 843.16 918.58 838.86 908.16 834.57 918.58 823.78 919.64 831.92 927.14 830.6 933.31 829.55 938.21 838.87 932.42 848.19 938.2 845.81 927.13 853.95 919.63"/><polygon class="cls-6" points="896.66 919.63 887.46 918.73 887.46 918.73 885.87 918.58 881.57 908.16 877.28 918.58 866.49 919.64 874.63 927.14 873.31 933.31 872.26 938.21 881.58 932.42 890.9 938.2 888.52 927.13 896.66 919.63"/><polygon class="cls-6" points="939.37 919.63 930.17 918.73 930.17 918.73 928.58 918.58 924.28 908.16 919.99 918.58 909.2 919.64 917.34 927.14 916.02 933.31 914.97 938.21 924.29 932.42 933.61 938.2 931.23 927.13 939.37 919.63"/><polygon class="cls-6" points="982.08 919.63 972.88 918.73 972.88 918.73 971.29 918.58 966.99 908.16 962.7 918.58 951.91 919.64 960.05 927.14 958.73 933.31 957.68 938.21 967 932.42 976.32 938.2 973.94 927.13 982.08 919.63"/><polygon class="cls-6" points="1024.78 919.63 1015.59 918.73 1015.59 918.73 1014 918.58 1009.7 908.16 1005.41 918.58 994.62 919.64 1002.76 927.14 1001.44 933.31 1000.39 938.21 1009.71 932.42 1019.03 938.2 1016.65 927.13 1024.78 919.63"/><path class="cls-13" d="M759.06,949.77c24,0,43.45-19.46,43.45-43.45s-19.46-43.45-43.45-43.45-43.45,19.46-43.45,43.45,19.46,43.45,43.45,43.45"/><path class="cls-12" d="M759.8,886.46c4.55,0,8.66,1.61,11.89,4.26l9.39-9.39c-5.72-4.99-13.06-8.07-21.29-8.07-12.76,0-23.73,7.31-28.99,17.99l10.87,8.31c2.51-7.61,9.64-13.09,18.12-13.09"/><path class="cls-6" d="M740.71,905.55c0-2.1.35-4.11.97-6l-10.87-8.31c-2.12,4.31-3.31,9.16-3.31,14.31s1.19,9.99,3.31,14.3c0,0,0,0,0,0l10.87-8.31s0-.02,0-.03c-.62-1.88-.96-3.88-.96-5.97"/><path class="cls-2" d="M759.8,899.68v12.48h17.32c-.87,4.25-3.23,7.52-6.6,9.65l10.32,7.99c5.93-5.51,9.79-13.72,9.79-24.25,0-1.91-.29-3.96-.73-5.87h-30.1Z"/><path class="cls-7" d="M759.8,924.63c-8.47,0-15.61-5.48-18.12-13.09l-10.87,8.31c5.25,10.68,16.22,17.99,28.99,17.99,7.88,0,15.4-2.8,21.04-8.05l-10.32-7.99c-2.91,1.84-6.58,2.82-10.73,2.82"/><g class="cls-17"><rect class="cls-11" x="827.39" y="966.65" width="172.5" height="185.76"/></g><path class="cls-10" d="M1056.89,1168.13c-.88,0-1.57.28-2.08.83v-3.55h-1.74v10.39h1.74v-5.39c.43-.64.97-.95,1.62-.95.79,0,1.18.44,1.18,1.32v5.03h1.74v-5.17c0-.79-.23-1.4-.69-1.84-.46-.44-1.05-.66-1.77-.66Z"/><path class="cls-10" d="M1065.95,1173.72c-.22.3-.47.53-.77.7s-.6.25-.91.25c-.35,0-.61-.09-.79-.27-.18-.18-.27-.44-.27-.78v-5.29h-1.74v5.38c0,.46.1.86.32,1.2.21.34.5.61.86.79.36.19.76.28,1.2.28.88,0,1.63-.34,2.25-1.01l.13.83h1.47v-7.47h-1.74v5.39Z"/><path class="cls-10" d="M1071.76,1170.02c.3-.38.74-.57,1.3-.57.33,0,.61.05.86.14.24.09.48.24.72.45l.83-.93c-.35-.34-.72-.58-1.12-.75-.4-.16-.85-.24-1.35-.24-1.09,0-1.93.33-2.53.98-.6.65-.9,1.53-.9,2.63v.63c0,1.09.3,1.97.91,2.63.6.66,1.43.98,2.49.98.44,0,.88-.08,1.31-.25.44-.16.81-.38,1.13-.64l-.72-1.02c-.28.2-.55.35-.8.45-.25.1-.53.15-.84.15-.57,0-1-.19-1.3-.58-.29-.38-.44-.95-.44-1.7v-.69c0-.75.15-1.31.46-1.69Z"/><polygon class="cls-10" points="1083.21 1168.33 1081.3 1168.33 1078.74 1171.21 1078.74 1165.41 1077 1165.41 1077 1175.8 1078.74 1175.8 1078.74 1173.12 1079.37 1172.4 1081.73 1175.8 1083.67 1175.8 1080.54 1171.35 1083.21 1168.33"/><path class="cls-10" d="M1086.9,1174.63c-.19,0-.32-.04-.39-.13-.08-.09-.11-.24-.11-.44v-8.65h-1.74v8.9c0,.54.15.96.46,1.24.31.29.73.43,1.26.43.32,0,.65-.06,1-.18l-.18-1.19c-.15.02-.25.03-.29.03Z"/><path class="cls-10" d="M1091.9,1168.13c-.67,0-1.26.15-1.77.46-.51.31-.89.73-1.17,1.27-.27.54-.41,1.14-.41,1.82v.77c0,.68.14,1.29.42,1.82.28.53.69.95,1.23,1.25.54.3,1.18.46,1.92.46.51,0,1.01-.08,1.5-.25.48-.17.89-.38,1.23-.63l-.62-1.04c-.36.2-.69.35-.99.46-.3.11-.64.16-1,.16-.66,0-1.15-.17-1.47-.5-.33-.33-.5-.85-.51-1.57h4.82c.04-.3.06-.58.06-.84,0-1.18-.28-2.08-.84-2.7-.56-.62-1.36-.93-2.39-.93ZM1093.57,1171.47h-3.31c.02-.68.17-1.2.44-1.54.28-.35.68-.52,1.21-.52s.96.17,1.24.51c.28.34.42.84.42,1.48v.07Z"/><path class="cls-10" d="M1102.14,1168.57c-.43-.29-.92-.44-1.5-.44-.8,0-1.44.26-1.94.77v-3.5h-1.74v10.39h1.36l.15-.63c.52.54,1.17.81,1.95.81.56,0,1.08-.15,1.54-.46.47-.3.84-.73,1.1-1.27.27-.54.4-1.15.4-1.83v-.76c0-.71-.12-1.33-.35-1.87-.23-.53-.56-.95-.99-1.24ZM1101.74,1172.49c0,.7-.14,1.24-.43,1.62-.29.38-.68.57-1.17.57-.56,0-1.04-.21-1.43-.62v-3.81c.19-.25.42-.45.69-.59.27-.14.57-.21.9-.21.96,0,1.45.72,1.45,2.16v.87Z"/><path class="cls-10" d="M1108.22,1168.13c-.67,0-1.26.15-1.77.46-.51.31-.89.73-1.17,1.27-.27.54-.41,1.14-.41,1.82v.77c0,.68.14,1.29.42,1.82.28.53.69.95,1.23,1.25.54.3,1.18.46,1.92.46.51,0,1.01-.08,1.5-.25.48-.17.89-.38,1.23-.63l-.62-1.04c-.36.2-.69.35-.99.46-.3.11-.64.16-1,.16-.66,0-1.15-.17-1.47-.5-.33-.33-.5-.85-.51-1.57h4.82c.04-.3.06-.58.06-.84,0-1.18-.28-2.08-.84-2.7-.56-.62-1.36-.93-2.39-.93ZM1109.89,1171.47h-3.31c.02-.68.17-1.2.44-1.54.28-.35.68-.52,1.21-.52s.96.17,1.24.51c.28.34.42.84.42,1.48v.07Z"/><path class="cls-10" d="M1115.68,1168.49c-.36.22-.64.56-.85,1.02l-.28-1.18h-1.26v7.47h1.74v-4.46c.2-.52.46-.9.79-1.12.33-.22.72-.34,1.17-.34.16,0,.31.01.45.04l.31-1.61c-.28-.09-.58-.14-.9-.14-.42,0-.81.11-1.17.33Z"/><path class="cls-10" d="M1121.52,1168.49c-.36.22-.64.56-.85,1.02l-.28-1.18h-1.26v7.47h1.74v-4.46c.2-.52.46-.9.79-1.12.33-.22.72-.34,1.17-.34.16,0,.31.01.45.04l.31-1.61c-.28-.09-.58-.14-.9-.14-.42,0-.81.11-1.17.33Z"/><path class="cls-10" d="M1127.95,1174.51l-1.77-6.18h-1.8l2.4,7.47h.76l-.24.81c-.08.34-.23.58-.43.72-.2.14-.47.22-.81.22-.24,0-.51-.03-.79-.08l-.24,1.14c.13.06.3.1.5.13.2.03.4.05.61.05.66,0,1.21-.16,1.63-.47s.74-.85.97-1.61l2.54-8.38h-1.73l-1.61,6.18Z"/><polygon class="cls-10" points="1139.6 1174.34 1138.25 1168.33 1136.32 1168.33 1134.98 1174.34 1133.87 1168.33 1132.13 1168.33 1133.82 1175.8 1135.92 1175.8 1137.26 1169.84 1138.56 1175.8 1140.71 1175.8 1142.37 1168.33 1140.65 1168.33 1139.6 1174.34"/><path class="cls-10" d="M1146.66,1168.13c-1.05,0-2,.26-2.86.79l.53,1.08c.37-.19.73-.33,1.07-.42s.71-.14,1.1-.14c.45,0,.78.1,1,.3.22.2.33.52.33.96v.51h-1.38c-.96,0-1.72.2-2.28.59-.55.39-.83.92-.83,1.57v.49c0,.42.11.79.34,1.12s.53.57.91.74c.38.17.79.26,1.24.26.87,0,1.61-.3,2.22-.9l.14.72h1.36v-5.04c0-.82-.24-1.47-.73-1.93-.49-.46-1.21-.7-2.18-.7ZM1147.84,1173.96c-.22.24-.47.43-.75.55-.29.12-.59.18-.91.18-.37,0-.64-.09-.82-.26-.18-.17-.27-.41-.27-.71v-.28c0-.76.51-1.14,1.54-1.14h1.21v1.66Z"/><path class="cls-10" d="M1154.36,1174.51l-1.77-6.18h-1.8l2.4,7.47h.76l-.24.81c-.08.34-.23.58-.43.72-.2.14-.47.22-.81.22-.24,0-.5-.03-.79-.08l-.24,1.14c.13.06.3.1.5.13.2.03.41.05.61.05.66,0,1.21-.16,1.63-.47.42-.31.74-.85.97-1.61l2.54-8.38h-1.73l-1.62,6.18Z"/><path class="cls-10" d="M1159.64,1173.76c-.31,0-.57.11-.79.33-.22.22-.32.48-.32.78s.11.57.32.79c.21.22.48.32.79.32s.57-.11.78-.32c.21-.21.32-.48.32-.79s-.11-.57-.32-.79c-.21-.21-.47-.32-.78-.32Z"/><path class="cls-10" d="M1164.35,1170.02c.3-.38.74-.57,1.3-.57.33,0,.61.05.86.14.24.09.48.24.72.45l.83-.93c-.35-.34-.72-.58-1.12-.75-.4-.16-.85-.24-1.35-.24-1.09,0-1.93.33-2.53.98-.6.65-.9,1.53-.9,2.63v.63c0,1.09.3,1.97.91,2.63s1.43.98,2.49.98c.44,0,.88-.08,1.31-.25.44-.16.81-.38,1.13-.64l-.72-1.02c-.28.2-.55.35-.8.45-.25.1-.53.15-.84.15-.57,0-1-.19-1.3-.58-.29-.38-.44-.95-.44-1.7v-.69c0-.75.15-1.31.46-1.69Z"/><path class="cls-10" d="M1174.43,1168.83c-.49-.46-1.21-.7-2.18-.7-1.05,0-2,.26-2.87.79l.53,1.08c.37-.19.73-.33,1.07-.42s.71-.14,1.1-.14c.45,0,.78.1,1,.3.22.2.33.52.33.96v.51h-1.38c-.96,0-1.72.2-2.27.59-.55.39-.83.92-.83,1.57v.49c0,.42.11.79.34,1.12.22.32.53.57.91.74s.79.26,1.24.26c.87,0,1.61-.3,2.22-.9l.14.72h1.36v-5.04c0-.82-.24-1.47-.73-1.93ZM1173.43,1173.96c-.22.24-.47.43-.75.55-.29.12-.59.18-.91.18-.37,0-.64-.09-.82-.26-.18-.17-.27-.41-.27-.71v-.28c0-.76.51-1.14,1.54-1.14h1.21v1.66Z"/><path class="cls-13" d="M900.02,1084.72c1.21.29,2.19.74,2.99,1.37.53.42.85.99.88,1.57.02.5-.17.98-.54,1.34-.55.54-1.31.8-2.39.82-1.75.02-3.44-.44-5.16-1.41-.88-.5-1.28-1.22-1.24-2.21,0-.18.04-.37.08-.56.01-.07.03-.14.04-.21.08-.52-.18-1.01-.63-1.22,1.46.48,3.02.68,4.69.62.18,0,.37-.04.55-.07.27-.05.53-.1.75-.04M922.92,1064.24c-.19,1.93.44,3.7,1.93,5.41,1.3,1.5,3.01,2.75,5.39,3.92l.11.05c.37.18.74.37,1.12.53.23.1.33.24.32.48-.02.55-.04,1.11-.05,1.67-.04,1.3-.07,2.64-.19,3.96-.11,1.25-.29,2.51-.45,3.73-.13.91-.26,1.85-.36,2.78-.1.86-.09,1.74-.09,2.59v.21l.16,2.97v.02c.19,1.15.4,2.38.68,3.59l.03.14c.08.32.13.54.08.61-.05.09-.3.18-.65.3-1.8.64-3.61,1.28-5.41,1.92-4.96,1.76-10.09,3.57-15.12,5.39-.64.23-1.29.21-1.83-.06-.51-.26-.87-.72-1-1.27-.14-.6-.38-1.18-.62-1.75-.06-.15-.12-.29-.18-.43l-.87-2.37v-.02c-.08-.14-.07-.18-.07-.18,0,0,.02-.04.17-.1,1.73-.62,2.7-1.83,2.8-3.5.08-1.32-.52-2.46-1.74-3.29-.45-.31-.92-.59-1.41-.87-.17-.1-.33-.19-.5-.29.02-.02.04-.05.06-.07.15-.18.31-.39.44-.61,1.01-1.69.63-3.82-.89-5.07-.42-.35-.9-.63-1.36-.9-.21-.13-.42-.25-.62-.38h0c.09-.16.19-.31.28-.46.29-.45.55-.88.76-1.35.39-.89.36-1.84-.1-3-.73-1.85-2.43-2.61-3.97-3.17-.69-.25-1.41-.45-2.11-.64l-.39-.11c-.24-.07-.35-.16-.42-.36-3.06-8.25-5.75-15.48-8.21-22.09l-.97-2.64c-.03-.09-.07-.18-.1-.27-.13-.37-.27-.76-.36-1.14-.19-.88.31-1.72,1.21-2.04,5.01-1.78,10.01-3.56,15.02-5.33l5.82-2.07c.66-.24,1.33-.47,1.99-.71,1.69-.59,3.43-1.21,5.14-1.83.46-.17,1.05-.13,1.53.09.43.2.73.53.85.92.14.43.3.88.49,1.32l8.57,23.08c-.11-.04-.21-.07-.31-.1-1.05-.31-1.88-.31-2.68.01-1.17.47-1.8,1.37-1.93,2.77M885.22,1063.48c.12-.57.48-1.03.95-1.22.2-.08.42-.14.65-.19.29-.06.59-.09.89-.12h.05c.38-.05.77-.05,1.14-.06.22,0,.44,0,.67-.02.18,0,.24.03.29.16.4,1.09.81,2.18,1.21,3.27.28.76.56,1.52.84,2.27,0,0,0,.01,0,.02l-.2-.07c-.33-.11-.64-.22-.95-.32-.26-.09-.52-.17-.78-.25-.59-.18-1.19-.37-1.73-.64-.32-.15-.65-.27-.98-.38-.61-.21-1.19-.41-1.65-.85-.39-.38-.55-.99-.42-1.6M958.68,1099.16l-.93-.74c-1.14-.92-2.32-1.86-3.5-2.78-1.18-.93-2.1-2.03-2.72-3.26-.85-1.67-1.43-3.61-1.79-5.93-.48-3.07-1.07-5.36-1.94-7.43l-.04-.1c-.43-1.03-.88-2.09-1.42-3.09l-.02-.04c-.71-1.31-1.44-2.66-2.33-3.88-.97-1.32-2.05-2.59-3.1-3.82-.28-.33-.56-.66-.83-.98-1.36-1.62-3.06-2.71-5.04-3.24-1.45-.39-2.63-.69-3.72-.94-.36-.08-.52-.24-.66-.62-3.44-9.3-6.56-17.69-9.55-25.67-.2-.55-.48-1.03-.81-1.39-1.21-1.36-2.94-1.76-4.76-1.13-9.07,3.22-18.44,6.54-27.75,9.86-.58.21-1.13.53-1.55.91-1.35,1.23-1.71,2.73-1.07,4.46.81,2.18,1.62,4.36,2.43,6.53l1.21,3.27.06.15c.03.07.05.15.08.22.02.05.02.08.03.09-.01,0-.04.01-.12.02-.15,0-.3,0-.45.01-.17,0-.34.01-.51.02-1.83.03-3.08.52-4.03,1.57-.72.79-1.09,1.87-1,2.96.08,1.08.6,2.07,1.43,2.71.87.69,1.91,1.07,2.92,1.44.21.07.42.15.63.23,1.28.49,2.62.89,3.92,1.28.25.07.5.15.75.22.3.09.45.23.56.53.35.95.7,1.92,1.05,2.85.3.8.6,1.61.89,2.41.13.37.37.57.76.66.7.16,1.41.35,2.1.55,1.14.34,2.15.68,3.01,1.36.51.4.82.99.86,1.62.04.57-.15,1.11-.54,1.51-.58.61-1.3.95-2.16,1.02-2.17.17-4.29-.32-6.29-1.46-.57-.33-1.14-.71-1.46-1.32-.52-1.01-.37-2.03.45-3.12.48-.63,1.17-1.04,1.71-1.32.31-.16.54-.43.63-.74.09-.28.06-.57-.08-.8-.31-.52-1.06-.73-1.6-.44-1.24.66-2.16,1.45-2.82,2.41-1.53,2.24-1.15,4.99.89,6.54,1.04.78,2.16,1.38,3.35,1.8-.02,0-.04,0-.05,0-.63-.11-1.23.27-1.38.89-.07.29-.12.59-.15.89-.14,1.77.41,3.07,1.69,3.97.56.39,1.13.73,1.71.99,2.21,1.01,4.24,1.36,6.21,1.06.72-.11,1.32,0,1.88.32.22.13.44.25.66.37.55.3,1.12.61,1.59,1,.35.28.53.65.52,1.06,0,.47-.26.94-.7,1.28-.48.38-1.06.4-1.57.38-2.29-.05-4.41-.67-6.3-1.83-.48-.29-.75-.71-.84-1.26-.03-.2-.02-.41,0-.63,0-.08,0-.16.01-.24.02-.63-.4-1.11-1.01-1.18-.61-.07-1.18.33-1.28.92-.3,1.65.27,3.19,1.5,4.03,1.92,1.31,4.21,2.11,6.8,2.37.27.03.36.1.45.34.59,1.62,1.12,3.06,1.64,4.4l.07.2c.19.52.4,1.05.68,1.54.92,1.6,3.04,2.31,4.94,1.66.71-.24,1.42-.5,2.11-.75.33-.12.66-.24.99-.35.26-.09.43-.15.51-.13.08.02.2.14.38.33l.02.02c1.1,1.15,2.4,2.18,3.87,3.05,2.71,1.61,5.82,2.54,9.26,2.78.72.05,1.44.05,2.15.05.41,0,.84,0,1.26.01,1.87.05,3.7.59,5.78,1.71.77.41,1.52.89,2.24,1.36.27.18.55.35.83.53.35.22.66.29.97.23.12-.02.25-.07.36-.14.46-.27.67-.72.53-1.16-.08-.26-.3-.55-.58-.76-1.76-1.31-3.64-2.33-5.58-3.03-1.64-.59-3.16-.89-4.66-.91-1.72-.02-3.17-.07-4.6-.25-3.41-.43-6.44-1.74-9-3.91-.23-.19-.45-.4-.68-.62-.06-.05-.12-.11-.18-.16.05-.03.09-.04.14-.06l4.42-1.57c3.57-1.27,7.14-2.53,10.7-3.81.21-.07.24-.06.31.13.32.83.59,1.51.88,2.14.4.9.76,1.63,1.12,2.3.15.28.4.48.7.56.3.08.61.04.88-.11.53-.3.72-.94.44-1.5-1.19-2.37-2-4.36-2.54-6.26-.62-2.14-.95-4.4-.99-6.71-.05-3.08.39-6.09.83-8.63.39-2.26.37-4.57.31-6.73-.03-.93-.49-1.62-1.35-2.02-.64-.3-1.4-.65-2.15-1.06-1.8-.99-3.8-2.3-4.93-4.51-.41-.81-.54-1.69-.37-2.63.04-.26.15-.45.32-.56.17-.12.41-.15.7-.11.29.05.6.11.86.23,1.98.93,4.19,1.65,6.95,2.24,1.21.26,2.3.83,3.24,1.69,1.31,1.2,2.57,2.62,3.96,4.47,1.84,2.43,3.19,4.76,4.12,7.11l.14.34c.4,1.01.81,2.06,1.08,3.12.27,1.09.48,2.22.68,3.31.11.62.23,1.26.36,1.89.55,2.68,1.27,4.63,2.33,6.32.86,1.38,1.69,2.37,2.62,3.13,1.11.91,2.28,1.79,3.41,2.65.41.31.83.62,1.24.94.29.22.61.32.92.28.28-.03.52-.17.71-.4.43-.52.35-1.16-.19-1.59"/><path class="cls-13" d="M909.3,1044.1l-10.85,3.85c-.55.19-.83.77-.64,1.29.18.47.68.73,1.18.63.05-.01.11-.03.16-.04l10.85-3.85c.55-.2.83-.77.64-1.29-.19-.52-.79-.78-1.34-.59"/><path class="cls-13" d="M915.48,1029.92c1.54-.81,3.16-.93,4.57-.34,1.39.58,2.38,1.76,2.78,3.34.24.97.84,1.43,1.65,1.28.03,0,.06-.01.09-.02.81-.2,1.17-.91.96-1.86-.53-2.35-1.95-4.04-4.34-5.16h-.01c-2.33-.95-4.76-.78-7.02.47-.51.29-.84.65-.95,1.04-.08.32-.02.65.18.95.31.47.92.9,2.1.29"/><path class="cls-13" d="M909.68,1110.29c-1.54.81-3.16.93-4.57.34-1.4-.58-2.38-1.76-2.78-3.34-.12-.5-.33-.86-.62-1.07-.3-.22-.69-.29-1.11-.18-.8.2-1.17.91-.95,1.86.53,2.35,1.95,4.04,4.34,5.16h0c1.48.6,3,.75,4.49.46.86-.17,1.71-.48,2.53-.94.51-.29.84-.65.95-1.04.09-.32.03-.65-.18-.95-.31-.47-.92-.91-2.1-.29"/><path class="cls-13" d="M891.61,1004.97c7.16-1.71,13.8-.33,19.7,4.45.29.23.58.47.82.74.58.67.68,1.42.08,2.12-.64.74-1.42.76-2.19.19-.89-.66-1.72-1.41-2.65-2-10.36-6.6-23.88-1.97-28.05,9.59-.07.19-.13.39-.2.58-.37.94-1.04,1.4-2.03,1.06-.99-.34-1.24-1.13-.95-2.09.16-.55.35-1.1.57-1.62,2.85-6.65,7.78-10.94,14.9-13.02"/><path class="cls-13" d="M893.28,1011.95c5.48-1.3,10.41-.26,14.75,3.36,1.03.86,1.21,1.75.58,2.54-.62.78-1.54.75-2.57-.09-7.32-5.98-17.47-3.27-20.88,5.58-.49,1.28-1.22,1.75-2.17,1.39-.95-.36-1.24-1.21-.78-2.47,1.93-5.32,5.69-8.69,11.07-10.3"/><path class="cls-13" d="M895.24,1019.05c3.41-.74,6.31-.09,8.88,1.97.96.77,1.16,1.69.59,2.44-.63.81-1.53.82-2.57.02-3.88-2.98-8.82-1.65-10.74,2.9-.5,1.18-1.21,1.6-2.14,1.28-.95-.33-1.28-1.24-.79-2.46,1.28-3.24,3.64-5.28,6.78-6.14"/><path class="cls-13" d="M838.33,875.19c-1.25-.98-2.96-1.47-5.11-1.47h-6.49v19.66h3.54v-6.74h2.47c2.28,0,4.1-.5,5.45-1.5,1.35-1,2.02-2.39,2.02-4.17v-1.63c0-1.78-.63-3.16-1.88-4.14ZM836.68,880.77c0,2.12-1.35,3.17-4.04,3.17h-2.36v-7.53h2.78c1.14,0,2.03.26,2.67.77s.96,1.29.96,2.32v1.26Z"/><path class="cls-13" d="M847.85,891.05c-.37,0-.64-.09-.79-.27-.15-.18-.22-.47-.22-.88v-17.3h-3.48v17.81c0,1.09.31,1.91.93,2.49.62.57,1.46.86,2.53.86.64,0,1.3-.12,1.99-.37l-.37-2.39c-.3.04-.5.06-.59.06Z"/><path class="cls-13" d="M857.85,878.04c-1.35,0-2.53.31-3.54.93-1.01.62-1.79,1.47-2.33,2.54-.54,1.08-.81,2.29-.81,3.64v1.54c0,1.37.28,2.58.84,3.64.56,1.06,1.38,1.89,2.46,2.5,1.08.61,2.35.91,3.83.91,1.03,0,2.03-.17,2.99-.51.96-.34,1.78-.76,2.46-1.26l-1.24-2.08c-.71.39-1.37.7-1.98.91-.61.22-1.28.32-2.01.32-1.31,0-2.29-.33-2.95-1-.66-.66-.99-1.71-1.01-3.13h9.63c.07-.6.11-1.16.11-1.69,0-2.36-.56-4.16-1.69-5.41s-2.71-1.87-4.77-1.87ZM861.19,884.73h-6.63c.04-1.37.33-2.4.88-3.09.55-.69,1.36-1.04,2.43-1.04s1.91.34,2.47,1.02c.56.68.84,1.67.84,2.96v.14Z"/><path class="cls-13" d="M873.3,878.04c-2.1,0-4.01.52-5.73,1.57l1.07,2.16c.75-.37,1.46-.66,2.15-.84.68-.19,1.42-.28,2.2-.28.9,0,1.57.2,2.01.6.44.4.66,1.04.66,1.92v1.01h-2.75c-1.93,0-3.45.39-4.55,1.18-1.1.79-1.66,1.84-1.66,3.15v.98c0,.84.22,1.59.67,2.23s1.05,1.14,1.81,1.49,1.59.52,2.49.52c1.74,0,3.22-.6,4.44-1.8l.28,1.43h2.72v-10.08c0-1.65-.49-2.94-1.46-3.86-.97-.93-2.42-1.39-4.35-1.39ZM875.66,889.7c-.43.49-.93.85-1.5,1.1-.57.24-1.18.37-1.81.37-.73,0-1.28-.17-1.64-.52-.37-.35-.55-.82-.55-1.42v-.56c0-1.52,1.03-2.27,3.09-2.27h2.42v3.31Z"/><path class="cls-13" d="M887.9,891.16c-.81,0-1.54-.12-2.22-.37-.67-.24-1.34-.61-1.99-1.1l-1.66,1.99c.77.66,1.68,1.16,2.72,1.52,1.05.36,2.2.53,3.45.53,1.7,0,3.13-.37,4.27-1.11s1.71-1.77,1.71-3.1v-.62c0-1.05-.31-1.87-.93-2.47-.62-.6-1.53-1.11-2.72-1.54l-1.88-.65c-.94-.34-1.57-.65-1.91-.93-.34-.28-.51-.63-.51-1.04v-.22c0-.41.2-.75.59-1.02s.96-.41,1.71-.41,1.36.08,1.95.25,1.24.49,1.95.96l1.6-1.91c-.71-.6-1.56-1.06-2.54-1.39-.98-.33-2.01-.49-3.08-.49s-2.06.17-2.92.52c-.86.35-1.54.82-2.02,1.43-.49.61-.73,1.31-.73,2.09v.62c0,.92.29,1.68.88,2.29s1.49,1.13,2.71,1.56l1.88.65c.99.34,1.66.65,1.99.94.34.29.51.68.51,1.17v.22c0,1.09-.95,1.63-2.84,1.63Z"/><path class="cls-13" d="M903.49,878.04c-1.35,0-2.53.31-3.54.93-1.01.62-1.79,1.47-2.33,2.54-.54,1.08-.81,2.29-.81,3.64v1.54c0,1.37.28,2.58.84,3.64.56,1.06,1.38,1.89,2.46,2.5,1.08.61,2.35.91,3.83.91,1.03,0,2.03-.17,2.99-.51.96-.34,1.78-.76,2.46-1.26l-1.24-2.08c-.71.39-1.37.7-1.98.91-.61.22-1.28.32-2.01.32-1.31,0-2.29-.33-2.95-1-.66-.66-.99-1.71-1.01-3.13h9.63c.07-.6.11-1.16.11-1.69,0-2.36-.56-4.16-1.69-5.41s-2.71-1.87-4.77-1.87ZM906.83,884.73h-6.63c.04-1.37.33-2.4.88-3.09.55-.69,1.36-1.04,2.43-1.04s1.91.34,2.47,1.02c.56.68.84,1.67.84,2.96v.14Z"/><path class="cls-13" d="M924.05,893.74c.64,0,1.3-.12,1.99-.37l-.37-2.39c-.3.04-.5.06-.59.06-.37,0-.64-.09-.79-.27-.15-.18-.22-.47-.22-.88v-17.3h-3.48v17.81c0,1.09.31,1.91.93,2.49.62.57,1.46.86,2.53.86Z"/><path class="cls-13" d="M931.7,892.83c1.08.61,2.35.91,3.83.91,1.03,0,2.03-.17,2.99-.51.96-.34,1.78-.76,2.46-1.26l-1.24-2.08c-.71.39-1.37.7-1.98.91-.61.22-1.28.32-2.01.32-1.31,0-2.29-.33-2.95-1-.66-.66-.99-1.71-1.01-3.13h9.63c.07-.6.11-1.16.11-1.69,0-2.36-.56-4.16-1.69-5.41s-2.71-1.87-4.77-1.87c-1.35,0-2.53.31-3.54.93-1.01.62-1.79,1.47-2.33,2.54-.54,1.08-.81,2.29-.81,3.64v1.54c0,1.37.28,2.58.84,3.64.56,1.06,1.38,1.89,2.46,2.5ZM932.68,881.64c.55-.69,1.36-1.04,2.43-1.04s1.91.34,2.47,1.02c.56.68.84,1.67.84,2.96v.14h-6.63c.04-1.37.33-2.4.88-3.09Z"/><path class="cls-13" d="M950.53,878.04c-2.1,0-4.01.52-5.73,1.57l1.07,2.16c.75-.37,1.46-.66,2.15-.84.68-.19,1.42-.28,2.2-.28.9,0,1.57.2,2.01.6.44.4.66,1.04.66,1.92v1.01h-2.75c-1.93,0-3.45.39-4.55,1.18-1.1.79-1.66,1.84-1.66,3.15v.98c0,.84.22,1.59.67,2.23s1.05,1.14,1.81,1.49,1.59.52,2.49.52c1.74,0,3.22-.6,4.44-1.8l.28,1.43h2.72v-10.08c0-1.65-.49-2.94-1.46-3.86-.97-.93-2.42-1.39-4.35-1.39ZM952.89,889.7c-.43.49-.93.85-1.5,1.1-.57.24-1.18.37-1.81.37-.73,0-1.28-.17-1.64-.52-.37-.35-.55-.82-.55-1.42v-.56c0-1.52,1.03-2.27,3.09-2.27h2.42v3.31Z"/><polygon class="cls-13" points="965.87 890.6 962.41 878.44 958.79 878.44 963.65 893.38 967.94 893.38 972.8 878.44 969.32 878.44 965.87 890.6"/><path class="cls-13" d="M981.26,878.04c-1.35,0-2.53.31-3.54.93-1.01.62-1.79,1.47-2.33,2.54-.54,1.08-.81,2.29-.81,3.64v1.54c0,1.37.28,2.58.84,3.64.56,1.06,1.38,1.89,2.46,2.5,1.08.61,2.35.91,3.83.91,1.03,0,2.03-.17,2.99-.51.96-.34,1.78-.76,2.46-1.26l-1.24-2.08c-.71.39-1.37.7-1.98.91-.61.22-1.28.32-2.01.32-1.31,0-2.29-.33-2.95-1-.66-.66-.99-1.71-1.01-3.13h9.63c.07-.6.11-1.16.11-1.69,0-2.36-.56-4.16-1.69-5.41s-2.71-1.87-4.77-1.87ZM984.6,884.73h-6.63c.04-1.37.33-2.4.88-3.09.55-.69,1.36-1.04,2.43-1.04s1.91.34,2.47,1.02c.56.68.84,1.67.84,2.96v.14Z"/><path class="cls-13" d="M1003.95,878.04c-2.1,0-4.01.52-5.73,1.57l1.07,2.16c.75-.37,1.46-.66,2.15-.84.68-.19,1.42-.28,2.2-.28.9,0,1.57.2,2.01.6.44.4.66,1.04.66,1.92v1.01h-2.75c-1.93,0-3.45.39-4.55,1.18-1.1.79-1.66,1.84-1.66,3.15v.98c0,.84.22,1.59.67,2.23s1.05,1.14,1.81,1.49,1.59.52,2.49.52c1.74,0,3.22-.6,4.44-1.8l.28,1.43h2.72v-10.08c0-1.65-.49-2.94-1.46-3.86-.97-.93-2.42-1.39-4.35-1.39ZM1006.31,889.7c-.43.49-.93.85-1.5,1.1-.57.24-1.18.37-1.81.37-.73,0-1.28-.17-1.64-.52-.37-.35-.55-.82-.55-1.42v-.56c0-1.52,1.03-2.27,3.09-2.27h2.42v3.31Z"/><path class="cls-13" d="M1026.35,878.76c-.72.44-1.29,1.12-1.7,2.04l-.56-2.36h-2.53v14.94h3.48v-8.93c.39-1.05.92-1.8,1.59-2.25.66-.45,1.45-.67,2.35-.67.32,0,.62.03.9.08l.62-3.23c-.56-.19-1.16-.28-1.8-.28-.84,0-1.62.22-2.34.66Z"/><path class="cls-13" d="M1038.66,878.04c-1.35,0-2.53.31-3.54.93-1.01.62-1.79,1.47-2.33,2.54-.54,1.08-.81,2.29-.81,3.64v1.54c0,1.37.28,2.58.84,3.64.56,1.06,1.38,1.89,2.46,2.5,1.08.61,2.35.91,3.83.91,1.03,0,2.03-.17,2.99-.51.96-.34,1.78-.76,2.46-1.26l-1.24-2.08c-.71.39-1.37.7-1.98.91-.61.22-1.28.32-2.01.32-1.31,0-2.29-.33-2.95-1-.66-.66-.99-1.71-1.01-3.13h9.63c.07-.6.11-1.16.11-1.69,0-2.36-.56-4.16-1.69-5.41s-2.71-1.87-4.77-1.87ZM1042,884.73h-6.63c.04-1.37.33-2.4.88-3.09.55-.69,1.36-1.04,2.43-1.04s1.91.34,2.47,1.02c.56.68.84,1.67.84,2.96v.14Z"/><polygon class="cls-13" points="1054.17 890.6 1050.71 878.44 1047.09 878.44 1051.95 893.38 1056.24 893.38 1061.1 878.44 1057.62 878.44 1054.17 890.6"/><path class="cls-13" d="M1066.41,871.92c-.58,0-1.08.21-1.49.62s-.62.91-.62,1.49.21,1.07.62,1.47c.41.4.91.6,1.49.6s1.08-.2,1.49-.6c.41-.4.62-.89.62-1.47s-.21-1.1-.62-1.5c-.41-.4-.91-.6-1.49-.6Z"/><polygon class="cls-13" points="1062.56 881.02 1064.81 881.02 1064.81 893.38 1068.29 893.38 1068.29 878.44 1062.56 878.44 1062.56 881.02"/><path class="cls-13" d="M1078.71,878.04c-1.35,0-2.53.31-3.54.93-1.01.62-1.79,1.47-2.33,2.54-.54,1.08-.81,2.29-.81,3.64v1.54c0,1.37.28,2.58.84,3.64.56,1.06,1.38,1.89,2.46,2.5,1.08.61,2.35.91,3.83.91,1.03,0,2.03-.17,2.99-.51.96-.34,1.78-.76,2.46-1.26l-1.24-2.08c-.71.39-1.37.7-1.98.91-.61.22-1.28.32-2.01.32-1.31,0-2.29-.33-2.95-1-.66-.66-.99-1.71-1.01-3.13h9.63c.07-.6.11-1.16.11-1.69,0-2.36-.56-4.16-1.69-5.41s-2.71-1.87-4.77-1.87ZM1082.05,884.73h-6.63c.04-1.37.33-2.4.88-3.09.55-.69,1.36-1.04,2.43-1.04s1.91.34,2.47,1.02c.56.68.84,1.67.84,2.96v.14Z"/><polygon class="cls-13" points="1104.47 878.44 1102.36 890.46 1099.66 878.44 1095.79 878.44 1093.12 890.46 1090.9 878.44 1087.42 878.44 1090.79 893.38 1095 893.38 1097.67 881.47 1100.28 893.38 1104.58 893.38 1107.89 878.44 1104.47 878.44"/><polygon class="cls-13" points="768.82 1045.77 770.4 1045.77 770.4 1032.33 774.8 1032.33 774.8 1031.03 764.44 1031.03 764.44 1032.33 768.82 1032.33 768.82 1045.77"/><path class="cls-13" d="M780.06,1031.03l-4.82,14.74h1.62l1.43-4.55h5.75l1.52,4.55h1.64l-4.97-14.74h-2.17ZM778.7,1039.92l2.44-7.73,2.49,7.73h-4.93Z"/><path class="cls-13" d="M798.42,1032.1c-.91-.72-2.13-1.07-3.68-1.07h-4.28v14.74h1.58v-5.35h2.34c1.69,0,3-.37,3.96-1.1.95-.73,1.43-1.75,1.43-3.05v-1.14c0-1.31-.45-2.32-1.36-3.03ZM798.2,1036.21c0,.98-.33,1.72-.99,2.2-.66.48-1.62.73-2.86.73h-2.3v-6.83h2.65c1.1,0,1.95.25,2.57.74.62.49.93,1.21.93,2.17v.99Z"/><path class="cls-13" d="M779.39,1054.18c-1.9,0-3.32.55-4.29,1.65-.96,1.1-1.44,2.57-1.44,4.39v3.24c0,1.14.21,2.16.62,3.05.41.9,1.05,1.61,1.91,2.13.86.52,1.92.78,3.2.78s2.35-.26,3.2-.78,1.49-1.23,1.91-2.13.62-1.92.62-3.05v-3.24c0-1.81-.48-3.27-1.43-4.38-.96-1.11-2.39-1.66-4.3-1.66ZM783.54,1063.51c0,1.38-.34,2.49-1.03,3.35-.69.86-1.73,1.29-3.12,1.29s-2.43-.43-3.12-1.29-1.03-1.97-1.03-3.35v-3.31c0-1.45.34-2.6,1.03-3.45s1.73-1.29,3.12-1.29,2.45.43,3.13,1.3c.68.86,1.02,2.01,1.02,3.44v3.31Z"/><path class="cls-13" d="M797.98,1061.36c.53-.6.79-1.33.79-2.17v-.97c0-1.17-.45-2.09-1.36-2.77-.91-.68-2.12-1.02-3.65-1.02h-4.34v14.75h1.58v-6.24h2.8c.2,0,.34,0,.42-.02l3.37,6.26h1.75l-3.54-6.53c.93-.25,1.65-.68,2.18-1.29ZM793.78,1061.65h-2.78v-5.94h2.74c1.05,0,1.89.22,2.51.67.62.45.93,1.07.93,1.88v.88c0,.8-.3,1.42-.9,1.85-.6.44-1.43.65-2.5.65Z"/><path class="cls-13" d="M754.49,1084.53l-1.92-.61c-.97-.31-1.67-.65-2.1-1.03s-.64-.81-.64-1.31v-.44c0-.37.12-.72.36-1.06.24-.34.61-.63,1.12-.86s1.14-.35,1.9-.35c.81,0,1.53.12,2.14.37.61.25,1.23.64,1.84,1.19l.84-.93c-1.28-1.28-2.89-1.92-4.84-1.92-1.05,0-1.95.17-2.7.52-.74.34-1.3.79-1.67,1.34-.37.55-.56,1.12-.56,1.71v.46c0,.8.27,1.49.8,2.08s1.4,1.08,2.61,1.48l2.11.7c1.01.34,1.72.7,2.13,1.07s.61.91.61,1.6v.34c0,.42-.13.83-.4,1.23-.27.4-.68.73-1.23.99s-1.24.39-2.05.39c-.7,0-1.3-.06-1.8-.19-.5-.13-.92-.29-1.27-.5-.35-.2-.76-.48-1.22-.83l-.84.99c1.25,1.25,2.96,1.88,5.14,1.88,1.08,0,2.02-.18,2.81-.53.79-.35,1.4-.83,1.82-1.43s.63-1.26.63-1.98v-.53c0-1.03-.31-1.83-.93-2.4-.62-.58-1.51-1.05-2.68-1.43Z"/><path class="cls-13" d="M763.87,1080.06c.7-.8,1.69-1.2,2.97-1.2.7,0,1.31.11,1.82.33.51.22,1.01.52,1.48.92l.84-.95c-.58-.51-1.19-.9-1.84-1.17-.65-.27-1.44-.41-2.35-.41-1.15,0-2.15.24-2.98.73-.84.49-1.47,1.17-1.92,2.04s-.66,1.91-.66,3.09v3.9c0,1.67.48,3,1.43,4,.95,1,2.3,1.5,4.02,1.5.86,0,1.63-.14,2.33-.41.7-.27,1.3-.62,1.82-1.04l-.7-1.01c-.48.37-.99.65-1.54.86-.55.21-1.18.32-1.9.32-1.26,0-2.23-.37-2.9-1.12-.67-.74-1-1.79-1-3.14v-3.9c0-1.42.35-2.53,1.05-3.33Z"/><path class="cls-13" d="M777.24,1077.83l-4.82,14.75h1.62l1.43-4.55h5.75l1.52,4.55h1.64l-4.97-14.75h-2.17ZM775.87,1086.72l2.44-7.73,2.49,7.73h-4.93Z"/><polygon class="cls-13" points="796.64 1090.55 789.56 1077.85 789.58 1077.83 787.65 1077.83 787.65 1092.58 789.08 1092.58 789.08 1079.81 796.18 1092.58 798.07 1092.58 798.07 1077.83 796.64 1077.83 796.64 1090.55"/><polygon class="cls-13" points="888.09 1145.12 880.8 1145.12 880.8 1146.48 883.57 1146.48 883.57 1154.95 885.34 1154.95 885.34 1146.48 888.09 1146.48 888.09 1145.12"/><path class="cls-13" d="M891.04,1145.12l-3.01,9.83h1.78l.74-2.58h3.4l.81,2.58h1.83l-3.16-9.83h-2.4ZM890.96,1150.95l1.28-4.59,1.31,4.59h-2.58Z"/><path class="cls-13" d="M904.09,1145.86c-.63-.49-1.48-.74-2.56-.74h-3.24v9.83h1.77v-3.37h1.24c1.14,0,2.05-.25,2.72-.75.67-.5,1.01-1.2,1.01-2.09v-.81c0-.89-.31-1.58-.94-2.07ZM903.26,1148.64c0,1.06-.67,1.59-2.02,1.59h-1.18v-3.76h1.39c.57,0,1.02.13,1.33.39.32.26.48.64.48,1.16v.63Z"/><polygon class="cls-13" points="916.35 1149.18 912.4 1149.18 912.4 1145.12 910.63 1145.12 910.63 1154.95 912.4 1154.95 912.4 1150.61 916.35 1150.61 916.35 1154.95 918.11 1154.95 918.11 1145.12 916.35 1145.12 916.35 1149.18"/><polygon class="cls-13" points="921.06 1154.95 926.81 1154.95 926.81 1153.57 922.83 1153.57 922.83 1150.64 926.5 1150.64 926.5 1149.28 922.83 1149.28 922.83 1146.48 926.81 1146.48 926.81 1145.12 921.06 1145.12 921.06 1154.95"/><path class="cls-13" d="M935.52,1149.84c.31-.39.47-.86.47-1.39v-.73c0-.81-.31-1.44-.94-1.9-.63-.46-1.46-.7-2.5-.7h-3.31v9.83h1.77v-3.89h1.49l2.04,3.89h1.94l-2.26-4.2c.56-.22,1-.52,1.31-.91ZM933.75,1149.39c-.3.23-.72.35-1.26.35h-1.49v-3.29h1.47c.53,0,.96.12,1.26.35.31.23.46.57.46,1v.6c0,.42-.15.75-.46.98Z"/><polygon class="cls-13" points="938.49 1154.95 944.23 1154.95 944.23 1153.57 940.26 1153.57 940.26 1150.64 943.93 1150.64 943.93 1149.28 940.26 1149.28 940.26 1146.48 944.23 1146.48 944.23 1145.12 938.49 1145.12 938.49 1154.95"/><rect class="cls-13" x="1031.06" y="967.59" width="172.49" height="185.76" rx="9.95" ry="9.95"/><rect class="cls-9" x="1120.54" y="1002.59" width="6.03" height="6.03"/><polygon class="cls-9" points="1102.46 1014.64 1102.46 1020.67 1102.46 1026.69 1108.49 1026.69 1108.49 1020.67 1108.49 1014.64 1108.49 1008.62 1102.46 1008.62 1102.46 1014.64"/><rect class="cls-9" x="1114.52" y="1008.62" width="6.03" height="6.03"/><polygon class="cls-9" points="1096.44 1020.67 1096.44 1014.64 1090.41 1014.64 1090.41 1020.67 1090.41 1026.69 1096.44 1026.69 1096.44 1020.67"/><polygon class="cls-9" points="1132.59 1020.67 1138.62 1020.67 1138.62 1014.64 1144.65 1014.64 1144.65 1008.62 1144.65 1002.59 1144.65 996.56 1144.65 990.54 1138.62 990.54 1132.59 990.54 1126.57 990.54 1120.54 990.54 1114.52 990.54 1108.49 990.54 1108.49 996.56 1102.46 996.56 1102.46 990.54 1102.46 984.51 1096.44 984.51 1096.44 990.54 1090.41 990.54 1090.41 996.56 1096.44 996.56 1096.44 1002.59 1090.41 1002.59 1090.41 1008.62 1096.44 1008.62 1102.46 1008.62 1102.46 1002.59 1108.49 1002.59 1108.49 1008.62 1114.52 1008.62 1114.52 1002.59 1114.52 996.56 1120.54 996.56 1126.57 996.56 1126.57 1002.59 1132.59 1002.59 1132.59 996.56 1138.62 996.56 1138.62 1002.59 1132.59 1002.59 1132.59 1008.62 1132.59 1014.64 1126.57 1014.64 1120.54 1014.64 1120.54 1020.67 1126.57 1020.67 1126.57 1026.69 1120.54 1026.69 1120.54 1020.67 1114.52 1020.67 1114.52 1026.69 1114.52 1032.72 1114.52 1038.74 1120.54 1038.74 1120.54 1032.72 1126.57 1032.72 1132.59 1032.72 1132.59 1026.69 1132.59 1020.67"/><polygon class="cls-9" points="1138.62 1032.72 1144.65 1032.72 1144.65 1026.69 1144.65 1020.67 1138.62 1020.67 1138.62 1026.69 1138.62 1032.72"/><rect class="cls-9" x="1132.59" y="1032.72" width="6.03" height="6.03"/><rect class="cls-9" x="1144.65" y="1032.72" width="6.03" height="6.03"/><rect class="cls-9" x="1156.7" y="1032.72" width="6.03" height="6.03"/><rect class="cls-9" x="1168.75" y="1032.72" width="6.03" height="6.03"/><rect class="cls-9" x="1180.8" y="1032.72" width="6.03" height="6.03"/><rect class="cls-9" x="1186.83" y="1038.74" width="6.03" height="6.03"/><polygon class="cls-9" points="1162.72 1050.8 1168.75 1050.8 1168.75 1044.77 1168.75 1038.74 1162.72 1038.74 1162.72 1044.77 1162.72 1050.8"/><rect class="cls-9" x="1174.77" y="1044.77" width="6.03" height="6.03"/><rect class="cls-9" x="1078.36" y="1056.82" width="6.03" height="6.03"/><polygon class="cls-9" points="1180.8 1056.82 1180.8 1062.85 1186.83 1062.85 1186.83 1068.87 1192.85 1068.87 1192.85 1062.85 1192.85 1056.82 1186.83 1056.82 1180.8 1056.82"/><rect class="cls-9" x="1102.46" y="1062.85" width="6.03" height="6.03"/><rect class="cls-9" x="1174.77" y="1068.87" width="6.03" height="6.03"/><path class="cls-9" d="M1090.41,1074.9h6.03s6.03,0,6.03,0v-6.03h-6.03s0-6.03,0-6.03h6.03v-6.03s6.03,0,6.03,0v6.03h6.03s0,6.03,0,6.03v6.03s0,6.03,0,6.03h6.03v-6.03s6.03,0,6.03,0h6.03s6.03,0,6.03,0v-6.03s6.03,0,6.03,0v6.03h6.03s6.03,0,6.03,0v-6.03s6.03,0,6.03,0v6.03h6.03v-6.03s0-6.03,0-6.03h6.03v-6.03h-6.03s-6.03,0-6.03,0v-6.03h-6.03v6.03s-6.03,0-6.03,0v-6.03s6.03,0,6.03,0v-6.03s0-6.03,0-6.03h-6.03v6.03s-6.03,0-6.03,0v6.03s-6.03,0-6.03,0v6.03s-6.03,0-6.03,0v-6.03s6.03,0,6.03,0v-6.03h-6.03s0-6.03,0-6.03h-6.03v6.03s-6.03,0-6.03,0h-6.03s-6.03,0-6.03,0v6.03s-6.03,0-6.03,0v-6.03s0-6.03,0-6.03h6.03v-6.03h-6.03s-6.03,0-6.03,0h-6.03s-6.03,0-6.03,0h-6.03v6.03h6.03s6.03,0,6.03,0v6.03s0,6.03,0,6.03v6.03s0,6.03,0,6.03v6.03s-6.03,0-6.03,0h-6.03s-6.03,0-6.03,0v-6.03s0-6.03,0-6.03h6.03v-6.03s6.03,0,6.03,0v-6.03h-6.03s0-6.03,0-6.03h-6.03v6.03s-6.03,0-6.03,0v-6.03s6.03,0,6.03,0v-6.03h-6.03s-6.03,0-6.03,0h-6.03s-6.03,0-6.03,0h-6.03v6.03s0,6.03,0,6.03v6.03s0,6.03,0,6.03v6.03s0,6.03,0,6.03v6.03s0,6.03,0,6.03v6.03h6.03v-6.03s0-6.03,0-6.03v-6.03s0-6.03,0-6.03h6.03v-6.03h-6.03s0-6.03,0-6.03h6.03v-6.03h-6.03s0-6.03,0-6.03h6.03s6.03,0,6.03,0v6.03s0,6.03,0,6.03h6.03s0,6.03,0,6.03v6.03s-6.03,0-6.03,0v6.03s-6.03,0-6.03,0v6.03s0,6.03,0,6.03h6.03s6.03,0,6.03,0v-6.03s6.03,0,6.03,0v6.03s0,6.03,0,6.03h6.03s6.03,0,6.03,0h6.03v-6.03s0-6.03,0-6.03ZM1120.54,1068.87v-6.03s6.03,0,6.03,0v6.03s-6.03,0-6.03,0ZM1120.54,1050.8h6.03s0,6.03,0,6.03h-6.03s-6.03,0-6.03,0v-6.03s6.03,0,6.03,0ZM1078.36,1080.93v-6.03s6.03,0,6.03,0v6.03s-6.03,0-6.03,0Z"/><polygon class="cls-9" points="1180.8 1074.9 1180.8 1080.93 1186.83 1080.93 1186.83 1086.95 1186.83 1092.98 1180.8 1092.98 1174.77 1092.98 1174.77 1099 1180.8 1099 1186.83 1099 1192.85 1099 1192.85 1092.98 1192.85 1086.95 1192.85 1080.93 1192.85 1074.9 1186.83 1074.9 1180.8 1074.9"/><rect class="cls-9" x="1150.67" y="1092.98" width="6.03" height="6.03"/><path class="cls-9" d="M1168.75,1092.98v-6.03s6.03,0,6.03,0v-6.03h-6.03s-6.03,0-6.03,0h-6.03s-6.03,0-6.03,0h-6.03s0-6.03,0-6.03h-6.03v6.03s-6.03,0-6.03,0v6.03s-6.03,0-6.03,0v6.03s-6.03,0-6.03,0v-6.03h-6.03v6.03s0,6.03,0,6.03h6.03s0,6.03,0,6.03h6.03s6.03,0,6.03,0v-6.03s6.03,0,6.03,0v6.03s0,6.03,0,6.03h-6.03s-6.03,0-6.03,0v6.03h6.03s6.03,0,6.03,0h6.03v-6.03s6.03,0,6.03,0v6.03h6.03s0,6.03,0,6.03h6.03s0,6.03,0,6.03h6.03s0,6.03,0,6.03h6.03s6.03,0,6.03,0h6.03s6.03,0,6.03,0v-6.03h-6.03s0-6.03,0-6.03h-6.03s0-6.03,0-6.03h-6.03v6.03s-6.03,0-6.03,0v-6.03s6.03,0,6.03,0v-6.03s0-6.03,0-6.03v-6.03h-6.03s0-6.03,0-6.03ZM1162.72,1105.03h-6.03s-6.03,0-6.03,0h-6.03s0-6.03,0-6.03v-6.03s0-6.03,0-6.03h6.03s6.03,0,6.03,0h6.03s0,6.03,0,6.03v6.03s0,6.03,0,6.03Z"/><polygon class="cls-9" points="1150.67 1117.08 1144.65 1117.08 1144.65 1123.11 1138.62 1123.11 1138.62 1129.13 1132.59 1129.13 1126.57 1129.13 1126.57 1123.11 1126.57 1117.08 1120.54 1117.08 1120.54 1111.05 1114.52 1111.05 1108.49 1111.05 1102.46 1111.05 1102.46 1105.03 1108.49 1105.03 1114.52 1105.03 1114.52 1099 1108.49 1099 1102.46 1099 1102.46 1092.98 1096.44 1092.98 1096.44 1086.95 1090.41 1086.95 1090.41 1092.98 1090.41 1099 1096.44 1099 1096.44 1105.03 1090.41 1105.03 1090.41 1111.05 1090.41 1117.08 1090.41 1123.11 1090.41 1129.13 1090.41 1135.16 1096.44 1135.16 1096.44 1129.13 1102.46 1129.13 1102.46 1123.11 1096.44 1123.11 1096.44 1117.08 1102.46 1117.08 1102.46 1123.11 1108.49 1123.11 1108.49 1117.08 1114.52 1117.08 1114.52 1123.11 1120.54 1123.11 1120.54 1129.13 1114.52 1129.13 1114.52 1135.16 1120.54 1135.16 1126.57 1135.16 1132.59 1135.16 1138.62 1135.16 1144.65 1135.16 1144.65 1129.13 1150.67 1129.13 1156.7 1129.13 1156.7 1123.11 1150.67 1123.11 1150.67 1117.08"/><polygon class="cls-9" points="1186.83 1123.11 1192.85 1123.11 1192.85 1117.08 1192.85 1111.05 1186.83 1111.05 1180.8 1111.05 1180.8 1117.08 1186.83 1117.08 1186.83 1123.11"/><rect class="cls-9" x="1108.49" y="1123.11" width="6.03" height="6.03"/><path class="cls-9" d="M1054.32,1026.69h6.03s6.03,0,6.03,0h6.03s6.03,0,6.03,0h6.03v-6.03s0-6.03,0-6.03v-6.03s0-6.03,0-6.03v-6.03s0-6.03,0-6.03v-6.03h-6.03s-6.03,0-6.03,0h-6.03s-6.03,0-6.03,0h-6.03s-6.03,0-6.03,0h-6.03v6.03s0,6.03,0,6.03v6.03s0,6.03,0,6.03v6.03s0,6.03,0,6.03v6.03h6.03s6.03,0,6.03,0ZM1048.29,1014.64v-6.03s0-6.03,0-6.03v-6.03s0-6.03,0-6.03h6.03s6.03,0,6.03,0h6.03s6.03,0,6.03,0h6.03s0,6.03,0,6.03v6.03s0,6.03,0,6.03v6.03s0,6.03,0,6.03h-6.03s-6.03,0-6.03,0h-6.03s-6.03,0-6.03,0h-6.03s0-6.03,0-6.03Z"/><polygon class="cls-9" points="1066.31 1014.64 1066.31 1014.64 1072.33 1014.64 1072.33 1008.62 1072.33 1002.59 1072.33 996.56 1066.31 996.56 1066.31 996.56 1060.28 996.56 1054.26 996.56 1054.26 1002.59 1054.26 1008.62 1054.26 1014.64 1060.28 1014.64 1066.31 1014.64"/><path class="cls-9" d="M1186.89,984.51h-6.03s-6.03,0-6.03,0h0s-6.03,0-6.03,0h-6.03s-6.03,0-6.03,0h-6.03v6.03s0,6.03,0,6.03v6.03s0,6.03,0,6.03v6.03s0,6.03,0,6.03v6.03h6.03s6.03,0,6.03,0h6.03s6.03,0,6.03,0h0s6.03,0,6.03,0h6.03s6.03,0,6.03,0v-6.03s0-6.03,0-6.03v-6.03s0-6.03,0-6.03v-6.03s0-6.03,0-6.03v-6.03h-6.03ZM1186.89,996.56v6.03s0,6.03,0,6.03v6.03s0,6.03,0,6.03h-6.03s-6.03,0-6.03,0h0s-6.03,0-6.03,0h-6.03s-6.03,0-6.03,0v-6.03s0-6.03,0-6.03v-6.03s0-6.03,0-6.03v-6.03s6.03,0,6.03,0h6.03s6.03,0,6.03,0h0s6.03,0,6.03,0h6.03s0,6.03,0,6.03Z"/><polygon class="cls-9" points="1174.77 996.56 1168.75 996.56 1162.72 996.56 1162.72 1002.59 1162.72 1008.62 1162.72 1014.64 1168.75 1014.64 1174.77 1014.64 1174.77 1014.64 1180.8 1014.64 1180.8 1008.62 1180.8 1002.59 1180.8 996.56 1174.77 996.56 1174.77 996.56"/><path class="cls-9" d="M1072.4,1092.98h-6.03s-6.03,0-6.03,0h-6.03s-6.03,0-6.03,0h-6.03v6.03s0,6.03,0,6.03v6.03s0,6.03,0,6.03v6.03s0,6.03,0,6.03v6.03h6.03s6.03,0,6.03,0h6.03s6.03,0,6.03,0h6.03s6.03,0,6.03,0h6.03v-6.03s0-6.03,0-6.03v-6.03s0-6.03,0-6.03v-6.03s0-6.03,0-6.03v-6.03h-6.03s-6.03,0-6.03,0ZM1078.42,1105.03v6.03s0,6.03,0,6.03v6.03s0,6.03,0,6.03h-6.03s-6.03,0-6.03,0h-6.03s-6.03,0-6.03,0h-6.03s0-6.03,0-6.03v-6.03s0-6.03,0-6.03v-6.03s0-6.03,0-6.03h6.03s6.03,0,6.03,0h6.03s6.03,0,6.03,0h6.03s0,6.03,0,6.03Z"/><polygon class="cls-9" points="1066.31 1105.03 1060.28 1105.03 1054.26 1105.03 1054.26 1111.05 1054.26 1117.08 1054.26 1123.11 1060.28 1123.11 1066.31 1123.11 1066.31 1123.11 1072.33 1123.11 1072.33 1117.08 1072.33 1111.05 1072.33 1105.03 1066.31 1105.03 1066.31 1105.03"/></svg>