<?xml version="1.0" encoding="UTF-8"?><svg id="Layer_1" xmlns="http://www.w3.org/2000/svg" xmlns:xlink="http://www.w3.org/1999/xlink" viewBox="0 0 2280 2030"><defs><style>.cls-1{clip-path:url(#clippath);}.cls-2{fill:#557ebe;}.cls-2,.cls-3,.cls-4,.cls-5,.cls-6,.cls-7,.cls-8,.cls-9,.cls-10{stroke-width:0px;}.cls-3{fill:none;}.cls-4{fill:#f7bb16;}.cls-11{fill:url(#linear-gradient-2);stroke:#aab9d6;}.cls-11,.cls-12,.cls-13{stroke-miterlimit:10;}.cls-14{clip-path:url(#clippath-1);}.cls-15{clip-path:url(#clippath-4);}.cls-16{clip-path:url(#clippath-3);}.cls-17{clip-path:url(#clippath-2);}.cls-5{fill:#36a952;}.cls-12{fill:url(#linear-gradient);}.cls-12,.cls-13{stroke:#757575;}.cls-6{fill:#232323;}.cls-7{fill:#929497;}.cls-8{fill:url(#linear-gradient-4);}.cls-13{fill:url(#linear-gradient-3);}.cls-9{fill:#e94435;}.cls-10{fill:#fff;}</style><linearGradient id="linear-gradient" x1="1399.27" y1="702.57" x2="1689.52" y2="234.43" gradientTransform="translate(-917.49 126.11)" gradientUnits="userSpaceOnUse"><stop offset=".18" stop-color="#1a1a1a"/><stop offset=".93" stop-color="#666"/></linearGradient><linearGradient id="linear-gradient-2" x1="1465.43" y1="1221.39" x2="1714.22" y2="933.4" gradientTransform="translate(126.94 2147.75) rotate(-90)" gradientUnits="userSpaceOnUse"><stop offset=".26" stop-color="#2d3f74"/><stop offset=".93" stop-color="#799acc"/></linearGradient><clipPath id="clippath"><rect class="cls-3" x="958.76" y="410.71" width="590.89" height="380.57"/></clipPath><clipPath id="clippath-1"><rect class="cls-3" x="958.76" y="410.71" width="590.89" height="380.57"/></clipPath><clipPath id="clippath-2"><rect class="cls-3" x="958.76" y="410.71" width="590.89" height="380.57"/></clipPath><clipPath id="clippath-3"><rect class="cls-3" x="958.76" y="410.71" width="590.89" height="380.57"/></clipPath><linearGradient id="linear-gradient-3" x1="1378.47" y1="1642.22" x2="1847.19" y2="1918.12" gradientTransform="translate(344.65 -1138.57)" xlink:href="#linear-gradient"/><clipPath id="clippath-4"><path class="cls-3" d="M1751.99,722.97v.32c0,7.7,6.37,13.97,14.2,13.97h29.7c1.03,0,1.87-.82,1.87-1.84s-.84-1.83-1.87-1.83h-29.7c-5.77,0-10.47-4.62-10.47-10.29v-.32c0-1.01-.84-1.83-1.87-1.83s-1.87.82-1.87,1.83M1920.75,721.95v1.33c0,5.68-4.7,10.29-10.47,10.29h-28.67c-1.03,0-1.87.82-1.87,1.83s.84,1.84,1.87,1.84h28.67c7.83,0,14.2-6.27,14.2-13.97v-1.33c0-1.01-.84-1.83-1.87-1.83s-1.87.82-1.87,1.83M1751.99,652.13v55.92c0,1.02.84,1.84,1.87,1.84s1.87-.82,1.87-1.84v-55.92c0-1.01-.84-1.83-1.87-1.83s-1.87.82-1.87,1.83M1920.75,651.12v55.92c0,1.01.84,1.83,1.87,1.83s1.87-.82,1.87-1.83v-55.92c0-1.02-.84-1.84-1.87-1.84s-1.87.82-1.87,1.84M1751.99,581.29v55.92c0,1.01.84,1.83,1.87,1.83s1.87-.82,1.87-1.83v-55.92c0-1.01-.84-1.84-1.87-1.84s-1.87.82-1.87,1.84M1920.75,580.28v55.92c0,1.02.84,1.84,1.87,1.84s1.87-.82,1.87-1.84v-55.92c0-1.01-.84-1.83-1.87-1.83s-1.87.82-1.87,1.83M1766.19,551.49c-7.83,0-14.2,6.26-14.2,13.97v.92c0,1.01.84,1.83,1.87,1.83s1.87-.82,1.87-1.83v-.92c0-5.68,4.69-10.3,10.47-10.3h28.34c1.03,0,1.87-.82,1.87-1.83s-.84-1.83-1.87-1.83h-28.34ZM1837.74,551.49h-27.99c-1.03,0-1.87.82-1.87,1.83s.84,1.83,1.87,1.83h55.99c1.03,0,1.87-.82,1.87-1.83s-.84-1.83-1.87-1.83h-27.99ZM1880.9,551.49c-1.03,0-1.87.82-1.87,1.83s.84,1.83,1.87,1.83h29.37c5.73,0,10.43,4.58,10.47,10.22,0,1.01.84,1.82,1.87,1.82h.01c1.03,0,1.86-.83,1.85-1.85-.06-7.64-6.43-13.86-14.2-13.86h-29.37Z"/></clipPath><linearGradient id="linear-gradient-4" x1="1019.23" y1="1085.48" x2="1021.57" y2="1085.48" gradientTransform="translate(87993.26 81633.66) rotate(-90) scale(79.37 -79.37)" gradientUnits="userSpaceOnUse"><stop offset="0" stop-color="#e94434"/><stop offset=".16" stop-color="#e94833"/><stop offset=".35" stop-color="#ea5533"/><stop offset=".54" stop-color="#ed6c33"/><stop offset=".74" stop-color="#f08b32"/><stop offset=".94" stop-color="#f4b232"/><stop offset="1" stop-color="#f6c132"/></linearGradient></defs><rect class="cls-12" x="433.73" y="304.78" width="378.44" height="592.43" rx="18.41" ry="18.41" transform="translate(21.95 1223.94) rotate(-90)"/><path class="cls-10" d="M360.61,470.08c0,10.7,8.65,19.41,19.29,19.41s19.29-8.71,19.29-19.41-8.65-19.41-19.29-19.41c-10.64,0-19.29,8.71-19.29,19.41M400.88,470.08c0,11.64-9.41,21.11-20.98,21.11-11.57,0-20.98-9.47-20.98-21.11,0-11.64,9.41-21.11,20.98-21.11,11.57,0,20.98,9.47,20.98,21.11"/><path class="cls-10" d="M380.19,461.2c5.56.15,10.14,2.47,13.5,7.14.16.23.33.46.45.71.29.61.22,1.18-.36,1.57-.61.42-1.18.28-1.64-.29-.52-.66-.98-1.37-1.54-1.99-6.27-6.88-17.03-6.14-22.34,1.52-.09.13-.17.26-.26.39-.45.62-1.03.82-1.69.38-.65-.44-.68-1.07-.28-1.72.23-.37.47-.74.74-1.08,3.38-4.32,7.82-6.5,13.42-6.62"/><path class="cls-10" d="M380.04,466.65c4.25.12,7.65,1.86,10.11,5.37.58.83.54,1.52-.07,1.98-.61.45-1.27.25-1.86-.57-4.17-5.83-12.11-5.84-16.33-.01-.61.84-1.23,1.04-1.86.59-.62-.45-.67-1.13-.09-1.97,2.45-3.53,5.85-5.26,10.09-5.39"/><path class="cls-10" d="M380.09,472.24c2.64.13,4.62,1.18,6.09,3.19.55.75.52,1.47-.05,1.91-.62.48-1.28.3-1.88-.49-2.25-2.95-6.12-2.94-8.41.01-.59.77-1.19.94-1.81.52-.63-.43-.69-1.16-.09-1.97,1.57-2.13,3.69-3.16,6.15-3.17"/><path class="cls-10" d="M636.11,604.83c0-67.25-54.18-121.76-121.02-121.76-66.84,0-121.02,54.51-121.02,121.76,0,67.25,54.18,121.76,121.02,121.76,66.84,0,121.02-54.51,121.02-121.76"/><path class="cls-9" d="M459.82,602.78c0-12.75,4.5-24.27,11.86-33.32l-26.17-26.33c-13.9,16.04-22.49,36.61-22.49,59.64,0,35.76,20.36,66.5,50.1,81.22l23.15-30.45c-21.2-7.02-36.45-27.03-36.45-50.76"/><path class="cls-4" d="M512.97,656.25c-5.84,0-11.44-.97-16.7-2.71l-23.15,30.45c12,5.94,25.51,9.28,39.85,9.28,14.32,0,27.83-3.34,39.82-9.27,0,0,.02,0,.03-.01l-23.15-30.45s-.05.02-.07.03c-5.23,1.72-10.81,2.69-16.62,2.69"/><path class="cls-2" d="M496.61,602.78h34.75s0-48.54,0-48.54c11.85,2.43,20.96,9.03,26.89,18.48l22.25-28.91c-15.35-16.61-38.21-27.42-67.53-27.42-5.32,0-11.04.82-16.36,2.06v84.33Z"/><path class="cls-5" d="M566.12,602.78c0,23.74-15.25,43.74-36.45,50.76l23.15,30.45c29.75-14.72,50.1-45.46,50.1-81.22,0-22.07-7.8-43.15-22.42-58.97l-22.25,28.91c5.11,8.16,7.87,18.43,7.87,30.06"/><path class="cls-10" d="M711.93,673.77c-.9-.65-2.03-.98-3.37-.98-1.97,0-3.47.63-4.51,1.9-1.04,1.27-1.56,3.06-1.56,5.39v7.1s20.06,0,20.06,0v-3.51s-7.71,0-7.71,0v-3.91s7.71-4.05,7.71-4.05v-3.76s-.18,0-.18,0l-8.35,4.53c-.49-1.16-1.18-2.07-2.09-2.72ZM712.02,680.07v3.6h-6.72v-3.7c.02-1.22.32-2.14.91-2.75s1.42-.92,2.49-.92,1.84.33,2.43,1,.89,1.59.89,2.77Z"/><path class="cls-10" d="M707.37,663.58c0,1.28.33,2.45.98,3.49s1.56,1.85,2.73,2.43,2.5.87,3.99.87h.41c2.22,0,4-.66,5.34-1.99s2-3.06,2-5.19c0-1.25-.25-2.37-.74-3.37s-1.18-1.8-2.07-2.4l-1.72,1.82c1.24.97,1.86,2.23,1.86,3.77,0,1.1-.36,2.01-1.07,2.74s-1.69,1.14-2.92,1.24v-9.8s-1.35,0-1.35,0c-2.37,0-4.2.56-5.5,1.67s-1.94,2.69-1.94,4.73ZM713.71,660.5v6.42c-1.15-.16-2.04-.52-2.69-1.09s-.96-1.31-.96-2.24c0-.93.29-1.66.86-2.19s1.42-.83,2.54-.9h.25Z"/><polygon class="cls-10" points="718.31 649.44 707.64 652.66 707.64 656.15 722.55 650.91 722.55 647.99 707.64 642.79 707.64 646.27 718.31 649.44"/><rect class="cls-10" x="707.64" y="637.11" width="14.9" height="3.37"/><path class="cls-10" d="M701.98,638.79c0,.61.17,1.08.51,1.4s.77.49,1.28.49.93-.17,1.26-.49.5-.79.5-1.4-.17-1.08-.5-1.41-.76-.5-1.26-.5-.94.17-1.28.5-.51.8-.51,1.41Z"/><path class="cls-10" d="M707.37,627.23c0,1.28.33,2.45.98,3.49s1.56,1.85,2.73,2.43,2.5.87,3.99.87h.41c2.22,0,4-.67,5.34-1.99,1.34-1.33,2-3.05,2-5.19,0-1.25-.25-2.37-.74-3.38s-1.18-1.8-2.07-2.4l-1.72,1.82c1.24.97,1.86,2.23,1.86,3.77,0,1.1-.36,2.01-1.07,2.73s-1.69,1.14-2.92,1.24v-9.8s-1.35,0-1.35,0c-2.37,0-4.2.55-5.5,1.67s-1.94,2.69-1.94,4.74ZM713.71,624.15v6.42c-1.15-.16-2.04-.52-2.69-1.09s-.96-1.31-.96-2.24.29-1.66.86-2.19,1.42-.83,2.54-.9h.25Z"/><polygon class="cls-10" points="717.93 605.04 707.64 608.16 707.64 610.69 717.82 613.77 707.64 616.2 707.64 619.48 722.55 615.38 722.55 612.61 712.31 609.45 722.55 606.23 722.55 603.46 707.64 599.37 707.64 602.66 717.93 605.04"/><path class="cls-10" d="M718.35,581.08c1.17.57,1.75,1.68,1.75,3.31s-.95,2.37-2.84,2.37h-9.61s0,3.37,0,3.37h9.66c1.79,0,3.16-.42,4.1-1.25s1.42-2.07,1.42-3.69c0-1.82-.58-3.22-1.74-4.21l1.46-.08v-3.17s-14.9,0-14.9,0v3.37s10.7,0,10.7,0Z"/><path class="cls-10" d="M714.84,564.79c-.4.75-.74,1.79-1.03,3.11-.29,1.32-.58,2.2-.86,2.63s-.68.65-1.2.65c-.57,0-1.02-.23-1.36-.7s-.51-1.07-.51-1.81c0-.79.21-1.43.64-1.91s.96-.72,1.6-.72v-3.37c-1.41,0-2.55.55-3.43,1.66-.88,1.1-1.32,2.55-1.32,4.34,0,1.68.43,3.07,1.29,4.16.86,1.09,1.94,1.64,3.22,1.64,1.53,0,2.7-.84,3.51-2.52.37-.77.67-1.72.91-2.87s.51-1.97.83-2.46.77-.74,1.36-.74c.54,0,.98.23,1.32.69s.5,1.14.5,2.02-.21,1.65-.64,2.2-1.04.85-1.83.9v3.27c.89,0,1.72-.27,2.49-.8s1.38-1.28,1.82-2.25.66-2.06.66-3.28c0-1.81-.42-3.28-1.25-4.39-.83-1.12-1.92-1.68-3.26-1.68-.8,0-1.48.18-2.04.55s-1.04.92-1.44,1.68Z"/><path class="cls-10" d="M709.31,541.31c-1.29,1.26-1.94,2.9-1.94,4.93,0,1.37.31,2.58.94,3.63s1.53,1.87,2.7,2.45,2.49.87,3.95.87h.17c2.33,0,4.2-.64,5.6-1.91s2.1-2.96,2.1-5.08c0-1.39-.32-2.61-.95-3.67s-1.53-1.87-2.69-2.44-2.47-.85-3.94-.85h-.79c-2.14.12-3.86.8-5.15,2.06ZM718.83,543.56c.88.63,1.32,1.52,1.32,2.65,0,1.14-.43,2.02-1.3,2.66s-2.07.96-3.6.96c-1.73,0-3.02-.32-3.89-.97s-1.3-1.52-1.3-2.62.44-2,1.32-2.65,2.08-.98,3.58-.98c1.7,0,2.99.32,3.87.95Z"/><path class="cls-10" d="M707.37,528.82c0,1.8.67,3.26,2,4.37l-1.72.1v3.17s14.9,0,14.9,0v-3.37s-10.61,0-10.61,0c-1.22-.67-1.83-1.68-1.83-3.04,0-.93.23-1.61.68-2.02s1.15-.62,2.1-.62h9.66s0-3.37,0-3.37h-9.85c-3.55.06-5.33,1.64-5.33,4.77Z"/><path class="cls-10" d="M760.83,680.98v34.96s10.31,0,10.31,0v-24.8c14.43,1.23,20.63,13.33,20.63,24.75.07,15.05-12.01,27.31-26.97,27.38-.16,0-.32,0-.48,0-15.61,0-27.63-12.16-27.63-27.41,0-11.76,7.45-18.69,7.45-18.69l-7.48-7.26s-10.32,9.33-10.32,26.33c0,21.66,18.17,38.41,37.79,38.41,19.23,0,37.98-15.76,37.98-38.96,0-20.4-13.9-35.34-34.44-35.34-4.34,0-6.84.63-6.84.63h0Z"/><path class="cls-10" d="M762.93,652.2c0-7.05,5.67-13.74,14.8-13.74,8.94,0,14.77,6.66,14.77,13.77,0,7.82-6.22,13.96-14.84,13.96-8.44,0-14.73-6.09-14.73-14.02v.02ZM753.36,652.34c0,14.35,11.15,24.63,24.15,24.63,13.2,0,24.55-9.97,24.55-24.8,0-13.42-10.2-24.41-24.27-24.41-16.1,0-24.43,12.79-24.43,24.58h0Z"/><path class="cls-10" d="M762.93,598.63c0-7.05,5.67-13.74,14.8-13.74s14.77,6.66,14.77,13.77c0,7.82-6.22,13.96-14.84,13.96-8.44,0-14.73-6.09-14.73-14.02v.02ZM753.36,598.77c0,14.35,11.15,24.63,24.15,24.63s24.55-9.97,24.55-24.8c0-13.42-10.2-24.41-24.27-24.41-16.1,0-24.43,12.79-24.43,24.58h0Z"/><path class="cls-10" d="M762.94,545.29c0-6.46,5.48-13.09,14.84-13.09,9.51,0,14.75,6.62,14.75,13.23,0,7.02-5.66,13.55-14.66,13.55-9.35,0-14.93-6.79-14.93-13.69h0ZM753.39,546.24c0,13.17,11.46,23.52,24.33,23.52,14.66,0,24.37-12,24.37-23.29,0-6.98-2.76-10.7-5.92-13.4h4.8c8.4,0,13.43,5.13,13.43,12.88,0,7.48-5.53,11.24-8.67,12.57l3.89,9.42c7.02-3.34,14.34-10.06,14.34-22.06,0-13.12-8.2-23.07-25.39-23.07h-43.73s0,10.23,0,10.23h4.13c-3.39,3.16-5.59,7.48-5.59,13.21h0Z"/><path class="cls-10" d="M762.7,476.63c0-4.48,2.37-7.7,5.2-9.06l9.11,21.94c-7.06.95-14.31-5.78-14.31-12.85v-.03ZM753.33,477.06c0,12.42,9.83,22.85,24.32,22.85,15.34,0,24.43-11.63,24.43-24.01,0-10.37-5.64-16.76-10.69-20.53l-5.6,8.47c3.39,2.2,6.7,5.87,6.7,12,0,6.89-3.75,10.05-7.38,12.02l-13.55-32.85-3.97,1.68c-7.77,3.17-14.27,10.57-14.27,20.37h0Z"/><rect class="cls-10" x="728.87" y="504.8" width="71.77" height="10.79"/><polygon class="cls-4" points="846.3 674.19 845.42 683.26 845.27 684.83 835.06 689.07 845.27 693.3 846.31 703.93 853.66 695.91 859.71 697.21 859.71 697.21 864.51 698.25 858.83 689.06 864.5 679.86 853.65 682.21 846.3 674.19"/><polygon class="cls-4" points="846.3 632.08 845.42 641.14 845.27 642.71 835.06 646.95 845.27 651.18 846.31 661.82 853.66 653.79 859.71 655.1 859.71 655.1 864.51 656.13 858.83 646.94 864.5 637.75 853.65 640.09 846.3 632.08"/><polygon class="cls-4" points="846.3 589.96 845.42 599.03 845.27 600.6 835.06 604.84 845.27 609.07 846.31 619.7 853.66 611.68 859.71 612.98 859.71 612.98 864.51 614.02 858.83 604.83 864.5 595.63 853.65 597.98 846.3 589.96"/><polygon class="cls-4" points="846.3 547.85 845.42 556.91 845.27 558.48 835.06 562.72 845.27 566.95 846.31 577.59 853.66 569.56 859.71 570.87 859.71 570.87 864.51 571.9 858.83 562.71 864.5 553.52 853.65 555.86 846.3 547.85"/><polygon class="cls-4" points="846.3 505.73 845.42 514.8 845.27 516.37 835.06 520.61 845.27 524.84 846.31 535.47 853.66 527.45 859.71 528.75 859.71 528.75 864.51 529.79 858.83 520.6 864.5 511.4 853.65 513.75 846.3 505.73"/><path class="cls-10" d="M660.03,449.18l-.59.52c-.72.64-1.47,1.3-2.2,1.96-.74.66-1.56,1.14-2.43,1.4-1.18.36-2.5.52-4.05.49-2.05-.05-3.6.08-5.04.41l-.07.02c-.71.16-1.46.33-2.17.57h-.02c-.93.32-1.89.64-2.78,1.08-.97.48-1.92,1.04-2.83,1.58-.24.14-.49.29-.73.43-1.21.7-2.1,1.68-2.68,2.91-.42.9-.74,1.64-1.03,2.32-.09.22-.21.31-.47.36-6.42,1.18-12.22,2.24-17.73,3.27-.38.07-.72.2-.99.37-1.02.63-1.48,1.72-1.27,2.97,1.05,6.28,2.13,12.78,3.22,19.23.07.4.21.8.41,1.11.64,1.02,1.57,1.43,2.77,1.21,1.5-.28,3.01-.56,4.51-.83l2.26-.42.11-.02c.05,0,.1-.02.15-.03.04,0,.05,0,.06,0,0,0,0,.03,0,.08-.01.1-.03.2-.04.29-.01.11-.03.22-.05.33-.19,1.2-.01,2.06.56,2.81.43.56,1.09.92,1.81,1,.71.07,1.41-.16,1.92-.62.55-.49.91-1.13,1.27-1.74.08-.13.15-.26.22-.39.46-.78.88-1.61,1.28-2.41.08-.15.15-.31.23-.46.09-.19.2-.27.41-.3.66-.11,1.32-.24,1.97-.36.55-.1,1.11-.21,1.66-.3.25-.05.41-.17.51-.42.18-.44.39-.88.6-1.3.35-.7.69-1.33,1.22-1.81.32-.28.74-.42,1.15-.38.38.04.7.23.92.52.33.44.47.96.41,1.52-.14,1.44-.7,2.76-1.66,3.94-.27.33-.59.66-1.02.8-.71.22-1.36,0-1.97-.66-.36-.39-.54-.88-.67-1.27-.07-.22-.22-.4-.41-.5-.17-.09-.36-.1-.53-.04-.37.14-.59.6-.47.99.29.89.69,1.58,1.24,2.12,1.28,1.25,3.1,1.32,4.34.17.63-.59,1.15-1.25,1.55-1.97,0,0,0,.02-.01.03-.14.4.04.83.42,1,.18.08.37.15.56.2,1.13.3,2.04.09,2.76-.64.32-.32.6-.66.84-1,.91-1.32,1.36-2.61,1.4-3.92.01-.48.15-.86.42-1.19.11-.13.21-.26.31-.39.26-.32.52-.66.83-.93.22-.2.48-.27.75-.22.3.06.58.28.75.6.19.35.14.74.07,1.07-.3,1.49-.94,2.8-1.91,3.9-.24.28-.54.41-.91.4-.13,0-.27-.03-.41-.07-.05-.01-.1-.02-.16-.04-.4-.09-.77.13-.88.52-.11.39.08.81.45.94,1.03.39,2.1.19,2.79-.52,1.07-1.1,1.85-2.5,2.31-4.16.05-.17.11-.23.27-.26,1.11-.2,2.11-.38,3.04-.56l.14-.03c.36-.07.73-.14,1.07-.27,1.14-.42,1.84-1.72,1.64-3.03-.08-.49-.16-.98-.24-1.46-.04-.23-.08-.46-.12-.68-.03-.18-.05-.3-.03-.35.02-.05.11-.11.26-.21h.01c.87-.59,1.69-1.32,2.42-2.18,1.35-1.58,2.31-3.51,2.86-5.72.12-.46.2-.94.28-1.4.05-.27.1-.55.15-.82.24-1.21.81-2.35,1.77-3.57.36-.45.75-.89,1.14-1.31.15-.16.29-.32.44-.48.18-.2.27-.4.26-.6,0-.08-.02-.17-.05-.25-.12-.33-.39-.52-.69-.48-.18.02-.39.13-.56.29-1.05,1-1.92,2.11-2.6,3.29-.57,1-.94,1.96-1.12,2.93-.21,1.12-.41,2.06-.69,2.97-.66,2.18-1.86,4-3.56,5.42-.15.13-.31.25-.48.38-.04.03-.08.06-.13.09,0-.04-.02-.07-.02-.09l-.51-3.07c-.41-2.47-.83-4.94-1.24-7.42-.02-.14-.01-.17.12-.19.58-.11,1.05-.21,1.49-.33.63-.16,1.14-.31,1.62-.46.2-.06.35-.2.44-.39.08-.18.09-.39.03-.59-.13-.38-.53-.57-.92-.46-1.67.5-3.05.8-4.34.94-1.46.16-2.96.11-4.47-.13-2-.32-3.9-.96-5.5-1.53-1.42-.51-2.92-.76-4.33-.97-.6-.09-1.11.14-1.46.65-.26.39-.58.84-.93,1.28-.85,1.06-1.92,2.21-3.48,2.7-.57.18-1.16.16-1.75-.06-.16-.06-.27-.15-.33-.27-.06-.12-.05-.29,0-.47.07-.18.14-.38.25-.53.83-1.18,1.55-2.54,2.25-4.27.31-.76.8-1.41,1.47-1.92.93-.71,1.99-1.37,3.35-2.07,1.79-.93,3.45-1.53,5.08-1.87l.24-.05c.7-.14,1.43-.3,2.14-.35.74-.05,1.49-.06,2.22-.06.41,0,.84,0,1.26-.02,1.8-.05,3.15-.3,4.36-.79.99-.4,1.73-.83,2.33-1.35.72-.62,1.42-1.28,2.1-1.92.25-.23.5-.47.75-.7.17-.16.27-.36.28-.57.01-.18-.05-.36-.18-.51-.28-.34-.71-.36-1.05-.06ZM631.94,489.08l-.07.13c-.11.2-.21.39-.32.58-.09.16-.17.32-.25.48-.19.36-.38.73-.61,1.06-.14.19-.25.39-.36.59-.21.38-.4.73-.74.97-.29.21-.7.25-1.08.09-.35-.14-.61-.43-.69-.76-.03-.14-.04-.29-.05-.44,0-.2.01-.4.02-.6v-.03c.02-.25.06-.51.1-.75.02-.15.05-.29.07-.44.01-.12.04-.15.14-.17.75-.14,1.51-.27,2.26-.41.52-.1,1.05-.19,1.57-.29h0ZM647.13,484.09c.29.42.37.95.26,1.65-.19,1.15-.68,2.19-1.5,3.2-.43.52-.94.7-1.57.55-.12-.03-.23-.07-.35-.11-.04-.02-.09-.03-.13-.05-.33-.12-.68,0-.86.27.47-.9.79-1.89.93-2.98.02-.12.02-.24.01-.36,0-.18,0-.36.06-.49.32-.75.73-1.34,1.23-1.79.33-.3.74-.44,1.12-.39.33.04.61.22.81.51ZM632.04,465.15c-.32.65-.41,1.19-.3,1.75.17.81.69,1.33,1.57,1.58,1.23.34,2.44.13,3.73-.63,1.12-.67,2.13-1.65,3.16-3.07l.05-.06c.16-.22.32-.44.47-.67.09-.14.2-.19.35-.15.36.08.71.15,1.07.23.84.17,1.7.35,2.54.58.79.22,1.6.48,2.37.73.57.19,1.17.38,1.76.55.55.16,1.12.26,1.67.36l.14.02,1.94.24h.01c.77.01,1.59.02,2.41-.03h.09c.22-.02.36-.03.41.01.05.04.08.22.12.46.21,1.25.42,2.5.63,3.75.57,3.44,1.16,6.99,1.77,10.48.08.44-.01.87-.25,1.19-.23.3-.57.49-.94.51-.41.03-.81.12-1.2.2-.1.02-.2.05-.3.07l-1.64.29h-.01c-.1.03-.12.02-.13.02,0,0-.03-.02-.04-.12-.2-1.2-.88-1.97-1.95-2.23-.84-.2-1.65.06-2.33.75-.25.26-.48.53-.73.82-.08.09-.16.19-.24.29-.01-.01-.03-.03-.04-.05-.1-.11-.22-.25-.35-.36-.98-.85-2.41-.85-3.39,0-.27.24-.51.52-.74.79-.1.12-.21.24-.32.36h0c-.09-.08-.18-.15-.26-.23-.26-.24-.51-.46-.79-.65-.53-.36-1.15-.45-1.95-.28-1.28.26-1.97,1.28-2.51,2.22-.24.42-.45.87-.66,1.3l-.11.24c-.07.15-.14.21-.28.23-5.7,1.05-10.69,1.97-15.25,2.81l-1.82.33c-.06,0-.12.02-.19.03-.26.04-.52.09-.78.1-.59.02-1.08-.4-1.18-1.02-.58-3.47-1.16-6.94-1.74-10.41l-.67-4.04c-.08-.46-.16-.92-.23-1.38-.2-1.17-.39-2.37-.6-3.56-.06-.32.03-.7.23-.99.18-.26.42-.42.69-.45.3-.04.6-.09.91-.17l15.94-2.94c-.04.07-.07.13-.1.19Z"/><path class="cls-10" d="M618.7,475.05l1.26,7.51c.06.38.41.63.77.57.32-.06.55-.36.55-.7,0-.04,0-.07-.01-.11l-1.26-7.51c-.06-.38-.41-.63-.76-.57-.36.07-.6.43-.54.81Z"/><path class="cls-10" d="M610.21,469.39c-.35-1.09-.24-2.17.3-3.02.53-.84,1.42-1.35,2.48-1.43.66-.05,1.03-.38,1.02-.93,0-.02,0-.04,0-.06-.04-.55-.46-.87-1.1-.84-1.59.08-2.84.81-3.84,2.24h0c-.88,1.42-1.05,3.02-.49,4.64.12.37.32.62.57.74.2.09.42.09.64,0,.34-.15.69-.5.43-1.34Z"/><path class="cls-10" d="M661.64,482.41c.35,1.09.24,2.17-.3,3.02-.53.84-1.42,1.35-2.48,1.43-.33.03-.59.12-.77.29-.18.17-.26.41-.25.7.04.55.46.87,1.1.83,1.59-.08,2.84-.81,3.84-2.24h0c.56-.9.83-1.87.81-2.88,0-.58-.12-1.17-.32-1.76-.12-.37-.32-.63-.57-.74-.2-.09-.42-.09-.64,0-.34.15-.69.5-.43,1.34Z"/><path class="cls-10" d="M666.45,538.47c.61,4.94-.47,9.86-3.04,13.86-3.01,4.68-7.92,8.11-14.59,10.21.92-1.54,2.17-3.47,3.27-4.63.35-.37.34-.95-.03-1.3-.37-.35-.95-.34-1.29.03-2.23,2.35-4.81,7.21-4.91,7.42-.12.23-.14.51-.05.75.09.24.28.44.52.53.03.01,3.23,1.27,7.21,3.06.16.07.32.09.48.07.31-.04.59-.23.72-.54.21-.46,0-1.01-.46-1.22-2.11-.95-4-1.75-5.33-2.29,7.29-2.22,12.67-5.95,15.98-11.09,2.81-4.36,3.99-9.71,3.32-15.08-.06-.5-.52-.86-1.02-.8-.5.06-.86.52-.79,1.03Z"/><path class="cls-10" d="M647.67,530.57c.21-.33.28-.63.22-.9-.03-.13-.11-.33-.22-.59s-.27-.57-.45-.93c1.99.06,3.66.14,5.02.25,1.36.11,2.41.08,3.15-.1.3-.08.58-.27.84-.6.26-.32.44-.73.54-1.22.1-.49.08-1-.05-1.54-.1-.4-.3-.82-.59-1.26-.3-.44-.64-.84-1.02-1.22-.39-.37-.77-.67-1.14-.87s-.68-.27-.93-.21c-.32.08-.44.27-.37.58.02.09.12.25.3.5.18.25.39.55.62.9.24.35.46.72.67,1.09.21.38.36.74.44,1.09.09.37-.02.6-.34.67-.08.02-.37.03-.85.01-.48-.01-1.07-.03-1.77-.05-.7-.02-1.42-.05-2.16-.07-.74-.03-1.42-.06-2.03-.08-.61-.02-1.06-.04-1.34-.04-.53-1.19-.95-2.07-1.28-2.63-.33-.56-.58-.92-.78-1.08-.19-.16-.33-.23-.41-.21-.45.11-.55.67-.3,1.68.07.29.17.61.3.98.13.37.27.79.42,1.28-.55,0-1.02,0-1.42.02s-.73.06-.99.13c-.42.11-.73.31-.94.61-.21.3-.35.6-.42.9-.07.29-.09.51-.05.64.08.34.37.44.88.32,1.07-.27,2.33-.43,3.8-.47.91,2.1,1.57,3.1,1.97,2.99.25-.06.48-.26.69-.59Z"/><path class="cls-10" d="M646.08,510.9c-.18.05-.38.2-.58.47-.39-.15-.76-.23-1.1-.24-.34-.02-.67.02-.99.1-.32.08-.62.24-.9.49-.29.25-.57.57-.87.97-.59.83-.8,1.62-.61,2.38.14.55.5,1.11,1.07,1.67.57.56,1.28,1.08,2.12,1.55.84.47,1.74.87,2.7,1.2.96.33,1.91.55,2.84.66.93.11,1.77.07,2.5-.12.47-.12.89-.41,1.27-.88.38-.47.66-1.01.84-1.62.18-.61.2-1.16.08-1.67-.32-1.28-1.6-2.43-3.87-3.46.2-.05.46-.13.76-.26.31-.12.61-.26.91-.42.3-.15.53-.33.71-.53.17-.19.23-.39.19-.59-.06-.25-.31-.35-.74-.3-1.51.16-2.78.26-3.83.3-1.05.04-1.88.14-2.5.29ZM645.75,513.11c1.08,0,2.11.17,3.07.52.96.35,1.77.78,2.41,1.29.64.51,1.03,1.03,1.16,1.57.08.32.06.62-.06.9-.12.28-.32.46-.6.53-.44.11-.99.12-1.67.04-.68-.08-1.4-.24-2.17-.47-.77-.24-1.5-.52-2.19-.84-.7-.33-1.28-.69-1.76-1.09-.48-.4-.77-.81-.88-1.23-.15-.62.55-1.13,2.1-1.52.14.22.34.32.58.31Z"/><path class="cls-10" d="M653.72,507.43c1.14,0,2.02,0,2.66-.02.64-.02,1.04-.05,1.21-.09.17-.04.36-.16.57-.34.21-.19.38-.39.52-.6.13-.21.19-.37.16-.47-.04-.17-.21-.28-.51-.35s-.77-.11-1.42-.13c-.56-.02-1.07-.03-1.56,0-.48.01-1.01.03-1.58.03s-1.26.02-2.07.02c0-.36-.04-.69-.11-.99-.18-.72-.53-1.44-1.05-2.15-.52-.71-1.16-1.37-1.91-1.97-.76-.61-1.57-1.13-2.43-1.57-.86-.43-1.73-.73-2.59-.89-.86-.16-1.67-.15-2.4.04-.4.1-.82.27-1.27.52-.45.25-.86.54-1.25.89-.39.35-.68.72-.88,1.12-.2.4-.25.81-.15,1.23.38,1.55,1.73,2.83,4.04,3.84-.3,0-.6.04-.9.12-.37.09-.68.28-.95.56-.27.28-.47.59-.61.92-.14.33-.18.6-.13.8.09.37.39.49.89.36,2.26-.57,6.84-.85,13.75-.87ZM647.83,505.48c-.96,0-1.89-.15-2.81-.41-.91-.26-1.73-.6-2.47-1-.74-.41-1.34-.83-1.8-1.26-.47-.44-.73-.82-.82-1.14-.16-.66.45-1.16,1.84-1.51.72-.18,1.5-.17,2.33.03.83.2,1.64.56,2.42,1.07.78.51,1.46,1.13,2.04,1.85s.97,1.51,1.18,2.37h-1.92Z"/><path class="cls-10" d="M667.22,521.37c-.5.13-.98.39-1.44.8-.46.41-.82.85-1.07,1.31-.26.47-.35.85-.28,1.13.04.17.13.36.25.58.13.22.37.47.75.75.37.28.93.6,1.66.95.74.35,1.72.75,2.96,1.19,1.24.44,2.81.92,4.72,1.45l.02.07c-1.41-.11-2.84-.18-4.28-.2-1.43-.03-2.8-.01-4.09.03-1.29.05-2.44.12-3.44.22-1,.1-1.77.21-2.32.35-.32.08-.62.25-.92.5-.29.25-.53.53-.71.83-.18.31-.25.57-.2.79.1.41.48.53,1.13.36.72-.18,1.62-.33,2.68-.46,1.07-.13,2.23-.22,3.47-.3s2.49-.12,3.74-.16c1.25-.04,2.43-.06,3.53-.07,1.1,0,2.03,0,2.8,0,.36,0,.65,0,.88,0,.23,0,.43-.03.62-.08.2-.05.4-.19.6-.41.2-.22.37-.46.49-.71.12-.26.17-.45.14-.59-.04-.17-.34-.36-.88-.59-.55-.23-1.24-.49-2.08-.77-.84-.28-1.74-.57-2.68-.88-.95-.31-1.85-.63-2.7-.96-.85-.33-1.57-.67-2.14-1-.57-.34-.9-.67-.98-.99-.06-.24-.02-.46.12-.66.14-.21.38-.35.73-.44.53-.13,1.19-.2,1.97-.18.78.01,1.57.05,2.39.12.82.07,1.57.12,2.26.15.69.03,1.24,0,1.64-.1.51-.13.71-.37.62-.74-.08-.3-.33-.55-.77-.75-.44-.19-.99-.35-1.65-.47-.66-.12-1.37-.21-2.13-.26-.76-.05-1.5-.07-2.23-.07-.73,0-1.38.03-1.94.07s-.97.1-1.23.16Z"/><path class="cls-10" d="M671.4,511.23c.03.1.16.34.4.71.24.38.51.83.8,1.37.29.54.51,1.1.67,1.71.21.84.2,1.48-.03,1.92-.23.44-.64.73-1.22.88-.57.14-1.25.19-2.04.14.03-1.03-.09-2.09-.36-3.18-.12-.5-.31-1.03-.57-1.59-.25-.55-.56-1.05-.93-1.49-.37-.44-.78-.78-1.25-1-.47-.22-.97-.27-1.53-.13-.43.11-.87.33-1.3.67-.43.34-.81.75-1.13,1.24-.32.48-.56.99-.7,1.52-.14.53-.16,1.04-.03,1.55.17.67.51,1.28,1.02,1.81s1.14,1,1.88,1.39c.74.39,1.52.71,2.35.94.83.23,1.65.36,2.46.4.81.04,1.55-.03,2.22-.19.79-.2,1.44-.56,1.97-1.09.52-.53.88-1.18,1.08-1.94.2-.75.18-1.57-.03-2.44-.12-.49-.32-.98-.6-1.47-.28-.49-.59-.94-.93-1.34-.34-.4-.68-.71-1.02-.93-.34-.22-.62-.3-.83-.24-.34.08-.45.34-.34.78ZM665.58,516.63c-.81-.51-1.29-1.08-1.45-1.7-.07-.27-.03-.58.12-.91.14-.34.36-.65.64-.92.28-.28.57-.45.87-.53.45-.11.9.12,1.33.68.44.57.76,1.29.97,2.15s.33,1.64.34,2.35c-1.07-.23-2.01-.61-2.82-1.12Z"/><path class="cls-10" d="M659.37,504.08c.33,1.31,1.77,2.43,4.34,3.34-.35.03-.73.1-1.15.21-.54.13-1.01.39-1.41.77-.4.38-.56.77-.46,1.17.05.18.17.3.38.35s.43.04.69-.02c.32-.08.67-.18,1.06-.31.38-.12.74-.22,1.06-.3,1.1-.28,2.09-.44,2.97-.5.87-.06,1.65-.07,2.32-.05.67.03,1.27.06,1.78.09.51.03.97,0,1.35-.1.25-.06.52-.22.82-.47.29-.25.4-.53.33-.83-.05-.18-.17-.34-.38-.46s-.49-.2-.85-.22c-1.81-.08-3.34-.19-4.59-.34-1.24-.14-2.27-.34-3.09-.59-.82-.25-1.49-.56-2.02-.93-.54-.36-1.01-.8-1.42-1.31-.29-.38-.54-.63-.77-.76-.23-.13-.44-.17-.64-.12-.4.1-.5.56-.3,1.39Z"/><path class="cls-10" d="M667.01,493.51c.02.1.16.34.4.71.24.38.51.83.8,1.37.29.54.51,1.1.67,1.71.21.84.2,1.48-.03,1.92-.23.44-.64.74-1.22.88-.57.14-1.25.19-2.04.14.03-1.03-.09-2.09-.36-3.18-.12-.5-.31-1.03-.57-1.59-.25-.55-.56-1.05-.93-1.5-.37-.44-.78-.78-1.25-1-.47-.22-.97-.27-1.53-.13-.43.11-.87.33-1.3.67-.43.34-.81.75-1.13,1.24-.32.49-.56.99-.7,1.52-.14.53-.16,1.04-.03,1.55.17.67.51,1.28,1.02,1.81.51.53,1.14,1,1.88,1.39.74.39,1.52.71,2.35.94.83.23,1.65.36,2.46.4.81.04,1.55-.03,2.22-.19.79-.2,1.44-.56,1.97-1.09.52-.53.88-1.18,1.08-1.94.2-.75.18-1.57-.03-2.44-.12-.49-.32-.98-.6-1.47-.28-.49-.59-.94-.93-1.34-.34-.4-.68-.71-1.02-.93-.34-.22-.62-.3-.83-.25-.34.09-.45.35-.34.79ZM661.19,498.91c-.81-.51-1.29-1.08-1.45-1.7-.07-.27-.03-.58.12-.91s.36-.65.64-.92c.28-.28.57-.45.87-.53.45-.11.9.12,1.33.69.44.57.76,1.28.97,2.14s.33,1.64.34,2.35c-1.07-.23-2.01-.61-2.82-1.12Z"/><rect class="cls-11" x="958.76" y="410.71" width="590.89" height="380.57" rx="20.98" ry="20.98"/><g class="cls-1"><path class="cls-10" d="M1071.72,601c0-20.12-16.31-36.42-36.42-36.42s-36.42,16.31-36.42,36.42,16.31,36.42,36.42,36.42,36.42-16.31,36.42-36.42"/><path class="cls-9" d="M1018.66,600.38c0-3.82,1.35-7.26,3.57-9.97l-7.88-7.87c-4.18,4.8-6.77,10.95-6.77,17.84,0,10.7,6.13,19.89,15.08,24.3l6.97-9.11c-6.38-2.1-10.97-8.08-10.97-15.19"/><path class="cls-4" d="M1034.66,616.38c-1.76,0-3.44-.29-5.03-.81l-6.96,9.11c3.61,1.78,7.68,2.78,11.99,2.78s8.38-1,11.98-2.77c0,0,0,0,0,0l-6.96-9.11s-.02,0-.02,0c-1.57.52-3.25.8-5,.8"/><path class="cls-2" d="M1029.74,600.38h10.46v-14.52c3.57.73,6.31,2.7,8.09,5.53l6.7-8.65c-4.62-4.97-11.5-8.2-20.32-8.2-1.6,0-3.32.24-4.92.61v25.23Z"/><path class="cls-5" d="M1050.66,600.38c0,7.1-4.59,13.08-10.97,15.19l6.97,9.11c8.95-4.4,15.08-13.6,15.08-24.3,0-6.6-2.35-12.91-6.75-17.64l-6.69,8.65c1.54,2.44,2.37,5.51,2.37,8.99"/></g><path class="cls-10" d="M1093.97,645.66c-.61-.43-1.36-.65-2.25-.65-1.31,0-2.32.42-3.01,1.26-.7.84-1.04,2.03-1.04,3.58v4.71h13.4v-2.33h-5.15v-2.6l5.15-2.69v-2.49h-.12l-5.58,3.01c-.33-.77-.79-1.37-1.39-1.81ZM1094.03,649.84v2.39h-4.49v-2.46c.01-.81.21-1.42.61-1.83.39-.41.95-.61,1.66-.61s1.23.22,1.63.66c.39.44.59,1.05.59,1.84Z"/><path class="cls-10" d="M1090.93,638.89c0,.85.22,1.63.65,2.32.44.7,1.04,1.23,1.83,1.61.78.38,1.67.58,2.66.58h.27c1.48,0,2.67-.44,3.57-1.32.89-.88,1.34-2.03,1.34-3.45,0-.83-.16-1.58-.49-2.24-.33-.67-.79-1.2-1.39-1.6l-1.15,1.21c.83.64,1.24,1.48,1.24,2.5,0,.73-.24,1.34-.72,1.82s-1.13.75-1.95.82v-6.5h-.9c-1.58,0-2.81.37-3.67,1.11-.86.74-1.3,1.79-1.3,3.14ZM1095.16,636.85v4.26c-.77-.1-1.37-.34-1.8-.72-.43-.38-.64-.87-.64-1.48s.19-1.1.58-1.45.95-.55,1.7-.6h.16Z"/><polygon class="cls-10" points="1098.23 629.51 1091.11 631.65 1091.11 633.97 1101.06 630.49 1101.06 628.55 1091.11 625.1 1091.11 627.41 1098.23 629.51"/><rect class="cls-10" x="1091.11" y="621.32" width="9.96" height="2.24"/><path class="cls-10" d="M1087.33,622.44c0,.4.11.72.34.93.23.22.51.33.86.33s.62-.11.84-.33.33-.53.33-.93-.11-.72-.33-.94c-.22-.22-.51-.33-.84-.33s-.63.11-.86.33c-.23.22-.34.53-.34.94Z"/><path class="cls-10" d="M1090.93,614.76c0,.85.22,1.63.65,2.32.44.7,1.04,1.23,1.83,1.61.78.38,1.67.58,2.66.58h.27c1.48,0,2.67-.44,3.57-1.32.89-.88,1.34-2.03,1.34-3.45,0-.83-.16-1.58-.49-2.24-.33-.67-.79-1.2-1.39-1.6l-1.15,1.21c.83.64,1.24,1.48,1.24,2.5,0,.73-.24,1.34-.72,1.82s-1.13.75-1.95.82v-6.5h-.9c-1.58,0-2.81.37-3.67,1.11-.86.74-1.3,1.79-1.3,3.14ZM1095.16,612.72v4.26c-.77-.1-1.37-.34-1.8-.72-.43-.38-.64-.87-.64-1.48s.19-1.1.58-1.45.95-.55,1.7-.6h.16Z"/><polygon class="cls-10" points="1097.98 600.03 1091.11 602.1 1091.11 603.79 1097.91 605.83 1091.11 607.44 1091.11 609.62 1101.06 606.9 1101.06 605.06 1094.23 602.96 1101.06 600.82 1101.06 598.98 1091.11 596.27 1091.11 598.45 1097.98 600.03"/><path class="cls-10" d="M1098.26,584.13c.78.38,1.17,1.11,1.17,2.2s-.63,1.57-1.9,1.57h-6.42v2.24h6.45c1.2,0,2.11-.28,2.74-.83.63-.56.95-1.37.95-2.45,0-1.21-.39-2.14-1.16-2.8l.98-.05v-2.11h-9.96v2.24h7.15Z"/><path class="cls-10" d="M1095.92,573.31c-.27.5-.5,1.19-.69,2.07-.19.88-.38,1.46-.57,1.75-.19.29-.46.43-.8.43-.38,0-.68-.15-.91-.46s-.34-.71-.34-1.2c0-.53.14-.95.43-1.27.29-.32.64-.48,1.07-.48v-2.24c-.94,0-1.7.37-2.29,1.1s-.88,1.7-.88,2.88c0,1.12.29,2.04.86,2.76s1.29,1.09,2.15,1.09c1.03,0,1.81-.56,2.35-1.67.24-.51.45-1.14.61-1.91.16-.76.34-1.3.55-1.63.21-.33.51-.49.91-.49.36,0,.66.15.88.46.22.31.33.75.33,1.34s-.14,1.1-.43,1.46c-.29.37-.69.57-1.22.6v2.17c.59,0,1.15-.18,1.67-.53.51-.36.92-.85,1.21-1.49.29-.64.44-1.36.44-2.18,0-1.2-.28-2.18-.83-2.92-.55-.74-1.28-1.11-2.18-1.11-.53,0-.99.12-1.36.36-.37.24-.7.61-.96,1.11Z"/><path class="cls-10" d="M1092.22,557.72c-.86.84-1.3,1.93-1.3,3.27,0,.91.21,1.71.63,2.41.42.7,1.02,1.24,1.8,1.63s1.66.58,2.64.58h.11c1.56,0,2.8-.42,3.74-1.27.93-.84,1.4-1.97,1.4-3.37,0-.92-.21-1.73-.64-2.44-.42-.7-1.02-1.24-1.79-1.62-.77-.38-1.65-.57-2.63-.57h-.53c-1.43.08-2.58.53-3.44,1.37ZM1098.58,559.21c.59.42.88,1.01.88,1.76s-.29,1.34-.87,1.77c-.58.42-1.38.63-2.4.63-1.15,0-2.02-.21-2.6-.64-.58-.43-.87-1.01-.87-1.74s.29-1.33.88-1.76,1.39-.65,2.39-.65c1.14,0,2,.21,2.58.63Z"/><path class="cls-10" d="M1090.93,549.43c0,1.2.44,2.16,1.34,2.9l-1.15.06v2.11h9.96v-2.24h-7.08c-.82-.44-1.23-1.12-1.23-2.02,0-.62.15-1.07.46-1.34s.77-.41,1.4-.41h6.45v-2.24h-6.58c-2.38.04-3.56,1.09-3.56,3.16Z"/><g class="cls-14"><path class="cls-10" d="M1126.76,651.79v23.32h6.92v-16.54c9.69.82,13.84,8.89,13.84,16.51.04,10.04-8.06,18.22-18.1,18.26-.11,0-.22,0-.33,0-10.47,0-18.54-8.11-18.54-18.28,0-7.85,5-12.47,5-12.47l-5.02-4.84s-6.92,6.22-6.92,17.57c0,14.44,12.19,25.62,25.36,25.62s25.49-10.51,25.49-25.98c0-13.61-9.32-23.58-23.11-23.58-2.91,0-4.59.42-4.59.42h0Z"/><path class="cls-10" d="M1128.17,632.59c0-4.7,3.81-9.16,9.94-9.16s9.91,4.44,9.91,9.19c0,5.21-4.18,9.31-9.96,9.31s-9.89-4.06-9.89-9.35h0ZM1121.75,632.69c0,9.57,7.48,16.43,16.21,16.43s16.48-6.65,16.48-16.54c0-8.95-6.84-16.29-16.29-16.29-10.8,0-16.4,8.53-16.4,16.4h0Z"/><path class="cls-10" d="M1128.17,596.86c0-4.7,3.81-9.16,9.94-9.16s9.91,4.44,9.91,9.19c0,5.21-4.18,9.31-9.96,9.31s-9.89-4.06-9.89-9.35h0ZM1121.75,596.96c0,9.57,7.48,16.43,16.21,16.43s16.48-6.65,16.48-16.54c0-8.95-6.84-16.29-16.29-16.29-10.8,0-16.4,8.53-16.4,16.4h0Z"/><path class="cls-10" d="M1128.17,561.28c0-4.31,3.68-8.73,9.96-8.73s9.9,4.42,9.9,8.82c0,4.68-3.8,9.04-9.84,9.04s-10.02-4.52-10.02-9.13ZM1121.77,561.91c0,8.79,7.69,15.69,16.33,15.69,9.84,0,16.36-8,16.36-15.53,0-4.66-1.85-7.13-3.97-8.94h3.22c5.64,0,9.01,3.42,9.01,8.59s-3.71,7.5-5.82,8.38l2.61,6.28c4.71-2.23,9.62-6.72,9.62-14.72,0-8.75-5.5-15.39-17.04-15.39h-29.35v6.83h2.77c-2.27,2.1-3.75,4.99-3.75,8.81h0Z"/><path class="cls-10" d="M1128.01,515.48c0-2.99,1.59-5.13,3.49-6.05l6.12,14.63c-4.74.63-9.61-3.86-9.61-8.57v-.02ZM1121.73,515.77c0,8.29,6.6,15.24,16.32,15.24,10.29,0,16.4-7.75,16.4-16.02,0-6.91-3.78-11.18-7.17-13.69l-3.76,5.65c2.27,1.47,4.5,3.92,4.5,8.01,0,4.59-2.52,6.71-4.96,8.02l-9.09-21.91-2.66,1.12c-5.21,2.12-9.57,7.05-9.57,13.59h0Z"/></g><rect class="cls-10" x="1105.31" y="534.28" width="48.17" height="7.2"/><g class="cls-17"><polygon class="cls-4" points="1187.18 668.86 1186.33 677.74 1186.18 679.27 1176.38 683.42 1186.19 687.56 1187.19 697.97 1194.24 690.12 1200.06 691.39 1204.66 692.4 1199.21 683.41 1204.66 674.41 1194.24 676.71 1187.18 668.86"/><polygon class="cls-4" points="1187.18 627.66 1186.33 636.53 1186.18 638.06 1176.38 642.21 1186.19 646.35 1187.19 656.76 1194.24 648.91 1200.06 650.18 1204.66 651.19 1199.21 642.2 1204.66 633.21 1194.24 635.5 1187.18 627.66"/><polygon class="cls-4" points="1187.18 586.45 1186.33 595.32 1186.18 596.86 1176.38 601 1186.19 605.14 1187.19 615.55 1194.24 607.7 1200.06 608.97 1204.66 609.98 1199.21 600.99 1204.66 592 1194.24 594.29 1187.18 586.45"/><polygon class="cls-4" points="1187.18 545.24 1186.33 554.11 1186.18 555.65 1176.38 559.79 1186.19 563.93 1187.19 574.34 1194.24 566.49 1200.06 567.76 1204.66 568.77 1199.21 559.78 1204.66 550.79 1194.24 553.08 1187.18 545.24"/><polygon class="cls-4" points="1187.18 504.03 1186.33 512.9 1186.18 514.44 1176.38 518.59 1186.19 522.72 1187.19 533.13 1194.24 525.28 1200.06 526.55 1204.66 527.56 1199.21 518.57 1204.66 509.58 1194.24 511.88 1187.18 504.03"/></g><polygon class="cls-10" points="1227.11 645.82 1227.11 642.57 1237.05 642.57 1237.05 640.49 1227.11 640.49 1227.11 637.26 1225.51 637.26 1225.51 645.82 1227.11 645.82"/><path class="cls-10" d="M1228.05,633.12c0,1.23.31,2.35.92,3.36l1.27-.63c-.22-.44-.39-.86-.5-1.26-.11-.4-.16-.83-.16-1.3,0-.53.12-.92.35-1.18.24-.26.61-.39,1.13-.39h.59v1.62c0,1.13.23,2.02.69,2.67s1.08.97,1.85.97h.58c.5,0,.93-.13,1.31-.4.38-.26.67-.62.88-1.06s.3-.93.3-1.46c0-1.02-.35-1.89-1.05-2.61l.84-.16v-1.6h-5.92c-.97,0-1.72.29-2.27.86-.55.57-.82,1.42-.82,2.56ZM1234.89,631.74c.29.25.5.55.64.88.14.34.21.69.21,1.06,0,.43-.1.75-.31.96-.2.22-.48.32-.83.32h-.33c-.89,0-1.34-.6-1.34-1.81v-1.42h1.95Z"/><path class="cls-10" d="M1228.56,620.98c-.34.5-.51,1.07-.51,1.72,0,1.02.36,1.85,1.07,2.47l-.84.12v1.75h12.07v-2.04h-3.79c.47-.59.71-1.27.71-2.03,0-.67-.18-1.28-.53-1.82-.36-.54-.86-.97-1.49-1.29-.64-.31-1.36-.47-2.16-.47h-.87c-.83,0-1.55.14-2.19.42-.63.28-1.12.67-1.46,1.17ZM1233.15,621.43c.85,0,1.49.17,1.93.5.44.33.66.8.66,1.39,0,.63-.2,1.18-.61,1.67h-4.6c-.29-.22-.51-.49-.68-.81-.17-.32-.25-.66-.25-1.02,0-.55.21-.97.64-1.28.43-.3,1.06-.45,1.9-.45h1Z"/><path class="cls-10" d="M1228.58,607.14c-.35.62-.53,1.38-.53,2.26s.18,1.63.53,2.24.84,1.08,1.47,1.39c.62.31,1.35.47,2.16.47h.89c1.26,0,2.27-.36,3.04-1.07.76-.71,1.14-1.73,1.14-3.04s-.38-2.34-1.14-3.07c-.76-.72-1.77-1.09-3.04-1.09h-.89c-.81,0-1.54.16-2.16.48-.63.32-1.12.79-1.47,1.42ZM1233.1,607.29c.87,0,1.53.18,1.97.54.44.36.67.89.67,1.57s-.22,1.2-.67,1.54c-.44.35-1.1.52-1.97.52h-.92c-.84,0-1.49-.18-1.92-.53-.44-.35-.65-.86-.65-1.54s.22-1.2.66-1.57c.44-.36,1.08-.54,1.91-.54h.92Z"/><path class="cls-10" d="M1228.47,600.24c.26.42.66.75,1.19,1l-1.38.33v1.48h8.77v-2.04h-5.24c-.62-.23-1.06-.54-1.32-.93-.26-.39-.4-.85-.4-1.38,0-.19.02-.36.05-.53l-1.9-.36c-.11.33-.16.68-.16,1.06,0,.49.13.95.39,1.38Z"/><path class="cls-10" d="M1230.48,586.96l-.49,1.53c-.2.65-.42,1.12-.66,1.41-.24.29-.51.44-.81.44h-.28c-.36,0-.68-.18-.95-.54s-.4-.89-.4-1.58c0-.58.08-1.09.23-1.52s.43-.91.82-1.43l-1.14-1.02c-.49.54-.87,1.14-1.12,1.8-.26.66-.38,1.41-.38,2.26s.13,1.58.4,2.21c.27.63.63,1.1,1.08,1.43.45.32.94.49,1.47.49h.38c1.36,0,2.34-.91,2.92-2.72l.56-1.7c.22-.68.45-1.15.7-1.39.24-.25.57-.37.99-.37h.21c.43,0,.81.21,1.13.63s.49,1.02.49,1.81c0,.49-.04.92-.13,1.27-.09.35-.2.65-.34.91-.14.25-.35.59-.62,1.01l1.24,1.04c1-1.08,1.5-2.52,1.5-4.32,0-.86-.13-1.62-.4-2.28-.27-.66-.65-1.18-1.15-1.56s-1.06-.56-1.7-.56h-.44c-.82,0-1.48.25-1.96.73s-.86,1.17-1.14,2.05Z"/><path class="cls-10" d="M1230.27,579.89c-.45-.36-.67-.87-.67-1.53,0-.38.05-.72.16-1.01s.29-.57.53-.84l-1.09-.97c-.4.41-.69.85-.88,1.32-.19.47-.28,1-.28,1.58,0,1.28.38,2.26,1.15,2.97.76.7,1.8,1.06,3.09,1.06h.74c1.29,0,2.31-.35,3.08-1.06.77-.71,1.15-1.68,1.15-2.93,0-.52-.1-1.03-.29-1.54-.19-.51-.44-.95-.75-1.33l-1.2.84c.23.33.41.64.53.94s.18.63.18.99c0,.67-.23,1.18-.68,1.52-.45.35-1.12.52-2,.52h-.81c-.88,0-1.54-.18-1.99-.53Z"/><path class="cls-10" d="M1228.05,570.62c0,1.23.31,2.35.92,3.36l1.27-.63c-.22-.44-.39-.86-.5-1.26-.11-.4-.16-.83-.16-1.3,0-.53.12-.92.35-1.18.24-.26.61-.39,1.13-.39h.59v1.62c0,1.13.23,2.02.69,2.67s1.08.97,1.85.97h.58c.5,0,.93-.13,1.31-.4.38-.26.67-.62.88-1.06s.3-.93.3-1.46c0-1.02-.35-1.89-1.05-2.61l.84-.16v-1.6h-5.92c-.97,0-1.72.29-2.27.86-.55.57-.82,1.42-.82,2.56ZM1234.89,569.23c.29.25.5.55.64.88.14.34.21.69.21,1.06,0,.43-.1.75-.31.96-.2.22-.48.32-.83.32h-.33c-.89,0-1.34-.6-1.34-1.81v-1.42h1.95Z"/><path class="cls-10" d="M1228.83,557.98c-.52.53-.78,1.22-.78,2.07,0,1.11.37,1.98,1.12,2.6l-.89.13v1.75h8.77v-2.04h-6.36c-.73-.52-1.09-1.15-1.09-1.9,0-.91.52-1.37,1.55-1.37h5.9v-2.04h-6.07c-.92,0-1.64.27-2.16.8Z"/><g class="cls-16"><path class="cls-10" d="M1247.53,694.47c0,5.53,4.39,10.02,9.81,10.02h202.67c5.42,0,9.81-4.48,9.81-10.02v-186.95c0-5.53-4.39-10.02-9.81-10.02h-202.67c-5.42,0-9.81,4.48-9.81,10.02v186.95Z"/></g><path class="cls-7" d="M1505.39,656.48c0,.89.28,1.58.84,2.09h-3.58v1.75h10.46v-1.75h-5.43c-.64-.43-.96-.97-.96-1.63,0-.79.44-1.19,1.33-1.19h5.06v-1.75h-5.2c-.79,0-1.41.23-1.85.69-.44.46-.66,1.05-.66,1.78Z"/><path class="cls-7" d="M1511.01,647.37c.3.22.54.48.71.78.17.3.26.61.26.92,0,.35-.09.61-.27.79s-.45.27-.79.27h-5.33v1.75h5.41c.46,0,.86-.11,1.21-.32.34-.21.61-.5.8-.86s.28-.77.28-1.21c0-.88-.34-1.64-1.02-2.26l.83-.13v-1.48h-7.52v1.75h5.43Z"/><path class="cls-7" d="M1507.29,641.52c-.38-.31-.57-.74-.57-1.31,0-.33.05-.62.14-.86.1-.25.25-.49.45-.72l-.93-.83c-.34.35-.59.73-.75,1.13-.16.4-.24.86-.24,1.36,0,1.09.33,1.94.98,2.54.65.6,1.54.9,2.65.9h.63c1.1,0,1.98-.3,2.64-.91.66-.61.99-1.45.99-2.51,0-.44-.08-.88-.25-1.32s-.38-.82-.64-1.14l-1.03.72c.2.28.35.55.45.81.1.26.15.54.15.85,0,.57-.19,1.01-.58,1.31-.38.3-.95.44-1.71.44h-.7c-.75,0-1.32-.15-1.7-.46Z"/><polygon class="cls-7" points="1505.59 630 1505.59 631.92 1508.48 634.49 1502.65 634.49 1502.65 636.25 1513.11 636.25 1513.11 634.49 1510.41 634.49 1509.69 633.86 1513.11 631.48 1513.11 629.53 1508.63 632.69 1505.59 630"/><path class="cls-7" d="M1511.93,626.28c0,.19-.05.32-.13.4-.09.07-.24.11-.44.11h-8.71v1.75h8.96c.55,0,.96-.16,1.25-.47.29-.31.43-.73.43-1.27,0-.32-.06-.66-.18-1.01l-1.2.18c.02.15.03.25.03.3Z"/><path class="cls-7" d="M1505.39,621.25c0,.68.16,1.27.47,1.78.31.51.74.9,1.28,1.17s1.15.41,1.83.41h.78c.69,0,1.3-.14,1.83-.42.53-.28.95-.69,1.26-1.24.31-.54.46-1.18.46-1.93,0-.52-.09-1.02-.26-1.5-.17-.48-.38-.9-.64-1.24l-1.04.62c.2.36.35.69.46,1,.11.31.16.64.16,1.01,0,.66-.17,1.15-.5,1.48-.33.33-.86.5-1.58.51v-4.85c-.3-.04-.59-.06-.85-.06-1.19,0-2.09.28-2.72.85-.63.57-.94,1.37-.94,2.4ZM1508.76,619.57v3.33c-.69-.02-1.21-.17-1.56-.45-.35-.28-.52-.68-.52-1.22s.17-.96.52-1.25c.34-.28.84-.42,1.49-.42h.07Z"/><path class="cls-7" d="M1505.83,610.94c-.29.43-.44.93-.44,1.5,0,.8.26,1.45.78,1.95h-3.52v1.75h10.46v-1.37l-.64-.15c.55-.53.82-1.18.82-1.96,0-.57-.15-1.08-.46-1.56-.3-.47-.73-.84-1.28-1.11-.55-.27-1.16-.4-1.84-.4h-.76c-.71,0-1.34.12-1.88.35-.54.24-.95.57-1.24,1ZM1509.77,611.35c.71,0,1.25.15,1.63.43.38.29.57.68.57,1.18,0,.57-.21,1.04-.62,1.44h-3.83c-.26-.19-.45-.42-.59-.69-.14-.27-.21-.57-.21-.9,0-.97.73-1.46,2.18-1.46h.88Z"/><path class="cls-7" d="M1505.39,604.83c0,.68.16,1.27.47,1.78.31.51.74.9,1.28,1.17s1.15.41,1.83.41h.78c.69,0,1.3-.14,1.83-.42.53-.28.95-.69,1.26-1.24.31-.54.46-1.18.46-1.93,0-.52-.09-1.02-.26-1.5-.17-.48-.38-.9-.64-1.24l-1.04.62c.2.36.35.69.46,1,.11.31.16.64.16,1.01,0,.66-.17,1.15-.5,1.48-.33.33-.86.5-1.58.51v-4.85c-.3-.04-.59-.06-.85-.06-1.19,0-2.09.28-2.72.85-.63.57-.94,1.37-.94,2.4ZM1508.76,603.15v3.33c-.69-.02-1.21-.17-1.56-.45-.35-.28-.52-.68-.52-1.22s.17-.96.52-1.25c.34-.28.84-.42,1.49-.42h.07Z"/><path class="cls-7" d="M1505.75,597.32c.22.36.56.65,1.03.86l-1.19.28v1.27h7.52v-1.75h-4.49c-.53-.2-.9-.46-1.13-.8s-.34-.73-.34-1.18c0-.16.02-.31.04-.45l-1.62-.31c-.1.28-.14.58-.14.9,0,.42.11.82.33,1.18Z"/><path class="cls-7" d="M1505.75,591.44c.22.36.56.65,1.03.86l-1.19.28v1.27h7.52v-1.75h-4.49c-.53-.2-.9-.46-1.13-.8s-.34-.73-.34-1.18c0-.16.02-.31.04-.45l-1.62-.31c-.1.28-.14.58-.14.9,0,.42.11.82.33,1.18Z"/><path class="cls-7" d="M1511.81,584.98l-6.22,1.78v1.81l7.52-2.42v-.76l.82.24c.34.09.58.23.73.43.15.2.22.47.22.81,0,.25-.03.51-.09.79l1.15.24c.05-.13.1-.3.13-.5.03-.2.05-.41.05-.61,0-.67-.16-1.22-.47-1.64-.31-.42-.86-.75-1.62-.98l-8.44-2.56v1.74l6.22,1.63Z"/><polygon class="cls-7" points="1511.64 573.24 1505.59 574.6 1505.59 576.55 1511.64 577.9 1505.59 579.01 1505.59 580.76 1513.11 579.07 1513.11 576.95 1507.11 575.61 1513.11 574.29 1513.11 572.13 1505.59 570.46 1505.59 572.19 1511.64 573.24"/><path class="cls-7" d="M1505.39,566.14c0,1.06.26,2.02.79,2.88l1.09-.54c-.19-.38-.33-.74-.42-1.08-.09-.34-.14-.71-.14-1.11,0-.45.1-.79.3-1.01.2-.22.52-.33.97-.33h.51v1.38c0,.97.2,1.73.59,2.29s.92.83,1.58.83h.5c.42,0,.8-.11,1.12-.34s.58-.53.75-.91c.18-.38.26-.8.26-1.25,0-.88-.3-1.62-.91-2.23l.72-.14v-1.37h-5.07c-.83,0-1.48.25-1.94.74-.47.49-.7,1.22-.7,2.19ZM1511.25,564.95c.25.22.43.47.55.75.12.29.18.59.18.91,0,.37-.09.64-.26.83-.18.18-.41.27-.71.27h-.28c-.76,0-1.14-.52-1.14-1.56v-1.21h1.67Z"/><path class="cls-7" d="M1511.81,558.39l-6.22,1.78v1.81l7.52-2.42v-.76l.82.24c.34.09.58.23.73.43.15.2.22.47.22.81,0,.25-.03.51-.09.79l1.15.24c.05-.13.1-.3.13-.5.03-.2.05-.41.05-.61,0-.67-.16-1.22-.47-1.64-.31-.42-.86-.75-1.62-.98l-8.44-2.56v1.74l6.22,1.63Z"/><path class="cls-7" d="M1511.06,553.08c0,.31.11.57.33.79.22.22.48.32.78.32s.58-.11.79-.32c.22-.22.33-.48.33-.79s-.11-.57-.33-.79c-.22-.21-.48-.32-.79-.32s-.57.11-.79.32c-.22.21-.33.47-.33.79Z"/><path class="cls-7" d="M1507.29,548.34c-.38-.31-.57-.74-.57-1.31,0-.33.05-.62.14-.86.1-.25.25-.49.45-.72l-.93-.83c-.34.35-.59.73-.75,1.13-.16.4-.24.86-.24,1.36,0,1.09.33,1.94.98,2.54.65.6,1.54.9,2.65.9h.63c1.1,0,1.98-.3,2.64-.91.66-.61.99-1.45.99-2.51,0-.44-.08-.88-.25-1.32s-.38-.82-.64-1.14l-1.03.72c.2.28.35.55.45.81.1.26.15.54.15.85,0,.57-.19,1.01-.58,1.31-.38.3-.95.44-1.71.44h-.7c-.75,0-1.32-.15-1.7-.46Z"/><path class="cls-7" d="M1506.09,538.2c-.47.49-.7,1.22-.7,2.19,0,1.06.26,2.02.79,2.88l1.09-.54c-.19-.38-.33-.74-.42-1.08-.09-.34-.14-.71-.14-1.11,0-.45.1-.79.3-1.01.2-.22.52-.33.97-.33h.51v1.38c0,.97.2,1.73.59,2.29s.92.83,1.58.83h.5c.42,0,.8-.11,1.12-.34s.58-.53.75-.91c.18-.38.26-.8.26-1.25,0-.88-.3-1.62-.91-2.23l.72-.14v-1.37h-5.07c-.83,0-1.48.25-1.94.74ZM1511.25,539.2c.25.22.43.47.55.75.12.29.18.59.18.91,0,.37-.09.64-.26.83-.18.18-.41.27-.71.27h-.28c-.76,0-1.14-.52-1.14-1.56v-1.21h1.67Z"/><rect class="cls-3" x="958.76" y="410.71" width="590.89" height="380.57"/><rect class="cls-6" x="1286.45" y="589.95" width="7.21" height="7.21"/><polygon class="cls-6" points="1300.86 618.78 1308.07 618.78 1315.28 618.78 1315.28 611.58 1308.07 611.58 1300.86 611.58 1293.66 611.58 1293.66 618.78 1300.86 618.78"/><rect class="cls-6" x="1293.66" y="597.16" width="7.21" height="7.21"/><polygon class="cls-6" points="1308.07 625.99 1300.86 625.99 1300.86 633.2 1308.07 633.2 1315.28 633.2 1315.28 625.99 1308.07 625.99"/><polygon class="cls-6" points="1308.07 582.74 1308.07 575.53 1300.86 575.53 1300.86 568.33 1293.66 568.33 1286.45 568.33 1279.24 568.33 1272.03 568.33 1272.03 575.53 1272.03 582.74 1272.03 589.95 1272.03 597.16 1272.03 604.37 1272.03 611.58 1279.24 611.58 1279.24 618.78 1272.03 618.78 1264.82 618.78 1264.82 625.99 1272.03 625.99 1272.03 633.2 1279.24 633.2 1279.24 625.99 1286.45 625.99 1286.45 633.2 1293.66 633.2 1293.66 625.99 1293.66 618.78 1286.45 618.78 1286.45 611.58 1293.66 611.58 1293.66 604.37 1286.45 604.37 1279.24 604.37 1279.24 597.16 1279.24 589.95 1286.45 589.95 1286.45 582.74 1279.24 582.74 1279.24 575.53 1286.45 575.53 1286.45 582.74 1293.66 582.74 1300.86 582.74 1300.86 589.95 1300.86 597.16 1308.07 597.16 1308.07 589.95 1315.28 589.95 1315.28 597.16 1308.07 597.16 1308.07 604.37 1315.28 604.37 1322.49 604.37 1329.7 604.37 1329.7 597.16 1322.49 597.16 1322.49 589.95 1322.49 582.74 1315.28 582.74 1308.07 582.74"/><polygon class="cls-6" points="1322.49 575.53 1322.49 568.33 1315.28 568.33 1308.07 568.33 1308.07 575.53 1315.28 575.53 1322.49 575.53"/><rect class="cls-6" x="1322.49" y="575.53" width="7.21" height="7.21"/><rect class="cls-6" x="1322.49" y="561.12" width="7.21" height="7.21"/><rect class="cls-6" x="1322.49" y="546.7" width="7.21" height="7.21"/><rect class="cls-6" x="1322.49" y="532.28" width="7.21" height="7.21"/><rect class="cls-6" x="1322.49" y="517.87" width="7.21" height="7.21"/><rect class="cls-6" x="1329.7" y="510.66" width="7.21" height="7.21"/><polygon class="cls-6" points="1344.11 546.7 1344.11 539.49 1336.91 539.49 1329.7 539.49 1329.7 546.7 1336.91 546.7 1344.11 546.7"/><rect class="cls-6" x="1336.91" y="525.08" width="7.21" height="7.21"/><rect class="cls-6" x="1351.32" y="640.41" width="7.21" height="7.21"/><polygon class="cls-6" points="1351.32 525.08 1358.53 525.08 1358.53 517.87 1365.74 517.87 1365.74 510.66 1358.53 510.66 1351.32 510.66 1351.32 517.87 1351.32 525.08"/><rect class="cls-6" x="1358.53" y="611.58" width="7.21" height="7.21"/><rect class="cls-6" x="1365.74" y="525.08" width="7.21" height="7.21"/><path class="cls-6" d="M1372.95,633.2v-14.42h-7.21v7.21h-7.21v-7.21h-7.21v-7.21h7.21v-7.21h21.63v-7.21h-7.21v-21.63h-7.21v-7.21h7.21v-14.42h-7.21v-7.21h7.21v-7.21h-14.42v-7.21h-7.21v14.42h-7.21v7.21h7.21v7.21h-7.21v-7.21h-14.42v7.21h7.21v7.21h7.21v7.21h7.21v7.21h-7.21v-7.21h-7.21v7.21h-7.21v7.21h7.21v21.62h7.21v7.21h-14.42v-7.21h-7.21v36.04h7.21v-14.42h36.04v21.62h-14.42v-7.21h-7.21v-7.21h-7.21v7.21h-7.21v7.21h7.21v7.21h-7.21v-7.21h-7.21v36.04h64.88v-7.21h-28.83v-7.21h-7.21v7.21h-7.21v-7.21h-7.21v7.21h-7.21v-14.42h14.42v-7.21h14.42v7.21h7.21v7.21h14.42v-14.42h-7.21v-7.21h14.42v-21.62h-14.42ZM1365.74,597.16h-7.21v-7.21h7.21v7.21ZM1344.11,597.16v-7.21h7.21v14.42h-7.21v-7.21ZM1380.16,647.62h-7.21v-7.21h7.21v7.21Z"/><polygon class="cls-6" points="1372.95 525.08 1380.16 525.08 1380.16 517.87 1387.36 517.87 1394.57 517.87 1394.57 525.08 1394.57 532.28 1401.78 532.28 1401.78 525.08 1401.78 517.87 1401.78 510.66 1394.57 510.66 1387.36 510.66 1380.16 510.66 1372.95 510.66 1372.95 517.87 1372.95 525.08"/><rect class="cls-6" x="1394.57" y="553.91" width="7.21" height="7.21"/><path class="cls-6" d="M1394.57,539.49h-7.21v-7.21h-7.21v36.04h-7.21v7.21h7.21v7.21h7.21v7.21h7.21v7.21h-7.21v7.21h14.42v-7.21h7.21v-14.42h-7.21v-7.21h14.42v14.42h7.21v-21.63h-7.21v-7.21h7.21v-7.21h7.21v-7.21h7.21v-7.21h7.21v-28.83h-7.21v7.21h-7.21v7.21h-7.21v7.21h7.21v7.21h-7.21v-7.21h-21.63v7.21h-7.21ZM1408.99,546.7v21.62h-21.62v-21.62h21.62Z"/><polygon class="cls-6" points="1423.41 561.12 1423.41 568.33 1430.61 568.33 1430.61 575.53 1437.82 575.53 1437.82 582.74 1437.82 589.95 1430.61 589.95 1423.41 589.95 1423.41 597.16 1416.2 597.16 1416.2 604.37 1416.2 611.58 1416.2 618.78 1408.99 618.78 1408.99 611.58 1408.99 604.37 1401.78 604.37 1401.78 611.58 1401.78 618.78 1394.57 618.78 1394.57 625.99 1387.36 625.99 1387.36 633.2 1394.57 633.2 1401.78 633.2 1401.78 625.99 1408.99 625.99 1408.99 633.2 1416.2 633.2 1423.41 633.2 1430.61 633.2 1437.82 633.2 1445.03 633.2 1445.03 625.99 1437.82 625.99 1437.82 618.78 1430.61 618.78 1430.61 625.99 1423.41 625.99 1423.41 618.78 1430.61 618.78 1430.61 611.58 1423.41 611.58 1423.41 604.37 1430.61 604.37 1430.61 597.16 1437.82 597.16 1437.82 604.37 1445.03 604.37 1445.03 597.16 1445.03 589.95 1445.03 582.74 1445.03 575.53 1445.03 568.33 1437.82 568.33 1437.82 561.12 1437.82 553.91 1430.61 553.91 1430.61 561.12 1423.41 561.12"/><polygon class="cls-6" points="1430.61 517.87 1430.61 510.66 1423.41 510.66 1416.2 510.66 1416.2 517.87 1416.2 525.08 1423.41 525.08 1423.41 517.87 1430.61 517.87"/><rect class="cls-6" x="1430.61" y="604.37" width="7.21" height="7.21"/><path class="cls-6" d="M1315.28,676.38v-36.04h-50.46v50.46h50.46v-14.42ZM1300.86,683.59h-28.83v-36.04h36.04v36.04h-7.21Z"/><polygon class="cls-6" points="1300.86 662.03 1300.86 662.03 1300.86 654.83 1293.66 654.83 1286.45 654.83 1279.24 654.83 1279.24 662.03 1279.24 662.03 1279.24 669.24 1279.24 676.45 1286.45 676.45 1293.66 676.45 1300.86 676.45 1300.86 669.24 1300.86 662.03"/><path class="cls-6" d="M1264.82,517.79v14.42h0v28.83h50.46v-28.83h0v-21.63h-50.46v7.21ZM1279.24,517.79h28.83v14.42h0v21.62h-36.04v-21.62h0v-14.42h7.21Z"/><polygon class="cls-6" points="1279.24 532.28 1279.24 539.49 1279.24 546.7 1286.45 546.7 1293.66 546.7 1300.86 546.7 1300.86 539.49 1300.86 532.28 1300.86 532.28 1300.86 525.08 1293.66 525.08 1286.45 525.08 1279.24 525.08 1279.24 532.28 1279.24 532.28"/><path class="cls-6" d="M1394.57,654.75v36.04h50.46v-50.46h-50.46v14.42ZM1408.99,647.54h28.83v36.04h-36.04v-36.04h7.21Z"/><polygon class="cls-6" points="1408.99 662.03 1408.99 669.24 1408.99 676.45 1416.2 676.45 1423.41 676.45 1430.61 676.45 1430.61 669.24 1430.61 662.03 1430.61 662.03 1430.61 654.83 1423.41 654.83 1416.2 654.83 1408.99 654.83 1408.99 662.03 1408.99 662.03"/><rect class="cls-13" x="1697.14" y="303.51" width="378.44" height="592.43" rx="18.41" ry="18.41" transform="translate(1286.62 2486.09) rotate(-90)"/><polygon class="cls-4" points="1778.54 504.48 1769.34 503.58 1769.35 503.58 1767.76 503.42 1763.46 493.01 1759.17 503.43 1748.38 504.49 1756.52 511.98 1755.2 518.15 1754.15 523.05 1763.47 517.26 1772.79 523.04 1770.41 511.97 1778.54 504.48"/><polygon class="cls-4" points="1821.25 504.48 1812.05 503.58 1812.06 503.58 1810.46 503.42 1806.17 493.01 1801.88 503.43 1791.09 504.49 1799.23 511.98 1797.91 518.15 1796.86 523.05 1806.18 517.26 1815.5 523.04 1813.12 511.97 1821.25 504.48"/><polygon class="cls-4" points="1863.96 504.48 1854.76 503.58 1854.77 503.58 1853.17 503.42 1848.88 493.01 1844.59 503.43 1833.8 504.49 1841.94 511.98 1840.62 518.15 1839.57 523.05 1848.89 517.26 1858.21 523.04 1855.83 511.97 1863.96 504.48"/><polygon class="cls-4" points="1906.67 504.48 1897.47 503.58 1897.48 503.58 1895.88 503.42 1891.59 493.01 1887.3 503.43 1876.51 504.49 1884.65 511.98 1883.33 518.15 1882.28 523.05 1891.6 517.26 1900.92 523.04 1898.54 511.97 1906.67 504.48"/><polygon class="cls-4" points="1949.38 504.48 1940.18 503.58 1940.19 503.58 1938.59 503.42 1934.3 493.01 1930.01 503.43 1919.22 504.49 1927.36 511.98 1926.04 518.15 1924.99 523.05 1934.31 517.26 1943.63 523.04 1941.25 511.97 1949.38 504.48"/><path class="cls-10" d="M1683.66,534.61c24,0,43.45-19.46,43.45-43.45s-19.46-43.45-43.45-43.45-43.45,19.46-43.45,43.45,19.46,43.45,43.45,43.45"/><path class="cls-9" d="M1684.39,471.31c4.55,0,8.66,1.61,11.89,4.26l9.39-9.39c-5.72-4.99-13.06-8.07-21.29-8.07-12.76,0-23.73,7.31-28.99,17.99l10.87,8.31c2.51-7.61,9.64-13.09,18.12-13.09"/><path class="cls-4" d="M1665.31,490.39c0-2.1.35-4.11.97-6l-10.87-8.31c-2.12,4.31-3.31,9.16-3.31,14.31s1.19,9.99,3.31,14.3c0,0,0,0,0,0l10.87-8.31s0-.02,0-.03c-.62-1.88-.96-3.88-.96-5.97"/><path class="cls-2" d="M1684.39,484.52v12.48h17.32c-.87,4.25-3.23,7.52-6.6,9.65l10.32,7.99c5.93-5.51,9.79-13.72,9.79-24.25,0-1.91-.29-3.96-.73-5.87h-30.1Z"/><path class="cls-5" d="M1684.39,509.48c-8.47,0-15.61-5.48-18.12-13.09l-10.87,8.31c5.25,10.68,16.22,17.99,28.99,17.99,7.88,0,15.4-2.8,21.04-8.05l-10.32-7.99c-2.91,1.84-6.58,2.82-10.73,2.82"/><g class="cls-15"><rect class="cls-8" x="1751.99" y="551.49" width="172.5" height="185.76"/></g><path class="cls-7" d="M1981.49,752.98c-.88,0-1.57.28-2.08.83v-3.55h-1.74v10.39h1.74v-5.39c.43-.64.97-.95,1.62-.95.79,0,1.18.44,1.18,1.32v5.03h1.74v-5.17c0-.79-.23-1.4-.69-1.84-.46-.44-1.05-.66-1.77-.66Z"/><path class="cls-7" d="M1990.55,758.57c-.22.3-.47.53-.77.7s-.6.25-.91.25c-.35,0-.61-.09-.79-.27-.18-.18-.27-.44-.27-.78v-5.29h-1.74v5.38c0,.46.1.86.32,1.2.21.34.5.61.86.79.36.19.76.28,1.2.28.88,0,1.63-.34,2.25-1.01l.13.83h1.47v-7.47h-1.74v5.39Z"/><path class="cls-7" d="M1996.35,754.87c.3-.38.74-.57,1.3-.57.33,0,.61.05.86.14.24.09.48.24.72.45l.83-.93c-.35-.34-.72-.58-1.12-.75-.4-.16-.85-.24-1.35-.24-1.09,0-1.93.33-2.53.98-.6.65-.9,1.53-.9,2.63v.63c0,1.09.3,1.97.91,2.63.6.66,1.43.98,2.49.98.44,0,.88-.08,1.31-.25.44-.16.81-.38,1.13-.64l-.72-1.02c-.28.2-.55.35-.8.45-.25.1-.53.15-.84.15-.57,0-1-.19-1.3-.58-.29-.38-.44-.95-.44-1.7v-.69c0-.75.15-1.31.46-1.69Z"/><polygon class="cls-7" points="2007.8 753.17 2005.89 753.17 2003.34 756.05 2003.34 750.25 2001.6 750.25 2001.6 760.64 2003.34 760.64 2003.34 757.96 2003.97 757.25 2006.33 760.64 2008.27 760.64 2005.14 756.19 2007.8 753.17"/><path class="cls-7" d="M2011.5,759.48c-.19,0-.32-.04-.39-.13-.08-.09-.11-.24-.11-.44v-8.65h-1.74v8.9c0,.54.15.96.46,1.24.31.29.73.43,1.26.43.32,0,.65-.06,1-.18l-.18-1.19c-.15.02-.25.03-.29.03Z"/><path class="cls-7" d="M2016.5,752.98c-.67,0-1.26.15-1.77.46-.51.31-.89.73-1.17,1.27-.27.54-.41,1.14-.41,1.82v.77c0,.68.14,1.29.42,1.82.28.53.69.95,1.23,1.25.54.3,1.18.46,1.92.46.51,0,1.01-.08,1.5-.25.48-.17.89-.38,1.23-.63l-.62-1.04c-.36.2-.69.35-.99.46-.3.11-.64.16-1,.16-.66,0-1.15-.17-1.47-.5-.33-.33-.5-.85-.51-1.57h4.82c.04-.3.06-.58.06-.84,0-1.18-.28-2.08-.84-2.7-.56-.62-1.36-.93-2.39-.93ZM2018.17,756.32h-3.31c.02-.68.17-1.2.44-1.54.28-.35.68-.52,1.21-.52s.96.17,1.24.51c.28.34.42.84.42,1.48v.07Z"/><path class="cls-7" d="M2026.74,753.41c-.43-.29-.92-.44-1.5-.44-.8,0-1.44.26-1.94.77v-3.5h-1.74v10.39h1.36l.15-.63c.52.54,1.17.81,1.95.81.56,0,1.08-.15,1.54-.46.47-.3.84-.73,1.1-1.27.27-.54.4-1.15.4-1.83v-.76c0-.71-.12-1.33-.35-1.87-.23-.53-.56-.95-.99-1.24ZM2026.34,757.33c0,.7-.14,1.24-.43,1.62-.29.38-.68.57-1.17.57-.56,0-1.04-.21-1.43-.62v-3.81c.19-.25.42-.45.69-.59.27-.14.57-.21.9-.21.96,0,1.45.72,1.45,2.16v.87Z"/><path class="cls-7" d="M2032.81,752.98c-.67,0-1.26.15-1.77.46-.51.31-.89.73-1.17,1.27-.27.54-.41,1.14-.41,1.82v.77c0,.68.14,1.29.42,1.82.28.53.69.95,1.23,1.25.54.3,1.18.46,1.92.46.51,0,1.01-.08,1.5-.25.48-.17.89-.38,1.23-.63l-.62-1.04c-.36.2-.69.35-.99.46-.3.11-.64.16-1,.16-.66,0-1.15-.17-1.47-.5-.33-.33-.5-.85-.51-1.57h4.82c.04-.3.06-.58.06-.84,0-1.18-.28-2.08-.84-2.7-.56-.62-1.36-.93-2.39-.93ZM2034.48,756.32h-3.31c.02-.68.17-1.2.44-1.54.28-.35.68-.52,1.21-.52s.96.17,1.24.51c.28.34.42.84.42,1.48v.07Z"/><path class="cls-7" d="M2040.28,753.34c-.36.22-.64.56-.85,1.02l-.28-1.18h-1.26v7.47h1.74v-4.46c.2-.52.46-.9.79-1.12.33-.22.72-.34,1.17-.34.16,0,.31.01.45.04l.31-1.61c-.28-.09-.58-.14-.9-.14-.42,0-.81.11-1.17.33Z"/><path class="cls-7" d="M2046.12,753.34c-.36.22-.64.56-.85,1.02l-.28-1.18h-1.26v7.47h1.74v-4.46c.2-.52.46-.9.79-1.12.33-.22.72-.34,1.17-.34.16,0,.31.01.45.04l.31-1.61c-.28-.09-.58-.14-.9-.14-.42,0-.81.11-1.17.33Z"/><path class="cls-7" d="M2052.54,759.35l-1.77-6.18h-1.8l2.4,7.47h.76l-.24.81c-.08.34-.23.58-.43.72-.2.14-.47.22-.81.22-.24,0-.51-.03-.79-.08l-.24,1.14c.13.06.3.1.5.13.2.03.4.05.61.05.66,0,1.21-.16,1.63-.47s.74-.85.97-1.61l2.54-8.38h-1.73l-1.61,6.18Z"/><polygon class="cls-7" points="2064.2 759.18 2062.85 753.17 2060.91 753.17 2059.58 759.18 2058.47 753.17 2056.73 753.17 2058.41 760.64 2060.52 760.64 2061.85 754.69 2063.16 760.64 2065.31 760.64 2066.96 753.17 2065.25 753.17 2064.2 759.18"/><path class="cls-7" d="M2071.26,752.98c-1.05,0-2,.26-2.86.79l.53,1.08c.37-.19.73-.33,1.07-.42s.71-.14,1.1-.14c.45,0,.78.1,1,.3.22.2.33.52.33.96v.51h-1.38c-.96,0-1.72.2-2.28.59-.55.39-.83.92-.83,1.57v.49c0,.42.11.79.34,1.12s.53.57.91.74c.38.17.79.26,1.24.26.87,0,1.61-.3,2.22-.9l.14.72h1.36v-5.04c0-.82-.24-1.47-.73-1.93-.49-.46-1.21-.7-2.18-.7ZM2072.44,758.81c-.22.24-.47.43-.75.55-.29.12-.59.18-.91.18-.37,0-.64-.09-.82-.26-.18-.17-.27-.41-.27-.71v-.28c0-.76.51-1.14,1.54-1.14h1.21v1.66Z"/><path class="cls-7" d="M2078.96,759.35l-1.77-6.18h-1.8l2.4,7.47h.76l-.24.81c-.08.34-.23.58-.43.72-.2.14-.47.22-.81.22-.24,0-.5-.03-.79-.08l-.24,1.14c.13.06.3.1.5.13.2.03.41.05.61.05.66,0,1.21-.16,1.63-.47.42-.31.74-.85.97-1.61l2.54-8.38h-1.73l-1.62,6.18Z"/><path class="cls-7" d="M2084.24,758.61c-.31,0-.57.11-.79.33-.22.22-.32.48-.32.78s.11.57.32.79c.21.22.48.32.79.32s.57-.11.78-.32c.21-.21.32-.48.32-.79s-.11-.57-.32-.79c-.21-.21-.47-.32-.78-.32Z"/><path class="cls-7" d="M2088.95,754.87c.3-.38.74-.57,1.3-.57.33,0,.61.05.86.14.24.09.48.24.72.45l.83-.93c-.35-.34-.72-.58-1.12-.75-.4-.16-.85-.24-1.35-.24-1.09,0-1.93.33-2.53.98-.6.65-.9,1.53-.9,2.63v.63c0,1.09.3,1.97.91,2.63s1.43.98,2.49.98c.44,0,.88-.08,1.31-.25.44-.16.81-.38,1.13-.64l-.72-1.02c-.28.2-.55.35-.8.45-.25.1-.53.15-.84.15-.57,0-1-.19-1.3-.58-.29-.38-.44-.95-.44-1.7v-.69c0-.75.15-1.31.46-1.69Z"/><path class="cls-7" d="M2099.02,753.67c-.49-.46-1.21-.7-2.18-.7-1.05,0-2,.26-2.87.79l.53,1.08c.37-.19.73-.33,1.07-.42s.71-.14,1.1-.14c.45,0,.78.1,1,.3.22.2.33.52.33.96v.51h-1.38c-.96,0-1.72.2-2.27.59-.55.39-.83.92-.83,1.57v.49c0,.42.11.79.34,1.12.22.32.53.57.91.74s.79.26,1.24.26c.87,0,1.61-.3,2.22-.9l.14.72h1.36v-5.04c0-.82-.24-1.47-.73-1.93ZM2098.03,758.81c-.22.24-.47.43-.75.55-.29.12-.59.18-.91.18-.37,0-.64-.09-.82-.26-.18-.17-.27-.41-.27-.71v-.28c0-.76.51-1.14,1.54-1.14h1.21v1.66Z"/><path class="cls-10" d="M1824.62,669.57c1.21.29,2.19.74,2.99,1.37.53.42.85.99.88,1.57.02.5-.17.98-.54,1.34-.55.54-1.31.8-2.39.82-1.75.02-3.44-.44-5.16-1.41-.88-.5-1.28-1.22-1.24-2.21,0-.18.04-.37.08-.56.01-.07.03-.14.04-.21.08-.52-.18-1.01-.63-1.22,1.46.48,3.02.68,4.69.62.18,0,.37-.04.55-.07.27-.05.53-.1.75-.04M1847.52,649.09c-.19,1.93.44,3.7,1.93,5.41,1.3,1.5,3.01,2.75,5.39,3.92l.11.05c.37.18.74.37,1.12.53.23.1.33.24.32.48-.02.55-.04,1.11-.05,1.67-.04,1.3-.07,2.64-.19,3.96-.11,1.25-.29,2.51-.45,3.73-.13.91-.26,1.85-.36,2.78-.1.86-.09,1.74-.09,2.59v.21l.16,2.97v.02c.19,1.15.4,2.38.68,3.59l.03.14c.08.32.13.54.08.61-.05.09-.3.18-.65.3-1.8.64-3.61,1.28-5.41,1.92-4.96,1.76-10.09,3.57-15.12,5.39-.64.23-1.29.21-1.83-.06-.51-.26-.87-.72-1-1.27-.14-.6-.38-1.18-.62-1.75-.06-.15-.12-.29-.18-.43l-.87-2.37v-.02c-.08-.14-.07-.18-.07-.18,0,0,.02-.04.17-.1,1.73-.62,2.7-1.83,2.8-3.5.08-1.32-.52-2.46-1.74-3.29-.45-.31-.92-.59-1.41-.87-.17-.1-.33-.19-.5-.29.02-.02.04-.05.06-.07.15-.18.31-.39.44-.61,1.01-1.69.63-3.82-.89-5.07-.42-.35-.9-.63-1.36-.9-.21-.13-.42-.25-.62-.38h0c.09-.16.19-.31.28-.46.29-.45.55-.88.76-1.35.39-.89.36-1.84-.1-3-.73-1.85-2.43-2.61-3.97-3.17-.69-.25-1.41-.45-2.11-.64l-.39-.11c-.24-.07-.35-.16-.42-.36-3.06-8.25-5.75-15.48-8.21-22.09l-.97-2.64c-.03-.09-.07-.18-.1-.27-.13-.37-.27-.76-.36-1.14-.19-.88.31-1.72,1.21-2.04,5.01-1.78,10.01-3.56,15.02-5.33l5.82-2.07c.66-.24,1.33-.47,1.99-.71,1.69-.59,3.43-1.21,5.14-1.83.46-.17,1.05-.13,1.53.09.43.2.73.53.85.92.14.43.3.88.49,1.32l8.57,23.08c-.11-.04-.21-.07-.31-.1-1.05-.31-1.88-.31-2.68.01-1.17.47-1.8,1.37-1.93,2.77M1809.81,648.32c.12-.57.48-1.03.95-1.22.2-.08.42-.14.65-.19.29-.06.59-.09.89-.12h.05c.38-.05.77-.05,1.14-.06.22,0,.44,0,.67-.02.18,0,.24.03.29.16.4,1.09.81,2.18,1.21,3.27.28.76.56,1.52.84,2.27,0,0,0,.01,0,.02l-.2-.07c-.33-.11-.64-.22-.95-.32-.26-.09-.52-.17-.78-.25-.59-.18-1.19-.37-1.73-.64-.32-.15-.65-.27-.98-.38-.61-.21-1.19-.41-1.65-.85-.39-.38-.55-.99-.42-1.6M1883.27,684.01l-.93-.74c-1.14-.92-2.32-1.86-3.5-2.78-1.18-.93-2.1-2.03-2.72-3.26-.85-1.67-1.43-3.61-1.79-5.93-.48-3.07-1.07-5.36-1.94-7.43l-.04-.1c-.43-1.03-.88-2.09-1.42-3.09l-.02-.04c-.71-1.31-1.44-2.66-2.33-3.88-.97-1.32-2.05-2.59-3.1-3.82-.28-.33-.56-.66-.83-.98-1.36-1.62-3.06-2.71-5.04-3.24-1.45-.39-2.63-.69-3.72-.94-.36-.08-.52-.24-.66-.62-3.44-9.3-6.56-17.69-9.55-25.67-.2-.55-.48-1.03-.81-1.39-1.21-1.36-2.94-1.76-4.76-1.13-9.07,3.22-18.44,6.54-27.75,9.86-.58.21-1.13.53-1.55.91-1.35,1.23-1.71,2.73-1.07,4.46.81,2.18,1.62,4.36,2.43,6.53l1.21,3.27.06.15c.03.07.05.15.08.22.02.05.02.08.03.09-.01,0-.04.01-.12.02-.15,0-.3,0-.45.01-.17,0-.34.01-.51.02-1.83.03-3.08.52-4.03,1.57-.72.79-1.09,1.87-1,2.96.08,1.08.6,2.07,1.43,2.71.87.69,1.91,1.07,2.92,1.44.21.07.42.15.63.23,1.28.49,2.62.89,3.92,1.28.25.07.5.15.75.22.3.09.45.23.56.53.35.95.7,1.92,1.05,2.85.3.8.6,1.61.89,2.41.13.37.37.57.76.66.7.16,1.41.35,2.1.55,1.14.34,2.15.68,3.01,1.36.51.4.82.99.86,1.62.04.57-.15,1.11-.54,1.51-.58.61-1.3.95-2.16,1.02-2.17.17-4.29-.32-6.29-1.46-.57-.33-1.14-.71-1.46-1.32-.52-1.01-.37-2.03.45-3.12.48-.63,1.17-1.04,1.71-1.32.31-.16.54-.43.63-.74.09-.28.06-.57-.08-.8-.31-.52-1.06-.73-1.6-.44-1.24.66-2.16,1.45-2.82,2.41-1.53,2.24-1.15,4.99.89,6.54,1.04.78,2.16,1.38,3.35,1.8-.02,0-.04,0-.05,0-.63-.11-1.23.27-1.38.89-.07.29-.12.59-.15.89-.14,1.77.41,3.07,1.69,3.97.56.39,1.13.73,1.71.99,2.21,1.01,4.24,1.36,6.21,1.06.72-.11,1.32,0,1.88.32.22.13.44.25.66.37.55.3,1.12.61,1.59,1,.35.28.53.65.52,1.06,0,.47-.26.94-.7,1.28-.48.38-1.06.4-1.57.38-2.29-.05-4.41-.67-6.3-1.83-.48-.29-.75-.71-.84-1.26-.03-.2-.02-.41,0-.63,0-.08,0-.16.01-.24.02-.63-.4-1.11-1.01-1.18-.61-.07-1.18.33-1.28.92-.3,1.65.27,3.19,1.5,4.03,1.92,1.31,4.21,2.11,6.8,2.37.27.03.36.1.45.34.59,1.62,1.12,3.06,1.64,4.4l.07.2c.19.52.4,1.05.68,1.54.92,1.6,3.04,2.31,4.94,1.66.71-.24,1.42-.5,2.11-.75.33-.12.66-.24.99-.35.26-.09.43-.15.51-.13.08.02.2.14.38.33l.02.02c1.1,1.15,2.4,2.18,3.87,3.05,2.71,1.61,5.82,2.54,9.26,2.78.72.05,1.44.05,2.15.05.41,0,.84,0,1.26.01,1.87.05,3.7.59,5.78,1.71.77.41,1.52.89,2.24,1.36.27.18.55.35.83.53.35.22.66.29.97.23.12-.02.25-.07.36-.14.46-.27.67-.72.53-1.16-.08-.26-.3-.55-.58-.76-1.76-1.31-3.64-2.33-5.58-3.03-1.64-.59-3.16-.89-4.66-.91-1.72-.02-3.17-.07-4.6-.25-3.41-.43-6.44-1.74-9-3.91-.23-.19-.45-.4-.68-.62-.06-.05-.12-.11-.18-.16.05-.03.09-.04.14-.06l4.42-1.57c3.57-1.27,7.14-2.53,10.7-3.81.21-.07.24-.06.31.13.32.83.59,1.51.88,2.14.4.9.76,1.63,1.12,2.3.15.28.4.48.7.56.3.08.61.04.88-.11.53-.3.72-.94.44-1.5-1.19-2.37-2-4.36-2.54-6.26-.62-2.14-.95-4.4-.99-6.71-.05-3.08.39-6.09.83-8.63.39-2.26.37-4.57.31-6.73-.03-.93-.49-1.62-1.35-2.02-.64-.3-1.4-.65-2.15-1.06-1.8-.99-3.8-2.3-4.93-4.51-.41-.81-.54-1.69-.37-2.63.04-.26.15-.45.32-.56.17-.12.41-.15.7-.11.29.05.6.11.86.23,1.98.93,4.19,1.65,6.95,2.24,1.21.26,2.3.83,3.24,1.69,1.31,1.2,2.57,2.62,3.96,4.47,1.84,2.43,3.19,4.76,4.12,7.11l.14.34c.4,1.01.81,2.06,1.08,3.12.27,1.09.48,2.22.68,3.31.11.62.23,1.26.36,1.89.55,2.68,1.27,4.63,2.33,6.32.86,1.38,1.69,2.37,2.62,3.13,1.11.91,2.28,1.79,3.41,2.65.41.31.83.62,1.24.94.29.22.61.32.92.28.28-.03.52-.17.71-.4.43-.52.35-1.16-.19-1.59"/><path class="cls-10" d="M1833.9,628.95l-10.85,3.85c-.55.19-.83.77-.64,1.29.18.47.68.73,1.18.63.05-.01.11-.03.16-.04l10.85-3.85c.55-.2.83-.77.64-1.29-.19-.52-.79-.78-1.34-.59"/><path class="cls-10" d="M1840.08,614.76c1.54-.81,3.16-.93,4.57-.34,1.39.58,2.38,1.76,2.78,3.34.24.97.84,1.43,1.65,1.28.03,0,.06-.01.09-.02.81-.2,1.17-.91.96-1.86-.53-2.35-1.95-4.04-4.34-5.16h-.01c-2.33-.95-4.76-.78-7.02.47-.51.29-.84.65-.95,1.04-.08.32-.02.65.18.95.31.47.92.9,2.1.29"/><path class="cls-10" d="M1834.28,695.13c-1.54.81-3.16.93-4.57.34-1.4-.58-2.38-1.76-2.78-3.34-.12-.5-.33-.86-.62-1.07-.3-.22-.69-.29-1.11-.18-.8.2-1.17.91-.95,1.86.53,2.35,1.95,4.04,4.34,5.16h0c1.48.6,3,.75,4.49.46.86-.17,1.71-.48,2.53-.94.51-.29.84-.65.95-1.04.09-.32.03-.65-.18-.95-.31-.47-.92-.91-2.1-.29"/><path class="cls-10" d="M1816.21,589.82c7.16-1.71,13.8-.33,19.7,4.45.29.23.58.47.82.74.58.67.68,1.42.08,2.12-.64.74-1.42.76-2.19.19-.89-.66-1.72-1.41-2.65-2-10.36-6.6-23.88-1.97-28.05,9.59-.07.19-.13.39-.2.58-.37.94-1.04,1.4-2.03,1.06-.99-.34-1.24-1.13-.95-2.09.16-.55.35-1.1.57-1.62,2.85-6.65,7.78-10.94,14.9-13.02"/><path class="cls-10" d="M1817.87,596.8c5.48-1.3,10.41-.26,14.75,3.36,1.03.86,1.21,1.75.58,2.54-.62.78-1.54.75-2.57-.09-7.32-5.98-17.47-3.27-20.88,5.58-.49,1.28-1.22,1.75-2.17,1.39-.95-.36-1.24-1.21-.78-2.47,1.93-5.32,5.69-8.69,11.07-10.3"/><path class="cls-10" d="M1819.83,603.9c3.41-.74,6.31-.09,8.88,1.97.96.77,1.16,1.69.59,2.44-.63.81-1.53.82-2.57.02-3.88-2.98-8.82-1.65-10.74,2.9-.5,1.18-1.21,1.6-2.14,1.28-.95-.33-1.28-1.24-.79-2.46,1.28-3.24,3.64-5.28,6.78-6.14"/><path class="cls-10" d="M1762.93,460.04c-1.25-.98-2.96-1.47-5.11-1.47h-6.49v19.66h3.54v-6.74h2.47c2.28,0,4.1-.5,5.45-1.5,1.35-1,2.02-2.39,2.02-4.17v-1.63c0-1.78-.63-3.16-1.88-4.14ZM1761.27,465.61c0,2.12-1.35,3.17-4.04,3.17h-2.36v-7.53h2.78c1.14,0,2.03.26,2.67.77s.96,1.29.96,2.32v1.26Z"/><path class="cls-10" d="M1772.45,475.89c-.37,0-.64-.09-.79-.27-.15-.18-.22-.47-.22-.88v-17.3h-3.48v17.81c0,1.09.31,1.91.93,2.49.62.57,1.46.86,2.53.86.64,0,1.3-.12,1.99-.37l-.37-2.39c-.3.04-.5.06-.59.06Z"/><path class="cls-10" d="M1782.45,462.89c-1.35,0-2.53.31-3.54.93-1.01.62-1.79,1.47-2.33,2.54-.54,1.08-.81,2.29-.81,3.64v1.54c0,1.37.28,2.58.84,3.64.56,1.06,1.38,1.89,2.46,2.5,1.08.61,2.35.91,3.83.91,1.03,0,2.03-.17,2.99-.51.96-.34,1.78-.76,2.46-1.26l-1.24-2.08c-.71.39-1.37.7-1.98.91-.61.22-1.28.32-2.01.32-1.31,0-2.29-.33-2.95-1-.66-.66-.99-1.71-1.01-3.13h9.63c.07-.6.11-1.16.11-1.69,0-2.36-.56-4.16-1.69-5.41s-2.71-1.87-4.77-1.87ZM1785.79,469.57h-6.63c.04-1.37.33-2.4.88-3.09.55-.69,1.36-1.04,2.43-1.04s1.91.34,2.47,1.02c.56.68.84,1.67.84,2.96v.14Z"/><path class="cls-10" d="M1797.89,462.89c-2.1,0-4.01.52-5.73,1.57l1.07,2.16c.75-.37,1.46-.66,2.15-.84.68-.19,1.42-.28,2.2-.28.9,0,1.57.2,2.01.6.44.4.66,1.04.66,1.92v1.01h-2.75c-1.93,0-3.45.39-4.55,1.18-1.1.79-1.66,1.84-1.66,3.15v.98c0,.84.22,1.59.67,2.23s1.05,1.14,1.81,1.49,1.59.52,2.49.52c1.74,0,3.22-.6,4.44-1.8l.28,1.43h2.72v-10.08c0-1.65-.49-2.94-1.46-3.86-.97-.93-2.42-1.39-4.35-1.39ZM1800.25,474.55c-.43.49-.93.85-1.5,1.1-.57.24-1.18.37-1.81.37-.73,0-1.28-.17-1.64-.52-.37-.35-.55-.82-.55-1.42v-.56c0-1.52,1.03-2.27,3.09-2.27h2.42v3.31Z"/><path class="cls-10" d="M1812.5,476.01c-.81,0-1.54-.12-2.22-.37-.67-.24-1.34-.61-1.99-1.1l-1.66,1.99c.77.66,1.68,1.16,2.72,1.52,1.05.36,2.2.53,3.45.53,1.7,0,3.13-.37,4.27-1.11s1.71-1.77,1.71-3.1v-.62c0-1.05-.31-1.87-.93-2.47-.62-.6-1.53-1.11-2.72-1.54l-1.88-.65c-.94-.34-1.57-.65-1.91-.93-.34-.28-.51-.63-.51-1.04v-.22c0-.41.2-.75.59-1.02s.96-.41,1.71-.41,1.36.08,1.95.25,1.24.49,1.95.96l1.6-1.91c-.71-.6-1.56-1.06-2.54-1.39-.98-.33-2.01-.49-3.08-.49s-2.06.17-2.92.52c-.86.35-1.54.82-2.02,1.43-.49.61-.73,1.31-.73,2.09v.62c0,.92.29,1.68.88,2.29s1.49,1.13,2.71,1.56l1.88.65c.99.34,1.66.65,1.99.94.34.29.51.68.51,1.17v.22c0,1.09-.95,1.63-2.84,1.63Z"/><path class="cls-10" d="M1828.09,462.89c-1.35,0-2.53.31-3.54.93-1.01.62-1.79,1.47-2.33,2.54-.54,1.08-.81,2.29-.81,3.64v1.54c0,1.37.28,2.58.84,3.64.56,1.06,1.38,1.89,2.46,2.5,1.08.61,2.35.91,3.83.91,1.03,0,2.03-.17,2.99-.51.96-.34,1.78-.76,2.46-1.26l-1.24-2.08c-.71.39-1.37.7-1.98.91-.61.22-1.28.32-2.01.32-1.31,0-2.29-.33-2.95-1-.66-.66-.99-1.71-1.01-3.13h9.63c.07-.6.11-1.16.11-1.69,0-2.36-.56-4.16-1.69-5.41s-2.71-1.87-4.77-1.87ZM1831.43,469.57h-6.63c.04-1.37.33-2.4.88-3.09.55-.69,1.36-1.04,2.43-1.04s1.91.34,2.47,1.02c.56.68.84,1.67.84,2.96v.14Z"/><path class="cls-10" d="M1848.64,478.59c.64,0,1.3-.12,1.99-.37l-.37-2.39c-.3.04-.5.06-.59.06-.37,0-.64-.09-.79-.27-.15-.18-.22-.47-.22-.88v-17.3h-3.48v17.81c0,1.09.31,1.91.93,2.49.62.57,1.46.86,2.53.86Z"/><path class="cls-10" d="M1856.3,477.68c1.08.61,2.35.91,3.83.91,1.03,0,2.03-.17,2.99-.51.96-.34,1.78-.76,2.46-1.26l-1.24-2.08c-.71.39-1.37.7-1.98.91-.61.22-1.28.32-2.01.32-1.31,0-2.29-.33-2.95-1-.66-.66-.99-1.71-1.01-3.13h9.63c.07-.6.11-1.16.11-1.69,0-2.36-.56-4.16-1.69-5.41s-2.71-1.87-4.77-1.87c-1.35,0-2.53.31-3.54.93-1.01.62-1.79,1.47-2.33,2.54-.54,1.08-.81,2.29-.81,3.64v1.54c0,1.37.28,2.58.84,3.64.56,1.06,1.38,1.89,2.46,2.5ZM1857.28,466.48c.55-.69,1.36-1.04,2.43-1.04s1.91.34,2.47,1.02c.56.68.84,1.67.84,2.96v.14h-6.63c.04-1.37.33-2.4.88-3.09Z"/><path class="cls-10" d="M1875.13,462.89c-2.1,0-4.01.52-5.73,1.57l1.07,2.16c.75-.37,1.46-.66,2.15-.84.68-.19,1.42-.28,2.2-.28.9,0,1.57.2,2.01.6.44.4.66,1.04.66,1.92v1.01h-2.75c-1.93,0-3.45.39-4.55,1.18-1.1.79-1.66,1.84-1.66,3.15v.98c0,.84.22,1.59.67,2.23s1.05,1.14,1.81,1.49,1.59.52,2.49.52c1.74,0,3.22-.6,4.44-1.8l.28,1.43h2.72v-10.08c0-1.65-.49-2.94-1.46-3.86-.97-.93-2.42-1.39-4.35-1.39ZM1877.49,474.55c-.43.49-.93.85-1.5,1.1-.57.24-1.18.37-1.81.37-.73,0-1.28-.17-1.64-.52-.37-.35-.55-.82-.55-1.42v-.56c0-1.52,1.03-2.27,3.09-2.27h2.42v3.31Z"/><polygon class="cls-10" points="1890.46 475.44 1887.01 463.28 1883.39 463.28 1888.24 478.22 1892.54 478.22 1897.4 463.28 1893.92 463.28 1890.46 475.44"/><path class="cls-10" d="M1905.85,462.89c-1.35,0-2.53.31-3.54.93-1.01.62-1.79,1.47-2.33,2.54-.54,1.08-.81,2.29-.81,3.64v1.54c0,1.37.28,2.58.84,3.64.56,1.06,1.38,1.89,2.46,2.5,1.08.61,2.35.91,3.83.91,1.03,0,2.03-.17,2.99-.51.96-.34,1.78-.76,2.46-1.26l-1.24-2.08c-.71.39-1.37.7-1.98.91-.61.22-1.28.32-2.01.32-1.31,0-2.29-.33-2.95-1-.66-.66-.99-1.71-1.01-3.13h9.63c.07-.6.11-1.16.11-1.69,0-2.36-.56-4.16-1.69-5.41s-2.71-1.87-4.77-1.87ZM1909.2,469.57h-6.63c.04-1.37.33-2.4.88-3.09.55-.69,1.36-1.04,2.43-1.04s1.91.34,2.47,1.02c.56.68.84,1.67.84,2.96v.14Z"/><path class="cls-10" d="M1928.55,462.89c-2.1,0-4.01.52-5.73,1.57l1.07,2.16c.75-.37,1.46-.66,2.15-.84.68-.19,1.42-.28,2.2-.28.9,0,1.57.2,2.01.6.44.4.66,1.04.66,1.92v1.01h-2.75c-1.93,0-3.45.39-4.55,1.18-1.1.79-1.66,1.84-1.66,3.15v.98c0,.84.22,1.59.67,2.23s1.05,1.14,1.81,1.49,1.59.52,2.49.52c1.74,0,3.22-.6,4.44-1.8l.28,1.43h2.72v-10.08c0-1.65-.49-2.94-1.46-3.86-.97-.93-2.42-1.39-4.35-1.39ZM1930.9,474.55c-.43.49-.93.85-1.5,1.1-.57.24-1.18.37-1.81.37-.73,0-1.28-.17-1.64-.52-.37-.35-.55-.82-.55-1.42v-.56c0-1.52,1.03-2.27,3.09-2.27h2.42v3.31Z"/><path class="cls-10" d="M1950.94,463.61c-.72.44-1.29,1.12-1.7,2.04l-.56-2.36h-2.53v14.94h3.48v-8.93c.39-1.05.92-1.8,1.59-2.25.66-.45,1.45-.67,2.35-.67.32,0,.62.03.9.08l.62-3.23c-.56-.19-1.16-.28-1.8-.28-.84,0-1.62.22-2.34.66Z"/><path class="cls-10" d="M1963.26,462.89c-1.35,0-2.53.31-3.54.93-1.01.62-1.79,1.47-2.33,2.54-.54,1.08-.81,2.29-.81,3.64v1.54c0,1.37.28,2.58.84,3.64.56,1.06,1.38,1.89,2.46,2.5,1.08.61,2.35.91,3.83.91,1.03,0,2.03-.17,2.99-.51.96-.34,1.78-.76,2.46-1.26l-1.24-2.08c-.71.39-1.37.7-1.98.91-.61.22-1.28.32-2.01.32-1.31,0-2.29-.33-2.95-1-.66-.66-.99-1.71-1.01-3.13h9.63c.07-.6.11-1.16.11-1.69,0-2.36-.56-4.16-1.69-5.41s-2.71-1.87-4.77-1.87ZM1966.6,469.57h-6.63c.04-1.37.33-2.4.88-3.09.55-.69,1.36-1.04,2.43-1.04s1.91.34,2.47,1.02c.56.68.84,1.67.84,2.96v.14Z"/><polygon class="cls-10" points="1978.76 475.44 1975.31 463.28 1971.68 463.28 1976.54 478.22 1980.84 478.22 1985.7 463.28 1982.22 463.28 1978.76 475.44"/><path class="cls-10" d="M1991.01,456.77c-.58,0-1.08.21-1.49.62s-.62.91-.62,1.49.21,1.07.62,1.47c.41.4.91.6,1.49.6s1.08-.2,1.49-.6c.41-.4.62-.89.62-1.47s-.21-1.1-.62-1.5c-.41-.4-.91-.6-1.49-.6Z"/><polygon class="cls-10" points="1987.16 465.87 1989.41 465.87 1989.41 478.22 1992.89 478.22 1992.89 463.28 1987.16 463.28 1987.16 465.87"/><path class="cls-10" d="M2003.31,462.89c-1.35,0-2.53.31-3.54.93-1.01.62-1.79,1.47-2.33,2.54-.54,1.08-.81,2.29-.81,3.64v1.54c0,1.37.28,2.58.84,3.64.56,1.06,1.38,1.89,2.46,2.5,1.08.61,2.35.91,3.83.91,1.03,0,2.03-.17,2.99-.51.96-.34,1.78-.76,2.46-1.26l-1.24-2.08c-.71.39-1.37.7-1.98.91-.61.22-1.28.32-2.01.32-1.31,0-2.29-.33-2.95-1-.66-.66-.99-1.71-1.01-3.13h9.63c.07-.6.11-1.16.11-1.69,0-2.36-.56-4.16-1.69-5.41s-2.71-1.87-4.77-1.87ZM2006.65,469.57h-6.63c.04-1.37.33-2.4.88-3.09.55-.69,1.36-1.04,2.43-1.04s1.91.34,2.47,1.02c.56.68.84,1.67.84,2.96v.14Z"/><polygon class="cls-10" points="2029.06 463.28 2026.96 475.3 2024.26 463.28 2020.38 463.28 2017.72 475.3 2015.5 463.28 2012.01 463.28 2015.38 478.22 2019.6 478.22 2022.27 466.32 2024.88 478.22 2029.17 478.22 2032.49 463.28 2029.06 463.28"/><polygon class="cls-10" points="1693.41 630.62 1694.99 630.62 1694.99 617.18 1699.4 617.18 1699.4 615.87 1689.03 615.87 1689.03 617.18 1693.41 617.18 1693.41 630.62"/><path class="cls-10" d="M1704.66,615.87l-4.82,14.74h1.62l1.43-4.55h5.75l1.52,4.55h1.64l-4.97-14.74h-2.17ZM1703.29,624.76l2.44-7.73,2.49,7.73h-4.93Z"/><path class="cls-10" d="M1723.02,616.95c-.91-.72-2.13-1.07-3.68-1.07h-4.28v14.74h1.58v-5.35h2.34c1.69,0,3-.37,3.96-1.1.95-.73,1.43-1.75,1.43-3.05v-1.14c0-1.31-.45-2.32-1.36-3.03ZM1722.8,621.05c0,.98-.33,1.72-.99,2.2-.66.48-1.62.73-2.86.73h-2.3v-6.83h2.65c1.1,0,1.95.25,2.57.74.62.49.93,1.21.93,2.17v.99Z"/><path class="cls-10" d="M1703.99,639.02c-1.9,0-3.32.55-4.29,1.65-.96,1.1-1.44,2.57-1.44,4.39v3.24c0,1.14.21,2.16.62,3.05.41.9,1.05,1.61,1.91,2.13.86.52,1.92.78,3.2.78s2.35-.26,3.2-.78,1.49-1.23,1.91-2.13.62-1.92.62-3.05v-3.24c0-1.81-.48-3.27-1.43-4.38-.96-1.11-2.39-1.66-4.3-1.66ZM1708.14,648.35c0,1.38-.34,2.49-1.03,3.35-.69.86-1.73,1.29-3.12,1.29s-2.43-.43-3.12-1.29-1.03-1.97-1.03-3.35v-3.31c0-1.45.34-2.6,1.03-3.45s1.73-1.29,3.12-1.29,2.45.43,3.13,1.3c.68.86,1.02,2.01,1.02,3.44v3.31Z"/><path class="cls-10" d="M1722.58,646.2c.53-.6.79-1.33.79-2.17v-.97c0-1.17-.45-2.09-1.36-2.77-.91-.68-2.12-1.02-3.65-1.02h-4.34v14.75h1.58v-6.24h2.8c.2,0,.34,0,.42-.02l3.37,6.26h1.75l-3.54-6.53c.93-.25,1.65-.68,2.18-1.29ZM1718.37,646.5h-2.78v-5.94h2.74c1.05,0,1.89.22,2.51.67.62.45.93,1.07.93,1.88v.88c0,.8-.3,1.42-.9,1.85-.6.44-1.43.65-2.5.65Z"/><path class="cls-10" d="M1679.09,669.37l-1.92-.61c-.97-.31-1.67-.65-2.1-1.03s-.64-.81-.64-1.31v-.44c0-.37.12-.72.36-1.06.24-.34.61-.63,1.12-.86s1.14-.35,1.9-.35c.81,0,1.53.12,2.14.37.61.25,1.23.64,1.84,1.19l.84-.93c-1.28-1.28-2.89-1.92-4.84-1.92-1.05,0-1.95.17-2.7.52-.74.34-1.3.79-1.67,1.34-.37.55-.56,1.12-.56,1.71v.46c0,.8.27,1.49.8,2.08s1.4,1.08,2.61,1.48l2.11.7c1.01.34,1.72.7,2.13,1.07s.61.91.61,1.6v.34c0,.42-.13.83-.4,1.23-.27.4-.68.73-1.23.99s-1.24.39-2.05.39c-.7,0-1.3-.06-1.8-.19-.5-.13-.92-.29-1.27-.5-.35-.2-.76-.48-1.22-.83l-.84.99c1.25,1.25,2.96,1.88,5.14,1.88,1.08,0,2.02-.18,2.81-.53.79-.35,1.4-.83,1.82-1.43s.63-1.26.63-1.98v-.53c0-1.03-.31-1.83-.93-2.4-.62-.58-1.51-1.05-2.68-1.43Z"/><path class="cls-10" d="M1688.46,664.91c.7-.8,1.69-1.2,2.97-1.2.7,0,1.31.11,1.82.33.51.22,1.01.52,1.48.92l.84-.95c-.58-.51-1.19-.9-1.84-1.17-.65-.27-1.44-.41-2.35-.41-1.15,0-2.15.24-2.98.73-.84.49-1.47,1.17-1.92,2.04s-.66,1.91-.66,3.09v3.9c0,1.67.48,3,1.43,4,.95,1,2.3,1.5,4.02,1.5.86,0,1.63-.14,2.33-.41.7-.27,1.3-.62,1.82-1.04l-.7-1.01c-.48.37-.99.65-1.54.86-.55.21-1.18.32-1.9.32-1.26,0-2.23-.37-2.9-1.12-.67-.74-1-1.79-1-3.14v-3.9c0-1.42.35-2.53,1.05-3.33Z"/><path class="cls-10" d="M1701.84,662.68l-4.82,14.75h1.62l1.43-4.55h5.75l1.52,4.55h1.64l-4.97-14.75h-2.17ZM1700.47,671.56l2.44-7.73,2.49,7.73h-4.93Z"/><polygon class="cls-10" points="1721.24 675.4 1714.16 662.7 1714.18 662.68 1712.24 662.68 1712.24 677.42 1713.68 677.42 1713.68 664.66 1720.77 677.42 1722.67 677.42 1722.67 662.68 1721.24 662.68 1721.24 675.4"/><polygon class="cls-10" points="1812.69 729.96 1805.4 729.96 1805.4 731.33 1808.17 731.33 1808.17 739.79 1809.94 739.79 1809.94 731.33 1812.69 731.33 1812.69 729.96"/><path class="cls-10" d="M1815.64,729.96l-3.01,9.83h1.78l.74-2.58h3.4l.81,2.58h1.83l-3.16-9.83h-2.4ZM1815.55,735.79l1.28-4.59,1.31,4.59h-2.58Z"/><path class="cls-10" d="M1828.68,730.7c-.63-.49-1.48-.74-2.56-.74h-3.24v9.83h1.77v-3.37h1.24c1.14,0,2.05-.25,2.72-.75.67-.5,1.01-1.2,1.01-2.09v-.81c0-.89-.31-1.58-.94-2.07ZM1827.86,733.49c0,1.06-.67,1.59-2.02,1.59h-1.18v-3.76h1.39c.57,0,1.02.13,1.33.39.32.26.48.64.48,1.16v.63Z"/><polygon class="cls-10" points="1840.94 734.02 1837 734.02 1837 729.96 1835.23 729.96 1835.23 739.79 1837 739.79 1837 735.45 1840.94 735.45 1840.94 739.79 1842.71 739.79 1842.71 729.96 1840.94 729.96 1840.94 734.02"/><polygon class="cls-10" points="1845.66 739.79 1851.4 739.79 1851.4 738.42 1847.43 738.42 1847.43 735.48 1851.1 735.48 1851.1 734.12 1847.43 734.12 1847.43 731.33 1851.4 731.33 1851.4 729.96 1845.66 729.96 1845.66 739.79"/><path class="cls-10" d="M1860.12,734.68c.31-.39.47-.86.47-1.39v-.73c0-.81-.31-1.44-.94-1.9-.63-.46-1.46-.7-2.5-.7h-3.31v9.83h1.77v-3.89h1.49l2.04,3.89h1.94l-2.26-4.2c.56-.22,1-.52,1.31-.91ZM1858.35,734.23c-.3.23-.72.35-1.26.35h-1.49v-3.29h1.47c.53,0,.96.12,1.26.35.31.23.46.57.46,1v.6c0,.42-.15.75-.46.98Z"/><polygon class="cls-10" points="1863.09 739.79 1868.83 739.79 1868.83 738.42 1864.86 738.42 1864.86 735.48 1868.52 735.48 1868.52 734.12 1864.86 734.12 1864.86 731.33 1868.83 731.33 1868.83 729.96 1863.09 729.96 1863.09 739.79"/><rect class="cls-10" x="1955.66" y="552.43" width="172.49" height="185.76" rx="9.95" ry="9.95"/><rect class="cls-6" x="2045.14" y="587.43" width="6.03" height="6.03"/><polygon class="cls-6" points="2027.06 599.49 2027.06 605.51 2027.06 611.54 2033.09 611.54 2033.09 605.51 2033.09 599.49 2033.09 593.46 2027.06 593.46 2027.06 599.49"/><rect class="cls-6" x="2039.11" y="593.46" width="6.03" height="6.03"/><polygon class="cls-6" points="2021.04 605.51 2021.04 599.49 2015.01 599.49 2015.01 605.51 2015.01 611.54 2021.04 611.54 2021.04 605.51"/><polygon class="cls-6" points="2057.19 605.51 2063.22 605.51 2063.22 599.49 2069.24 599.49 2069.24 593.46 2069.24 587.43 2069.24 581.41 2069.24 575.38 2063.22 575.38 2057.19 575.38 2051.16 575.38 2045.14 575.38 2039.11 575.38 2033.09 575.38 2033.09 581.41 2027.06 581.41 2027.06 575.38 2027.06 569.36 2021.04 569.36 2021.04 575.38 2015.01 575.38 2015.01 581.41 2021.04 581.41 2021.04 587.43 2015.01 587.43 2015.01 593.46 2021.04 593.46 2027.06 593.46 2027.06 587.43 2033.09 587.43 2033.09 593.46 2039.11 593.46 2039.11 587.43 2039.11 581.41 2045.14 581.41 2051.16 581.41 2051.16 587.43 2057.19 587.43 2057.19 581.41 2063.22 581.41 2063.22 587.43 2057.19 587.43 2057.19 593.46 2057.19 599.49 2051.16 599.49 2045.14 599.49 2045.14 605.51 2051.16 605.51 2051.16 611.54 2045.14 611.54 2045.14 605.51 2039.11 605.51 2039.11 611.54 2039.11 617.56 2039.11 623.59 2045.14 623.59 2045.14 617.56 2051.16 617.56 2057.19 617.56 2057.19 611.54 2057.19 605.51"/><polygon class="cls-6" points="2063.22 617.56 2069.24 617.56 2069.24 611.54 2069.24 605.51 2063.22 605.51 2063.22 611.54 2063.22 617.56"/><rect class="cls-6" x="2057.19" y="617.56" width="6.03" height="6.03"/><rect class="cls-6" x="2069.24" y="617.56" width="6.03" height="6.03"/><rect class="cls-6" x="2081.29" y="617.56" width="6.03" height="6.03"/><rect class="cls-6" x="2093.35" y="617.56" width="6.03" height="6.03"/><rect class="cls-6" x="2105.4" y="617.56" width="6.03" height="6.03"/><rect class="cls-6" x="2111.42" y="623.59" width="6.03" height="6.03"/><polygon class="cls-6" points="2087.32 635.64 2093.35 635.64 2093.35 629.62 2093.35 623.59 2087.32 623.59 2087.32 629.62 2087.32 635.64"/><rect class="cls-6" x="2099.37" y="629.62" width="6.03" height="6.03"/><rect class="cls-6" x="2002.96" y="641.67" width="6.03" height="6.03"/><polygon class="cls-6" points="2105.4 641.67 2105.4 647.69 2111.42 647.69 2111.42 653.72 2117.45 653.72 2117.45 647.69 2117.45 641.67 2111.42 641.67 2105.4 641.67"/><rect class="cls-6" x="2027.06" y="647.69" width="6.03" height="6.03"/><rect class="cls-6" x="2099.37" y="653.72" width="6.03" height="6.03"/><path class="cls-6" d="M2015.01,659.74h6.03s6.03,0,6.03,0v-6.03h-6.03s0-6.03,0-6.03h6.03v-6.03s6.03,0,6.03,0v6.03h6.03s0,6.03,0,6.03v6.03s0,6.03,0,6.03h6.03v-6.03s6.03,0,6.03,0h6.03s6.03,0,6.03,0v-6.03s6.03,0,6.03,0v6.03h6.03s6.03,0,6.03,0v-6.03s6.03,0,6.03,0v6.03h6.03v-6.03s0-6.03,0-6.03h6.03v-6.03h-6.03s-6.03,0-6.03,0v-6.03h-6.03v6.03s-6.03,0-6.03,0v-6.03s6.03,0,6.03,0v-6.03s0-6.03,0-6.03h-6.03v6.03s-6.03,0-6.03,0v6.03s-6.03,0-6.03,0v6.03s-6.03,0-6.03,0v-6.03s6.03,0,6.03,0v-6.03h-6.03s0-6.03,0-6.03h-6.03v6.03s-6.03,0-6.03,0h-6.03s-6.03,0-6.03,0v6.03s-6.03,0-6.03,0v-6.03s0-6.03,0-6.03h6.03v-6.03h-6.03s-6.03,0-6.03,0h-6.03s-6.03,0-6.03,0h-6.03v6.03h6.03s6.03,0,6.03,0v6.03s0,6.03,0,6.03v6.03s0,6.03,0,6.03v6.03s-6.03,0-6.03,0h-6.03s-6.03,0-6.03,0v-6.03s0-6.03,0-6.03h6.03v-6.03s6.03,0,6.03,0v-6.03h-6.03s0-6.03,0-6.03h-6.03v6.03s-6.03,0-6.03,0v-6.03s6.03,0,6.03,0v-6.03h-6.03s-6.03,0-6.03,0h-6.03s-6.03,0-6.03,0h-6.03v6.03s0,6.03,0,6.03v6.03s0,6.03,0,6.03v6.03s0,6.03,0,6.03v6.03s0,6.03,0,6.03v6.03h6.03v-6.03s0-6.03,0-6.03v-6.03s0-6.03,0-6.03h6.03v-6.03h-6.03s0-6.03,0-6.03h6.03v-6.03h-6.03s0-6.03,0-6.03h6.03s6.03,0,6.03,0v6.03s0,6.03,0,6.03h6.03s0,6.03,0,6.03v6.03s-6.03,0-6.03,0v6.03s-6.03,0-6.03,0v6.03s0,6.03,0,6.03h6.03s6.03,0,6.03,0v-6.03s6.03,0,6.03,0v6.03s0,6.03,0,6.03h6.03s6.03,0,6.03,0h6.03v-6.03s0-6.03,0-6.03ZM2045.14,653.72v-6.03s6.03,0,6.03,0v6.03s-6.03,0-6.03,0ZM2045.14,635.64h6.03s0,6.03,0,6.03h-6.03s-6.03,0-6.03,0v-6.03s6.03,0,6.03,0ZM2002.96,665.77v-6.03s6.03,0,6.03,0v6.03s-6.03,0-6.03,0Z"/><polygon class="cls-6" points="2105.4 659.74 2105.4 665.77 2111.42 665.77 2111.42 671.8 2111.42 677.82 2105.4 677.82 2099.37 677.82 2099.37 683.85 2105.4 683.85 2111.42 683.85 2117.45 683.85 2117.45 677.82 2117.45 671.8 2117.45 665.77 2117.45 659.74 2111.42 659.74 2105.4 659.74"/><rect class="cls-6" x="2075.27" y="677.82" width="6.03" height="6.03"/><path class="cls-6" d="M2093.35,677.82v-6.03s6.03,0,6.03,0v-6.03h-6.03s-6.03,0-6.03,0h-6.03s-6.03,0-6.03,0h-6.03s0-6.03,0-6.03h-6.03v6.03s-6.03,0-6.03,0v6.03s-6.03,0-6.03,0v6.03s-6.03,0-6.03,0v-6.03h-6.03v6.03s0,6.03,0,6.03h6.03s0,6.03,0,6.03h6.03s6.03,0,6.03,0v-6.03s6.03,0,6.03,0v6.03s0,6.03,0,6.03h-6.03s-6.03,0-6.03,0v6.03h6.03s6.03,0,6.03,0h6.03v-6.03s6.03,0,6.03,0v6.03h6.03s0,6.03,0,6.03h6.03s0,6.03,0,6.03h6.03s0,6.03,0,6.03h6.03s6.03,0,6.03,0h6.03s6.03,0,6.03,0v-6.03h-6.03s0-6.03,0-6.03h-6.03s0-6.03,0-6.03h-6.03v6.03s-6.03,0-6.03,0v-6.03s6.03,0,6.03,0v-6.03s0-6.03,0-6.03v-6.03h-6.03s0-6.03,0-6.03ZM2087.32,689.87h-6.03s-6.03,0-6.03,0h-6.03s0-6.03,0-6.03v-6.03s0-6.03,0-6.03h6.03s6.03,0,6.03,0h6.03s0,6.03,0,6.03v6.03s0,6.03,0,6.03Z"/><polygon class="cls-6" points="2075.27 701.93 2069.24 701.93 2069.24 707.95 2063.22 707.95 2063.22 713.98 2057.19 713.98 2051.16 713.98 2051.16 707.95 2051.16 701.93 2045.14 701.93 2045.14 695.9 2039.11 695.9 2033.09 695.9 2027.06 695.9 2027.06 689.87 2033.09 689.87 2039.11 689.87 2039.11 683.85 2033.09 683.85 2027.06 683.85 2027.06 677.82 2021.04 677.82 2021.04 671.8 2015.01 671.8 2015.01 677.82 2015.01 683.85 2021.04 683.85 2021.04 689.87 2015.01 689.87 2015.01 695.9 2015.01 701.93 2015.01 707.95 2015.01 713.98 2015.01 720 2021.04 720 2021.04 713.98 2027.06 713.98 2027.06 707.95 2021.04 707.95 2021.04 701.93 2027.06 701.93 2027.06 707.95 2033.09 707.95 2033.09 701.93 2039.11 701.93 2039.11 707.95 2045.14 707.95 2045.14 713.98 2039.11 713.98 2039.11 720 2045.14 720 2051.16 720 2057.19 720 2063.22 720 2069.24 720 2069.24 713.98 2075.27 713.98 2081.29 713.98 2081.29 707.95 2075.27 707.95 2075.27 701.93"/><polygon class="cls-6" points="2111.42 707.95 2117.45 707.95 2117.45 701.93 2117.45 695.9 2111.42 695.9 2105.4 695.9 2105.4 701.93 2111.42 701.93 2111.42 707.95"/><rect class="cls-6" x="2033.09" y="707.95" width="6.03" height="6.03"/><path class="cls-6" d="M1978.91,611.54h6.03s6.03,0,6.03,0h6.03s6.03,0,6.03,0h6.03v-6.03s0-6.03,0-6.03v-6.03s0-6.03,0-6.03v-6.03s0-6.03,0-6.03v-6.03h-6.03s-6.03,0-6.03,0h-6.03s-6.03,0-6.03,0h-6.03s-6.03,0-6.03,0h-6.03v6.03s0,6.03,0,6.03v6.03s0,6.03,0,6.03v6.03s0,6.03,0,6.03v6.03h6.03s6.03,0,6.03,0ZM1972.89,599.49v-6.03s0-6.03,0-6.03v-6.03s0-6.03,0-6.03h6.03s6.03,0,6.03,0h6.03s6.03,0,6.03,0h6.03s0,6.03,0,6.03v6.03s0,6.03,0,6.03v6.03s0,6.03,0,6.03h-6.03s-6.03,0-6.03,0h-6.03s-6.03,0-6.03,0h-6.03s0-6.03,0-6.03Z"/><polygon class="cls-6" points="1990.91 599.49 1990.91 599.49 1996.93 599.49 1996.93 593.46 1996.93 587.43 1996.93 581.41 1990.91 581.41 1990.91 581.41 1984.88 581.41 1978.85 581.41 1978.85 587.43 1978.85 593.46 1978.85 599.49 1984.88 599.49 1990.91 599.49"/><path class="cls-6" d="M2111.48,569.36h-6.03s-6.03,0-6.03,0h0s-6.03,0-6.03,0h-6.03s-6.03,0-6.03,0h-6.03v6.03s0,6.03,0,6.03v6.03s0,6.03,0,6.03v6.03s0,6.03,0,6.03v6.03h6.03s6.03,0,6.03,0h6.03s6.03,0,6.03,0h0s6.03,0,6.03,0h6.03s6.03,0,6.03,0v-6.03s0-6.03,0-6.03v-6.03s0-6.03,0-6.03v-6.03s0-6.03,0-6.03v-6.03h-6.03ZM2111.48,581.41v6.03s0,6.03,0,6.03v6.03s0,6.03,0,6.03h-6.03s-6.03,0-6.03,0h0s-6.03,0-6.03,0h-6.03s-6.03,0-6.03,0v-6.03s0-6.03,0-6.03v-6.03s0-6.03,0-6.03v-6.03s6.03,0,6.03,0h6.03s6.03,0,6.03,0h0s6.03,0,6.03,0h6.03s0,6.03,0,6.03Z"/><polygon class="cls-6" points="2099.37 581.41 2093.35 581.41 2087.32 581.41 2087.32 587.43 2087.32 593.46 2087.32 599.49 2093.35 599.49 2099.37 599.49 2099.37 599.49 2105.4 599.49 2105.4 593.46 2105.4 587.43 2105.4 581.41 2099.37 581.41 2099.37 581.41"/><path class="cls-6" d="M1996.99,677.82h-6.03s-6.03,0-6.03,0h-6.03s-6.03,0-6.03,0h-6.03v6.03s0,6.03,0,6.03v6.03s0,6.03,0,6.03v6.03s0,6.03,0,6.03v6.03h6.03s6.03,0,6.03,0h6.03s6.03,0,6.03,0h6.03s6.03,0,6.03,0h6.03v-6.03s0-6.03,0-6.03v-6.03s0-6.03,0-6.03v-6.03s0-6.03,0-6.03v-6.03h-6.03s-6.03,0-6.03,0ZM2003.02,689.87v6.03s0,6.03,0,6.03v6.03s0,6.03,0,6.03h-6.03s-6.03,0-6.03,0h-6.03s-6.03,0-6.03,0h-6.03s0-6.03,0-6.03v-6.03s0-6.03,0-6.03v-6.03s0-6.03,0-6.03h6.03s6.03,0,6.03,0h6.03s6.03,0,6.03,0h6.03s0,6.03,0,6.03Z"/><polygon class="cls-6" points="1990.91 689.87 1984.88 689.87 1978.85 689.87 1978.85 695.9 1978.85 701.93 1978.85 707.95 1984.88 707.95 1990.91 707.95 1990.91 707.95 1996.93 707.95 1996.93 701.93 1996.93 695.9 1996.93 689.87 1990.91 689.87 1990.91 689.87"/></svg>