<?xml version="1.0" encoding="UTF-8"?><svg id="Layer_1" xmlns="http://www.w3.org/2000/svg" xmlns:xlink="http://www.w3.org/1999/xlink" viewBox="0 0 2280 2030"><defs><style>.cls-1{clip-path:url(#clippath);}.cls-2{fill:#557ebe;}.cls-2,.cls-3,.cls-4,.cls-5,.cls-6,.cls-7,.cls-8,.cls-9{stroke-width:0px;}.cls-3{fill:none;}.cls-4{fill:#f7bb16;}.cls-10{clip-path:url(#clippath-1);}.cls-11{clip-path:url(#clippath-3);}.cls-12{clip-path:url(#clippath-2);}.cls-5{fill:#36a952;}.cls-6{fill:#232323;}.cls-7{fill:#929497;}.cls-8{fill:#e94435;}.cls-13{fill:url(#linear-gradient);stroke:#aab9d6;stroke-miterlimit:10;}.cls-9{fill:#fff;}</style><linearGradient id="linear-gradient" x1="226.72" y1="282.11" x2="475.51" y2="-5.88" gradientTransform="translate(126.94 2147.75) rotate(-90)" gradientUnits="userSpaceOnUse"><stop offset=".26" stop-color="#2d3f74"/><stop offset=".93" stop-color="#799acc"/></linearGradient><clipPath id="clippath"><rect class="cls-3" x="19.48" y="1649.43" width="590.89" height="380.57"/></clipPath><clipPath id="clippath-1"><rect class="cls-3" x="19.48" y="1649.43" width="590.89" height="380.57"/></clipPath><clipPath id="clippath-2"><rect class="cls-3" x="19.48" y="1649.43" width="590.89" height="380.57"/></clipPath><clipPath id="clippath-3"><rect class="cls-3" x="19.48" y="1649.43" width="590.89" height="380.57"/></clipPath></defs><rect class="cls-13" x="19.48" y="1649.43" width="590.89" height="380.57" rx="20.98" ry="20.98"/><g class="cls-1"><path class="cls-9" d="M132.44,1839.71c0-20.12-16.31-36.42-36.42-36.42s-36.42,16.31-36.42,36.42,16.31,36.42,36.42,36.42,36.42-16.31,36.42-36.42"/><path class="cls-8" d="M79.38,1839.1c0-3.82,1.35-7.26,3.57-9.97l-7.88-7.87c-4.18,4.8-6.77,10.95-6.77,17.84,0,10.7,6.13,19.89,15.08,24.3l6.97-9.11c-6.38-2.1-10.97-8.08-10.97-15.19"/><path class="cls-4" d="M95.38,1855.1c-1.76,0-3.44-.29-5.03-.81l-6.96,9.11c3.61,1.78,7.68,2.78,11.99,2.78s8.38-1,11.98-2.77c0,0,0,0,0,0l-6.96-9.11s-.02,0-.02,0c-1.57.52-3.25.8-5,.8"/><path class="cls-2" d="M90.46,1839.1h10.46v-14.52c3.57.73,6.31,2.7,8.09,5.53l6.7-8.65c-4.62-4.97-11.5-8.2-20.32-8.2-1.6,0-3.32.24-4.92.61v25.23Z"/><path class="cls-5" d="M111.37,1839.1c0,7.1-4.59,13.08-10.97,15.19l6.97,9.11c8.95-4.4,15.08-13.6,15.08-24.3,0-6.6-2.35-12.91-6.75-17.64l-6.69,8.65c1.54,2.44,2.37,5.51,2.37,8.99"/></g><path class="cls-9" d="M154.69,1884.38c-.61-.43-1.36-.65-2.25-.65-1.31,0-2.32.42-3.01,1.26-.7.84-1.04,2.03-1.04,3.58v4.71h13.4v-2.33h-5.15v-2.6l5.15-2.69v-2.49h-.12l-5.58,3.01c-.33-.77-.79-1.37-1.39-1.81ZM154.75,1888.56v2.39h-4.49v-2.46c.01-.81.21-1.42.61-1.83.39-.41.95-.61,1.66-.61s1.23.22,1.63.66c.39.44.59,1.05.59,1.84Z"/><path class="cls-9" d="M151.64,1877.61c0,.85.22,1.63.65,2.32.44.7,1.04,1.23,1.83,1.61.78.38,1.67.58,2.66.58h.27c1.48,0,2.67-.44,3.57-1.32.89-.88,1.34-2.03,1.34-3.45,0-.83-.16-1.58-.49-2.24-.33-.67-.79-1.2-1.39-1.6l-1.15,1.21c.83.64,1.24,1.48,1.24,2.5,0,.73-.24,1.34-.72,1.82s-1.13.75-1.95.82v-6.5h-.9c-1.58,0-2.81.37-3.67,1.11-.86.74-1.3,1.79-1.3,3.14ZM155.88,1875.57v4.26c-.77-.1-1.37-.34-1.8-.72-.43-.38-.64-.87-.64-1.48s.19-1.1.58-1.45.95-.55,1.7-.6h.16Z"/><polygon class="cls-9" points="158.95 1868.23 151.83 1870.36 151.83 1872.68 161.78 1869.2 161.78 1867.26 151.83 1863.81 151.83 1866.12 158.95 1868.23"/><rect class="cls-9" x="151.83" y="1860.04" width="9.96" height="2.24"/><path class="cls-9" d="M148.05,1861.15c0,.4.11.72.34.93.23.22.51.33.86.33s.62-.11.84-.33.33-.53.33-.93-.11-.72-.33-.94c-.22-.22-.51-.33-.84-.33s-.63.11-.86.33c-.23.22-.34.53-.34.94Z"/><path class="cls-9" d="M151.64,1853.48c0,.85.22,1.63.65,2.32.44.7,1.04,1.23,1.83,1.61.78.38,1.67.58,2.66.58h.27c1.48,0,2.67-.44,3.57-1.32.89-.88,1.34-2.03,1.34-3.45,0-.83-.16-1.58-.49-2.24-.33-.67-.79-1.2-1.39-1.6l-1.15,1.21c.83.64,1.24,1.48,1.24,2.5,0,.73-.24,1.34-.72,1.82s-1.13.75-1.95.82v-6.5h-.9c-1.58,0-2.81.37-3.67,1.11-.86.74-1.3,1.79-1.3,3.14ZM155.88,1851.44v4.26c-.77-.1-1.37-.34-1.8-.72-.43-.38-.64-.87-.64-1.48s.19-1.1.58-1.45.95-.55,1.7-.6h.16Z"/><polygon class="cls-9" points="158.7 1838.75 151.83 1840.82 151.83 1842.5 158.63 1844.55 151.83 1846.16 151.83 1848.34 161.78 1845.61 161.78 1843.77 154.95 1841.68 161.78 1839.54 161.78 1837.7 151.83 1834.99 151.83 1837.17 158.7 1838.75"/><path class="cls-9" d="M158.98,1822.84c.78.38,1.17,1.11,1.17,2.2s-.63,1.57-1.9,1.57h-6.42v2.24h6.45c1.2,0,2.11-.28,2.74-.83.63-.56.95-1.37.95-2.45,0-1.21-.39-2.14-1.16-2.8l.98-.05v-2.11h-9.96v2.24h7.15Z"/><path class="cls-9" d="M156.64,1812.02c-.27.5-.5,1.19-.69,2.07-.19.88-.38,1.46-.57,1.75-.19.29-.46.43-.8.43-.38,0-.68-.15-.91-.46s-.34-.71-.34-1.2c0-.53.14-.95.43-1.27.29-.32.64-.48,1.07-.48v-2.24c-.94,0-1.7.37-2.29,1.1s-.88,1.7-.88,2.88c0,1.12.29,2.04.86,2.76s1.29,1.09,2.15,1.09c1.03,0,1.81-.56,2.35-1.67.24-.51.45-1.14.61-1.91.16-.76.34-1.3.55-1.63.21-.33.51-.49.91-.49.36,0,.66.15.88.46.22.31.33.75.33,1.34s-.14,1.1-.43,1.46c-.29.37-.69.57-1.22.6v2.17c.59,0,1.15-.18,1.67-.53.51-.36.92-.85,1.21-1.49.29-.64.44-1.36.44-2.18,0-1.2-.28-2.18-.83-2.92-.55-.74-1.28-1.11-2.18-1.11-.53,0-.99.12-1.36.36-.37.24-.7.61-.96,1.11Z"/><path class="cls-9" d="M152.94,1796.44c-.86.84-1.3,1.93-1.3,3.27,0,.91.21,1.71.63,2.41.42.7,1.02,1.24,1.8,1.63s1.66.58,2.64.58h.11c1.56,0,2.8-.42,3.74-1.27.93-.84,1.4-1.97,1.4-3.37,0-.92-.21-1.73-.64-2.44-.42-.7-1.02-1.24-1.79-1.62-.77-.38-1.65-.57-2.63-.57h-.53c-1.43.08-2.58.53-3.44,1.37ZM159.3,1797.93c.59.42.88,1.01.88,1.76s-.29,1.34-.87,1.77c-.58.42-1.38.63-2.4.63-1.15,0-2.02-.21-2.6-.64-.58-.43-.87-1.01-.87-1.74s.29-1.33.88-1.76,1.39-.65,2.39-.65c1.14,0,2,.21,2.58.63Z"/><path class="cls-9" d="M151.64,1788.14c0,1.2.44,2.16,1.34,2.9l-1.15.06v2.11h9.96v-2.24h-7.08c-.82-.44-1.23-1.12-1.23-2.02,0-.62.15-1.07.46-1.34s.77-.41,1.4-.41h6.45v-2.24h-6.58c-2.38.04-3.56,1.09-3.56,3.16Z"/><g class="cls-10"><path class="cls-9" d="M187.48,1890.51v23.32h6.92v-16.54c9.69.82,13.84,8.89,13.84,16.51.04,10.04-8.06,18.22-18.1,18.26-.11,0-.22,0-.33,0-10.47,0-18.54-8.11-18.54-18.28,0-7.85,5-12.47,5-12.47l-5.02-4.84s-6.92,6.22-6.92,17.57c0,14.44,12.19,25.62,25.36,25.62s25.49-10.51,25.49-25.98c0-13.61-9.32-23.58-23.11-23.58-2.91,0-4.59.42-4.59.42h0Z"/><path class="cls-9" d="M188.89,1871.31c0-4.7,3.81-9.16,9.94-9.16s9.91,4.44,9.91,9.19c0,5.21-4.18,9.31-9.96,9.31s-9.89-4.06-9.89-9.35h0ZM182.47,1871.4c0,9.57,7.48,16.43,16.21,16.43s16.48-6.65,16.48-16.54c0-8.95-6.84-16.29-16.29-16.29-10.8,0-16.4,8.53-16.4,16.4h0Z"/><path class="cls-9" d="M188.89,1835.58c0-4.7,3.81-9.16,9.94-9.16s9.91,4.44,9.91,9.19c0,5.21-4.18,9.31-9.96,9.31s-9.89-4.06-9.89-9.35h0ZM182.47,1835.67c0,9.57,7.48,16.43,16.21,16.43s16.48-6.65,16.48-16.54c0-8.95-6.84-16.29-16.29-16.29-10.8,0-16.4,8.53-16.4,16.4h0Z"/><path class="cls-9" d="M188.89,1799.99c0-4.31,3.68-8.73,9.96-8.73s9.9,4.42,9.9,8.82c0,4.68-3.8,9.04-9.84,9.04s-10.02-4.52-10.02-9.13ZM182.49,1800.63c0,8.79,7.69,15.69,16.33,15.69,9.84,0,16.36-8,16.36-15.53,0-4.66-1.85-7.13-3.97-8.94h3.22c5.64,0,9.01,3.42,9.01,8.59s-3.71,7.5-5.82,8.38l2.61,6.28c4.71-2.23,9.62-6.72,9.62-14.72,0-8.75-5.5-15.39-17.04-15.39h-29.35v6.83h2.77c-2.27,2.1-3.75,4.99-3.75,8.81h0Z"/><path class="cls-9" d="M188.73,1754.2c0-2.99,1.59-5.13,3.49-6.05l6.12,14.63c-4.74.63-9.61-3.86-9.61-8.57v-.02ZM182.45,1754.48c0,8.29,6.6,15.24,16.32,15.24,10.29,0,16.4-7.75,16.4-16.02,0-6.91-3.78-11.18-7.17-13.69l-3.76,5.65c2.27,1.47,4.5,3.92,4.5,8.01,0,4.59-2.52,6.71-4.96,8.02l-9.09-21.91-2.66,1.12c-5.21,2.12-9.57,7.05-9.57,13.59h0Z"/></g><rect class="cls-9" x="166.03" y="1772.99" width="48.17" height="7.2"/><g class="cls-12"><polygon class="cls-4" points="247.89 1907.58 247.05 1916.45 246.9 1917.99 237.1 1922.14 246.91 1926.28 247.91 1936.68 254.96 1928.83 260.77 1930.11 265.38 1931.12 259.93 1922.13 265.37 1913.13 254.95 1915.43 247.89 1907.58"/><polygon class="cls-4" points="247.89 1866.37 247.05 1875.25 246.9 1876.78 237.1 1880.93 246.91 1885.07 247.91 1895.47 254.96 1887.62 260.77 1888.9 265.38 1889.91 259.93 1880.92 265.37 1871.92 254.95 1874.22 247.89 1866.37"/><polygon class="cls-4" points="247.89 1825.16 247.05 1834.04 246.9 1835.57 237.1 1839.72 246.91 1843.86 247.91 1854.26 254.96 1846.41 260.77 1847.69 265.38 1848.7 259.93 1839.71 265.37 1830.71 254.95 1833.01 247.89 1825.16"/><polygon class="cls-4" points="247.89 1783.95 247.05 1792.83 246.9 1794.36 237.1 1798.51 246.91 1802.65 247.91 1813.06 254.96 1805.21 260.77 1806.48 265.38 1807.49 259.93 1798.5 265.37 1789.5 254.95 1791.8 247.89 1783.95"/><polygon class="cls-4" points="247.89 1742.75 247.05 1751.62 246.9 1753.15 237.1 1757.3 246.91 1761.44 247.91 1771.85 254.96 1764 260.77 1765.27 265.38 1766.28 259.93 1757.29 265.37 1748.3 254.95 1750.59 247.89 1742.75"/></g><polygon class="cls-9" points="287.83 1884.53 287.83 1881.29 297.77 1881.29 297.77 1879.21 287.83 1879.21 287.83 1875.98 286.23 1875.98 286.23 1884.53 287.83 1884.53"/><path class="cls-9" d="M288.77,1871.84c0,1.23.31,2.35.92,3.36l1.27-.63c-.22-.44-.39-.86-.5-1.26-.11-.4-.16-.83-.16-1.3,0-.53.12-.92.35-1.18.24-.26.61-.39,1.13-.39h.59v1.62c0,1.13.23,2.02.69,2.67s1.08.97,1.85.97h.58c.5,0,.93-.13,1.31-.4.38-.26.67-.62.88-1.06s.3-.93.3-1.46c0-1.02-.35-1.89-1.05-2.61l.84-.16v-1.6h-5.92c-.97,0-1.72.29-2.27.86-.55.57-.82,1.42-.82,2.56ZM295.61,1870.45c.29.25.5.55.64.88.14.34.21.69.21,1.06,0,.43-.1.75-.31.96-.2.22-.48.32-.83.32h-.33c-.89,0-1.34-.6-1.34-1.81v-1.42h1.95Z"/><path class="cls-9" d="M289.28,1859.7c-.34.5-.51,1.07-.51,1.72,0,1.02.36,1.85,1.07,2.47l-.84.12v1.75h12.07v-2.04h-3.79c.47-.59.71-1.27.71-2.03,0-.67-.18-1.28-.53-1.82-.36-.54-.86-.97-1.49-1.29-.64-.31-1.36-.47-2.16-.47h-.87c-.83,0-1.55.14-2.19.42-.63.28-1.12.67-1.46,1.17ZM293.86,1860.15c.85,0,1.49.17,1.93.5.44.33.66.8.66,1.39,0,.63-.2,1.18-.61,1.67h-4.6c-.29-.22-.51-.49-.68-.81-.17-.32-.25-.66-.25-1.02,0-.55.21-.97.64-1.28.43-.3,1.06-.45,1.9-.45h1Z"/><path class="cls-9" d="M289.3,1845.86c-.35.62-.53,1.38-.53,2.26s.18,1.63.53,2.24.84,1.08,1.47,1.39c.62.31,1.35.47,2.16.47h.89c1.26,0,2.27-.36,3.04-1.07.76-.71,1.14-1.73,1.14-3.04s-.38-2.34-1.14-3.07c-.76-.72-1.77-1.09-3.04-1.09h-.89c-.81,0-1.54.16-2.16.48-.63.32-1.12.79-1.47,1.42ZM293.82,1846c.87,0,1.53.18,1.97.54.44.36.67.89.67,1.57s-.22,1.2-.67,1.54c-.44.35-1.1.52-1.97.52h-.92c-.84,0-1.49-.18-1.92-.53-.44-.35-.65-.86-.65-1.54s.22-1.2.66-1.57c.44-.36,1.08-.54,1.91-.54h.92Z"/><path class="cls-9" d="M289.19,1838.96c.26.42.66.75,1.19,1l-1.38.33v1.48h8.77v-2.04h-5.24c-.62-.23-1.06-.54-1.32-.93-.26-.39-.4-.85-.4-1.38,0-.19.02-.36.05-.53l-1.9-.36c-.11.33-.16.68-.16,1.06,0,.49.13.95.39,1.38Z"/><path class="cls-9" d="M291.19,1825.67l-.49,1.53c-.2.65-.42,1.12-.66,1.41-.24.29-.51.44-.81.44h-.28c-.36,0-.68-.18-.95-.54s-.4-.89-.4-1.58c0-.58.08-1.09.23-1.52s.43-.91.82-1.43l-1.14-1.02c-.49.54-.87,1.14-1.12,1.8-.26.66-.38,1.41-.38,2.26s.13,1.58.4,2.21c.27.63.63,1.1,1.08,1.43.45.32.94.49,1.47.49h.38c1.36,0,2.34-.91,2.92-2.72l.56-1.7c.22-.68.45-1.15.7-1.39.24-.25.57-.37.99-.37h.21c.43,0,.81.21,1.13.63s.49,1.02.49,1.81c0,.49-.04.92-.13,1.27-.09.35-.2.65-.34.91-.14.25-.35.59-.62,1.01l1.24,1.04c1-1.08,1.5-2.52,1.5-4.32,0-.86-.13-1.62-.4-2.28-.27-.66-.65-1.18-1.15-1.56s-1.06-.56-1.7-.56h-.44c-.82,0-1.48.25-1.96.73s-.86,1.17-1.14,2.05Z"/><path class="cls-9" d="M290.99,1818.61c-.45-.36-.67-.87-.67-1.53,0-.38.05-.72.16-1.01s.29-.57.53-.84l-1.09-.97c-.4.41-.69.85-.88,1.32-.19.47-.28,1-.28,1.58,0,1.28.38,2.26,1.15,2.97.76.7,1.8,1.06,3.09,1.06h.74c1.29,0,2.31-.35,3.08-1.06.77-.71,1.15-1.68,1.15-2.93,0-.52-.1-1.03-.29-1.54-.19-.51-.44-.95-.75-1.33l-1.2.84c.23.33.41.64.53.94s.18.63.18.99c0,.67-.23,1.18-.68,1.52-.45.35-1.12.52-2,.52h-.81c-.88,0-1.54-.18-1.99-.53Z"/><path class="cls-9" d="M288.77,1809.34c0,1.23.31,2.35.92,3.36l1.27-.63c-.22-.44-.39-.86-.5-1.26-.11-.4-.16-.83-.16-1.3,0-.53.12-.92.35-1.18.24-.26.61-.39,1.13-.39h.59v1.62c0,1.13.23,2.02.69,2.67s1.08.97,1.85.97h.58c.5,0,.93-.13,1.31-.4.38-.26.67-.62.88-1.06s.3-.93.3-1.46c0-1.02-.35-1.89-1.05-2.61l.84-.16v-1.6h-5.92c-.97,0-1.72.29-2.27.86-.55.57-.82,1.42-.82,2.56ZM295.61,1807.95c.29.25.5.55.64.88.14.34.21.69.21,1.06,0,.43-.1.75-.31.96-.2.22-.48.32-.83.32h-.33c-.89,0-1.34-.6-1.34-1.81v-1.42h1.95Z"/><path class="cls-9" d="M289.55,1796.7c-.52.53-.78,1.22-.78,2.07,0,1.11.37,1.98,1.12,2.6l-.89.13v1.75h8.77v-2.04h-6.36c-.73-.52-1.09-1.15-1.09-1.9,0-.91.52-1.37,1.55-1.37h5.9v-2.04h-6.07c-.92,0-1.64.27-2.16.8Z"/><g class="cls-11"><path class="cls-9" d="M308.24,1933.19c0,5.53,4.39,10.02,9.81,10.02h202.67c5.42,0,9.81-4.48,9.81-10.02v-186.95c0-5.53-4.39-10.02-9.81-10.02h-202.67c-5.42,0-9.81,4.48-9.81,10.02v186.95Z"/></g><path class="cls-7" d="M566.11,1895.2c0,.89.28,1.58.84,2.09h-3.58v1.75h10.46v-1.75h-5.43c-.64-.43-.96-.97-.96-1.63,0-.79.44-1.19,1.33-1.19h5.06v-1.75h-5.2c-.79,0-1.41.23-1.85.69-.44.46-.66,1.05-.66,1.78Z"/><path class="cls-7" d="M571.73,1886.08c.3.22.54.48.71.78.17.3.26.61.26.92,0,.35-.09.61-.27.79s-.45.27-.79.27h-5.33v1.75h5.41c.46,0,.86-.11,1.21-.32.34-.21.61-.5.8-.86s.28-.77.28-1.21c0-.88-.34-1.64-1.02-2.26l.83-.13v-1.48h-7.52v1.75h5.43Z"/><path class="cls-7" d="M568.01,1880.24c-.38-.31-.57-.74-.57-1.31,0-.33.05-.62.14-.86.1-.25.25-.49.45-.72l-.93-.83c-.34.35-.59.73-.75,1.13-.16.4-.24.86-.24,1.36,0,1.09.33,1.94.98,2.54.65.6,1.54.9,2.65.9h.63c1.1,0,1.98-.3,2.64-.91.66-.61.99-1.45.99-2.51,0-.44-.08-.88-.25-1.32s-.38-.82-.64-1.14l-1.03.72c.2.28.35.55.45.81.1.26.15.54.15.85,0,.57-.19,1.01-.58,1.31-.38.3-.95.44-1.71.44h-.7c-.75,0-1.32-.15-1.7-.46Z"/><polygon class="cls-7" points="566.31 1868.72 566.31 1870.64 569.2 1873.21 563.37 1873.21 563.37 1874.96 573.82 1874.96 573.82 1873.21 571.13 1873.21 570.41 1872.57 573.82 1870.2 573.82 1868.25 569.35 1871.4 566.31 1868.72"/><path class="cls-7" d="M572.65,1865c0,.19-.05.32-.13.4-.09.07-.24.11-.44.11h-8.71v1.75h8.96c.55,0,.96-.16,1.25-.47.29-.31.43-.73.43-1.27,0-.32-.06-.66-.18-1.01l-1.2.18c.02.15.03.25.03.3Z"/><path class="cls-7" d="M566.11,1859.97c0,.68.16,1.27.47,1.78.31.51.74.9,1.28,1.17s1.15.41,1.83.41h.78c.69,0,1.3-.14,1.83-.42.53-.28.95-.69,1.26-1.24.31-.54.46-1.18.46-1.93,0-.52-.09-1.02-.26-1.5-.17-.48-.38-.9-.64-1.24l-1.04.62c.2.36.35.69.46,1,.11.31.16.64.16,1.01,0,.66-.17,1.15-.5,1.48-.33.33-.86.5-1.58.51v-4.85c-.3-.04-.59-.06-.85-.06-1.19,0-2.09.28-2.72.85-.63.57-.94,1.37-.94,2.4ZM569.47,1858.29v3.33c-.69-.02-1.21-.17-1.56-.45-.35-.28-.52-.68-.52-1.22s.17-.96.52-1.25c.34-.28.84-.42,1.49-.42h.07Z"/><path class="cls-7" d="M566.55,1849.66c-.29.43-.44.93-.44,1.5,0,.8.26,1.45.78,1.95h-3.52v1.75h10.46v-1.37l-.64-.15c.55-.53.82-1.18.82-1.96,0-.57-.15-1.08-.46-1.56-.3-.47-.73-.84-1.28-1.11-.55-.27-1.16-.4-1.84-.4h-.76c-.71,0-1.34.12-1.88.35-.54.24-.95.57-1.24,1ZM570.49,1850.06c.71,0,1.25.15,1.63.43.38.29.57.68.57,1.18,0,.57-.21,1.04-.62,1.44h-3.83c-.26-.19-.45-.42-.59-.69-.14-.27-.21-.57-.21-.9,0-.97.73-1.46,2.18-1.46h.88Z"/><path class="cls-7" d="M566.11,1843.55c0,.68.16,1.27.47,1.78.31.51.74.9,1.28,1.17s1.15.41,1.83.41h.78c.69,0,1.3-.14,1.83-.42.53-.28.95-.69,1.26-1.24.31-.54.46-1.18.46-1.93,0-.52-.09-1.02-.26-1.5-.17-.48-.38-.9-.64-1.24l-1.04.62c.2.36.35.69.46,1,.11.31.16.64.16,1.01,0,.66-.17,1.15-.5,1.48-.33.33-.86.5-1.58.51v-4.85c-.3-.04-.59-.06-.85-.06-1.19,0-2.09.28-2.72.85-.63.57-.94,1.37-.94,2.4ZM569.47,1841.87v3.33c-.69-.02-1.21-.17-1.56-.45-.35-.28-.52-.68-.52-1.22s.17-.96.52-1.25c.34-.28.84-.42,1.49-.42h.07Z"/><path class="cls-7" d="M566.47,1836.04c.22.36.56.65,1.03.86l-1.19.28v1.27h7.52v-1.75h-4.49c-.53-.2-.9-.46-1.13-.8s-.34-.73-.34-1.18c0-.16.02-.31.04-.45l-1.62-.31c-.1.28-.14.58-.14.9,0,.42.11.82.33,1.18Z"/><path class="cls-7" d="M566.47,1830.16c.22.36.56.65,1.03.86l-1.19.28v1.27h7.52v-1.75h-4.49c-.53-.2-.9-.46-1.13-.8s-.34-.73-.34-1.18c0-.16.02-.31.04-.45l-1.62-.31c-.1.28-.14.58-.14.9,0,.42.11.82.33,1.18Z"/><path class="cls-7" d="M572.52,1823.69l-6.22,1.78v1.81l7.52-2.42v-.76l.82.24c.34.09.58.23.73.43.15.2.22.47.22.81,0,.25-.03.51-.09.79l1.15.24c.05-.13.1-.3.13-.5.03-.2.05-.41.05-.61,0-.67-.16-1.22-.47-1.64-.31-.42-.86-.75-1.62-.98l-8.44-2.56v1.74l6.22,1.63Z"/><polygon class="cls-7" points="572.35 1811.96 566.31 1813.32 566.31 1815.27 572.35 1816.61 566.31 1817.73 566.31 1819.48 573.82 1817.78 573.82 1815.67 567.83 1814.32 573.82 1813.01 573.82 1810.85 566.31 1809.18 566.31 1810.9 572.35 1811.96"/><path class="cls-7" d="M566.11,1804.85c0,1.06.26,2.02.79,2.88l1.09-.54c-.19-.38-.33-.74-.42-1.08-.09-.34-.14-.71-.14-1.11,0-.45.1-.79.3-1.01.2-.22.52-.33.97-.33h.51v1.38c0,.97.2,1.73.59,2.29s.92.83,1.58.83h.5c.42,0,.8-.11,1.12-.34s.58-.53.75-.91c.18-.38.26-.8.26-1.25,0-.88-.3-1.62-.91-2.23l.72-.14v-1.37h-5.07c-.83,0-1.48.25-1.94.74-.47.49-.7,1.22-.7,2.19ZM571.97,1803.67c.25.22.43.47.55.75.12.29.18.59.18.91,0,.37-.09.64-.26.83-.18.18-.41.27-.71.27h-.28c-.76,0-1.14-.52-1.14-1.56v-1.21h1.67Z"/><path class="cls-7" d="M572.52,1797.11l-6.22,1.78v1.81l7.52-2.42v-.76l.82.24c.34.09.58.23.73.43.15.2.22.47.22.81,0,.25-.03.51-.09.79l1.15.24c.05-.13.1-.3.13-.5.03-.2.05-.41.05-.61,0-.67-.16-1.22-.47-1.64-.31-.42-.86-.75-1.62-.98l-8.44-2.56v1.74l6.22,1.63Z"/><path class="cls-7" d="M571.77,1791.8c0,.31.11.57.33.79.22.22.48.32.78.32s.58-.11.79-.32c.22-.22.33-.48.33-.79s-.11-.57-.33-.79c-.22-.21-.48-.32-.79-.32s-.57.11-.79.32c-.22.21-.33.47-.33.79Z"/><path class="cls-7" d="M568.01,1787.05c-.38-.31-.57-.74-.57-1.31,0-.33.05-.62.14-.86.1-.25.25-.49.45-.72l-.93-.83c-.34.35-.59.73-.75,1.13-.16.4-.24.86-.24,1.36,0,1.09.33,1.94.98,2.54.65.6,1.54.9,2.65.9h.63c1.1,0,1.98-.3,2.64-.91.66-.61.99-1.45.99-2.51,0-.44-.08-.88-.25-1.32s-.38-.82-.64-1.14l-1.03.72c.2.28.35.55.45.81.1.26.15.54.15.85,0,.57-.19,1.01-.58,1.31-.38.3-.95.44-1.71.44h-.7c-.75,0-1.32-.15-1.7-.46Z"/><path class="cls-7" d="M566.81,1776.92c-.47.49-.7,1.22-.7,2.19,0,1.06.26,2.02.79,2.88l1.09-.54c-.19-.38-.33-.74-.42-1.08-.09-.34-.14-.71-.14-1.11,0-.45.1-.79.3-1.01.2-.22.52-.33.97-.33h.51v1.38c0,.97.2,1.73.59,2.29s.92.83,1.58.83h.5c.42,0,.8-.11,1.12-.34s.58-.53.75-.91c.18-.38.26-.8.26-1.25,0-.88-.3-1.62-.91-2.23l.72-.14v-1.37h-5.07c-.83,0-1.48.25-1.94.74ZM571.97,1777.92c.25.22.43.47.55.75.12.29.18.59.18.91,0,.37-.09.64-.26.83-.18.18-.41.27-.71.27h-.28c-.76,0-1.14-.52-1.14-1.56v-1.21h1.67Z"/><rect class="cls-3" x="19.48" y="1649.43" width="590.89" height="380.57"/><rect class="cls-6" x="347.17" y="1828.67" width="7.21" height="7.21"/><polygon class="cls-6" points="361.58 1857.5 368.79 1857.5 376 1857.5 376 1850.29 368.79 1850.29 361.58 1850.29 354.37 1850.29 354.37 1857.5 361.58 1857.5"/><rect class="cls-6" x="354.37" y="1835.87" width="7.21" height="7.21"/><polygon class="cls-6" points="368.79 1864.71 361.58 1864.71 361.58 1871.92 368.79 1871.92 376 1871.92 376 1864.71 368.79 1864.71"/><polygon class="cls-6" points="368.79 1821.46 368.79 1814.25 361.58 1814.25 361.58 1807.04 354.37 1807.04 347.17 1807.04 339.96 1807.04 332.75 1807.04 332.75 1814.25 332.75 1821.46 332.75 1828.67 332.75 1835.87 332.75 1843.08 332.75 1850.29 339.96 1850.29 339.96 1857.5 332.75 1857.5 325.54 1857.5 325.54 1864.71 332.75 1864.71 332.75 1871.92 339.96 1871.92 339.96 1864.71 347.17 1864.71 347.17 1871.92 354.37 1871.92 354.37 1864.71 354.37 1857.5 347.17 1857.5 347.17 1850.29 354.37 1850.29 354.37 1843.08 347.17 1843.08 339.96 1843.08 339.96 1835.87 339.96 1828.67 347.17 1828.67 347.17 1821.46 339.96 1821.46 339.96 1814.25 347.17 1814.25 347.17 1821.46 354.37 1821.46 361.58 1821.46 361.58 1828.67 361.58 1835.87 368.79 1835.87 368.79 1828.67 376 1828.67 376 1835.87 368.79 1835.87 368.79 1843.08 376 1843.08 383.21 1843.08 390.42 1843.08 390.42 1835.87 383.21 1835.87 383.21 1828.67 383.21 1821.46 376 1821.46 368.79 1821.46"/><polygon class="cls-6" points="383.21 1814.25 383.21 1807.04 376 1807.04 368.79 1807.04 368.79 1814.25 376 1814.25 383.21 1814.25"/><rect class="cls-6" x="383.21" y="1814.25" width="7.21" height="7.21"/><rect class="cls-6" x="383.21" y="1799.83" width="7.21" height="7.21"/><rect class="cls-6" x="383.21" y="1785.42" width="7.21" height="7.21"/><rect class="cls-6" x="383.21" y="1771" width="7.21" height="7.21"/><rect class="cls-6" x="383.21" y="1756.58" width="7.21" height="7.21"/><rect class="cls-6" x="390.42" y="1749.37" width="7.21" height="7.21"/><polygon class="cls-6" points="404.83 1785.42 404.83 1778.21 397.62 1778.21 390.42 1778.21 390.42 1785.42 397.62 1785.42 404.83 1785.42"/><rect class="cls-6" x="397.62" y="1763.79" width="7.21" height="7.21"/><rect class="cls-6" x="412.04" y="1879.12" width="7.21" height="7.21"/><polygon class="cls-6" points="412.04 1763.79 419.25 1763.79 419.25 1756.58 426.46 1756.58 426.46 1749.37 419.25 1749.37 412.04 1749.37 412.04 1756.58 412.04 1763.79"/><rect class="cls-6" x="419.25" y="1850.29" width="7.21" height="7.21"/><rect class="cls-6" x="426.46" y="1763.79" width="7.21" height="7.21"/><path class="cls-6" d="M433.67,1871.92v-14.42h-7.21v7.21h-7.21v-7.21h-7.21v-7.21h7.21v-7.21h21.63v-7.21h-7.21v-21.63h-7.21v-7.21h7.21v-14.42h-7.21v-7.21h7.21v-7.21h-14.42v-7.21h-7.21v14.42h-7.21v7.21h7.21v7.21h-7.21v-7.21h-14.42v7.21h7.21v7.21h7.21v7.21h7.21v7.21h-7.21v-7.21h-7.21v7.21h-7.21v7.21h7.21v21.62h7.21v7.21h-14.42v-7.21h-7.21v36.04h7.21v-14.42h36.04v21.62h-14.42v-7.21h-7.21v-7.21h-7.21v7.21h-7.21v7.21h7.21v7.21h-7.21v-7.21h-7.21v36.04h64.88v-7.21h-28.83v-7.21h-7.21v7.21h-7.21v-7.21h-7.21v7.21h-7.21v-14.42h14.42v-7.21h14.42v7.21h7.21v7.21h14.42v-14.42h-7.21v-7.21h14.42v-21.62h-14.42ZM426.46,1835.87h-7.21v-7.21h7.21v7.21ZM404.83,1835.87v-7.21h7.21v14.42h-7.21v-7.21ZM440.87,1886.33h-7.21v-7.21h7.21v7.21Z"/><polygon class="cls-6" points="433.67 1763.79 440.87 1763.79 440.87 1756.58 448.08 1756.58 455.29 1756.58 455.29 1763.79 455.29 1771 462.5 1771 462.5 1763.79 462.5 1756.58 462.5 1749.37 455.29 1749.37 448.08 1749.37 440.87 1749.37 433.67 1749.37 433.67 1756.58 433.67 1763.79"/><rect class="cls-6" x="455.29" y="1792.62" width="7.21" height="7.21"/><path class="cls-6" d="M455.29,1778.21h-7.21v-7.21h-7.21v36.04h-7.21v7.21h7.21v7.21h7.21v7.21h7.21v7.21h-7.21v7.21h14.42v-7.21h7.21v-14.42h-7.21v-7.21h14.42v14.42h7.21v-21.63h-7.21v-7.21h7.21v-7.21h7.21v-7.21h7.21v-7.21h7.21v-28.83h-7.21v7.21h-7.21v7.21h-7.21v7.21h7.21v7.21h-7.21v-7.21h-21.63v7.21h-7.21ZM469.71,1785.42v21.62h-21.62v-21.62h21.62Z"/><polygon class="cls-6" points="484.12 1799.83 484.12 1807.04 491.33 1807.04 491.33 1814.25 498.54 1814.25 498.54 1821.46 498.54 1828.67 491.33 1828.67 484.12 1828.67 484.12 1835.87 476.92 1835.87 476.92 1843.08 476.92 1850.29 476.92 1857.5 469.71 1857.5 469.71 1850.29 469.71 1843.08 462.5 1843.08 462.5 1850.29 462.5 1857.5 455.29 1857.5 455.29 1864.71 448.08 1864.71 448.08 1871.92 455.29 1871.92 462.5 1871.92 462.5 1864.71 469.71 1864.71 469.71 1871.92 476.92 1871.92 484.12 1871.92 491.33 1871.92 498.54 1871.92 505.75 1871.92 505.75 1864.71 498.54 1864.71 498.54 1857.5 491.33 1857.5 491.33 1864.71 484.12 1864.71 484.12 1857.5 491.33 1857.5 491.33 1850.29 484.12 1850.29 484.12 1843.08 491.33 1843.08 491.33 1835.87 498.54 1835.87 498.54 1843.08 505.75 1843.08 505.75 1835.87 505.75 1828.67 505.75 1821.46 505.75 1814.25 505.75 1807.04 498.54 1807.04 498.54 1799.83 498.54 1792.62 491.33 1792.62 491.33 1799.83 484.12 1799.83"/><polygon class="cls-6" points="491.33 1756.58 491.33 1749.37 484.12 1749.37 476.92 1749.37 476.92 1756.58 476.92 1763.79 484.12 1763.79 484.12 1756.58 491.33 1756.58"/><rect class="cls-6" x="491.33" y="1843.08" width="7.21" height="7.21"/><path class="cls-6" d="M376,1915.09v-36.04h-50.46v50.46h50.46v-14.42ZM361.58,1922.3h-28.83v-36.04h36.04v36.04h-7.21Z"/><polygon class="cls-6" points="361.58 1900.75 361.58 1900.75 361.58 1893.54 354.37 1893.54 347.17 1893.54 339.96 1893.54 339.96 1900.75 339.96 1900.75 339.96 1907.96 339.96 1915.17 347.17 1915.17 354.37 1915.17 361.58 1915.17 361.58 1907.96 361.58 1900.75"/><path class="cls-6" d="M325.54,1756.51v14.42h0v28.83h50.46v-28.83h0v-21.63h-50.46v7.21ZM339.96,1756.51h28.83v14.42h0v21.62h-36.04v-21.62h0v-14.42h7.21Z"/><polygon class="cls-6" points="339.96 1771 339.96 1778.21 339.96 1785.42 347.17 1785.42 354.37 1785.42 361.58 1785.42 361.58 1778.21 361.58 1771 361.58 1771 361.58 1763.79 354.37 1763.79 347.17 1763.79 339.96 1763.79 339.96 1771 339.96 1771"/><path class="cls-6" d="M455.29,1893.47v36.04h50.46v-50.46h-50.46v14.42ZM469.71,1886.26h28.83v36.04h-36.04v-36.04h7.21Z"/><polygon class="cls-6" points="469.71 1900.75 469.71 1907.96 469.71 1915.17 476.92 1915.17 484.12 1915.17 491.33 1915.17 491.33 1907.96 491.33 1900.75 491.33 1900.75 491.33 1893.54 484.12 1893.54 476.92 1893.54 469.71 1893.54 469.71 1900.75 469.71 1900.75"/></svg>