<?xml version="1.0" encoding="UTF-8"?><svg id="Layer_1" xmlns="http://www.w3.org/2000/svg" xmlns:xlink="http://www.w3.org/1999/xlink" viewBox="0 0 2280 2030"><defs><style>.cls-1{clip-path:url(#clippath);}.cls-2{fill:#557ebe;}.cls-2,.cls-3,.cls-4,.cls-5,.cls-6,.cls-7,.cls-8,.cls-9,.cls-10,.cls-11,.cls-12{stroke-width:0px;}.cls-3{fill:none;}.cls-4{fill:#8fb3de;}.cls-5{fill:url(#radial-gradient);}.cls-6{fill:#f7bb16;}.cls-13{fill:url(#linear-gradient-2);}.cls-13,.cls-14{stroke:#aab9d6;stroke-miterlimit:10;}.cls-7{fill:#36a952;}.cls-8{fill:url(#radial-gradient-2);}.cls-9{fill:#232323;}.cls-10{fill:url(#linear-gradient-3);}.cls-11{fill:#e94435;}.cls-14{fill:url(#linear-gradient);}.cls-12{fill:#fff;}</style><linearGradient id="linear-gradient" x1="1817.26" y1="1859.44" x2="2107.51" y2="1391.3" gradientTransform="translate(-199.72 -1442.43)" gradientUnits="userSpaceOnUse"><stop offset=".26" stop-color="#2d3f74"/><stop offset=".93" stop-color="#799acc"/></linearGradient><radialGradient id="radial-gradient" cx="-2678.58" cy="4184.42" fx="-2678.58" fy="4184.42" r="1042.47" gradientTransform="translate(1120.1 -209.93) rotate(-90) scale(.15 .13)" gradientUnits="userSpaceOnUse"><stop offset="0" stop-color="#313e6a"/><stop offset="1" stop-color="#2c3966" stop-opacity="0"/></radialGradient><radialGradient id="radial-gradient-2" cx="-2662.52" cy="3653.93" fx="-2662.52" fy="3653.93" r="1042.47" gradientTransform="translate(1120.1 -209.93) rotate(-90) scale(.15 .13)" gradientUnits="userSpaceOnUse"><stop offset="0" stop-color="#83a2cf"/><stop offset="1" stop-color="#83a2d0" stop-opacity="0"/></radialGradient><linearGradient id="linear-gradient-2" x1="1768.81" y1="834.56" x2="2139.44" y2="1142" gradientTransform="translate(-839.58 -801.94)" xlink:href="#linear-gradient"/><clipPath id="clippath"><path class="cls-3" d="M984.16,313.17v.32c0,7.7,6.37,13.97,14.2,13.97h29.7c1.03,0,1.87-.82,1.87-1.84s-.84-1.83-1.87-1.83h-29.7c-5.77,0-10.47-4.62-10.47-10.29v-.32c0-1.01-.84-1.83-1.87-1.83s-1.87.82-1.87,1.83M1152.92,312.15v1.33c0,5.68-4.7,10.29-10.47,10.29h-28.67c-1.03,0-1.87.82-1.87,1.83s.84,1.84,1.87,1.84h28.67c7.83,0,14.2-6.27,14.2-13.97v-1.33c0-1.01-.84-1.83-1.87-1.83s-1.87.82-1.87,1.83M984.16,242.32v55.92c0,1.02.84,1.84,1.87,1.84s1.87-.82,1.87-1.84v-55.92c0-1.01-.84-1.83-1.87-1.83s-1.87.82-1.87,1.83M1152.92,241.31v55.92c0,1.01.84,1.83,1.87,1.83s1.87-.82,1.87-1.83v-55.92c0-1.02-.84-1.84-1.87-1.84s-1.87.82-1.87,1.84M984.16,171.49v55.92c0,1.01.84,1.83,1.87,1.83s1.87-.82,1.87-1.83v-55.92c0-1.01-.84-1.84-1.87-1.84s-1.87.82-1.87,1.84M1152.92,170.47v55.92c0,1.02.84,1.84,1.87,1.84s1.87-.82,1.87-1.84v-55.92c0-1.01-.84-1.83-1.87-1.83s-1.87.82-1.87,1.83M998.36,141.69c-7.83,0-14.2,6.26-14.2,13.97v.92c0,1.01.84,1.83,1.87,1.83s1.87-.82,1.87-1.83v-.92c0-5.68,4.69-10.3,10.47-10.3h28.34c1.03,0,1.87-.82,1.87-1.83s-.84-1.83-1.87-1.83h-28.34ZM1069.92,141.69h-27.99c-1.03,0-1.87.82-1.87,1.83s.84,1.83,1.87,1.83h55.99c1.03,0,1.87-.82,1.87-1.83s-.84-1.83-1.87-1.83h-27.99ZM1113.08,141.69c-1.03,0-1.87.82-1.87,1.83s.84,1.83,1.87,1.83h29.37c5.73,0,10.43,4.58,10.47,10.22,0,1.01.84,1.82,1.87,1.82h.01c1.03,0,1.86-.84,1.85-1.85-.06-7.64-6.43-13.86-14.2-13.86h-29.37Z"/></clipPath><linearGradient id="linear-gradient-3" x1="1024.39" y1="1095.16" x2="1026.73" y2="1095.16" gradientTransform="translate(87993.26 81633.66) rotate(-90) scale(79.37 -79.37)" gradientUnits="userSpaceOnUse"><stop offset="0" stop-color="#6b92cc"/><stop offset="1" stop-color="#a7c9ea"/></linearGradient></defs><rect class="cls-14" x="1569.48" y="-106.89" width="378.44" height="592.43" rx="18.41" ry="18.41" transform="translate(1569.37 1948.03) rotate(-90)"/><path class="cls-5" d="M1676.42,343.07c74.01,0,134-70.95,134-158.47s-60-158.47-134-158.47c-74.01,0-134,70.95-134,158.47,0,87.52,60,158.47,134,158.47Z"/><path class="cls-8" d="M1605.89,340.7c74.01,0,134-70.95,134-158.47,0-87.52-60-158.47-134-158.47-74.01,0-134,70.95-134,158.47,0,87.52,60,158.47,134,158.47Z"/><path class="cls-12" d="M1496.36,58.41c0,10.7,8.65,19.41,19.29,19.41s19.29-8.71,19.29-19.41-8.65-19.41-19.29-19.41-19.29,8.71-19.29,19.41M1536.63,58.41c0,11.64-9.41,21.11-20.98,21.11s-20.98-9.47-20.98-21.11,9.41-21.11,20.98-21.11,20.98,9.47,20.98,21.11"/><path class="cls-12" d="M1515.95,49.53c5.56.15,10.14,2.47,13.5,7.14.16.23.33.46.45.71.29.61.22,1.18-.36,1.57-.61.42-1.18.28-1.64-.29-.52-.66-.98-1.37-1.54-1.99-6.27-6.88-17.03-6.14-22.34,1.52-.09.13-.17.26-.26.39-.45.62-1.03.82-1.69.38-.65-.44-.68-1.07-.28-1.72.23-.37.47-.74.74-1.08,3.38-4.32,7.82-6.5,13.42-6.62"/><path class="cls-12" d="M1515.8,54.98c4.25.12,7.65,1.86,10.11,5.37.58.83.54,1.52-.07,1.98-.61.45-1.27.25-1.86-.57-4.17-5.83-12.11-5.84-16.33-.01-.61.84-1.23,1.04-1.86.59-.62-.45-.67-1.13-.09-1.97,2.45-3.53,5.85-5.26,10.09-5.39"/><path class="cls-12" d="M1515.84,60.57c2.64.13,4.62,1.18,6.09,3.19.55.75.52,1.47-.05,1.91-.62.48-1.28.3-1.88-.49-2.25-2.95-6.12-2.94-8.41.01-.59.77-1.19.94-1.81.52-.63-.43-.69-1.16-.09-1.97,1.57-2.13,3.69-3.16,6.15-3.17"/><path class="cls-12" d="M1771.86,193.16c0-67.25-54.18-121.76-121.02-121.76s-121.02,54.51-121.02,121.76,54.18,121.76,121.02,121.76,121.02-54.51,121.02-121.76"/><path class="cls-11" d="M1595.57,191.11c0-12.75,4.5-24.27,11.86-33.32l-26.17-26.33c-13.9,16.04-22.49,36.61-22.49,59.64,0,35.76,20.36,66.5,50.1,81.22l23.15-30.45c-21.2-7.02-36.45-27.03-36.45-50.76"/><path class="cls-6" d="M1648.72,244.58c-5.84,0-11.44-.97-16.7-2.71l-23.15,30.45c12,5.94,25.51,9.28,39.85,9.28s27.83-3.34,39.82-9.27c0,0,.02,0,.03-.01l-23.15-30.45s-.05.02-.07.03c-5.23,1.72-10.81,2.69-16.62,2.69"/><path class="cls-2" d="M1632.37,191.11h34.75v-48.54c11.85,2.43,20.96,9.03,26.89,18.48l22.25-28.91c-15.35-16.61-38.21-27.42-67.53-27.42-5.32,0-11.04.82-16.36,2.06v84.33Z"/><path class="cls-7" d="M1701.87,191.11c0,23.74-15.25,43.74-36.45,50.76l23.15,30.45c29.75-14.72,50.1-45.46,50.1-81.22,0-22.07-7.8-43.15-22.42-58.97l-22.25,28.91c5.11,8.16,7.87,18.43,7.87,30.06"/><path class="cls-12" d="M1847.68,262.1c-.9-.65-2.03-.98-3.37-.98-1.97,0-3.47.63-4.51,1.9-1.04,1.27-1.56,3.06-1.56,5.39v7.1h20.06v-3.51h-7.71v-3.91l7.71-4.05v-3.76h-.18l-8.35,4.53c-.49-1.16-1.18-2.07-2.09-2.72ZM1847.78,268.4v3.6h-6.72v-3.7c.02-1.22.32-2.14.91-2.75s1.42-.92,2.49-.92,1.84.33,2.43,1,.89,1.59.89,2.77Z"/><path class="cls-12" d="M1843.12,251.91c0,1.28.33,2.45.98,3.49s1.56,1.85,2.73,2.43,2.5.87,3.99.87h.41c2.22,0,4-.66,5.34-1.99s2-3.06,2-5.19c0-1.25-.25-2.37-.74-3.37s-1.18-1.8-2.07-2.4l-1.72,1.82c1.24.97,1.86,2.23,1.86,3.77,0,1.1-.36,2.01-1.07,2.74s-1.69,1.14-2.92,1.24v-9.8h-1.35c-2.37,0-4.2.56-5.5,1.67s-1.94,2.69-1.94,4.73ZM1849.46,248.83v6.42c-1.15-.16-2.04-.52-2.69-1.09s-.96-1.31-.96-2.24.29-1.66.86-2.19,1.42-.83,2.54-.9h.25Z"/><polygon class="cls-12" points="1854.06 237.77 1843.4 240.99 1843.4 244.48 1858.3 239.24 1858.3 236.32 1843.4 231.12 1843.4 234.6 1854.06 237.77"/><rect class="cls-12" x="1843.4" y="225.44" width="14.9" height="3.37"/><path class="cls-12" d="M1837.74,227.12c0,.61.17,1.08.51,1.4s.77.49,1.28.49.93-.17,1.26-.49.5-.79.5-1.4-.17-1.08-.5-1.41-.76-.5-1.26-.5-.94.17-1.28.5-.51.8-.51,1.41Z"/><path class="cls-12" d="M1843.12,215.56c0,1.28.33,2.45.98,3.49s1.56,1.85,2.73,2.43,2.5.87,3.99.87h.41c2.22,0,4-.67,5.34-1.99s2-3.05,2-5.19c0-1.25-.25-2.37-.74-3.38s-1.18-1.8-2.07-2.4l-1.72,1.82c1.24.97,1.86,2.23,1.86,3.77,0,1.1-.36,2.01-1.07,2.73s-1.69,1.14-2.92,1.24v-9.8h-1.35c-2.37,0-4.2.55-5.5,1.67s-1.94,2.69-1.94,4.74ZM1849.46,212.48v6.42c-1.15-.16-2.04-.52-2.69-1.09s-.96-1.31-.96-2.24.29-1.66.86-2.19,1.42-.83,2.54-.9h.25Z"/><polygon class="cls-12" points="1853.69 193.37 1843.4 196.49 1843.4 199.02 1853.58 202.1 1843.4 204.53 1843.4 207.81 1858.3 203.71 1858.3 200.94 1848.07 197.78 1858.3 194.56 1858.3 191.79 1843.4 187.7 1843.4 190.99 1853.69 193.37"/><path class="cls-12" d="M1854.1,169.41c1.17.57,1.75,1.68,1.75,3.31s-.95,2.37-2.84,2.37h-9.61v3.37h9.66c1.79,0,3.16-.42,4.1-1.25s1.42-2.07,1.42-3.69c0-1.82-.58-3.22-1.74-4.21l1.46-.08v-3.17h-14.9v3.37h10.7Z"/><path class="cls-12" d="M1850.59,153.12c-.4.75-.74,1.79-1.03,3.11s-.58,2.2-.86,2.63-.68.65-1.2.65c-.57,0-1.02-.23-1.36-.7s-.51-1.07-.51-1.81c0-.79.21-1.43.64-1.91s.96-.72,1.6-.72v-3.37c-1.41,0-2.55.55-3.43,1.66s-1.32,2.55-1.32,4.34c0,1.68.43,3.07,1.29,4.16s1.94,1.64,3.22,1.64c1.53,0,2.7-.84,3.51-2.52.37-.77.67-1.72.91-2.87s.51-1.97.83-2.46.77-.74,1.36-.74c.54,0,.98.23,1.32.69s.5,1.14.5,2.02-.21,1.65-.64,2.2-1.04.85-1.83.9v3.27c.89,0,1.72-.27,2.49-.8s1.38-1.28,1.82-2.25.66-2.06.66-3.28c0-1.81-.42-3.28-1.25-4.39s-1.92-1.68-3.26-1.68c-.8,0-1.48.18-2.04.55s-1.04.92-1.44,1.68Z"/><path class="cls-12" d="M1845.06,129.64c-1.29,1.26-1.94,2.9-1.94,4.93,0,1.37.31,2.58.94,3.63s1.53,1.87,2.7,2.45,2.49.87,3.95.87h.17c2.33,0,4.2-.64,5.6-1.91s2.1-2.96,2.1-5.08c0-1.39-.32-2.61-.95-3.67s-1.53-1.87-2.69-2.44-2.47-.85-3.94-.85h-.79c-2.14.12-3.86.8-5.15,2.06ZM1854.58,131.89c.88.63,1.32,1.52,1.32,2.65s-.43,2.02-1.3,2.66-2.07.96-3.6.96c-1.73,0-3.02-.32-3.89-.97s-1.3-1.52-1.3-2.62.44-2,1.32-2.65,2.08-.98,3.58-.98c1.7,0,2.99.32,3.87.95Z"/><path class="cls-12" d="M1843.12,117.15c0,1.8.67,3.26,2,4.37l-1.72.1v3.17h14.9v-3.37h-10.61c-1.22-.67-1.83-1.68-1.83-3.04,0-.93.23-1.61.68-2.02s1.15-.62,2.1-.62h9.66v-3.37h-9.85c-3.55.06-5.33,1.64-5.33,4.77Z"/><path class="cls-12" d="M1896.58,269.31v34.96h10.31v-24.8c14.43,1.23,20.63,13.33,20.63,24.75.07,15.05-12.01,27.31-26.97,27.38-.16,0-.32,0-.48,0-15.61,0-27.63-12.16-27.63-27.41,0-11.76,7.45-18.69,7.45-18.69l-7.48-7.26s-10.32,9.33-10.32,26.33c0,21.66,18.17,38.41,37.79,38.41s37.98-15.76,37.98-38.96c0-20.4-13.9-35.34-34.44-35.34-4.34,0-6.84.63-6.84.63h0Z"/><path class="cls-12" d="M1898.68,240.53c0-7.05,5.67-13.74,14.8-13.74s14.77,6.66,14.77,13.77c0,7.82-6.22,13.96-14.84,13.96s-14.73-6.09-14.73-14.02v.02ZM1889.11,240.67c0,14.35,11.15,24.63,24.15,24.63s24.55-9.97,24.55-24.8c0-13.42-10.2-24.41-24.27-24.41-16.1,0-24.43,12.79-24.43,24.58h0Z"/><path class="cls-12" d="M1898.68,186.96c0-7.05,5.67-13.74,14.8-13.74s14.77,6.66,14.77,13.77c0,7.82-6.22,13.96-14.84,13.96s-14.73-6.09-14.73-14.02v.02ZM1889.11,187.1c0,14.35,11.15,24.63,24.15,24.63s24.55-9.97,24.55-24.8c0-13.42-10.2-24.41-24.27-24.41-16.1,0-24.43,12.79-24.43,24.58h0Z"/><path class="cls-12" d="M1898.69,133.62c0-6.46,5.48-13.09,14.84-13.09s14.75,6.62,14.75,13.23c0,7.02-5.66,13.55-14.66,13.55s-14.93-6.79-14.93-13.69h0ZM1889.14,134.57c0,13.17,11.46,23.52,24.33,23.52,14.66,0,24.37-12,24.37-23.29,0-6.98-2.76-10.7-5.92-13.4h4.8c8.4,0,13.43,5.13,13.43,12.88s-5.53,11.24-8.67,12.57l3.89,9.42c7.02-3.34,14.34-10.06,14.34-22.06,0-13.12-8.2-23.07-25.39-23.07h-43.73v10.23h4.13c-3.39,3.16-5.59,7.48-5.59,13.21h0Z"/><path class="cls-12" d="M1898.45,64.96c0-4.48,2.37-7.7,5.2-9.06l9.11,21.94c-7.06.95-14.31-5.78-14.31-12.85v-.03ZM1889.08,65.39c0,12.42,9.83,22.85,24.32,22.85,15.34,0,24.43-11.63,24.43-24.01,0-10.37-5.64-16.76-10.69-20.53l-5.6,8.47c3.39,2.2,6.7,5.87,6.7,12,0,6.89-3.75,10.05-7.38,12.02l-13.55-32.85-3.97,1.68c-7.77,3.17-14.27,10.57-14.27,20.37h0Z"/><rect class="cls-12" x="1864.62" y="93.14" width="71.77" height="10.79"/><polygon class="cls-6" points="1982.05 262.52 1981.17 271.59 1981.02 273.16 1970.81 277.4 1981.03 281.63 1982.07 292.26 1989.41 284.24 1995.46 285.54 1995.46 285.54 2000.26 286.58 1994.59 277.39 2000.25 268.19 1989.4 270.54 1982.05 262.52"/><polygon class="cls-6" points="1982.05 220.41 1981.17 229.47 1981.02 231.04 1970.81 235.28 1981.03 239.51 1982.07 250.15 1989.41 242.12 1995.46 243.43 1995.46 243.43 2000.26 244.46 1994.59 235.27 2000.25 226.08 1989.4 228.42 1982.05 220.41"/><polygon class="cls-6" points="1982.05 178.29 1981.17 187.36 1981.02 188.93 1970.81 193.17 1981.03 197.4 1982.07 208.03 1989.41 200.01 1995.46 201.31 1995.46 201.31 2000.26 202.35 1994.59 193.16 2000.25 183.96 1989.4 186.31 1982.05 178.29"/><polygon class="cls-6" points="1982.05 136.18 1981.17 145.24 1981.02 146.81 1970.81 151.05 1981.03 155.28 1982.07 165.92 1989.41 157.89 1995.46 159.2 1995.46 159.2 2000.26 160.23 1994.59 151.04 2000.25 141.85 1989.4 144.19 1982.05 136.18"/><polygon class="cls-6" points="1982.05 94.06 1981.17 103.13 1981.02 104.7 1970.81 108.94 1981.03 113.17 1982.07 123.8 1989.41 115.78 1995.46 117.08 1995.46 117.08 2000.26 118.12 1994.59 108.93 2000.25 99.73 1989.4 102.08 1982.05 94.06"/><path class="cls-12" d="M1795.78,37.51l-.59.52c-.72.64-1.47,1.3-2.2,1.96-.74.66-1.56,1.14-2.43,1.4-1.18.36-2.5.52-4.05.49-2.05-.05-3.6.08-5.04.41l-.07.02c-.71.16-1.46.33-2.17.57h-.02c-.93.32-1.89.64-2.78,1.08-.97.48-1.92,1.04-2.83,1.58-.24.14-.49.29-.73.43-1.21.7-2.1,1.68-2.68,2.91-.42.9-.74,1.64-1.03,2.32-.09.22-.21.31-.47.36-6.42,1.18-12.22,2.24-17.73,3.27-.38.07-.72.2-.99.37-1.02.63-1.48,1.72-1.27,2.97,1.05,6.28,2.13,12.78,3.22,19.23.07.4.21.8.41,1.11.64,1.02,1.57,1.43,2.77,1.21,1.5-.28,3.01-.56,4.51-.83l2.26-.42.11-.02c.05,0,.1-.02.15-.03.04,0,.05,0,.06,0,0,0,0,.03,0,.08-.01.1-.03.2-.04.29-.01.11-.03.22-.05.33-.19,1.2-.01,2.06.56,2.81.43.56,1.09.92,1.81,1,.71.07,1.41-.16,1.92-.62.55-.49.91-1.13,1.27-1.74.08-.13.15-.26.22-.39.46-.78.88-1.61,1.28-2.41.08-.15.15-.31.23-.46.09-.19.2-.27.41-.3.66-.11,1.32-.24,1.97-.36.55-.1,1.11-.21,1.66-.3.25-.05.41-.17.51-.42.18-.44.39-.88.6-1.3.35-.7.69-1.33,1.22-1.81.32-.28.74-.42,1.15-.38.38.04.7.23.92.52.33.44.47.96.41,1.52-.14,1.44-.7,2.76-1.66,3.94-.27.33-.59.66-1.02.8-.71.22-1.36,0-1.97-.66-.36-.39-.54-.88-.67-1.27-.07-.22-.22-.4-.41-.5-.17-.09-.36-.1-.53-.04-.37.14-.59.6-.47.99.29.89.69,1.58,1.24,2.12,1.28,1.25,3.1,1.32,4.34.17.63-.59,1.15-1.25,1.55-1.97,0,0,0,.02-.01.03-.14.4.04.83.42,1,.18.08.37.15.56.2,1.13.3,2.04.09,2.76-.64.32-.32.6-.66.84-1,.91-1.32,1.36-2.61,1.4-3.92.01-.48.15-.86.42-1.19.11-.13.21-.26.31-.39.26-.32.52-.66.83-.93.22-.2.48-.27.75-.22.3.06.58.28.75.6.19.35.14.74.07,1.07-.3,1.49-.94,2.8-1.91,3.9-.24.28-.54.41-.91.4-.13,0-.27-.03-.41-.07-.05-.01-.1-.02-.16-.04-.4-.09-.77.13-.88.52-.11.39.08.81.45.94,1.03.39,2.1.19,2.79-.52,1.07-1.1,1.85-2.5,2.31-4.16.05-.17.11-.23.27-.26,1.11-.2,2.11-.38,3.04-.56l.14-.03c.36-.07.73-.14,1.07-.27,1.14-.42,1.84-1.72,1.64-3.03-.08-.49-.16-.98-.24-1.46-.04-.23-.08-.46-.12-.68-.03-.18-.05-.3-.03-.35.02-.05.11-.11.26-.21h.01c.87-.59,1.69-1.32,2.42-2.18,1.35-1.58,2.31-3.51,2.86-5.72.12-.46.2-.94.28-1.4.05-.27.1-.55.15-.82.24-1.21.81-2.35,1.77-3.57.36-.45.75-.89,1.14-1.31.15-.16.29-.32.44-.48.18-.2.27-.4.26-.6,0-.08-.02-.17-.05-.25-.12-.33-.39-.52-.69-.48-.18.02-.39.13-.56.29-1.05,1-1.92,2.11-2.6,3.29-.57,1-.94,1.96-1.12,2.93-.21,1.12-.41,2.06-.69,2.97-.66,2.18-1.86,4-3.56,5.42-.15.13-.31.25-.48.38-.04.03-.08.06-.13.09,0-.04-.02-.07-.02-.09l-.51-3.07c-.41-2.47-.83-4.94-1.24-7.42-.02-.14-.01-.17.12-.19.58-.11,1.05-.21,1.49-.33.63-.16,1.14-.31,1.62-.46.2-.06.35-.2.44-.39.08-.18.09-.39.03-.59-.13-.38-.53-.57-.92-.46-1.67.5-3.05.8-4.34.94-1.46.16-2.96.11-4.47-.13-2-.32-3.9-.96-5.5-1.53-1.42-.51-2.92-.76-4.33-.97-.6-.09-1.11.14-1.46.65-.26.39-.58.84-.93,1.28-.85,1.06-1.92,2.21-3.48,2.7-.57.18-1.16.16-1.75-.06-.16-.06-.27-.15-.33-.27-.06-.12-.05-.29,0-.47.07-.18.14-.38.25-.53.83-1.18,1.55-2.54,2.25-4.27.31-.76.8-1.41,1.47-1.92.93-.71,1.99-1.37,3.35-2.07,1.79-.93,3.45-1.53,5.08-1.87l.24-.05c.7-.14,1.43-.3,2.14-.35.74-.05,1.49-.06,2.22-.06.41,0,.84,0,1.26-.02,1.8-.05,3.15-.3,4.36-.79.99-.4,1.73-.83,2.33-1.35.72-.62,1.42-1.28,2.1-1.92.25-.23.5-.47.75-.7.17-.16.27-.36.28-.57.01-.18-.05-.36-.18-.51-.28-.34-.71-.36-1.05-.06ZM1767.69,77.41l-.07.13c-.11.2-.21.39-.32.58-.09.16-.17.32-.25.48-.19.36-.38.73-.61,1.06-.14.19-.25.39-.36.59-.21.38-.4.73-.74.97-.29.21-.7.25-1.08.09-.35-.14-.61-.43-.69-.76-.03-.14-.04-.29-.05-.44,0-.2.01-.4.02-.6v-.03c.02-.25.06-.51.1-.75.02-.15.05-.29.07-.44.01-.12.04-.15.14-.17.75-.14,1.51-.27,2.26-.41.52-.1,1.05-.19,1.57-.29h0ZM1782.88,72.42c.29.42.37.95.26,1.65-.19,1.15-.68,2.19-1.5,3.2-.43.52-.94.7-1.57.55-.12-.03-.23-.07-.35-.11-.04-.02-.09-.03-.13-.05-.33-.12-.68,0-.86.27.47-.9.79-1.89.93-2.98.02-.12.02-.24.01-.36,0-.18,0-.36.06-.49.32-.75.73-1.34,1.23-1.79.33-.3.74-.44,1.12-.39.33.04.61.22.81.51ZM1767.79,53.48c-.32.65-.41,1.19-.3,1.75.17.81.69,1.33,1.57,1.58,1.23.34,2.44.13,3.73-.63,1.12-.67,2.13-1.65,3.16-3.07l.05-.06c.16-.22.32-.44.47-.67.09-.14.2-.19.35-.15.36.08.71.15,1.07.23.84.17,1.7.35,2.54.58.79.22,1.6.48,2.37.73.57.19,1.17.38,1.76.55.55.16,1.12.26,1.67.36l.14.02,1.94.24h.01c.77.01,1.59.02,2.41-.03h.09c.22-.02.36-.03.41.01.05.04.08.22.12.46.21,1.25.42,2.5.63,3.75.57,3.44,1.16,6.99,1.77,10.48.08.44-.01.87-.25,1.19-.23.3-.57.49-.94.51-.41.03-.81.12-1.2.2-.1.02-.2.05-.3.07l-1.64.29h-.01c-.1.03-.12.02-.13.02,0,0-.03-.02-.04-.12-.2-1.2-.88-1.97-1.95-2.23-.84-.2-1.65.06-2.33.75-.25.26-.48.53-.73.82-.08.09-.16.19-.24.29-.01-.01-.03-.03-.04-.05-.1-.11-.22-.25-.35-.36-.98-.85-2.41-.85-3.39,0-.27.24-.51.52-.74.79-.1.12-.21.24-.32.36h0c-.09-.08-.18-.15-.26-.23-.26-.24-.51-.46-.79-.65-.53-.36-1.15-.45-1.95-.28-1.28.26-1.97,1.28-2.51,2.22-.24.42-.45.87-.66,1.3l-.11.24c-.07.15-.14.21-.28.23-5.7,1.05-10.69,1.97-15.25,2.81l-1.82.33c-.06,0-.12.02-.19.03-.26.04-.52.09-.78.1-.59.02-1.08-.4-1.18-1.02-.58-3.47-1.16-6.94-1.74-10.41l-.67-4.04c-.08-.46-.16-.92-.23-1.38-.2-1.17-.39-2.37-.6-3.56-.06-.32.03-.7.23-.99.18-.26.42-.42.69-.45.3-.04.6-.09.91-.17l15.94-2.94c-.04.07-.07.13-.1.19Z"/><path class="cls-12" d="M1754.45,63.38l1.26,7.51c.06.38.41.63.77.57.32-.06.55-.36.55-.7,0-.04,0-.07-.01-.11l-1.26-7.51c-.06-.38-.41-.63-.76-.57-.36.07-.6.43-.54.81Z"/><path class="cls-12" d="M1745.97,57.72c-.35-1.09-.24-2.17.3-3.02.53-.84,1.42-1.35,2.48-1.43.66-.05,1.03-.38,1.02-.93,0-.02,0-.04,0-.06-.04-.55-.46-.87-1.1-.84-1.59.08-2.84.81-3.84,2.24h0c-.88,1.42-1.05,3.02-.49,4.64.12.37.32.62.57.74.2.09.42.09.64,0,.34-.15.69-.5.43-1.34Z"/><path class="cls-12" d="M1797.39,70.74c.35,1.09.24,2.17-.3,3.02-.53.84-1.42,1.35-2.48,1.43-.33.03-.59.12-.77.29-.18.17-.26.41-.25.7.04.55.46.87,1.1.83,1.59-.08,2.84-.81,3.84-2.24h0c.56-.9.83-1.87.81-2.88,0-.58-.12-1.17-.32-1.76-.12-.37-.32-.63-.57-.74-.2-.09-.42-.09-.64,0-.34.15-.69.5-.43,1.34Z"/><path class="cls-12" d="M1802.2,126.8c.61,4.94-.47,9.86-3.04,13.86-3.01,4.68-7.92,8.11-14.59,10.21.92-1.54,2.17-3.47,3.27-4.63.35-.37.34-.95-.03-1.3-.37-.35-.95-.34-1.29.03-2.23,2.35-4.81,7.21-4.91,7.42-.12.23-.14.51-.05.75.09.24.28.44.52.53.03.01,3.23,1.27,7.21,3.06.16.07.32.09.48.07.31-.04.59-.23.72-.54.21-.46,0-1.01-.46-1.22-2.11-.95-4-1.75-5.33-2.29,7.29-2.22,12.67-5.95,15.98-11.09,2.81-4.36,3.99-9.71,3.32-15.08-.06-.5-.52-.86-1.02-.8-.5.06-.86.52-.79,1.03Z"/><path class="cls-12" d="M1783.42,118.9c.21-.33.28-.63.22-.9-.03-.13-.11-.33-.22-.59s-.27-.57-.45-.93c1.99.06,3.66.14,5.02.25,1.36.11,2.41.08,3.15-.1.3-.08.58-.27.84-.6.26-.32.44-.73.54-1.22.1-.49.08-1-.05-1.54-.1-.4-.3-.82-.59-1.26-.3-.44-.64-.84-1.02-1.22-.39-.37-.77-.67-1.14-.87s-.68-.27-.93-.21c-.32.08-.44.27-.37.58.02.09.12.25.3.5.18.25.39.55.62.9.24.35.46.72.67,1.09.21.38.36.74.44,1.09.09.37-.02.6-.34.67-.08.02-.37.03-.85.01-.48-.01-1.07-.03-1.77-.05-.7-.02-1.42-.05-2.16-.07-.74-.03-1.42-.06-2.03-.08-.61-.02-1.06-.04-1.34-.04-.53-1.19-.95-2.07-1.28-2.63-.33-.56-.58-.92-.78-1.08-.19-.16-.33-.23-.41-.21-.45.11-.55.67-.3,1.68.07.29.17.61.3.98.13.37.27.79.42,1.28-.55,0-1.02,0-1.42.02s-.73.06-.99.13c-.42.11-.73.31-.94.61-.21.3-.35.6-.42.9-.07.29-.09.51-.05.64.08.34.37.44.88.32,1.07-.27,2.33-.43,3.8-.47.91,2.1,1.57,3.1,1.97,2.99.25-.06.48-.26.69-.59Z"/><path class="cls-12" d="M1781.84,99.23c-.18.05-.38.2-.58.47-.39-.15-.76-.23-1.1-.24-.34-.02-.67.02-.99.1-.32.08-.62.24-.9.49-.29.25-.57.57-.87.97-.59.83-.8,1.62-.61,2.38.14.55.5,1.11,1.07,1.67.57.56,1.28,1.08,2.12,1.55.84.47,1.74.87,2.7,1.2.96.33,1.91.55,2.84.66.93.11,1.77.07,2.5-.12.47-.12.89-.41,1.27-.88.38-.47.66-1.01.84-1.62.18-.61.2-1.16.08-1.67-.32-1.28-1.6-2.43-3.87-3.46.2-.05.46-.13.76-.26.31-.12.61-.26.91-.42.3-.15.53-.33.71-.53.17-.19.23-.39.19-.59-.06-.25-.31-.35-.74-.3-1.51.16-2.78.26-3.83.3-1.05.04-1.88.14-2.5.29ZM1781.5,101.44c1.08,0,2.11.17,3.07.52.96.35,1.77.78,2.41,1.29.64.51,1.03,1.03,1.16,1.57.08.32.06.62-.06.9-.12.28-.32.46-.6.53-.44.11-.99.12-1.67.04-.68-.08-1.4-.24-2.17-.47-.77-.24-1.5-.52-2.19-.84-.7-.33-1.28-.69-1.76-1.09-.48-.4-.77-.81-.88-1.23-.15-.62.55-1.13,2.1-1.52.14.22.34.32.58.31Z"/><path class="cls-12" d="M1789.48,95.76c1.14,0,2.02,0,2.66-.02.64-.02,1.04-.05,1.21-.09.17-.04.36-.16.57-.34.21-.19.38-.39.52-.6.13-.21.19-.37.16-.47-.04-.17-.21-.28-.51-.35s-.77-.11-1.42-.13c-.56-.02-1.07-.03-1.56,0-.48.01-1.01.03-1.58.03s-1.26.02-2.07.02c0-.36-.04-.69-.11-.99-.18-.72-.53-1.44-1.05-2.15-.52-.71-1.16-1.37-1.91-1.97-.76-.61-1.57-1.13-2.43-1.57-.86-.43-1.73-.73-2.59-.89-.86-.16-1.67-.15-2.4.04-.4.1-.82.27-1.27.52-.45.25-.86.54-1.25.89-.39.35-.68.72-.88,1.12-.2.4-.25.81-.15,1.23.38,1.55,1.73,2.83,4.04,3.84-.3,0-.6.04-.9.12-.37.09-.68.28-.95.56-.27.28-.47.59-.61.92-.14.33-.18.6-.13.8.09.37.39.49.89.36,2.26-.57,6.84-.85,13.75-.87ZM1783.58,93.81c-.96,0-1.89-.15-2.81-.41-.91-.26-1.73-.6-2.47-1-.74-.41-1.34-.83-1.8-1.26-.47-.44-.73-.82-.82-1.14-.16-.66.45-1.16,1.84-1.51.72-.18,1.5-.17,2.33.03.83.2,1.64.56,2.42,1.07.78.51,1.46,1.13,2.04,1.85s.97,1.51,1.18,2.37h-1.92Z"/><path class="cls-12" d="M1802.98,109.7c-.5.13-.98.39-1.44.8-.46.41-.82.85-1.07,1.31-.26.47-.35.85-.28,1.13.04.17.13.36.25.58.13.22.37.47.75.75.37.28.93.6,1.66.95.74.35,1.72.75,2.96,1.19,1.24.44,2.81.92,4.72,1.45l.02.07c-1.41-.11-2.84-.18-4.28-.2-1.43-.03-2.8-.01-4.09.03-1.29.05-2.44.12-3.44.22-1,.1-1.77.21-2.32.35-.32.08-.62.25-.92.5-.29.25-.53.53-.71.83-.18.31-.25.57-.2.79.1.41.48.53,1.13.36.72-.18,1.62-.33,2.68-.46,1.07-.13,2.23-.22,3.47-.3s2.49-.12,3.74-.16c1.25-.04,2.43-.06,3.53-.07,1.1,0,2.03,0,2.8,0,.36,0,.65,0,.88,0,.23,0,.43-.03.62-.08.2-.05.4-.19.6-.41.2-.22.37-.46.49-.71.12-.26.17-.45.14-.59-.04-.17-.34-.36-.88-.59-.55-.23-1.24-.49-2.08-.77-.84-.28-1.74-.57-2.68-.88-.95-.31-1.85-.63-2.7-.96-.85-.33-1.57-.67-2.14-1-.57-.34-.9-.67-.98-.99-.06-.24-.02-.46.12-.66.14-.21.38-.35.73-.44.53-.13,1.19-.2,1.97-.18.78.01,1.57.05,2.39.12.82.07,1.57.12,2.26.15.69.03,1.24,0,1.64-.1.51-.13.71-.37.62-.74-.08-.3-.33-.55-.77-.75-.44-.19-.99-.35-1.65-.47-.66-.12-1.37-.21-2.13-.26-.76-.05-1.5-.07-2.23-.07-.73,0-1.38.03-1.94.07s-.97.1-1.23.16Z"/><path class="cls-12" d="M1807.16,99.56c.03.1.16.34.4.71.24.38.51.83.8,1.37.29.54.51,1.1.67,1.71.21.84.2,1.48-.03,1.92-.23.44-.64.73-1.22.88-.57.14-1.25.19-2.04.14.03-1.03-.09-2.09-.36-3.18-.12-.5-.31-1.03-.57-1.59-.25-.55-.56-1.05-.93-1.49-.37-.44-.78-.78-1.25-1-.47-.22-.97-.27-1.53-.13-.43.11-.87.33-1.3.67-.43.34-.81.75-1.13,1.24-.32.48-.56.99-.7,1.52-.14.53-.16,1.04-.03,1.55.17.67.51,1.28,1.02,1.81s1.14,1,1.88,1.39c.74.39,1.52.71,2.35.94.83.23,1.65.36,2.46.4.81.04,1.55-.03,2.22-.19.79-.2,1.44-.56,1.97-1.09.52-.53.88-1.18,1.08-1.94.2-.75.18-1.57-.03-2.44-.12-.49-.32-.98-.6-1.47-.28-.49-.59-.94-.93-1.34-.34-.4-.68-.71-1.02-.93-.34-.22-.62-.3-.83-.24-.34.08-.45.34-.34.78ZM1801.34,104.96c-.81-.51-1.29-1.08-1.45-1.7-.07-.27-.03-.58.12-.91.14-.34.36-.65.64-.92.28-.28.57-.45.87-.53.45-.11.9.12,1.33.68.44.57.76,1.29.97,2.15s.33,1.64.34,2.35c-1.07-.23-2.01-.61-2.82-1.12Z"/><path class="cls-12" d="M1795.12,92.41c.33,1.31,1.77,2.43,4.34,3.34-.35.03-.73.1-1.15.21-.54.13-1.01.39-1.41.77-.4.38-.56.77-.46,1.17.05.18.17.3.38.35s.43.04.69-.02c.32-.08.67-.18,1.06-.31.38-.12.74-.22,1.06-.3,1.1-.28,2.09-.44,2.97-.5.87-.06,1.65-.07,2.32-.05.67.03,1.27.06,1.78.09.51.03.97,0,1.35-.1.25-.06.52-.22.82-.47.29-.25.4-.53.33-.83-.05-.18-.17-.34-.38-.46s-.49-.2-.85-.22c-1.81-.08-3.34-.19-4.59-.34-1.24-.14-2.27-.34-3.09-.59-.82-.25-1.49-.56-2.02-.93-.54-.36-1.01-.8-1.42-1.31-.29-.38-.54-.63-.77-.76-.23-.13-.44-.17-.64-.12-.4.1-.5.56-.3,1.39Z"/><path class="cls-12" d="M1802.76,81.84c.02.1.16.34.4.71.24.38.51.83.8,1.37.29.54.51,1.1.67,1.71.21.84.2,1.48-.03,1.92-.23.44-.64.74-1.22.88-.57.14-1.25.19-2.04.14.03-1.03-.09-2.09-.36-3.18-.12-.5-.31-1.03-.57-1.59-.25-.55-.56-1.05-.93-1.5-.37-.44-.78-.78-1.25-1-.47-.22-.97-.27-1.53-.13-.43.11-.87.33-1.3.67-.43.34-.81.75-1.13,1.24-.32.49-.56.99-.7,1.52-.14.53-.16,1.04-.03,1.55.17.67.51,1.28,1.02,1.81.51.53,1.14,1,1.88,1.39.74.39,1.52.71,2.35.94.83.23,1.65.36,2.46.4.81.04,1.55-.03,2.22-.19.79-.2,1.44-.56,1.97-1.09.52-.53.88-1.18,1.08-1.94.2-.75.18-1.57-.03-2.44-.12-.49-.32-.98-.6-1.47-.28-.49-.59-.94-.93-1.34-.34-.4-.68-.71-1.02-.93-.34-.22-.62-.3-.83-.25-.34.09-.45.35-.34.79ZM1796.95,87.24c-.81-.51-1.29-1.08-1.45-1.7-.07-.27-.03-.58.12-.91s.36-.65.64-.92c.28-.28.57-.45.87-.53.45-.11.9.12,1.33.69.44.57.76,1.28.97,2.14s.33,1.64.34,2.35c-1.07-.23-2.01-.61-2.82-1.12Z"/><rect class="cls-13" x="929.31" y="-106.57" width="378.44" height="592.43" rx="18.41" ry="18.41" transform="translate(928.88 1308.17) rotate(-90)"/><rect class="cls-12" x="1187.83" y="142.63" width="172.49" height="185.76" rx="9.95" ry="9.95"/><polygon class="cls-6" points="1010.72 94.67 1001.52 93.77 1001.52 93.77 999.93 93.62 995.63 83.2 991.34 93.62 980.55 94.68 988.69 102.18 987.37 108.35 986.32 113.25 995.64 107.46 1004.96 113.24 1002.58 102.17 1010.72 94.67"/><polygon class="cls-6" points="1053.43 94.67 1044.23 93.77 1044.23 93.77 1042.64 93.62 1038.34 83.2 1034.05 93.62 1023.26 94.68 1031.4 102.18 1030.08 108.35 1029.03 113.25 1038.35 107.46 1047.67 113.24 1045.29 102.17 1053.43 94.67"/><polygon class="cls-6" points="1096.14 94.67 1086.94 93.77 1086.94 93.77 1085.35 93.62 1081.05 83.2 1076.76 93.62 1065.97 94.68 1074.11 102.18 1072.79 108.35 1071.74 113.25 1081.06 107.46 1090.38 113.24 1088 102.17 1096.14 94.67"/><polygon class="cls-6" points="1138.85 94.67 1129.65 93.77 1129.65 93.77 1128.06 93.62 1123.76 83.2 1119.47 93.62 1108.68 94.68 1116.82 102.18 1115.5 108.35 1114.45 113.25 1123.77 107.46 1133.09 113.24 1130.71 102.17 1138.85 94.67"/><polygon class="cls-6" points="1181.55 94.67 1172.36 93.77 1172.36 93.77 1170.77 93.62 1166.47 83.2 1162.18 93.62 1151.39 94.68 1159.53 102.18 1158.21 108.35 1157.16 113.25 1166.48 107.46 1175.8 113.24 1173.42 102.17 1181.55 94.67"/><path class="cls-12" d="M915.83,124.81c24,0,43.45-19.46,43.45-43.45s-19.46-43.45-43.45-43.45-43.45,19.46-43.45,43.45,19.46,43.45,43.45,43.45"/><path class="cls-11" d="M916.57,61.51c4.55,0,8.66,1.61,11.89,4.26l9.39-9.39c-5.72-4.99-13.06-8.07-21.29-8.07-12.76,0-23.73,7.31-28.99,17.99l10.87,8.31c2.51-7.61,9.64-13.09,18.12-13.09"/><path class="cls-6" d="M897.48,80.59c0-2.1.35-4.11.97-6l-10.87-8.31c-2.12,4.31-3.31,9.16-3.31,14.31s1.19,9.99,3.31,14.3c0,0,0,0,0,0l10.87-8.31s0-.02,0-.03c-.62-1.88-.96-3.88-.96-5.97"/><path class="cls-2" d="M916.57,74.72v12.48h17.32c-.87,4.25-3.23,7.52-6.6,9.65l10.32,7.99c5.93-5.51,9.79-13.72,9.79-24.25,0-1.91-.29-3.96-.73-5.87h-30.1Z"/><path class="cls-7" d="M916.57,99.67c-8.47,0-15.61-5.48-18.12-13.09l-10.87,8.31c5.25,10.68,16.22,17.99,28.99,17.99,7.88,0,15.4-2.8,21.04-8.05l-10.32-7.99c-2.91,1.84-6.58,2.82-10.73,2.82"/><path class="cls-12" d="M995.1,50.23c-1.25-.98-2.96-1.47-5.11-1.47h-6.49v19.66h3.54v-6.74h2.47c2.28,0,4.1-.5,5.45-1.5,1.35-1,2.02-2.39,2.02-4.17v-1.63c0-1.78-.63-3.16-1.88-4.14ZM993.45,55.81c0,2.12-1.35,3.17-4.04,3.17h-2.36v-7.53h2.78c1.14,0,2.03.26,2.67.77.64.51.96,1.29.96,2.32v1.26Z"/><path class="cls-12" d="M1004.62,66.09c-.37,0-.64-.09-.79-.27-.15-.18-.22-.47-.22-.88v-17.3h-3.48v17.81c0,1.09.31,1.91.93,2.49.62.57,1.46.86,2.53.86.64,0,1.3-.12,1.99-.37l-.37-2.39c-.3.04-.5.06-.59.06Z"/><path class="cls-12" d="M1014.62,53.08c-1.35,0-2.53.31-3.54.93-1.01.62-1.79,1.46-2.33,2.54-.54,1.08-.81,2.29-.81,3.64v1.54c0,1.37.28,2.58.84,3.64s1.38,1.89,2.46,2.5c1.08.61,2.35.91,3.83.91,1.03,0,2.03-.17,2.99-.51.96-.34,1.78-.76,2.46-1.26l-1.24-2.08c-.71.39-1.37.7-1.98.91-.61.21-1.28.32-2.01.32-1.31,0-2.29-.33-2.95-1-.66-.67-.99-1.71-1.01-3.13h9.63c.07-.6.11-1.16.11-1.69,0-2.36-.56-4.16-1.69-5.41s-2.71-1.87-4.77-1.87ZM1017.96,59.77h-6.63c.04-1.37.33-2.4.88-3.09.55-.69,1.36-1.04,2.43-1.04s1.91.34,2.47,1.02c.56.68.84,1.67.84,2.96v.14Z"/><path class="cls-12" d="M1030.07,53.08c-2.1,0-4.01.52-5.73,1.57l1.07,2.16c.75-.38,1.46-.66,2.15-.84.68-.19,1.42-.28,2.2-.28.9,0,1.57.2,2.01.6s.66,1.04.66,1.92v1.01h-2.75c-1.93,0-3.45.39-4.55,1.18-1.1.79-1.66,1.83-1.66,3.15v.98c0,.84.22,1.59.67,2.23.45.65,1.05,1.14,1.81,1.49.76.35,1.59.52,2.49.52,1.74,0,3.22-.6,4.44-1.8l.28,1.43h2.72v-10.08c0-1.65-.49-2.94-1.46-3.86-.97-.93-2.42-1.39-4.35-1.39ZM1032.43,64.74c-.43.49-.93.85-1.5,1.09-.57.24-1.18.37-1.81.37-.73,0-1.28-.17-1.64-.52-.37-.35-.55-.82-.55-1.42v-.56c0-1.52,1.03-2.28,3.09-2.28h2.42v3.31Z"/><path class="cls-12" d="M1047.31,59.94l-1.88-.65c-.94-.34-1.57-.65-1.91-.93-.34-.28-.51-.63-.51-1.04v-.22c0-.41.2-.75.59-1.02s.96-.41,1.71-.41,1.36.08,1.95.25c.59.17,1.24.49,1.95.96l1.6-1.91c-.71-.6-1.56-1.06-2.54-1.39-.98-.33-2.01-.49-3.08-.49s-2.06.17-2.92.52c-.86.35-1.54.82-2.02,1.43-.49.61-.73,1.31-.73,2.09v.62c0,.92.29,1.68.88,2.29s1.49,1.13,2.71,1.56l1.88.65c.99.34,1.66.65,1.99.94s.51.68.51,1.17v.22c0,1.09-.95,1.63-2.84,1.63-.81,0-1.54-.12-2.22-.37-.67-.24-1.34-.61-1.99-1.09l-1.66,1.99c.77.66,1.68,1.16,2.72,1.52,1.05.36,2.2.53,3.45.53,1.7,0,3.13-.37,4.27-1.11,1.14-.74,1.71-1.77,1.71-3.1v-.62c0-1.05-.31-1.87-.93-2.47s-1.53-1.11-2.72-1.54Z"/><path class="cls-12" d="M1060.26,53.08c-1.35,0-2.53.31-3.54.93-1.01.62-1.79,1.46-2.33,2.54-.54,1.08-.81,2.29-.81,3.64v1.54c0,1.37.28,2.58.84,3.64s1.38,1.89,2.46,2.5c1.08.61,2.35.91,3.83.91,1.03,0,2.03-.17,2.99-.51.96-.34,1.78-.76,2.46-1.26l-1.24-2.08c-.71.39-1.37.7-1.98.91-.61.21-1.28.32-2.01.32-1.31,0-2.29-.33-2.95-1-.66-.67-.99-1.71-1.01-3.13h9.63c.07-.6.11-1.16.11-1.69,0-2.36-.56-4.16-1.69-5.41s-2.71-1.87-4.77-1.87ZM1063.6,59.77h-6.63c.04-1.37.33-2.4.88-3.09.55-.69,1.36-1.04,2.43-1.04s1.91.34,2.47,1.02c.56.68.84,1.67.84,2.96v.14Z"/><path class="cls-12" d="M1081.86,66.09c-.37,0-.64-.09-.79-.27-.15-.18-.22-.47-.22-.88v-17.3h-3.48v17.81c0,1.09.31,1.91.93,2.49.62.57,1.46.86,2.53.86.64,0,1.3-.12,1.99-.37l-.37-2.39c-.3.04-.5.06-.59.06Z"/><path class="cls-12" d="M1091.85,53.08c-1.35,0-2.53.31-3.54.93-1.01.62-1.79,1.46-2.33,2.54-.54,1.08-.81,2.29-.81,3.64v1.54c0,1.37.28,2.58.84,3.64s1.38,1.89,2.46,2.5c1.08.61,2.35.91,3.83.91,1.03,0,2.03-.17,2.99-.51.96-.34,1.78-.76,2.46-1.26l-1.24-2.08c-.71.39-1.37.7-1.98.91-.61.21-1.28.32-2.01.32-1.31,0-2.29-.33-2.95-1-.66-.67-.99-1.71-1.01-3.13h9.63c.07-.6.11-1.16.11-1.69,0-2.36-.56-4.16-1.69-5.41s-2.71-1.87-4.77-1.87ZM1095.2,59.77h-6.63c.04-1.37.33-2.4.88-3.09.55-.69,1.36-1.04,2.43-1.04s1.91.34,2.47,1.02c.56.68.84,1.67.84,2.96v.14Z"/><path class="cls-12" d="M1107.3,53.08c-2.1,0-4.01.52-5.73,1.57l1.07,2.16c.75-.38,1.46-.66,2.15-.84.68-.19,1.42-.28,2.2-.28.9,0,1.57.2,2.01.6s.66,1.04.66,1.92v1.01h-2.75c-1.93,0-3.45.39-4.55,1.18-1.1.79-1.66,1.83-1.66,3.15v.98c0,.84.22,1.59.67,2.23.45.65,1.05,1.14,1.81,1.49.76.35,1.59.52,2.49.52,1.74,0,3.22-.6,4.44-1.8l.28,1.43h2.72v-10.08c0-1.65-.49-2.94-1.46-3.86-.97-.93-2.42-1.39-4.35-1.39ZM1109.66,64.74c-.43.49-.93.85-1.5,1.09-.57.24-1.18.37-1.81.37-.73,0-1.28-.17-1.64-.52-.37-.35-.55-.82-.55-1.42v-.56c0-1.52,1.03-2.28,3.09-2.28h2.42v3.31Z"/><polygon class="cls-12" points="1122.64 65.64 1119.18 53.48 1115.56 53.48 1120.42 68.42 1124.71 68.42 1129.57 53.48 1126.09 53.48 1122.64 65.64"/><path class="cls-12" d="M1138.03,53.08c-1.35,0-2.53.31-3.54.93-1.01.62-1.79,1.46-2.33,2.54-.54,1.08-.81,2.29-.81,3.64v1.54c0,1.37.28,2.58.84,3.64s1.38,1.89,2.46,2.5c1.08.61,2.35.91,3.83.91,1.03,0,2.03-.17,2.99-.51.96-.34,1.78-.76,2.46-1.26l-1.24-2.08c-.71.39-1.37.7-1.98.91-.61.21-1.28.32-2.01.32-1.31,0-2.29-.33-2.95-1-.66-.67-.99-1.71-1.01-3.13h9.63c.07-.6.11-1.16.11-1.69,0-2.36-.56-4.16-1.69-5.41s-2.71-1.87-4.77-1.87ZM1141.37,59.77h-6.63c.04-1.37.33-2.4.88-3.09.55-.69,1.36-1.04,2.43-1.04s1.91.34,2.47,1.02c.56.68.84,1.67.84,2.96v.14Z"/><path class="cls-12" d="M1160.72,53.08c-2.1,0-4.01.52-5.73,1.57l1.07,2.16c.75-.38,1.46-.66,2.15-.84.68-.19,1.42-.28,2.2-.28.9,0,1.57.2,2.01.6s.66,1.04.66,1.92v1.01h-2.75c-1.93,0-3.45.39-4.55,1.18-1.1.79-1.66,1.83-1.66,3.15v.98c0,.84.22,1.59.67,2.23.45.65,1.05,1.14,1.81,1.49.76.35,1.59.52,2.49.52,1.74,0,3.22-.6,4.44-1.8l.28,1.43h2.72v-10.08c0-1.65-.49-2.94-1.46-3.86-.97-.93-2.42-1.39-4.35-1.39ZM1163.08,64.74c-.43.49-.93.85-1.5,1.09-.57.24-1.18.37-1.81.37-.73,0-1.28-.17-1.64-.52-.37-.35-.55-.82-.55-1.42v-.56c0-1.52,1.03-2.28,3.09-2.28h2.42v3.31Z"/><path class="cls-12" d="M1183.12,53.8c-.72.44-1.29,1.12-1.7,2.04l-.56-2.36h-2.53v14.94h3.48v-8.93c.39-1.05.92-1.8,1.59-2.25.66-.45,1.45-.67,2.35-.67.32,0,.62.03.9.08l.62-3.23c-.56-.19-1.16-.28-1.8-.28-.84,0-1.62.22-2.34.66Z"/><path class="cls-12" d="M1195.43,53.08c-1.35,0-2.53.31-3.54.93-1.01.62-1.79,1.46-2.33,2.54-.54,1.08-.81,2.29-.81,3.64v1.54c0,1.37.28,2.58.84,3.64s1.38,1.89,2.46,2.5c1.08.61,2.35.91,3.83.91,1.03,0,2.03-.17,2.99-.51.96-.34,1.78-.76,2.46-1.26l-1.24-2.08c-.71.39-1.37.7-1.98.91-.61.21-1.28.32-2.01.32-1.31,0-2.29-.33-2.95-1-.66-.67-.99-1.71-1.01-3.13h9.63c.07-.6.11-1.16.11-1.69,0-2.36-.56-4.16-1.69-5.41s-2.71-1.87-4.77-1.87ZM1198.77,59.77h-6.63c.04-1.37.33-2.4.88-3.09.55-.69,1.36-1.04,2.43-1.04s1.91.34,2.47,1.02c.56.68.84,1.67.84,2.96v.14Z"/><polygon class="cls-12" points="1210.93 65.64 1207.48 53.48 1203.86 53.48 1208.72 68.42 1213.01 68.42 1217.87 53.48 1214.39 53.48 1210.93 65.64"/><path class="cls-12" d="M1223.18,46.96c-.58,0-1.08.21-1.49.62-.41.41-.62.91-.62,1.49s.21,1.07.62,1.47c.41.4.91.6,1.49.6s1.08-.2,1.49-.6c.41-.4.62-.89.62-1.47s-.21-1.1-.62-1.5c-.41-.4-.91-.6-1.49-.6Z"/><polygon class="cls-12" points="1219.33 56.06 1221.58 56.06 1221.58 68.42 1225.06 68.42 1225.06 53.48 1219.33 53.48 1219.33 56.06"/><path class="cls-12" d="M1235.48,53.08c-1.35,0-2.53.31-3.54.93-1.01.62-1.79,1.46-2.33,2.54-.54,1.08-.81,2.29-.81,3.64v1.54c0,1.37.28,2.58.84,3.64s1.38,1.89,2.46,2.5c1.08.61,2.35.91,3.83.91,1.03,0,2.03-.17,2.99-.51.96-.34,1.78-.76,2.46-1.26l-1.24-2.08c-.71.39-1.37.7-1.98.91-.61.21-1.28.32-2.01.32-1.31,0-2.29-.33-2.95-1-.66-.67-.99-1.71-1.01-3.13h9.63c.07-.6.11-1.16.11-1.69,0-2.36-.56-4.16-1.69-5.41s-2.71-1.87-4.77-1.87ZM1238.82,59.77h-6.63c.04-1.37.33-2.4.88-3.09.55-.69,1.36-1.04,2.43-1.04s1.91.34,2.47,1.02c.56.68.84,1.67.84,2.96v.14Z"/><polygon class="cls-12" points="1261.24 53.48 1259.13 65.5 1256.43 53.48 1252.56 53.48 1249.89 65.5 1247.67 53.48 1244.19 53.48 1247.56 68.42 1251.77 68.42 1254.44 56.51 1257.05 68.42 1261.35 68.42 1264.66 53.48 1261.24 53.48"/><polygon class="cls-12" points="921.21 207.37 925.59 207.37 925.59 220.81 927.17 220.81 927.17 207.37 931.57 207.37 931.57 206.07 921.21 206.07 921.21 207.37"/><path class="cls-12" d="M936.83,206.07l-4.82,14.75h1.62l1.43-4.55h5.75l1.52,4.55h1.64l-4.97-14.75h-2.17ZM935.47,214.96l2.44-7.73,2.49,7.73h-4.93Z"/><path class="cls-12" d="M955.19,207.14c-.91-.72-2.13-1.07-3.68-1.07h-4.28v14.75h1.58v-5.35h2.34c1.69,0,3-.36,3.96-1.09.95-.73,1.43-1.75,1.43-3.05v-1.14c0-1.31-.45-2.32-1.36-3.03ZM954.97,211.25c0,.98-.33,1.72-.99,2.2-.66.49-1.62.73-2.86.73h-2.3v-6.83h2.65c1.1,0,1.95.25,2.57.74.62.49.93,1.21.93,2.17v.99Z"/><path class="cls-4" d="M936.16,229.22c-1.9,0-3.32.55-4.29,1.65s-1.44,2.57-1.44,4.39v3.24c0,1.14.21,2.16.62,3.05.41.9,1.05,1.61,1.91,2.13.86.52,1.92.78,3.2.78s2.35-.26,3.2-.78,1.49-1.23,1.91-2.13c.41-.9.62-1.92.62-3.05v-3.24c0-1.81-.48-3.27-1.43-4.38s-2.39-1.66-4.3-1.66ZM940.31,238.55c0,1.38-.34,2.49-1.03,3.35-.69.86-1.73,1.29-3.12,1.29s-2.43-.43-3.12-1.29c-.69-.86-1.03-1.97-1.03-3.35v-3.31c0-1.45.34-2.6,1.03-3.45s1.73-1.29,3.12-1.29,2.45.43,3.13,1.3c.68.86,1.02,2.01,1.02,3.44v3.31Z"/><path class="cls-4" d="M952.57,237.68c.93-.25,1.65-.68,2.18-1.28.53-.6.79-1.33.79-2.17v-.97c0-1.17-.45-2.09-1.36-2.77-.91-.68-2.12-1.02-3.65-1.02h-4.34v14.75h1.58v-6.24h2.8c.2,0,.34,0,.42-.02l3.37,6.26h1.75l-3.54-6.53ZM950.55,236.69h-2.78v-5.94h2.74c1.05,0,1.89.22,2.51.67.62.45.93,1.07.93,1.88v.88c0,.8-.3,1.42-.9,1.85-.6.44-1.43.65-2.5.65Z"/><path class="cls-12" d="M911.26,259.57l-1.92-.61c-.97-.31-1.67-.65-2.1-1.03s-.64-.81-.64-1.31v-.44c0-.37.12-.72.36-1.06.24-.34.61-.63,1.12-.86s1.14-.35,1.9-.35c.81,0,1.53.12,2.14.37.61.25,1.23.64,1.84,1.19l.84-.93c-1.28-1.28-2.89-1.92-4.84-1.92-1.05,0-1.95.17-2.7.52-.74.34-1.3.79-1.67,1.34-.37.55-.56,1.12-.56,1.71v.46c0,.8.27,1.49.8,2.08s1.4,1.08,2.61,1.49l2.11.69c1.01.34,1.72.7,2.13,1.07.41.38.61.91.61,1.6v.34c0,.42-.13.83-.4,1.23-.27.4-.68.73-1.23.99-.55.26-1.24.39-2.05.39-.7,0-1.3-.06-1.8-.19-.5-.13-.92-.29-1.27-.5-.35-.2-.76-.48-1.22-.83l-.84.99c1.25,1.25,2.96,1.88,5.14,1.88,1.08,0,2.02-.18,2.81-.53.79-.35,1.4-.83,1.82-1.43s.63-1.26.63-1.98v-.53c0-1.02-.31-1.83-.93-2.4-.62-.58-1.51-1.05-2.68-1.43Z"/><path class="cls-12" d="M920.64,255.1c.7-.8,1.69-1.2,2.97-1.2.7,0,1.31.11,1.82.33.51.22,1.01.52,1.48.92l.84-.95c-.58-.5-1.19-.89-1.84-1.17-.65-.27-1.44-.41-2.35-.41-1.15,0-2.15.24-2.98.73-.84.48-1.47,1.17-1.92,2.04s-.66,1.91-.66,3.09v3.9c0,1.67.48,3.01,1.43,4,.95,1,2.3,1.5,4.02,1.5.86,0,1.63-.14,2.33-.41.7-.27,1.3-.62,1.82-1.04l-.7-1.01c-.48.37-.99.65-1.54.86-.55.21-1.18.32-1.9.32-1.26,0-2.23-.37-2.9-1.12-.67-.74-1-1.79-1-3.14v-3.9c0-1.42.35-2.53,1.05-3.33Z"/><path class="cls-12" d="M934.01,252.87l-4.82,14.75h1.62l1.43-4.55h5.75l1.52,4.55h1.64l-4.97-14.75h-2.17ZM932.64,261.76l2.44-7.73,2.49,7.73h-4.93Z"/><polygon class="cls-12" points="953.41 252.87 953.41 265.59 946.33 252.89 946.35 252.87 944.42 252.87 944.42 267.62 945.85 267.62 945.85 254.85 952.95 267.62 954.84 267.62 954.84 252.87 953.41 252.87"/><path class="cls-12" d="M1056.79,259.76c1.21.29,2.19.74,2.99,1.37.53.42.85.99.88,1.57.02.5-.17.98-.54,1.34-.55.54-1.31.8-2.39.82-1.75.02-3.44-.44-5.16-1.41-.88-.5-1.28-1.22-1.24-2.21,0-.18.04-.37.08-.56.01-.07.03-.14.04-.21.08-.52-.18-1.01-.63-1.22,1.46.48,3.02.68,4.69.62.18,0,.37-.04.55-.07.27-.05.53-.1.75-.04M1079.69,239.29c-.19,1.93.44,3.7,1.93,5.41,1.3,1.5,3.01,2.75,5.39,3.92l.11.05c.37.18.74.37,1.12.53.23.1.33.24.32.48-.02.55-.04,1.11-.05,1.67-.04,1.3-.07,2.64-.19,3.96-.11,1.25-.29,2.51-.45,3.73-.13.91-.26,1.85-.36,2.78-.1.86-.09,1.74-.09,2.59v.21l.16,2.97v.02c.19,1.15.4,2.38.68,3.59l.03.14c.08.32.13.54.08.61-.05.09-.3.18-.65.3-1.8.64-3.61,1.28-5.41,1.92-4.96,1.76-10.09,3.57-15.12,5.39-.64.23-1.29.21-1.83-.06-.51-.26-.87-.72-1-1.27-.14-.6-.38-1.18-.62-1.75-.06-.15-.12-.29-.18-.43l-.87-2.37v-.02c-.08-.14-.07-.18-.07-.18,0,0,.02-.04.17-.1,1.73-.62,2.7-1.83,2.8-3.5.08-1.32-.52-2.46-1.74-3.29-.45-.31-.92-.59-1.41-.87-.17-.1-.33-.19-.5-.29.02-.02.04-.05.06-.07.15-.18.31-.39.44-.61,1.01-1.69.63-3.82-.89-5.07-.42-.35-.9-.63-1.36-.9-.21-.13-.42-.25-.62-.38h0c.09-.16.19-.31.28-.46.29-.45.55-.88.76-1.35.39-.89.36-1.84-.1-3-.73-1.85-2.43-2.61-3.97-3.17-.69-.25-1.41-.45-2.11-.64l-.39-.11c-.24-.07-.35-.16-.42-.36-3.06-8.25-5.75-15.48-8.21-22.09l-.97-2.64c-.03-.09-.07-.18-.1-.27-.13-.37-.27-.76-.36-1.14-.19-.88.31-1.72,1.21-2.04,5.01-1.78,10.01-3.56,15.02-5.33l5.82-2.07c.66-.24,1.33-.47,1.99-.71,1.69-.59,3.43-1.21,5.14-1.83.46-.17,1.05-.13,1.53.09.43.2.73.53.85.92.14.43.3.88.49,1.32l8.57,23.08c-.11-.04-.21-.07-.31-.1-1.05-.31-1.88-.31-2.68.01-1.17.47-1.8,1.37-1.93,2.77M1041.99,238.52c.12-.57.48-1.03.95-1.22.2-.08.42-.14.65-.19.29-.06.59-.09.89-.12h.05c.38-.05.77-.05,1.14-.06.22,0,.44,0,.67-.02.18,0,.24.03.29.16.4,1.09.81,2.18,1.21,3.27.28.76.56,1.52.84,2.27,0,0,0,.01,0,.02l-.2-.07c-.33-.11-.64-.22-.95-.32-.26-.09-.52-.17-.78-.25-.59-.18-1.19-.37-1.73-.64-.32-.15-.65-.27-.98-.38-.61-.21-1.19-.41-1.65-.85-.39-.38-.55-.99-.42-1.6M1115.45,274.21l-.93-.74c-1.14-.92-2.32-1.86-3.5-2.78-1.18-.93-2.1-2.03-2.72-3.26-.85-1.67-1.43-3.61-1.79-5.93-.48-3.07-1.07-5.36-1.94-7.43l-.04-.1c-.43-1.03-.88-2.09-1.42-3.09l-.02-.04c-.71-1.31-1.44-2.66-2.33-3.88-.97-1.32-2.05-2.59-3.1-3.82-.28-.33-.56-.66-.83-.98-1.36-1.62-3.06-2.71-5.04-3.24-1.45-.39-2.63-.69-3.72-.94-.36-.08-.52-.24-.66-.62-3.44-9.3-6.56-17.69-9.55-25.67-.2-.55-.48-1.03-.81-1.39-1.21-1.36-2.94-1.76-4.76-1.13-9.07,3.22-18.44,6.54-27.75,9.86-.58.21-1.13.53-1.55.91-1.35,1.23-1.71,2.73-1.07,4.46.81,2.18,1.62,4.36,2.43,6.53l1.21,3.27.06.15c.03.07.05.15.08.22.02.05.02.08.03.09-.01,0-.04.01-.12.02-.15,0-.3,0-.45.01-.17,0-.34.01-.51.02-1.83.03-3.08.52-4.03,1.57-.72.79-1.09,1.87-1,2.96.08,1.08.6,2.07,1.43,2.71.87.69,1.91,1.07,2.92,1.44.21.07.42.15.63.23,1.28.49,2.62.89,3.92,1.28.25.07.5.15.75.22.3.09.45.23.56.53.35.95.7,1.92,1.05,2.85.3.8.6,1.61.89,2.41.13.37.37.57.76.66.7.16,1.41.35,2.1.55,1.14.34,2.15.68,3.01,1.36.51.4.82.99.86,1.62.04.57-.15,1.11-.54,1.51-.58.61-1.3.95-2.16,1.02-2.17.17-4.29-.32-6.29-1.46-.57-.33-1.14-.71-1.46-1.32-.52-1.01-.37-2.03.45-3.12.48-.63,1.17-1.04,1.71-1.32.31-.16.54-.43.63-.74.09-.28.06-.57-.08-.8-.31-.52-1.06-.73-1.6-.44-1.24.66-2.16,1.45-2.82,2.41-1.53,2.24-1.15,4.99.89,6.54,1.04.78,2.16,1.38,3.35,1.8-.02,0-.04,0-.05,0-.63-.11-1.23.27-1.38.89-.07.29-.12.59-.15.89-.14,1.77.41,3.07,1.69,3.97.56.39,1.13.73,1.71.99,2.21,1.01,4.24,1.36,6.21,1.06.72-.11,1.32,0,1.88.32.22.13.44.25.66.37.55.3,1.12.61,1.59,1,.35.28.53.65.52,1.06,0,.47-.26.94-.7,1.28-.48.38-1.06.4-1.57.38-2.29-.05-4.41-.67-6.3-1.83-.48-.29-.75-.71-.84-1.26-.03-.2-.02-.41,0-.63,0-.08,0-.16.01-.24.02-.63-.4-1.11-1.01-1.18-.61-.07-1.18.33-1.28.92-.3,1.65.27,3.19,1.5,4.03,1.92,1.31,4.21,2.11,6.8,2.37.27.03.36.1.45.34.59,1.62,1.12,3.06,1.64,4.4l.07.2c.19.52.4,1.05.68,1.54.92,1.6,3.04,2.31,4.94,1.66.71-.24,1.42-.5,2.11-.75.33-.12.66-.24.99-.35.26-.09.43-.15.51-.13.08.02.2.14.38.33l.02.02c1.1,1.15,2.4,2.18,3.87,3.05,2.71,1.61,5.82,2.54,9.26,2.78.72.05,1.44.05,2.15.05.41,0,.84,0,1.26.01,1.87.05,3.7.59,5.78,1.71.77.41,1.52.89,2.24,1.36.27.18.55.35.83.53.35.22.66.29.97.23.12-.02.25-.07.36-.14.46-.27.67-.72.53-1.16-.08-.26-.3-.55-.58-.76-1.76-1.31-3.64-2.33-5.58-3.03-1.64-.59-3.16-.89-4.66-.91-1.72-.02-3.17-.07-4.6-.25-3.41-.43-6.44-1.74-9-3.91-.23-.19-.45-.4-.68-.62-.06-.05-.12-.11-.18-.16.05-.03.09-.04.14-.06l4.42-1.57c3.57-1.27,7.14-2.53,10.7-3.81.21-.07.24-.06.31.13.32.83.59,1.51.88,2.14.4.9.76,1.63,1.12,2.3.15.28.4.48.7.56.3.08.61.04.88-.11.53-.3.72-.94.44-1.5-1.19-2.37-2-4.36-2.54-6.26-.62-2.14-.95-4.4-.99-6.71-.05-3.08.39-6.09.83-8.63.39-2.26.37-4.57.31-6.73-.03-.93-.49-1.62-1.35-2.02-.64-.3-1.4-.65-2.15-1.06-1.8-.99-3.8-2.3-4.93-4.51-.41-.81-.54-1.69-.37-2.63.04-.26.15-.45.32-.56.17-.12.41-.15.7-.11.29.05.6.11.86.23,1.98.93,4.19,1.65,6.95,2.24,1.21.26,2.3.83,3.24,1.69,1.31,1.2,2.57,2.62,3.96,4.47,1.84,2.43,3.19,4.76,4.12,7.11l.14.34c.4,1.01.81,2.06,1.08,3.12.27,1.09.48,2.22.68,3.31.11.62.23,1.26.36,1.89.55,2.68,1.27,4.63,2.33,6.32.86,1.38,1.69,2.37,2.62,3.13,1.11.91,2.28,1.79,3.41,2.65.41.31.83.62,1.24.94.29.22.61.32.92.28.28-.03.52-.17.71-.4.43-.52.35-1.16-.19-1.59"/><path class="cls-12" d="M1066.07,219.14l-10.85,3.85c-.55.19-.83.77-.64,1.29.18.47.68.73,1.18.63.05-.01.11-.03.16-.04l10.85-3.85c.55-.2.83-.77.64-1.29-.19-.52-.79-.78-1.34-.59"/><path class="cls-12" d="M1072.25,204.96c1.54-.81,3.16-.93,4.57-.34,1.39.58,2.38,1.76,2.78,3.34.24.97.84,1.43,1.65,1.28.03,0,.06-.01.09-.02.81-.2,1.17-.91.96-1.86-.53-2.35-1.95-4.04-4.34-5.16h-.01c-2.33-.95-4.76-.78-7.02.47-.51.29-.84.65-.95,1.04-.08.32-.02.65.18.95.31.47.92.9,2.1.29"/><path class="cls-12" d="M1066.45,285.33c-1.54.81-3.16.93-4.57.34-1.4-.58-2.38-1.76-2.78-3.34-.12-.5-.33-.86-.62-1.07-.3-.22-.69-.29-1.11-.18-.8.2-1.17.91-.95,1.86.53,2.35,1.95,4.04,4.34,5.16h0c1.48.6,3,.75,4.49.46.86-.17,1.71-.48,2.53-.94.51-.29.84-.65.95-1.04.09-.32.03-.65-.18-.95-.31-.47-.92-.91-2.1-.29"/><path class="cls-12" d="M1048.38,180.01c7.16-1.71,13.8-.33,19.7,4.45.29.23.58.47.82.74.58.67.68,1.42.08,2.12-.64.74-1.42.76-2.19.19-.89-.66-1.72-1.41-2.65-2-10.36-6.6-23.88-1.97-28.05,9.59-.07.19-.13.39-.2.58-.37.94-1.04,1.4-2.03,1.06-.99-.34-1.24-1.13-.95-2.09.16-.55.35-1.1.57-1.62,2.85-6.65,7.78-10.94,14.9-13.02"/><path class="cls-12" d="M1050.05,186.99c5.48-1.3,10.41-.26,14.75,3.36,1.03.86,1.21,1.75.58,2.54-.62.78-1.54.75-2.57-.09-7.32-5.98-17.47-3.27-20.88,5.58-.49,1.28-1.22,1.75-2.17,1.39-.95-.36-1.24-1.21-.78-2.47,1.93-5.32,5.69-8.69,11.07-10.3"/><path class="cls-12" d="M1052.01,194.09c3.41-.74,6.31-.09,8.88,1.97.96.77,1.16,1.69.59,2.44-.63.81-1.53.82-2.57.02-3.88-2.98-8.82-1.65-10.74,2.9-.5,1.18-1.21,1.6-2.14,1.28-.95-.33-1.28-1.24-.79-2.46,1.28-3.24,3.64-5.28,6.78-6.14"/><polygon class="cls-12" points="1044.86 320.16 1037.57 320.16 1037.57 321.52 1040.34 321.52 1040.34 329.99 1042.11 329.99 1042.11 321.52 1044.86 321.52 1044.86 320.16"/><path class="cls-12" d="M1047.81,320.16l-3.01,9.83h1.78l.74-2.58h3.4l.81,2.58h1.83l-3.16-9.83h-2.4ZM1047.73,325.99l1.28-4.59,1.31,4.59h-2.58Z"/><path class="cls-12" d="M1060.86,320.9c-.63-.49-1.48-.74-2.56-.74h-3.24v9.83h1.77v-3.37h1.24c1.14,0,2.05-.25,2.72-.75.67-.5,1.01-1.2,1.01-2.09v-.81c0-.89-.31-1.58-.94-2.07ZM1060.03,323.69c0,1.06-.67,1.59-2.02,1.59h-1.18v-3.76h1.39c.57,0,1.02.13,1.33.39.32.26.48.64.48,1.16v.63Z"/><polygon class="cls-12" points="1073.12 324.22 1069.17 324.22 1069.17 320.16 1067.4 320.16 1067.4 329.99 1069.17 329.99 1069.17 325.65 1073.12 325.65 1073.12 329.99 1074.88 329.99 1074.88 320.16 1073.12 320.16 1073.12 324.22"/><polygon class="cls-12" points="1077.83 329.99 1083.58 329.99 1083.58 328.61 1079.6 328.61 1079.6 325.68 1083.27 325.68 1083.27 324.32 1079.6 324.32 1079.6 321.52 1083.58 321.52 1083.58 320.16 1077.83 320.16 1077.83 329.99"/><path class="cls-12" d="M1092.29,324.88c.31-.39.47-.86.47-1.39v-.73c0-.8-.31-1.44-.94-1.9-.63-.46-1.46-.7-2.5-.7h-3.31v9.83h1.77v-3.89h1.49l2.04,3.89h1.94l-2.26-4.2c.56-.21,1-.52,1.31-.91ZM1090.52,324.43c-.3.23-.72.35-1.26.35h-1.49v-3.29h1.47c.53,0,.96.12,1.26.35.31.23.46.57.46,1v.6c0,.42-.15.75-.46.98Z"/><polygon class="cls-12" points="1101 321.52 1101 320.16 1095.26 320.16 1095.26 329.99 1101 329.99 1101 328.61 1097.03 328.61 1097.03 325.68 1100.7 325.68 1100.7 324.32 1097.03 324.32 1097.03 321.52 1101 321.52"/><g class="cls-1"><rect class="cls-10" x="984.16" y="141.69" width="172.5" height="185.76"/></g><path class="cls-4" d="M1213.66,343.17c-.88,0-1.57.28-2.08.83v-3.55h-1.74v10.39h1.74v-5.39c.43-.64.97-.96,1.62-.96.79,0,1.18.44,1.18,1.32v5.03h1.74v-5.17c0-.79-.23-1.4-.69-1.84-.46-.44-1.05-.66-1.77-.66Z"/><path class="cls-4" d="M1222.72,348.76c-.22.3-.47.53-.77.7-.3.17-.6.25-.91.25-.35,0-.61-.09-.79-.27s-.27-.44-.27-.78v-5.29h-1.74v5.38c0,.46.1.86.32,1.2.21.34.5.61.86.79.36.19.76.28,1.2.28.88,0,1.63-.34,2.25-1.01l.13.83h1.47v-7.47h-1.74v5.39Z"/><path class="cls-4" d="M1228.53,345.06c.3-.38.74-.57,1.3-.57.33,0,.61.05.86.14.24.09.48.24.72.45l.83-.93c-.35-.34-.72-.58-1.12-.74-.4-.16-.85-.24-1.35-.24-1.09,0-1.93.33-2.53.98-.6.65-.9,1.53-.9,2.63v.63c0,1.1.3,1.97.91,2.63.6.66,1.43.98,2.49.98.44,0,.88-.08,1.31-.25.44-.16.81-.38,1.13-.64l-.72-1.03c-.28.2-.55.35-.8.45-.25.1-.53.16-.84.16-.57,0-1-.19-1.3-.58s-.44-.95-.44-1.7v-.69c0-.75.15-1.31.46-1.69Z"/><polygon class="cls-4" points="1239.98 343.37 1238.07 343.37 1235.51 346.25 1235.51 340.45 1233.77 340.45 1233.77 350.84 1235.51 350.84 1235.51 348.16 1236.14 347.44 1238.5 350.84 1240.44 350.84 1237.31 346.39 1239.98 343.37"/><path class="cls-4" d="M1243.67,349.67c-.19,0-.32-.04-.39-.13-.08-.09-.11-.24-.11-.44v-8.65h-1.74v8.9c0,.54.15.96.46,1.24.31.29.73.43,1.26.43.32,0,.65-.06,1-.18l-.18-1.19c-.15.02-.25.03-.29.03Z"/><path class="cls-4" d="M1248.67,343.17c-.67,0-1.26.15-1.77.46-.51.31-.89.73-1.17,1.27-.27.54-.41,1.14-.41,1.82v.77c0,.68.14,1.29.42,1.82.28.53.69.95,1.23,1.25.54.3,1.18.46,1.92.46.51,0,1.01-.08,1.5-.25.48-.17.89-.38,1.23-.63l-.62-1.04c-.36.2-.69.35-.99.46-.3.11-.64.16-1,.16-.66,0-1.15-.17-1.47-.5-.33-.33-.5-.85-.51-1.57h4.82c.04-.3.06-.58.06-.84,0-1.18-.28-2.08-.84-2.7-.56-.62-1.36-.93-2.39-.93ZM1250.34,346.52h-3.31c.02-.68.17-1.2.44-1.54.28-.35.68-.52,1.21-.52s.96.17,1.24.51.42.84.42,1.48v.07Z"/><path class="cls-4" d="M1258.91,343.61c-.43-.29-.92-.43-1.5-.43-.8,0-1.44.26-1.94.77v-3.5h-1.74v10.39h1.36l.15-.63c.52.54,1.17.81,1.95.81.56,0,1.08-.15,1.54-.46.47-.3.84-.73,1.1-1.27s.4-1.15.4-1.83v-.76c0-.71-.12-1.33-.35-1.87-.23-.53-.56-.95-.99-1.24ZM1258.51,347.53c0,.7-.14,1.24-.43,1.62-.29.38-.68.57-1.17.57-.56,0-1.04-.21-1.43-.62v-3.81c.19-.25.42-.45.69-.59.27-.14.57-.21.9-.21.96,0,1.45.72,1.45,2.16v.87Z"/><path class="cls-4" d="M1264.99,343.17c-.67,0-1.26.15-1.77.46-.51.31-.89.73-1.17,1.27-.27.54-.41,1.14-.41,1.82v.77c0,.68.14,1.29.42,1.82.28.53.69.95,1.23,1.25.54.3,1.18.46,1.92.46.51,0,1.01-.08,1.5-.25.48-.17.89-.38,1.23-.63l-.62-1.04c-.36.2-.69.35-.99.46-.3.11-.64.16-1,.16-.66,0-1.15-.17-1.47-.5-.33-.33-.5-.85-.51-1.57h4.82c.04-.3.06-.58.06-.84,0-1.18-.28-2.08-.84-2.7-.56-.62-1.36-.93-2.39-.93ZM1266.66,346.52h-3.31c.02-.68.17-1.2.44-1.54.28-.35.68-.52,1.21-.52s.96.17,1.24.51.42.84.42,1.48v.07Z"/><path class="cls-4" d="M1272.45,343.53c-.36.22-.64.56-.85,1.02l-.28-1.18h-1.26v7.47h1.74v-4.47c.2-.52.46-.9.79-1.12.33-.22.72-.34,1.17-.34.16,0,.31.01.45.04l.31-1.62c-.28-.09-.58-.14-.9-.14-.42,0-.81.11-1.17.33Z"/><path class="cls-4" d="M1278.29,343.53c-.36.22-.64.56-.85,1.02l-.28-1.18h-1.26v7.47h1.74v-4.47c.2-.52.46-.9.79-1.12.33-.22.72-.34,1.17-.34.16,0,.31.01.45.04l.31-1.62c-.28-.09-.58-.14-.9-.14-.42,0-.81.11-1.17.33Z"/><path class="cls-4" d="M1284.72,349.55l-1.77-6.18h-1.8l2.4,7.47h.76l-.24.81c-.08.34-.23.58-.43.72-.2.14-.47.22-.81.22-.24,0-.51-.03-.79-.08l-.24,1.14c.13.06.3.1.5.13.2.03.4.05.61.05.66,0,1.21-.16,1.63-.47s.74-.85.97-1.61l2.54-8.38h-1.73l-1.61,6.18Z"/><polygon class="cls-4" points="1296.37 349.38 1295.02 343.37 1293.09 343.37 1291.75 349.38 1290.64 343.37 1288.9 343.37 1290.59 350.84 1292.69 350.84 1294.03 344.89 1295.33 350.84 1297.48 350.84 1299.14 343.37 1297.42 343.37 1296.37 349.38"/><path class="cls-4" d="M1303.43,343.17c-1.05,0-2,.26-2.86.79l.53,1.08c.37-.19.73-.33,1.07-.42s.71-.14,1.1-.14c.45,0,.78.1,1,.3.22.2.33.52.33.96v.51h-1.38c-.96,0-1.72.2-2.27.59-.55.39-.83.92-.83,1.57v.49c0,.42.11.79.34,1.12.22.32.53.57.91.74.38.17.79.26,1.24.26.87,0,1.61-.3,2.22-.9l.14.72h1.36v-5.04c0-.82-.24-1.47-.73-1.93-.49-.46-1.21-.7-2.18-.7ZM1304.61,349c-.22.24-.47.43-.75.55-.29.12-.59.18-.91.18-.37,0-.64-.09-.82-.26-.18-.17-.27-.41-.27-.71v-.28c0-.76.51-1.14,1.54-1.14h1.21v1.66Z"/><path class="cls-4" d="M1311.13,349.55l-1.77-6.18h-1.8l2.4,7.47h.76l-.24.81c-.08.34-.23.58-.43.72-.2.14-.47.22-.81.22-.24,0-.51-.03-.79-.08l-.24,1.14c.13.06.3.1.5.13.2.03.4.05.61.05.66,0,1.21-.16,1.63-.47s.74-.85.97-1.61l2.54-8.38h-1.73l-1.61,6.18Z"/><path class="cls-4" d="M1316.41,348.8c-.31,0-.57.11-.79.33s-.32.48-.32.78.11.57.32.79c.22.22.48.32.79.32s.57-.11.78-.32c.21-.21.32-.48.32-.79s-.11-.57-.32-.79c-.21-.22-.47-.32-.78-.32Z"/><path class="cls-4" d="M1321.12,345.06c.3-.38.74-.57,1.3-.57.33,0,.61.05.86.14.24.09.48.24.72.45l.83-.93c-.35-.34-.72-.58-1.12-.74-.4-.16-.85-.24-1.35-.24-1.09,0-1.93.33-2.53.98-.6.65-.9,1.53-.9,2.63v.63c0,1.1.3,1.97.91,2.63.6.66,1.43.98,2.49.98.44,0,.88-.08,1.31-.25.44-.16.81-.38,1.13-.64l-.72-1.03c-.28.2-.55.35-.8.45-.25.1-.53.16-.84.16-.57,0-1-.19-1.3-.58s-.44-.95-.44-1.7v-.69c0-.75.15-1.31.46-1.69Z"/><path class="cls-4" d="M1331.2,343.87c-.49-.46-1.21-.7-2.18-.7-1.05,0-2,.26-2.86.79l.53,1.08c.37-.19.73-.33,1.07-.42s.71-.14,1.1-.14c.45,0,.78.1,1,.3.22.2.33.52.33.96v.51h-1.38c-.96,0-1.72.2-2.27.59-.55.39-.83.92-.83,1.57v.49c0,.42.11.79.34,1.12.22.32.53.57.91.74.38.17.79.26,1.24.26.87,0,1.61-.3,2.22-.9l.14.72h1.36v-5.04c0-.82-.24-1.47-.73-1.93ZM1330.2,349c-.22.24-.47.43-.75.55-.29.12-.59.18-.91.18-.37,0-.64-.09-.82-.26-.18-.17-.27-.41-.27-.71v-.28c0-.76.51-1.14,1.54-1.14h1.21v1.66Z"/><rect class="cls-9" x="1277.31" y="177.81" width="6.03" height="6.03"/><polygon class="cls-9" points="1259.23 189.86 1259.23 195.89 1259.23 201.92 1265.26 201.92 1265.26 195.89 1265.26 189.86 1265.26 183.84 1259.23 183.84 1259.23 189.86"/><rect class="cls-9" x="1271.29" y="183.84" width="6.03" height="6.03"/><polygon class="cls-9" points="1253.21 195.89 1253.21 189.86 1247.18 189.86 1247.18 195.89 1247.18 201.92 1253.21 201.92 1253.21 195.89"/><polygon class="cls-9" points="1289.36 195.89 1295.39 195.89 1295.39 189.86 1301.42 189.86 1301.42 183.84 1301.42 177.81 1301.42 171.79 1301.42 165.76 1295.39 165.76 1289.36 165.76 1283.34 165.76 1277.31 165.76 1271.29 165.76 1265.26 165.76 1265.26 171.79 1259.23 171.79 1259.23 165.76 1259.23 159.73 1253.21 159.73 1253.21 165.76 1247.18 165.76 1247.18 171.79 1253.21 171.79 1253.21 177.81 1247.18 177.81 1247.18 183.84 1253.21 183.84 1259.23 183.84 1259.23 177.81 1265.26 177.81 1265.26 183.84 1271.29 183.84 1271.29 177.81 1271.29 171.79 1277.31 171.79 1283.34 171.79 1283.34 177.81 1289.36 177.81 1289.36 171.79 1295.39 171.79 1295.39 177.81 1289.36 177.81 1289.36 183.84 1289.36 189.86 1283.34 189.86 1277.31 189.86 1277.31 195.89 1283.34 195.89 1283.34 201.92 1277.31 201.92 1277.31 195.89 1271.29 195.89 1271.29 201.92 1271.29 207.94 1271.29 213.97 1277.31 213.97 1277.31 207.94 1283.34 207.94 1289.36 207.94 1289.36 201.92 1289.36 195.89"/><polygon class="cls-9" points="1295.39 207.94 1301.42 207.94 1301.42 201.92 1301.42 195.89 1295.39 195.89 1295.39 201.92 1295.39 207.94"/><rect class="cls-9" x="1289.36" y="207.94" width="6.03" height="6.03"/><rect class="cls-9" x="1301.42" y="207.94" width="6.03" height="6.03"/><rect class="cls-9" x="1313.47" y="207.94" width="6.03" height="6.03"/><rect class="cls-9" x="1325.52" y="207.94" width="6.03" height="6.03"/><rect class="cls-9" x="1337.57" y="207.94" width="6.03" height="6.03"/><rect class="cls-9" x="1343.6" y="213.97" width="6.03" height="6.03"/><polygon class="cls-9" points="1319.49 226.02 1325.52 226.02 1325.52 219.99 1325.52 213.97 1319.49 213.97 1319.49 219.99 1319.49 226.02"/><rect class="cls-9" x="1331.54" y="219.99" width="6.03" height="6.03"/><rect class="cls-9" x="1235.13" y="232.05" width="6.03" height="6.03"/><polygon class="cls-9" points="1337.57 232.05 1337.57 238.07 1343.6 238.07 1343.6 244.1 1349.62 244.1 1349.62 238.07 1349.62 232.05 1343.6 232.05 1337.57 232.05"/><rect class="cls-9" x="1259.23" y="238.07" width="6.03" height="6.03"/><rect class="cls-9" x="1331.54" y="244.1" width="6.03" height="6.03"/><path class="cls-9" d="M1247.18,250.12h6.03s6.03,0,6.03,0v-6.03h-6.03s0-6.03,0-6.03h6.03v-6.03s6.03,0,6.03,0v6.03h6.03s0,6.03,0,6.03v6.03s0,6.03,0,6.03h6.03v-6.03s6.03,0,6.03,0h6.03s6.03,0,6.03,0v-6.03s6.03,0,6.03,0v6.03h6.03s6.03,0,6.03,0v-6.03s6.03,0,6.03,0v6.03h6.03v-6.03s0-6.03,0-6.03h6.03v-6.03h-6.03s-6.03,0-6.03,0v-6.03h-6.03v6.03s-6.03,0-6.03,0v-6.03s6.03,0,6.03,0v-6.03s0-6.03,0-6.03h-6.03v6.03s-6.03,0-6.03,0v6.03s-6.03,0-6.03,0v6.03s-6.03,0-6.03,0v-6.03s6.03,0,6.03,0v-6.03h-6.03s0-6.03,0-6.03h-6.03v6.03s-6.03,0-6.03,0h-6.03s-6.03,0-6.03,0v6.03s-6.03,0-6.03,0v-6.03s0-6.03,0-6.03h6.03v-6.03h-6.03s-6.03,0-6.03,0h-6.03s-6.03,0-6.03,0h-6.03v6.03h6.03s6.03,0,6.03,0v6.03s0,6.03,0,6.03v6.03s0,6.03,0,6.03v6.03s-6.03,0-6.03,0h-6.03s-6.03,0-6.03,0v-6.03s0-6.03,0-6.03h6.03v-6.03s6.03,0,6.03,0v-6.03h-6.03s0-6.03,0-6.03h-6.03v6.03s-6.03,0-6.03,0v-6.03s6.03,0,6.03,0v-6.03h-6.03s-6.03,0-6.03,0h-6.03s-6.03,0-6.03,0h-6.03v6.03s0,6.03,0,6.03v6.03s0,6.03,0,6.03v6.03s0,6.03,0,6.03v6.03s0,6.03,0,6.03v6.03h6.03v-6.03s0-6.03,0-6.03v-6.03s0-6.03,0-6.03h6.03v-6.03h-6.03s0-6.03,0-6.03h6.03v-6.03h-6.03s0-6.03,0-6.03h6.03s6.03,0,6.03,0v6.03s0,6.03,0,6.03h6.03s0,6.03,0,6.03v6.03s-6.03,0-6.03,0v6.03s-6.03,0-6.03,0v6.03s0,6.03,0,6.03h6.03s6.03,0,6.03,0v-6.03s6.03,0,6.03,0v6.03s0,6.03,0,6.03h6.03s6.03,0,6.03,0h6.03v-6.03s0-6.03,0-6.03ZM1277.31,244.1v-6.03s6.03,0,6.03,0v6.03s-6.03,0-6.03,0ZM1277.31,226.02h6.03s0,6.03,0,6.03h-6.03s-6.03,0-6.03,0v-6.03s6.03,0,6.03,0ZM1235.13,256.15v-6.03s6.03,0,6.03,0v6.03s-6.03,0-6.03,0Z"/><polygon class="cls-9" points="1337.57 250.12 1337.57 256.15 1343.6 256.15 1343.6 262.17 1343.6 268.2 1337.57 268.2 1331.54 268.2 1331.54 274.23 1337.57 274.23 1343.6 274.23 1349.62 274.23 1349.62 268.2 1349.62 262.17 1349.62 256.15 1349.62 250.12 1343.6 250.12 1337.57 250.12"/><rect class="cls-9" x="1307.44" y="268.2" width="6.03" height="6.03"/><path class="cls-9" d="M1325.52,268.2v-6.03s6.03,0,6.03,0v-6.03h-6.03s-6.03,0-6.03,0h-6.03s-6.03,0-6.03,0h-6.03s0-6.03,0-6.03h-6.03v6.03s-6.03,0-6.03,0v6.03s-6.03,0-6.03,0v6.03s-6.03,0-6.03,0v-6.03h-6.03v6.03s0,6.03,0,6.03h6.03s0,6.03,0,6.03h6.03s6.03,0,6.03,0v-6.03s6.03,0,6.03,0v6.03s0,6.03,0,6.03h-6.03s-6.03,0-6.03,0v6.03h6.03s6.03,0,6.03,0h6.03v-6.03s6.03,0,6.03,0v6.03h6.03s0,6.03,0,6.03h6.03s0,6.03,0,6.03h6.03s0,6.03,0,6.03h6.03s6.03,0,6.03,0h6.03s6.03,0,6.03,0v-6.03h-6.03s0-6.03,0-6.03h-6.03s0-6.03,0-6.03h-6.03v6.03s-6.03,0-6.03,0v-6.03s6.03,0,6.03,0v-6.03s0-6.03,0-6.03v-6.03h-6.03s0-6.03,0-6.03ZM1319.49,280.25h-6.03s-6.03,0-6.03,0h-6.03s0-6.03,0-6.03v-6.03s0-6.03,0-6.03h6.03s6.03,0,6.03,0h6.03s0,6.03,0,6.03v6.03s0,6.03,0,6.03Z"/><polygon class="cls-9" points="1307.44 292.3 1301.42 292.3 1301.42 298.33 1295.39 298.33 1295.39 304.36 1289.36 304.36 1283.34 304.36 1283.34 298.33 1283.34 292.3 1277.31 292.3 1277.31 286.28 1271.29 286.28 1265.26 286.28 1259.23 286.28 1259.23 280.25 1265.26 280.25 1271.29 280.25 1271.29 274.23 1265.26 274.23 1259.23 274.23 1259.23 268.2 1253.21 268.2 1253.21 262.17 1247.18 262.17 1247.18 268.2 1247.18 274.23 1253.21 274.23 1253.21 280.25 1247.18 280.25 1247.18 286.28 1247.18 292.3 1247.18 298.33 1247.18 304.36 1247.18 310.38 1253.21 310.38 1253.21 304.36 1259.23 304.36 1259.23 298.33 1253.21 298.33 1253.21 292.3 1259.23 292.3 1259.23 298.33 1265.26 298.33 1265.26 292.3 1271.29 292.3 1271.29 298.33 1277.31 298.33 1277.31 304.36 1271.29 304.36 1271.29 310.38 1277.31 310.38 1283.34 310.38 1289.36 310.38 1295.39 310.38 1301.42 310.38 1301.42 304.36 1307.44 304.36 1313.47 304.36 1313.47 298.33 1307.44 298.33 1307.44 292.3"/><polygon class="cls-9" points="1343.6 298.33 1349.62 298.33 1349.62 292.3 1349.62 286.28 1343.6 286.28 1337.57 286.28 1337.57 292.3 1343.6 292.3 1343.6 298.33"/><rect class="cls-9" x="1265.26" y="298.33" width="6.03" height="6.03"/><path class="cls-9" d="M1211.09,201.92h6.03s6.03,0,6.03,0h6.03s6.03,0,6.03,0h6.03v-6.03s0-6.03,0-6.03v-6.03s0-6.03,0-6.03v-6.03s0-6.03,0-6.03v-6.03h-6.03s-6.03,0-6.03,0h-6.03s-6.03,0-6.03,0h-6.03s-6.03,0-6.03,0h-6.03v6.03s0,6.03,0,6.03v6.03s0,6.03,0,6.03v6.03s0,6.03,0,6.03v6.03h6.03s6.03,0,6.03,0ZM1205.06,189.86v-6.03s0-6.03,0-6.03v-6.03s0-6.03,0-6.03h6.03s6.03,0,6.03,0h6.03s6.03,0,6.03,0h6.03s0,6.03,0,6.03v6.03s0,6.03,0,6.03v6.03s0,6.03,0,6.03h-6.03s-6.03,0-6.03,0h-6.03s-6.03,0-6.03,0h-6.03s0-6.03,0-6.03Z"/><polygon class="cls-9" points="1223.08 189.86 1223.08 189.86 1229.1 189.86 1229.1 183.84 1229.1 177.81 1229.1 171.79 1223.08 171.79 1223.08 171.79 1217.05 171.79 1211.03 171.79 1211.03 177.81 1211.03 183.84 1211.03 189.86 1217.05 189.86 1223.08 189.86"/><path class="cls-9" d="M1343.66,159.73h-6.03s-6.03,0-6.03,0h0s-6.03,0-6.03,0h-6.03s-6.03,0-6.03,0h-6.03v6.03s0,6.03,0,6.03v6.03s0,6.03,0,6.03v6.03s0,6.03,0,6.03v6.03h6.03s6.03,0,6.03,0h6.03s6.03,0,6.03,0h0s6.03,0,6.03,0h6.03s6.03,0,6.03,0v-6.03s0-6.03,0-6.03v-6.03s0-6.03,0-6.03v-6.03s0-6.03,0-6.03v-6.03h-6.03ZM1343.66,171.79v6.03s0,6.03,0,6.03v6.03s0,6.03,0,6.03h-6.03s-6.03,0-6.03,0h0s-6.03,0-6.03,0h-6.03s-6.03,0-6.03,0v-6.03s0-6.03,0-6.03v-6.03s0-6.03,0-6.03v-6.03s6.03,0,6.03,0h6.03s6.03,0,6.03,0h0s6.03,0,6.03,0h6.03s0,6.03,0,6.03Z"/><polygon class="cls-9" points="1331.54 171.79 1325.52 171.79 1319.49 171.79 1319.49 177.81 1319.49 183.84 1319.49 189.86 1325.52 189.86 1331.54 189.86 1331.54 189.86 1337.57 189.86 1337.57 183.84 1337.57 177.81 1337.57 171.79 1331.54 171.79 1331.54 171.79"/><path class="cls-9" d="M1229.17,268.2h-6.03s-6.03,0-6.03,0h-6.03s-6.03,0-6.03,0h-6.03v6.03s0,6.03,0,6.03v6.03s0,6.03,0,6.03v6.03s0,6.03,0,6.03v6.03h6.03s6.03,0,6.03,0h6.03s6.03,0,6.03,0h6.03s6.03,0,6.03,0h6.03v-6.03s0-6.03,0-6.03v-6.03s0-6.03,0-6.03v-6.03s0-6.03,0-6.03v-6.03h-6.03s-6.03,0-6.03,0ZM1235.19,280.25v6.03s0,6.03,0,6.03v6.03s0,6.03,0,6.03h-6.03s-6.03,0-6.03,0h-6.03s-6.03,0-6.03,0h-6.03s0-6.03,0-6.03v-6.03s0-6.03,0-6.03v-6.03s0-6.03,0-6.03h6.03s6.03,0,6.03,0h6.03s6.03,0,6.03,0h6.03s0,6.03,0,6.03Z"/><polygon class="cls-9" points="1223.08 280.25 1217.05 280.25 1211.03 280.25 1211.03 286.28 1211.03 292.3 1211.03 298.33 1217.05 298.33 1223.08 298.33 1223.08 298.33 1229.1 298.33 1229.1 292.3 1229.1 286.28 1229.1 280.25 1223.08 280.25 1223.08 280.25"/></svg>