<?xml version="1.0" encoding="UTF-8"?><svg id="Layer_2" xmlns="http://www.w3.org/2000/svg" xmlns:xlink="http://www.w3.org/1999/xlink" viewBox="0 0 613 475.42"><defs><style>.cls-1{fill:#3b3b3b;}.cls-1,.cls-2,.cls-3,.cls-4,.cls-5,.cls-6,.cls-7,.cls-8,.cls-9,.cls-10,.cls-11,.cls-12,.cls-13,.cls-14,.cls-15,.cls-16,.cls-17,.cls-18,.cls-19,.cls-20,.cls-21,.cls-22{stroke-width:0px;}.cls-23{clip-path:url(#clippath);}.cls-2{fill:#557ebe;}.cls-3{fill:none;}.cls-4{fill:url(#linear-gradient);}.cls-5{fill:#afafaf;}.cls-6{fill:url(#radial-gradient);}.cls-7{fill:#2c2c2c;}.cls-8{fill:#f7bb16;}.cls-24{clip-path:url(#clippath-1);}.cls-25{clip-path:url(#clippath-3);}.cls-26{clip-path:url(#clippath-2);}.cls-9{fill:#36a952;}.cls-27{fill:url(#linear-gradient-10);stroke:#757575;stroke-miterlimit:10;}.cls-10{fill:#232323;}.cls-11{fill:#e5d8c1;}.cls-12{fill:#929497;}.cls-13{fill:url(#linear-gradient-4);}.cls-14{fill:url(#linear-gradient-2);}.cls-15{fill:url(#linear-gradient-3);}.cls-16{fill:url(#linear-gradient-8);}.cls-17{fill:url(#linear-gradient-9);}.cls-18{fill:url(#linear-gradient-7);}.cls-19{fill:url(#linear-gradient-5);}.cls-20{fill:url(#linear-gradient-6);}.cls-21{fill:#e94435;}.cls-22{fill:#fff;}</style><linearGradient id="linear-gradient" x1="68.71" y1="432.97" x2="66.87" y2="401.26" gradientUnits="userSpaceOnUse"><stop offset=".02" stop-color="#111"/><stop offset=".32" stop-color="rgba(36,36,36,.34)" stop-opacity=".34"/><stop offset=".64" stop-color="#2f2f2f" stop-opacity="0"/></linearGradient><linearGradient id="linear-gradient-2" x1="67.99" y1="433.01" x2="66.16" y2="401.31" xlink:href="#linear-gradient"/><linearGradient id="linear-gradient-3" x1="68.6" y1="432.98" x2="66.76" y2="401.27" xlink:href="#linear-gradient"/><linearGradient id="linear-gradient-4" x1="68.4" y1="432.99" x2="66.56" y2="401.28" xlink:href="#linear-gradient"/><linearGradient id="linear-gradient-5" x1="67.96" y1="433.02" x2="66.12" y2="401.31" xlink:href="#linear-gradient"/><linearGradient id="linear-gradient-6" x1="70.57" y1="432.86" x2="68.73" y2="401.16" xlink:href="#linear-gradient"/><linearGradient id="linear-gradient-7" x1="123.4" y1="285.27" x2="282.47" y2="53.93" gradientUnits="userSpaceOnUse"><stop offset=".2" stop-color="#343434"/><stop offset=".93" stop-color="#63666a"/></linearGradient><linearGradient id="linear-gradient-8" x1="182.05" y1="426.52" x2="180.21" y2="394.8" xlink:href="#linear-gradient"/><linearGradient id="linear-gradient-9" x1="492.43" y1="337.52" x2="602.87" y2="209.68" gradientUnits="userSpaceOnUse"><stop offset=".2" stop-color="#232323"/><stop offset=".93" stop-color="#505254"/></linearGradient><clipPath id="clippath"><rect class="cls-3" x="444.05" y="164.58" width="168.95" height="262.31"/></clipPath><clipPath id="clippath-1"><rect class="cls-3" x="444.05" y="164.58" width="168.95" height="262.31"/></clipPath><clipPath id="clippath-2"><rect class="cls-3" x="444.05" y="164.58" width="168.95" height="262.31"/></clipPath><clipPath id="clippath-3"><rect class="cls-3" x="444.05" y="164.58" width="168.95" height="262.31"/></clipPath><radialGradient id="radial-gradient" cx="2271.56" cy="-2326.35" fx="2271.56" fy="-2326.35" r="462.78" gradientTransform="translate(-436.75 928.8) scale(.35 .26)" gradientUnits="userSpaceOnUse"><stop offset="0" stop-color="#000"/><stop offset="1" stop-color="#000" stop-opacity="0"/></radialGradient><linearGradient id="linear-gradient-10" x1="306.26" y1="423.38" x2="435.11" y2="215.56" gradientTransform="translate(6.32 21.11)" gradientUnits="userSpaceOnUse"><stop offset=".18" stop-color="#1a1a1a"/><stop offset=".93" stop-color="#666"/></linearGradient></defs><g id="Layer_1-2"><polygon class="cls-3" points="72.64 440.57 311.94 427.48 257.51 11.14 27.33 0 72.64 440.57"/><path class="cls-11" d="M68,440.45s.09-.04.24-.12l-2.24.12s.39-.16.93-.6L0,420.45v2l67,19,1.92-1.02-.08-.02-.84.04Z"/><polygon class="cls-7" points="68.92 440.43 69 440.45 69.04 440.39 68.98 440.4 68.92 440.43"/><path class="cls-7" d="M68.82,437.41c.92-1.82,1.61-4.64,1.18-8.96,0-.03-.39-3.74-1.09-10.43l-68.91,2.43,66.93,19.4c.56-.46,1.28-1.22,1.9-2.44Z"/><polygon class="cls-7" points="68.84 440.4 68.92 440.43 68.98 440.4 68.84 440.4"/><path class="cls-5" d="M66.93,439.85c-.54.44-.93.6-.93.6l2.24-.12s.08-.05.12-.07l-1.42-.41Z"/><path class="cls-11" d="M68.82,437.41c-.62,1.22-1.34,1.98-1.9,2.44l1.42.41c1.11-.67,4.49-3.42,3.65-11.81-.03-.28-42.23-404.77-42.23-404.77-1.27-12.36,7.45-22.01,19.73-22.5-13.32-.53-23.07,9.48-21.73,22.5,0,0,34.53,330.96,41.14,394.34.7,6.69,1.09,10.41,1.09,10.43.43,4.32-.26,7.14-1.18,8.96Z"/><polygon class="cls-5" points="69.07 440.35 69.2 440.28 69.12 440.28 69.07 440.35"/><polygon class="cls-4" points="69.07 440.35 69.2 440.28 69.12 440.28 69.07 440.35"/><path class="cls-5" d="M68.24,440.33c-.15.08-.24.12-.24.12l.84-.04-.31-.09-.3.02Z"/><path class="cls-14" d="M68.24,440.33c-.15.08-.24.12-.24.12l.84-.04-.31-.09-.3.02Z"/><polygon class="cls-7" points="68.98 440.4 69.04 440.39 69.07 440.35 68.98 440.4"/><polygon class="cls-15" points="68.98 440.4 69.04 440.39 69.07 440.35 68.98 440.4"/><polygon class="cls-7" points="68.54 440.31 68.84 440.4 68.98 440.4 69.07 440.35 69.12 440.28 68.54 440.31"/><polygon class="cls-13" points="68.54 440.31 68.84 440.4 68.98 440.4 69.07 440.35 69.12 440.28 68.54 440.31"/><path class="cls-5" d="M68.35,440.26s-.08.05-.12.07l.3-.02-.18-.05Z"/><path class="cls-19" d="M68.35,440.26s-.08.05-.12.07l.3-.02-.18-.05Z"/><polygon class="cls-5" points="70.78 437.89 69.12 440.28 69.2 440.28 72.77 438.38 70.78 437.89"/><polygon class="cls-20" points="70.78 437.89 69.12 440.28 69.2 440.28 72.77 438.38 70.78 437.89"/><path class="cls-18" d="M310.3,414.88l-49.87-381.43c-1.61-12.34-12.72-22.79-24.88-23.38L51.71,1.18c-1.12-.05-2.22-.03-3.29.06-.03,0-.06,0-.09,0-.34.03-.67.07-1,.11-.05,0-.09.01-.14.02-.32.04-.64.1-.95.15-.05,0-.11.02-.16.03-.31.06-.61.12-.91.19-.06.01-.12.03-.18.04-.29.07-.59.15-.88.23-.06.02-.12.04-.18.05-.29.08-.57.17-.85.27-.06.02-.12.04-.18.06-.28.1-.55.2-.82.31-.06.02-.12.05-.18.07-.27.11-.53.22-.8.34-.06.03-.11.05-.17.08-.26.12-.52.25-.78.38-.05.03-.09.05-.14.08-.26.14-.52.28-.77.43-.03.02-.07.04-.1.06-.26.16-.53.32-.78.49-.01,0-.03.02-.04.03-1.38.92-2.63,2-3.72,3.23-.02.02-.04.04-.06.06-.17.19-.33.38-.48.58-.06.07-.12.15-.18.22-.14.17-.27.35-.4.53-.07.1-.15.2-.22.3-.12.17-.23.34-.35.52-.08.12-.16.23-.23.35-.1.17-.2.34-.3.51-.08.13-.15.26-.23.4-.09.17-.18.33-.27.5-.07.14-.15.29-.22.43-.08.17-.16.34-.23.5-.07.15-.14.31-.2.46-.07.17-.14.34-.2.51-.06.16-.12.33-.18.49-.06.17-.12.34-.17.51-.06.17-.11.34-.16.52-.05.17-.1.34-.14.51-.05.18-.09.36-.14.55-.04.17-.08.34-.12.51-.04.19-.08.38-.11.57-.03.17-.06.34-.09.51-.03.2-.06.4-.08.6-.02.17-.04.33-.06.5-.02.21-.04.42-.05.64-.01.16-.03.32-.03.49-.01.23-.01.46-.02.69,0,.15,0,.3,0,.46,0,.26,0,.52.02.79,0,.13,0,.25.01.38.02.39.05.79.09,1.19,0,0,6.97,66.76,15.24,146.05.32,3.05.64,6.12.96,9.2,1.61,15.42,3.26,31.22,4.91,47.03.16,1.58.33,3.16.49,4.74,1.32,12.64,2.64,25.26,3.93,37.66.16,1.55.32,3.1.48,4.64,1.45,13.88,2.86,27.45,4.22,40.42.6,5.77,1.19,11.42,1.77,16.92.29,2.75.57,5.47.85,8.15,1.4,13.4,2.7,25.84,3.85,36.92.35,3.33.68,6.53,1,9.6,2.78,26.63,4.52,43.37,4.53,43.42.06.58.09,1.13.11,1.66,0,.17,0,.32,0,.48,0,.36,0,.71,0,1.04,0,.17-.01.33-.02.49-.02.31-.04.61-.07.9-.02.14-.03.29-.05.42-.04.31-.09.6-.14.88-.02.1-.03.2-.05.29-.16.75-.36,1.42-.6,2-.02.04-.03.07-.05.11-.1.25-.21.48-.32.69-.03.06-.06.11-.09.17-.1.19-.2.36-.3.53-.03.05-.07.1-.1.15-.11.16-.21.31-.32.45-.03.04-.06.08-.08.11-.13.16-.25.31-.38.44,0,0-.01.01-.02.02-.13.14-.26.26-.38.37-.04.04-.08.07-.12.1-.07.06-.14.12-.21.17-.06.05-.12.09-.17.13-.03.02-.07.05-.1.07-.07.05-.14.09-.19.12h0c-.21.13-.35.19-.35.19l231.26-12.29c6.84-.36,11.93-6.48,11.04-13.27Z"/><path class="cls-22" d="M230.41,29.84c-5.36-.23-9.17,4-8.49,9.45s5.62,10.07,10.99,10.28c5.36.21,9.14-4.05,8.44-9.48-.69-5.42-5.6-10.02-10.94-10.25M233.02,50.43c-5.84-.22-11.21-5.24-11.96-11.18-.74-5.93,3.41-10.54,9.24-10.28,5.81.25,11.14,5.25,11.9,11.15.76,5.9-3.35,10.53-9.18,10.31"/><path class="cls-22" d="M236.12,40.02c.29,2.84-.58,5.13-2.69,6.76-.1.08-.21.16-.33.22-.29.14-.57.09-.81-.21-.25-.32-.22-.61.04-.83.3-.25.62-.47.9-.75,3.03-3.07,1.96-8.58-2.21-11.45-.07-.05-.14-.09-.21-.14-.34-.24-.48-.55-.3-.87.18-.32.49-.33.84-.11.2.12.4.26.59.4,2.38,1.82,3.75,4.13,4.18,6.99"/><path class="cls-22" d="M233.39,39.83c.22,2.17-.43,3.87-2.03,5.06-.38.28-.73.25-1-.08-.27-.32-.21-.66.17-.94,2.65-2.02,2.14-6.07-1.05-8.35-.46-.33-.6-.65-.42-.96.18-.31.52-.32.98,0,1.92,1.33,3.01,3.1,3.35,5.27"/><path class="cls-22" d="M230.59,39.74c.11,1.35-.29,2.34-1.2,3.05-.34.27-.7.24-.96-.06-.28-.33-.23-.66.12-.95,1.33-1.09,1.08-3.07-.55-4.3-.42-.32-.55-.63-.38-.94.18-.31.54-.33.98,0,1.17.85,1.82,1.95,1.99,3.21"/><path class="cls-22" d="M160.92,113.03c22.56.51,38.45-17.38,35.7-39.84-2.73-22.34-22.91-41.13-45.3-42.08-22.64-.96-39.11,16.63-36.55,39.41,2.57,22.91,23.34,41.99,46.15,42.51"/><path class="cls-21" d="M154.53,53.23c4.27.16,8.3,1.81,11.62,4.4l7.72-8.46c-5.89-4.86-13.08-8.01-20.79-8.32-12.02-.48-21.61,5.98-25.46,15.88l11.23,8.22c1.55-7.1,7.7-12.01,15.67-11.71"/><path class="cls-8" d="M138.59,70.58c-.23-1.99-.12-3.88.27-5.64l-11.23-8.22c-1.56,4-2.17,8.56-1.62,13.44.55,4.88,2.22,9.53,4.7,13.69,0,0,0,0,0,0l9.45-7.58s0-.02-.01-.03c-.79-1.8-1.33-3.7-1.56-5.68"/><path class="cls-2" d="M155.99,65.64l1.38,11.76,16.25.51c-.33,3.98-2.17,6.99-5.1,8.91l10.56,7.81c4.91-5.04,7.57-12.64,6.38-22.51-.22-1.79-.72-3.72-1.34-5.52l-28.13-.96Z"/><path class="cls-9" d="M158.75,89.2c-8-.23-15.37-5.62-18.58-12.91l-9.45,7.58c6.18,10.31,17.41,17.55,29.5,17.86,7.42.19,14.17-2.28,18.86-7.09l-10.56-7.81c-2.53,1.65-5.87,2.49-9.77,2.38"/><path class="cls-22" d="M130.55,135.61l-1.76-.03.4,3.5-1.58-.03-1.03-9.1,3.19.06c1.05.02,1.88.27,2.5.75.62.48.98,1.17,1.08,2.06.07.61-.02,1.11-.27,1.52-.25.4-.62.71-1.12.93l2.47,3.82v.08s-1.68-.03-1.68-.03l-2.22-3.53ZM128.65,134.31l1.62.03c.53,0,.93-.12,1.2-.38.27-.26.38-.63.32-1.09s-.24-.87-.54-1.14-.73-.42-1.28-.43l-1.66-.03.34,3.05Z"/><path class="cls-22" d="M138.41,139.36c-.96-.02-1.77-.33-2.43-.95-.66-.62-1.05-1.43-1.17-2.43l-.02-.19c-.08-.67-.02-1.27.18-1.8.2-.53.52-.93.95-1.22.43-.29.94-.42,1.51-.41.91.02,1.65.32,2.22.92s.91,1.43,1.03,2.5l.07.61-4.39-.07c.11.56.34,1,.71,1.33.36.33.79.5,1.28.51.69.01,1.22-.26,1.59-.81l.9.79c-.22.4-.55.71-.97.92-.42.22-.92.32-1.47.31ZM137.57,133.57c-.41,0-.73.13-.95.42-.22.29-.34.69-.35,1.21l2.87.05v-.11c-.1-.51-.28-.89-.55-1.16-.27-.26-.61-.4-1.03-.41Z"/><path class="cls-22" d="M144.32,137.41l.86-4.79,1.55.03-1.54,6.7-1.31-.02-3.11-6.78,1.56.03,1.99,4.84Z"/><path class="cls-22" d="M147.48,130.92c-.03-.23.02-.42.15-.57s.33-.22.6-.22.49.09.66.24.26.35.29.58-.03.42-.16.56c-.13.15-.33.22-.6.22s-.49-.08-.65-.24c-.16-.15-.26-.34-.29-.57ZM150.05,139.42l-1.5-.02-.78-6.73,1.5.03.78,6.73Z"/><path class="cls-22" d="M154.64,139.62c-.95-.02-1.75-.33-2.42-.94-.66-.61-1.05-1.42-1.16-2.42l-.02-.19c-.08-.67-.02-1.27.18-1.79.2-.52.51-.93.94-1.21.43-.29.93-.42,1.5-.41.91.02,1.64.32,2.2.91.56.59.91,1.42,1.03,2.49l.07.61-4.36-.07c.11.56.34,1,.7,1.33s.78.5,1.27.51c.69.01,1.21-.26,1.58-.81l.9.79c-.22.4-.54.7-.96.92-.42.21-.91.32-1.46.31ZM153.79,133.86c-.41,0-.73.13-.95.42-.22.29-.33.69-.34,1.2l2.85.05v-.11c-.1-.51-.28-.89-.55-1.15-.26-.26-.6-.4-1.02-.41Z"/><path class="cls-22" d="M164.05,137.58l.51-4.61,1.45.03-1.02,6.67-1.23-.02-1.96-4.63-.86,4.59-1.23-.02-2.6-6.75,1.46.03,1.61,4.6.83-4.56,1.12.02,1.92,4.65Z"/><path class="cls-22" d="M174.85,139.18c-.37.51-.96.76-1.76.75-.72-.01-1.28-.23-1.7-.66s-.68-1.05-.77-1.85l-.51-4.34,1.48.03.51,4.32c.1.85.5,1.28,1.19,1.29s1.18-.24,1.37-.76l-.57-4.8,1.48.03.79,6.69-1.4-.02-.11-.66Z"/><path class="cls-22" d="M181.34,138.13c-.03-.27-.16-.47-.4-.62s-.61-.27-1.12-.39-.95-.26-1.31-.43c-.78-.38-1.21-.91-1.29-1.59-.07-.58.11-1.05.55-1.43.43-.38,1.02-.56,1.76-.55.79.01,1.45.22,1.98.63s.83.92.91,1.55l-1.48-.03c-.03-.29-.17-.53-.4-.72-.23-.19-.53-.3-.87-.3-.32,0-.58.07-.77.21s-.26.35-.23.61c.03.23.14.41.35.54.21.13.61.27,1.2.41.6.14,1.07.3,1.42.49.35.19.62.4.81.66s.31.56.35.92c.07.6-.12,1.08-.56,1.45-.45.36-1.07.54-1.86.53-.54,0-1.03-.12-1.48-.32-.45-.2-.81-.48-1.09-.83-.28-.35-.44-.72-.49-1.12l1.44.02c.06.35.23.63.49.83.27.2.6.3,1,.3s.68-.06.86-.21c.19-.15.26-.34.23-.58Z"/><path class="cls-22" d="M186.71,136.63c-.08-.65-.02-1.24.17-1.76.19-.52.5-.92.93-1.19.43-.27.94-.4,1.54-.39.88.02,1.64.32,2.26.91.62.59,1.01,1.36,1.17,2.32l.05.35c.08.66.03,1.24-.16,1.75-.19.51-.49.91-.92,1.18s-.94.41-1.55.4c-.93-.02-1.7-.34-2.34-.98-.63-.64-1.01-1.48-1.13-2.52v-.07ZM188.2,136.79c.08.69.29,1.23.61,1.62.32.39.74.59,1.23.6s.86-.18,1.09-.57.3-.96.21-1.72c-.08-.67-.29-1.21-.62-1.61-.33-.4-.74-.6-1.23-.61s-.84.18-1.07.56c-.24.38-.31.96-.22,1.73Z"/><path class="cls-22" d="M195.02,133.52l.13.77c.41-.59,1.01-.87,1.79-.86,1.36.02,2.15.83,2.36,2.41l.53,4.4-1.47-.02-.52-4.31c-.05-.42-.18-.74-.38-.94-.2-.21-.51-.31-.91-.32-.59-.01-1,.25-1.22.79l.57,4.74-1.47-.02-.8-6.66,1.38.02Z"/><path class="cls-22" d="M129.61,151.97l-16.82-.22.56,5.02,11.95.15c.2,7-5.3,9.96-10.82,9.91-7.29-.04-13.89-6-14.72-13.31,0-.08-.02-.16-.02-.24-.83-7.61,4.43-13.36,11.8-13.24,5.67.09,9.4,3.75,9.4,3.75l3.08-3.56s-5.04-5.06-13.22-5.2c-10.47-.18-17.65,8.52-16.61,18.1s9.7,18.66,20.96,18.75c9.85.08,16.27-6.61,15.15-16.57-.24-2.1-.68-3.32-.68-3.32h0Z"/><path class="cls-22" d="M143.47,153.16c3.36.04,6.85,2.82,7.36,7.23.5,4.32-2.34,7.11-5.73,7.07-3.73-.04-7.01-3.08-7.49-7.26s2.1-7.09,5.88-7.04h-.01ZM142.88,148.55c-6.84-.1-11.15,5.23-10.43,11.53.72,6.4,6.13,11.96,13.21,12.02,6.39.05,11.04-4.83,10.25-11.62-.9-7.76-7.43-11.85-13.03-11.93h0Z"/><path class="cls-22" d="M168.82,153.49c3.32.04,6.77,2.8,7.29,7.18s-2.29,7.06-5.64,7.03c-3.69-.04-6.94-3.06-7.42-7.22-.47-4.06,2.04-7.05,5.78-7h-.01ZM168.22,148.9c-6.76-.1-10.99,5.2-10.26,11.46s6.1,11.89,13.09,11.95c6.31.05,10.89-4.8,10.09-11.55-.92-7.71-7.38-11.78-12.92-11.86h0Z"/><path class="cls-22" d="M193.76,153.82c3,.04,6.39,2.69,6.93,7.15s-2.22,7.01-5.29,6.98c-3.27-.03-6.64-2.77-7.16-7.08s2.31-7.1,5.52-7.05h0ZM192.78,149.27c-6.13-.09-10.3,5.32-9.57,11.48.84,7.03,7,11.74,12.27,11.79,3.25.03,4.82-1.28,5.89-2.78l.28,2.3c.49,4.02-1.61,6.41-5.21,6.39-3.49-.02-5.56-2.69-6.36-4.2l-4.18,1.83c1.97,3.39,5.53,6.93,11.13,6.96,6.11.04,10.25-3.86,9.25-12.08l-2.54-20.84-4.74-.07.24,1.96c-1.66-1.63-3.79-2.71-6.45-2.75h0Z"/><path class="cls-22" d="M225.42,154.12c2.05.03,3.66,1.16,4.45,2.52l-9.51,4.2c-.85-3.35,1.81-6.76,5.05-6.71h.01ZM224.67,149.69c-5.69-.08-9.91,4.51-9.06,11.39.9,7.3,6.78,11.68,12.47,11.73,4.75.04,7.33-2.61,8.75-4.98l-4.2-2.69c-.8,1.59-2.29,3.15-5.09,3.12-3.16-.03-4.83-1.83-5.95-3.56l14.23-6.25-1-1.89c-1.91-3.69-5.67-6.8-10.14-6.87h0Z"/><polygon class="cls-22" points="209.71 171.96 214.7 172.01 210.51 137.92 205.54 137.84 209.71 171.96"/><polygon class="cls-8" points="137.06 309.9 130.76 309.43 129.67 309.35 125.96 302.27 123.83 309.5 116.56 310.41 122.68 315.43 122.24 319.72 121.9 323.12 127.81 318.95 134.58 322.77 132.12 315.19 137.06 309.9"/><polygon class="cls-8" points="165.75 309.2 159.53 308.74 158.46 308.66 154.77 301.62 152.7 308.8 145.53 309.7 151.58 314.7 151.18 318.95 150.85 322.33 156.66 318.19 163.36 321.98 160.9 314.45 165.75 309.2"/><polygon class="cls-8" points="194.05 308.51 187.92 308.05 186.85 307.97 183.19 300.98 181.18 308.11 174.1 309.01 180.1 313.97 179.71 318.19 179.41 321.54 185.12 317.44 191.75 321.2 189.29 313.73 194.05 308.51"/><polygon class="cls-8" points="221.97 307.83 215.92 307.38 214.87 307.3 211.22 300.35 209.26 307.43 202.29 308.32 208.23 313.25 207.86 317.44 207.57 320.77 213.2 316.69 219.75 320.43 217.29 313.01 221.97 307.83"/><polygon class="cls-8" points="249.51 307.16 243.54 306.71 242.5 306.63 238.88 299.73 236.98 306.76 230.1 307.64 235.97 312.54 235.63 316.7 235.36 320.01 240.89 315.96 247.37 319.68 244.92 312.3 249.51 307.16"/><path class="cls-22" d="M131.52,340.02l-3.94.12,1.21,10.99-.97.03-1.21-11-3.95.12-.09-.85,8.86-.28.09.84Z"/><path class="cls-22" d="M134.5,343.61c.25-.53.6-.95,1.06-1.26s.96-.46,1.54-.48c.91-.03,1.62.21,2.13.73s.82,1.3.94,2.36l.64,5.76-.94.03-.64-5.77c-.09-.78-.32-1.36-.68-1.74s-.89-.55-1.59-.53c-.58.02-1.08.22-1.49.61s-.68.91-.83,1.55l.67,6.02-.94.03-1.38-12.47.94-.03.57,5.17Z"/><path class="cls-22" d="M148.59,350.46c-.13-.27-.23-.68-.32-1.22-.28.45-.66.81-1.14,1.07s-1.01.4-1.58.42c-.82.03-1.5-.18-2.06-.64s-.88-1.04-.96-1.76c-.1-.85.17-1.54.81-2.06s1.57-.8,2.8-.84l1.7-.06-.11-1c-.07-.63-.31-1.11-.73-1.46s-.98-.51-1.7-.49c-.65.02-1.18.21-1.57.57s-.56.78-.5,1.27l-.94.02c-.08-.7.17-1.31.74-1.84s1.32-.81,2.23-.84,1.72.19,2.32.66.96,1.14,1.07,2.01l.47,4.14c.1.85.25,1.48.47,1.89v.1s-.99.03-.99.03ZM145.56,349.86c.63-.02,1.17-.2,1.63-.53s.77-.76.94-1.29l-.22-1.93-1.68.06c-.94.04-1.65.24-2.14.6s-.7.84-.64,1.44c.05.49.28.89.67,1.21s.87.46,1.43.44Z"/><path class="cls-22" d="M151.74,341.57l.2,1.49c.26-.55.61-.97,1.05-1.27s.95-.46,1.52-.47c.91-.03,1.61.21,2.11.73s.82,1.3.94,2.35l.65,5.74-.93.03-.65-5.74c-.09-.78-.32-1.36-.68-1.73s-.88-.55-1.58-.52c-.58.02-1.07.22-1.47.61s-.68.9-.82,1.55l.68,5.99-.93.03-.99-8.75.89-.03Z"/><path class="cls-22" d="M162.13,345.58l-.95,1.1.38,3.33-.94.03-1.41-12.39.93-.03.9,7.92.77-1.01,2.85-3.38,1.17-.04-3.15,3.79,4.46,4.92-1.11.04-3.91-4.28Z"/><path class="cls-22" d="M174.8,348.18l1.6-7.4,1-.03-2.4,10.3-.13.46c-.34,1.07-.99,1.63-1.95,1.66-.22,0-.46-.02-.73-.09l-.1-.8.49.03c.45-.02.81-.15,1.06-.39s.45-.65.58-1.23l.27-1.19-4.16-8.53,1.02-.03,3.45,7.23Z"/><path class="cls-22" d="M178.7,344.94c-.1-.84-.03-1.59.21-2.27.23-.68.61-1.21,1.14-1.6.52-.39,1.15-.6,1.87-.62,1.11-.04,2.06.34,2.84,1.13.78.79,1.25,1.85,1.41,3.19l.02.2c.1.84.03,1.6-.2,2.28-.23.68-.61,1.21-1.13,1.6-.52.38-1.15.59-1.87.61-1.11.04-2.05-.34-2.84-1.13-.79-.79-1.26-1.85-1.41-3.19l-.02-.19ZM179.66,345.17c.12,1.04.48,1.88,1.07,2.53s1.31.96,2.15.93,1.47-.38,1.91-1.07.59-1.57.47-2.66l-.02-.18c-.08-.66-.27-1.27-.57-1.81-.3-.54-.68-.96-1.14-1.25-.46-.29-.97-.42-1.52-.41-.82.03-1.46.38-1.9,1.07-.44.69-.6,1.58-.47,2.66l.02.18Z"/><path class="cls-22" d="M193.8,347.82c-.45.86-1.29,1.31-2.5,1.35-.89.03-1.59-.22-2.12-.74s-.85-1.31-.99-2.36l-.66-5.64.91-.03.65,5.52c.19,1.65.93,2.46,2.21,2.41s2.11-.65,2.32-1.81l-.74-6.27.92-.03,1.02,8.66-.89.03-.14-1.1Z"/><path class="cls-22" d="M201.68,348.65l-.93-7.86-1.37.04-.09-.78,1.37-.04-.12-1.05c-.1-.88.03-1.57.4-2.05s.95-.74,1.71-.77c.35-.01.67.02.98.1l.03.79c-.26-.06-.54-.08-.84-.07-.5.02-.88.19-1.12.53s-.33.81-.25,1.41l.13,1.07,1.97-.06.09.78-1.97.06.93,7.86-.92.03Z"/><path class="cls-22" d="M205.17,344.07c-.1-.83-.03-1.58.19-2.26s.6-1.21,1.12-1.59,1.13-.59,1.84-.61c1.1-.04,2.03.34,2.81,1.12.78.78,1.24,1.84,1.4,3.16l.02.2c.1.83.04,1.59-.19,2.27s-.6,1.21-1.11,1.59-1.13.58-1.85.61c-1.09.04-2.03-.34-2.81-1.12s-1.25-1.84-1.41-3.17l-.02-.19ZM206.12,344.3c.12,1.03.48,1.87,1.07,2.52.59.65,1.3.95,2.13.93s1.45-.38,1.88-1.06.58-1.56.45-2.64l-.02-.18c-.08-.66-.27-1.26-.57-1.8s-.68-.95-1.13-1.24-.96-.42-1.5-.4c-.81.03-1.43.38-1.87,1.06s-.59,1.57-.46,2.65l.02.18Z"/><path class="cls-22" d="M217.8,340.27c-.2-.03-.4-.04-.62-.04-.57.02-1.03.2-1.38.54s-.57.83-.66,1.47l.71,5.92-.9.03-1.04-8.62.89-.03.18,1.37c.36-1.03,1.07-1.57,2.13-1.6.25,0,.46.02.61.08l.08.87Z"/><path class="cls-22" d="M226.37,346.44l1.51-7.3.97-.03-2.26,10.17-.13.45c-.32,1.06-.95,1.61-1.89,1.64-.22,0-.45-.02-.71-.09l-.1-.79.47.03c.44-.02.79-.14,1.04-.38s.43-.64.55-1.21l.26-1.17-4.12-8.42.99-.03,3.42,7.14Z"/><path class="cls-22" d="M230.17,343.24c-.1-.82-.04-1.57.18-2.24s.59-1.2,1.1-1.58,1.12-.59,1.82-.61c1.08-.03,2.01.34,2.78,1.11s1.23,1.83,1.4,3.15l.02.2c.1.83.04,1.58-.18,2.25s-.59,1.2-1.09,1.58-1.11.58-1.82.6c-1.08.04-2.01-.33-2.78-1.11s-1.24-1.83-1.4-3.15l-.02-.19ZM231.11,343.47c.13,1.03.48,1.86,1.07,2.5s1.29.95,2.1.92,1.43-.38,1.85-1.05.57-1.55.44-2.63l-.02-.18c-.08-.65-.27-1.25-.57-1.79s-.67-.95-1.12-1.23-.95-.42-1.48-.4c-.8.03-1.42.38-1.84,1.06s-.57,1.56-.44,2.63l.02.17Z"/><path class="cls-22" d="M244.92,346.09c-.44.85-1.25,1.29-2.43,1.33-.87.03-1.56-.21-2.07-.73s-.84-1.29-.98-2.33l-.69-5.57.89-.03.67,5.45c.2,1.63.93,2.43,2.18,2.38s2.05-.64,2.25-1.78l-.77-6.19.9-.03,1.06,8.55-.87.03-.15-1.08Z"/><path class="cls-22" d="M251.04,339.2c-.19-.03-.4-.04-.61-.04-.56.02-1.01.2-1.35.54s-.56.83-.65,1.46l.73,5.87-.89.03-1.06-8.55.87-.03.18,1.36c.35-1.03,1.04-1.55,2.09-1.59.25,0,.45.02.6.08l.08.86Z"/><path class="cls-22" d="M168.15,366.26c-.06-.48-.29-.86-.69-1.14-.41-.28-.99-.48-1.76-.62s-1.37-.3-1.81-.5-.78-.45-1.01-.75c-.24-.3-.38-.67-.43-1.11-.08-.69.13-1.27.64-1.74.5-.47,1.19-.72,2.06-.75.94-.03,1.72.18,2.35.64s.98,1.08,1.07,1.86l-.93.03c-.06-.51-.31-.93-.77-1.26s-.99-.48-1.62-.45-1.09.18-1.43.48c-.34.3-.48.67-.43,1.13s.24.77.58,1c.34.23.93.43,1.77.6s1.48.36,1.91.57c.43.21.77.47,1,.78.23.31.38.69.43,1.15.08.74-.13,1.34-.66,1.81-.52.46-1.25.72-2.17.75-.98.04-1.81-.18-2.48-.65-.67-.47-1.05-1.09-1.13-1.84l.94-.04c.1.57.38,1,.84,1.3.46.3,1.04.44,1.74.41.65-.02,1.16-.19,1.52-.51.37-.31.52-.7.47-1.15Z"/><path class="cls-22" d="M176.71,367.05c-.46.87-1.31,1.33-2.53,1.37-.9.03-1.61-.21-2.14-.73s-.86-1.32-.99-2.38l-.65-5.69.92-.03.64,5.57c.19,1.67.93,2.48,2.23,2.43s2.13-.66,2.35-1.84l-.73-6.32.93-.03,1.01,8.74-.9.03-.14-1.11Z"/><path class="cls-22" d="M186.4,363.5c.16,1.36,0,2.45-.49,3.27-.48.82-1.21,1.25-2.18,1.29-1.15.04-2.07-.34-2.78-1.16l.52,4.46-.92.04-1.4-12.09.86-.03.19,1.23c.5-.95,1.32-1.45,2.46-1.49,1-.04,1.83.33,2.49,1.1.66.77,1.07,1.85,1.24,3.25l.02.14ZM185.45,363.36c-.13-1.11-.45-1.98-.96-2.61-.51-.63-1.16-.93-1.94-.9-.57.02-1.04.18-1.41.48-.38.3-.64.72-.79,1.28l.49,4.19c.28.49.64.86,1.09,1.11.44.25.95.36,1.51.34.78-.03,1.35-.38,1.71-1.04.36-.66.47-1.61.32-2.84Z"/><path class="cls-22" d="M195.14,363.17c.16,1.36,0,2.44-.48,3.26-.48.82-1.2,1.25-2.17,1.28-1.14.04-2.06-.34-2.77-1.16l.52,4.45-.92.04-1.41-12.07.86-.03.19,1.23c.49-.95,1.31-1.45,2.45-1.49,1-.04,1.82.33,2.48,1.1.66.77,1.07,1.85,1.24,3.25l.02.14ZM194.2,363.04c-.13-1.11-.45-1.98-.96-2.6-.51-.63-1.16-.93-1.94-.9-.56.02-1.03.18-1.41.48-.37.3-.63.72-.79,1.27l.49,4.18c.28.49.64.86,1.08,1.11.44.25.94.36,1.5.34.78-.03,1.34-.38,1.7-1.04.36-.66.46-1.61.32-2.84Z"/><path class="cls-22" d="M196.64,362.9c-.1-.84-.03-1.59.2-2.27s.61-1.22,1.13-1.61,1.14-.6,1.86-.63c1.1-.04,2.04.33,2.83,1.12.78.78,1.25,1.85,1.41,3.18l.02.2c.1.84.04,1.6-.19,2.28s-.6,1.22-1.12,1.6-1.14.59-1.86.62c-1.1.04-2.04-.33-2.83-1.11s-1.26-1.85-1.41-3.19l-.02-.19ZM197.6,363.13c.12,1.04.48,1.88,1.07,2.53s1.31.96,2.14.92,1.46-.39,1.89-1.08.59-1.57.46-2.67l-.02-.18c-.08-.66-.27-1.27-.57-1.81s-.68-.96-1.14-1.24-.96-.42-1.51-.4c-.82.03-1.45.39-1.88,1.08s-.59,1.58-.46,2.67l.02.18Z"/><path class="cls-22" d="M209.36,359.02c-.2-.03-.41-.04-.62-.03-.57.02-1.03.21-1.39.55s-.58.84-.67,1.49l.71,5.96-.91.04-1.03-8.68.89-.03.18,1.38c.36-1.04,1.08-1.58,2.15-1.62.25,0,.46.02.62.08l.08.87Z"/><path class="cls-22" d="M212.24,355.87l.27,2.21,1.71-.06.09.78-1.71.06.69,5.78c.06.48.18.84.38,1.07s.48.34.87.32c.15,0,.4-.04.73-.11l.13.78c-.23.1-.55.16-.96.17-.62.02-1.1-.15-1.43-.52s-.54-.93-.63-1.67l-.69-5.78-1.52.06-.09-.78,1.52-.06-.27-2.22.91-.03Z"/><path class="cls-22" d="M217.05,366.04c-.02-.18.02-.34.11-.47s.24-.2.43-.21.35.05.48.17.2.27.23.46-.02.33-.12.45-.25.19-.44.2-.35-.05-.48-.16-.2-.26-.22-.44ZM217.72,363.32l-.84.03-1.05-8.39.94-.03.96,8.39Z"/><path class="cls-22" d="M132.63,196.19l-12.09-.03c-.45,0-.85-.37-.9-.82s.27-.81.72-.81l12.09.04c.44,0,.84.37.89.81s-.27.81-.71.81"/><path class="cls-22" d="M161.08,201.56c-.44,0-.83-.36-.89-.8-.3-2.48-2.54-4.5-4.97-4.51l-16.07-.04c-.44,0-.84-.36-.89-.81s.27-.81.71-.81l16.07.05c3.31.01,6.33,2.75,6.75,6.11.05.45-.26.81-.69.81h0ZM80.89,201.89c-.45,0-.86-.37-.91-.82l-.04-.41c-.37-3.45,2.15-6.25,5.6-6.24l16.03.05c.45,0,.86.37.9.82s-.28.82-.73.82l-16.03-.04c-2.54,0-4.39,2.06-4.12,4.6l.04.41c.05.45-.28.82-.74.82M164.71,232.84c-.44,0-.84-.36-.89-.81l-2.86-24.72c-.05-.45.26-.81.7-.81s.84.36.89.81l2.87,24.71c.05.45-.26.82-.7.82M84.29,233.79c-.46,0-.87-.37-.91-.82l-2.68-25.2c-.05-.45.28-.82.74-.82s.86.37.91.82l2.68,25.19c.05.46-.28.83-.74.83M168.36,264.36c-.44,0-.84-.36-.89-.81l-2.88-24.9c-.05-.45.26-.82.7-.82s.84.36.89.81l2.89,24.89c.05.45-.26.82-.7.83M87.71,265.92c-.46,0-.87-.36-.92-.82l-2.7-25.39c-.05-.46.28-.83.74-.84s.87.37.92.82l2.7,25.38c.05.46-.28.84-.74.85M107.65,278.09l-13.14.22c-3.48.06-6.61-2.76-6.99-6.27l-.02-.15c-.05-.46.28-.84.74-.85s.87.36.92.82l.02.15c.28,2.59,2.59,4.66,5.15,4.62l13.14-.21c.45,0,.86.36.91.82s-.28.84-.73.85M164.55,277.14l-12.34.21c-.44,0-.85-.36-.9-.81s.27-.83.71-.84l12.34-.2c2.48-.04,4.25-2.14,3.95-4.68l-.07-.6c-.05-.45.26-.83.7-.83s.84.36.89.81l.07.6c.4,3.45-2,6.3-5.36,6.35"/><path class="cls-22" d="M120.54,196.16l-12.16-.03c-.45,0-.85-.37-.9-.82s.27-.82.72-.81l12.16.04c.45,0,.85.37.9.82s-.27.81-.72.81"/><path class="cls-22" d="M121.07,247.97c.59.13,1.09.35,1.5.65.28.2.46.48.5.76.04.24-.03.47-.19.65-.24.27-.58.39-1.1.41-.84.02-1.67-.19-2.55-.66-.45-.24-.68-.59-.71-1.07,0-.09,0-.18,0-.27,0-.03,0-.07,0-.1.01-.25-.14-.49-.37-.59.72.23,1.48.32,2.28.28.09,0,.17-.02.26-.04.13-.02.25-.05.36-.02M130.9,237.96c.02.93.41,1.78,1.21,2.61.7.72,1.58,1.32,2.78,1.88l.05.02c.18.09.37.17.56.25.12.05.17.11.18.23.02.27.04.54.06.81.05.63.11,1.28.12,1.91.01.6,0,1.21-.01,1.81,0,.44-.02.9-.02,1.35,0,.42.05.84.1,1.25v.1s.25,1.44.25,1.44h0c.15.57.32,1.16.52,1.75l.02.07c.05.16.09.26.07.3-.02.04-.13.09-.29.15-.82.32-1.65.64-2.47.96-2.27.88-4.62,1.79-6.92,2.7-.29.12-.61.11-.88-.02-.26-.12-.46-.35-.55-.61-.1-.29-.25-.57-.39-.85-.04-.07-.07-.14-.11-.21l-.54-1.15h0c-.04-.08-.04-.09-.04-.1,0,0,0-.02.07-.05.8-.31,1.19-.9,1.15-1.71-.03-.64-.38-1.19-1.01-1.59-.23-.15-.47-.28-.72-.42-.08-.05-.17-.09-.25-.14,0-.01.02-.02.02-.04.06-.09.13-.19.18-.3.39-.83.1-1.86-.7-2.46-.22-.17-.46-.3-.7-.43-.11-.06-.21-.12-.32-.18h0c.04-.08.07-.15.11-.22.11-.22.22-.43.29-.66.14-.43.07-.89-.21-1.45-.45-.89-1.3-1.25-2.07-1.52-.34-.12-.7-.21-1.05-.3l-.19-.05c-.12-.03-.17-.08-.22-.17-1.91-3.99-3.58-7.48-5.12-10.68l-.61-1.28s-.04-.09-.06-.13c-.08-.18-.17-.37-.23-.55-.14-.42.06-.83.47-.99,2.3-.87,4.6-1.74,6.9-2.61l2.67-1.01c.3-.12.61-.23.91-.34.77-.29,1.57-.59,2.35-.89.21-.08.49-.07.73.04.21.1.38.25.46.44.09.21.19.42.3.63l5.32,11.11c-.05-.02-.1-.03-.15-.05-.52-.15-.91-.14-1.28.02-.53.23-.78.67-.77,1.34M112.83,237.72c.03-.28.17-.5.39-.6.09-.04.19-.07.3-.09.14-.03.28-.04.42-.06h.02c.18-.02.37-.03.55-.03.11,0,.21,0,.32-.01.08,0,.11.01.15.08.25.53.5,1.06.76,1.58.17.37.35.73.52,1.1,0,0,0,0,0,0l-.1-.03c-.16-.05-.32-.1-.47-.15-.13-.04-.26-.08-.39-.12-.29-.09-.59-.18-.87-.3-.16-.07-.33-.13-.49-.18-.31-.1-.59-.2-.84-.41-.21-.18-.32-.48-.29-.77M149.77,254.68l-.48-.35c-.59-.44-1.2-.89-1.81-1.33-.61-.44-1.1-.97-1.47-1.56-.49-.8-.88-1.74-1.17-2.85-.39-1.48-.8-2.58-1.33-3.58l-.02-.05c-.26-.5-.53-1.01-.84-1.49v-.02c-.42-.63-.84-1.28-1.33-1.86-.53-.63-1.11-1.24-1.68-1.83-.15-.16-.3-.31-.45-.47-.73-.78-1.6-1.29-2.57-1.55-.71-.18-1.29-.32-1.82-.44-.17-.04-.26-.11-.35-.3-2.14-4.47-4.08-8.51-5.92-12.35-.13-.26-.29-.49-.46-.67-.65-.65-1.5-.85-2.32-.53-4.15,1.57-8.45,3.19-12.73,4.82-.27.1-.51.26-.69.45-.58.6-.67,1.33-.27,2.16.5,1.05,1.01,2.11,1.51,3.16l.76,1.58.04.08s.03.07.05.11c.01.02.02.04.02.04,0,0-.02,0-.06,0-.07,0-.14,0-.22,0-.08,0-.16,0-.24,0-.88.02-1.45.26-1.85.77-.3.39-.42.91-.32,1.44.1.52.4,1,.83,1.31.46.33.98.51,1.48.69.11.04.21.07.32.11.64.23,1.3.42,1.95.6.12.04.25.07.37.11.15.04.23.11.3.26.22.46.44.93.66,1.38.19.39.37.78.56,1.17.09.18.21.28.4.32.35.08.7.16,1.04.26.56.16,1.07.32,1.51.65.26.19.45.48.5.78.05.28-.01.54-.18.74-.24.3-.57.47-.98.5-1.03.09-2.07-.14-3.09-.68-.29-.16-.59-.34-.77-.63-.31-.49-.29-.98.05-1.52.2-.31.5-.51.75-.65.14-.08.23-.21.26-.36.03-.14,0-.27-.08-.39-.18-.25-.54-.35-.79-.21-.56.32-.96.71-1.22,1.18-.61,1.1-.29,2.43.78,3.17.54.38,1.11.66,1.7.86,0,0-.02,0-.03,0-.31-.05-.57.14-.62.44-.02.14-.03.29-.02.44.03.86.36,1.49,1.02,1.92.29.19.58.35.87.47,1.11.48,2.1.64,3.03.49.34-.06.63,0,.92.15.11.06.22.12.34.18.28.14.57.29.82.48.18.13.29.31.31.51.02.23-.07.46-.26.63-.21.19-.49.2-.73.2-1.1-.01-2.15-.3-3.12-.86-.24-.14-.4-.34-.47-.61-.03-.1-.03-.2-.04-.31,0-.04,0-.08,0-.12-.02-.3-.25-.54-.55-.57-.3-.03-.55.17-.57.45-.06.8.3,1.55.94,1.95.99.63,2.13,1,3.39,1.11.13.01.18.05.23.16.37.78.7,1.48,1.02,2.13l.05.1c.12.25.25.51.41.74.53.77,1.58,1.1,2.45.78.32-.12.65-.25.97-.37.15-.06.3-.12.45-.18.12-.05.2-.08.24-.07.04,0,.1.06.2.16h0c.59.56,1.27,1.05,2.02,1.47,1.38.76,2.92,1.2,4.57,1.3.34.02.69.02,1.03.01.2,0,.4,0,.6,0,.89.01,1.79.27,2.84.79.39.2.77.42,1.14.64.14.08.28.17.42.25.18.1.33.14.47.11.06-.01.11-.04.16-.07.2-.14.28-.35.19-.57-.05-.13-.17-.26-.32-.36-.91-.62-1.86-1.11-2.82-1.44-.81-.28-1.55-.41-2.26-.41-.82,0-1.51-.02-2.21-.09-1.65-.19-3.17-.81-4.5-1.85-.12-.09-.24-.19-.36-.3-.03-.03-.06-.05-.09-.08.02-.01.04-.02.06-.03l2.03-.79c1.63-.63,3.26-1.27,4.89-1.9.09-.04.11-.03.16.06.19.4.37.73.53,1.03.24.43.45.79.66,1.11.09.14.21.23.36.27.14.04.29.02.41-.06.23-.15.29-.46.13-.73-.7-1.14-1.19-2.1-1.55-3.02-.41-1.04-.69-2.13-.83-3.25-.19-1.49-.14-2.95-.07-4.18.06-1.1-.08-2.21-.22-3.25-.06-.45-.32-.78-.75-.97-.32-.14-.7-.31-1.08-.5-.91-.47-1.93-1.1-2.59-2.16-.24-.39-.35-.81-.32-1.27,0-.13.05-.22.12-.27.08-.06.19-.08.33-.05.14.02.29.05.42.11.99.44,2.08.78,3.42,1.06.59.12,1.14.39,1.63.81.68.57,1.36,1.26,2.12,2.14,1.01,1.17,1.77,2.28,2.34,3.41l.08.17c.24.49.5.99.68,1.5.19.53.35,1.07.5,1.6.09.3.18.61.27.91.41,1.29.85,2.23,1.45,3.04.48.66.93,1.14,1.41,1.5.58.43,1.18.85,1.76,1.26.21.15.43.3.64.45.15.1.31.15.45.13.13-.02.24-.09.31-.2.17-.25.1-.56-.18-.77"/><path class="cls-22" d="M123.32,228.27l-4.97,1.89c-.25.09-.36.38-.24.63.11.23.36.35.6.3.02,0,.05-.01.07-.02l4.97-1.89c.25-.09.36-.37.24-.62-.12-.25-.42-.38-.67-.28"/><path class="cls-22" d="M125.51,221.43c.69-.39,1.45-.45,2.16-.17.7.28,1.23.85,1.5,1.61.17.47.48.69.85.61.01,0,.03,0,.04,0,.37-.1.51-.44.35-.9-.38-1.13-1.15-1.94-2.34-2.48h0c-1.16-.45-2.31-.37-3.32.24-.23.14-.37.31-.4.5-.02.15.02.31.14.46.17.23.49.43,1.02.13"/><path class="cls-22" d="M127.07,260.34c-.69.4-1.46.47-2.17.19-.7-.27-1.24-.85-1.51-1.61-.09-.24-.21-.41-.36-.52-.16-.11-.34-.13-.54-.08-.38.1-.51.45-.36.91.38,1.14,1.15,1.96,2.36,2.49h0c.74.28,1.48.35,2.17.2.4-.09.79-.24,1.16-.47.23-.14.37-.32.4-.51.02-.16-.02-.32-.14-.46-.17-.23-.49-.43-1.02-.13"/><path class="cls-22" d="M112.79,209.43c3.33-.82,6.57-.16,9.64,2.14.15.11.3.22.43.36.31.32.4.68.15,1.02-.27.36-.64.37-1.03.09-.46-.32-.89-.68-1.37-.96-5.29-3.17-11.51-.94-12.9,4.64-.02.09-.04.19-.07.28-.13.46-.43.68-.92.51s-.65-.54-.57-1.01c.05-.27.11-.53.19-.79,1.02-3.21,3.15-5.28,6.45-6.29"/><path class="cls-22" d="M113.95,212.79c2.55-.63,4.96-.13,7.22,1.61.53.41.67.84.41,1.22-.26.38-.7.36-1.23-.04-3.81-2.88-8.52-1.56-9.69,2.71-.17.62-.49.85-.97.67-.47-.17-.66-.58-.51-1.19.64-2.57,2.27-4.2,4.76-4.98"/><path class="cls-22" d="M115.27,216.21c1.59-.36,3.01-.05,4.34.94.5.37.64.81.41,1.18-.26.39-.69.4-1.23.01-2.01-1.43-4.3-.78-4.98,1.41-.18.57-.49.77-.96.62-.47-.16-.68-.6-.51-1.19.44-1.56,1.46-2.55,2.92-2.97"/><path class="cls-22" d="M117.52,276.02l-1.38.02.47,4.33-.89.02-.47-4.33-1.39.02-.08-.7,3.67-.06.08.7Z"/><path class="cls-22" d="M120.8,278.98l-1.71.03-.23,1.33-.9.02.96-5.05,1.2-.02,2.14,4.99-.92.02-.55-1.31ZM119.21,278.28l1.3-.02-.91-2.33-.38,2.36Z"/><path class="cls-22" d="M125.51,275.58c.34.25.54.59.59,1.05l.05.42c.05.45-.08.81-.39,1.07-.31.26-.75.4-1.32.41h-.62s.19,1.73.19,1.73l-.89.02-.55-5.02,1.63-.03c.54,0,.98.11,1.32.36ZM125.21,276.68c-.03-.26-.13-.46-.3-.59-.17-.13-.4-.19-.69-.19h-.7s.21,1.93.21,1.93h.59c.68-.02.98-.3.92-.84l-.04-.32Z"/><path class="cls-22" d="M133.03,280.09l-.88.02-.25-2.21-1.97.03.25,2.21-.88.02-.56-5.01h.88s.23,2.05.23,2.05l1.97-.03-.23-2.07h.88s.56,4.99.56,4.99Z"/><path class="cls-22" d="M134.91,275.74l.16,1.42,1.83-.03.08.69-1.83.03.17,1.49,1.98-.03.08.7-2.86.05-.56-5,2.86-.05.08.69-1.98.03Z"/><path class="cls-22" d="M139.98,277.99h-.74s.22,1.99.22,1.99l-.88.02-.56-5,1.65-.03c.52,0,.94.1,1.28.33.34.23.53.55.58.96l.04.37c.03.27-.02.51-.15.71s-.33.36-.6.47l1.36,2.11-.96.02-1.24-1.96ZM139.16,277.33h.74c.27-.02.47-.08.61-.2.14-.12.19-.29.17-.5l-.03-.31c-.02-.22-.12-.39-.29-.5-.17-.12-.38-.17-.65-.17h-.73s.19,1.68.19,1.68Z"/><path class="cls-22" d="M143.58,275.6l.16,1.42,1.82-.03.08.69-1.82.03.17,1.49,1.97-.03.08.7-2.85.05-.56-4.99,2.85-.05.08.69-1.97.03Z"/><path class="cls-22" d="M184.09,195.24c-2.27,0-3.89,1.87-3.61,4.19l8.7,73.54c.28,2.36,2.36,4.25,4.65,4.21l70.44-1.18c2.2-.04,3.75-1.95,3.46-4.27l-9.2-72.14c-.29-2.28-2.3-4.13-4.49-4.14l-69.94-.21Z"/><polygon class="cls-1" points="222.57 212.71 225.16 212.71 224.83 210.03 222.24 210.03 222.57 212.71"/><polygon class="cls-1" points="215.12 215.4 215.45 218.09 215.78 220.77 218.38 220.77 218.05 218.08 217.72 215.4 217.39 212.71 214.79 212.72 215.12 215.4"/><polygon class="cls-1" points="219.98 212.71 220.31 215.39 222.9 215.39 222.57 212.71 219.98 212.71"/><polygon class="cls-1" points="212.85 218.09 212.52 215.41 209.92 215.41 210.24 218.1 210.57 220.79 213.18 220.78 212.85 218.09"/><polygon class="cls-1" points="228.41 218.05 230.99 218.05 230.66 215.37 233.24 215.37 232.9 212.7 232.57 210.03 232.24 207.36 231.91 204.69 229.33 204.69 226.75 204.69 224.17 204.68 221.59 204.68 219 204.68 216.41 204.68 216.73 207.36 214.14 207.35 213.81 204.68 213.48 202 210.89 202 211.21 204.67 208.61 204.67 208.94 207.35 211.54 207.35 211.87 210.04 209.26 210.04 209.59 212.72 212.19 212.72 214.79 212.72 214.47 210.04 217.06 210.03 217.39 212.71 219.98 212.71 219.65 210.03 219.33 207.36 221.92 207.36 224.5 207.36 224.83 210.03 227.41 210.03 227.08 207.36 229.66 207.36 229.99 210.03 227.41 210.03 227.75 212.7 228.08 215.38 225.49 215.38 222.9 215.39 223.23 218.07 225.82 218.06 226.15 220.74 223.56 220.75 223.23 218.07 220.64 218.07 220.97 220.76 221.3 223.44 221.63 226.13 224.22 226.12 223.89 223.43 226.48 223.42 229.07 223.41 228.74 220.73 228.41 218.05"/><polygon class="cls-1" points="231.65 223.4 234.23 223.39 233.9 220.72 233.57 218.04 230.99 218.05 231.32 220.73 231.65 223.4"/><polygon class="cls-1" points="231.65 223.4 229.07 223.41 229.4 226.1 231.99 226.08 231.65 223.4"/><polygon class="cls-1" points="237.14 226.06 236.81 223.38 234.23 223.39 234.57 226.07 237.14 226.06"/><polygon class="cls-1" points="241.95 223.36 239.38 223.37 239.72 226.05 242.29 226.04 241.95 223.36"/><polygon class="cls-1" points="247.08 223.35 244.52 223.36 244.86 226.03 247.42 226.02 247.08 223.35"/><polygon class="cls-1" points="249.64 223.34 249.98 226 252.54 225.99 252.2 223.33 249.64 223.34"/><polygon class="cls-1" points="252.88 228.66 255.43 228.65 255.09 225.98 252.54 225.99 252.88 228.66"/><polygon class="cls-1" points="242.96 231.39 245.53 231.38 245.19 228.7 244.86 226.03 242.29 226.04 242.62 228.71 242.96 231.39"/><polygon class="cls-1" points="248.09 231.36 250.65 231.35 250.32 228.67 247.76 228.69 248.09 231.36"/><polygon class="cls-1" points="209.92 236.99 209.6 234.29 206.98 234.3 207.31 237.01 209.92 236.99"/><polygon class="cls-1" points="250.99 234.02 251.33 236.7 253.89 236.68 254.23 239.35 256.79 239.33 256.45 236.66 256.11 233.99 253.55 234 250.99 234.02"/><polygon class="cls-1" points="218.08 239.63 220.68 239.61 220.35 236.91 217.75 236.93 218.08 239.63"/><polygon class="cls-1" points="249.1 239.39 249.44 242.07 252.01 242.05 251.67 239.37 249.1 239.39"/><path class="cls-1" d="M213.19,242.38l2.61-.02,2.61-.02-.33-2.7-2.61.02-.33-2.7,2.61-.02-.33-2.7,2.6-.02.33,2.7,2.6-.02.33,2.7.33,2.7.33,2.7,2.6-.02-.33-2.7,2.59-.02,2.59-.02,2.59-.02-.33-2.69,2.58-.02.33,2.69,2.58-.02,2.58-.02-.34-2.69,2.57-.02.34,2.68,2.57-.02-.34-2.68-.34-2.68,2.57-.02-.34-2.68-2.57.02-2.57.02-.34-2.68h-2.57s.33,2.7.33,2.7l-2.58.02-.33-2.68h2.58s-.33-2.69-.33-2.69l-.33-2.68h-2.57s.33,2.69.33,2.69h-2.58s.33,2.7.33,2.7h-2.58s.33,2.7.33,2.7l-2.59.02-.33-2.69h2.58s-.33-2.7-.33-2.7h-2.58s-.33-2.67-.33-2.67h-2.59s.33,2.7.33,2.7h-2.59s-2.59.03-2.59.03h-2.6s.33,2.71.33,2.71h-2.6s-.33-2.68-.33-2.68l-.33-2.69h2.6s-.33-2.7-.33-2.7h-2.6s-2.6.02-2.6.02h-2.61s-2.61.02-2.61.02h-2.61s.33,2.71.33,2.71h2.61s2.61-.02,2.61-.02l.33,2.7.33,2.7.33,2.7.33,2.7.33,2.7-2.61.02-2.62.02-2.62.02-.33-2.71-.33-2.71,2.62-.02-.33-2.7,2.61-.02-.33-2.7h-2.61s-.33-2.69-.33-2.69h-2.62s.33,2.71.33,2.71h-2.62s-.33-2.69-.33-2.69h2.62s-.33-2.71-.33-2.71h-2.62s-2.62.02-2.62.02h-2.63s-2.63.02-2.63.02h-2.63s.32,2.72.32,2.72l.32,2.71.32,2.71.32,2.71.32,2.71.32,2.72.32,2.72.32,2.72.32,2.72,2.64-.03-.32-2.72-.32-2.72-.32-2.72-.32-2.71,2.63-.02-.32-2.71-2.63.02-.32-2.71,2.63-.02-.32-2.71h-2.63s-.32-2.69-.32-2.69h2.63s2.63-.02,2.63-.02l.32,2.7.32,2.71,2.62-.02.33,2.71.33,2.71-2.63.02.33,2.71-2.63.02.32,2.71.33,2.72,2.63-.02,2.63-.02-.33-2.71,2.62-.02.33,2.71.33,2.71,2.62-.03,2.62-.03,2.61-.03-.33-2.71-.33-2.71ZM225.88,239.57l-.33-2.69,2.59-.02.33,2.69-2.59.02ZM224.89,231.49h2.59s.33,2.67.33,2.67l-2.59.02-2.6.02-.33-2.69h2.59ZM208.29,245.13l-.33-2.71,2.62-.02.33,2.71-2.62.02Z"/><polygon class="cls-1" points="252.01 242.05 252.34 244.73 254.91 244.71 255.24 247.39 255.58 250.07 253.02 250.1 250.45 250.13 250.79 252.81 253.36 252.78 255.92 252.76 258.48 252.73 258.14 250.05 257.8 247.37 257.46 244.69 257.12 242.01 254.57 242.03 252.01 242.05"/><polygon class="cls-1" points="240.49 252.93 243.07 252.9 242.73 250.2 240.16 250.23 240.49 252.93"/><path class="cls-1" d="M247.88,250.15l-.34-2.69,2.57-.02-.34-2.68-2.57.02-2.57.02-2.57.02-2.58.02-2.58.02-.33-2.69-2.58.02.33,2.69-2.59.02.33,2.7-2.59.03.33,2.7-2.6.03-.33-2.7-2.6.03.33,2.7.33,2.7,2.6-.03.33,2.7,2.6-.03,2.59-.03-.33-2.7,2.59-.03.33,2.7.33,2.7-2.59.03-2.59.03.33,2.71,2.59-.03,2.59-.03,2.59-.03-.34-2.7,2.58-.03.34,2.7,2.58-.03.34,2.7,2.58-.04.34,2.7,2.58-.04.34,2.7,2.57-.04,2.57-.04,2.57-.04,2.56-.04-.34-2.69-2.56.04-.34-2.69-2.57.04-.34-2.69-2.57.03.34,2.69-2.57.04-.34-2.7,2.57-.03-.34-2.69-.34-2.69-.34-2.69-2.57.03-.34-2.69ZM245.99,255.56l-2.58.03-2.58.03-2.58.03-.34-2.7-.34-2.7-.33-2.69,2.58-.03,2.58-.02,2.58-.02.34,2.69.34,2.69.34,2.69Z"/><polygon class="cls-1" points="241.5 261.02 238.91 261.05 239.25 263.75 236.66 263.79 237 266.5 234.4 266.53 231.81 266.57 231.47 263.86 231.14 261.15 228.54 261.19 228.21 258.48 225.61 258.51 223 258.54 220.4 258.58 220.06 255.86 222.67 255.83 225.27 255.8 224.94 253.1 222.34 253.13 219.73 253.15 219.4 250.45 216.79 250.47 216.46 247.77 213.85 247.79 214.18 250.5 214.51 253.21 217.12 253.18 217.45 255.89 214.84 255.92 215.17 258.64 215.5 261.36 215.83 264.07 216.16 266.79 216.49 269.52 219.11 269.48 218.78 266.76 221.39 266.72 221.06 264 218.45 264.04 218.12 261.32 220.73 261.29 221.06 264 223.67 263.97 223.34 261.25 225.94 261.22 226.27 263.93 228.87 263.9 229.21 266.61 226.61 266.65 226.94 269.36 229.54 269.32 232.14 269.28 234.74 269.24 237.33 269.2 239.92 269.17 239.59 266.46 242.17 266.42 244.76 266.39 244.42 263.68 241.84 263.72 241.5 261.02"/><polygon class="cls-1" points="257.28 263.51 259.85 263.47 259.5 260.78 259.16 258.1 256.6 258.13 254.04 258.16 254.38 260.85 256.94 260.82 257.28 263.51"/><polygon class="cls-1" points="223.67 263.97 224 266.68 226.61 266.65 226.27 263.93 223.67 263.97"/><path class="cls-1" d="M194.89,220.84h2.63s2.62-.02,2.62-.02h2.62s2.62-.02,2.62-.02h2.61s-.33-2.7-.33-2.7l-.33-2.69-.33-2.69-.33-2.69-.33-2.69-.33-2.68-.33-2.68h-2.61s-2.61,0-2.61,0h-2.61s-2.62,0-2.62,0h-2.62s-2.62,0-2.62,0h-2.63s.32,2.69.32,2.69l.32,2.7.32,2.7.32,2.7.32,2.7.32,2.7.32,2.7h2.63s2.63-.02,2.63-.02ZM191.62,215.44l-.32-2.7-.32-2.7-.32-2.7-.32-2.69h2.62s2.62,0,2.62,0h2.62s2.61,0,2.61,0h2.61s.32,2.69.32,2.69l.32,2.69.33,2.69.33,2.69.33,2.69h-2.61s-2.62.01-2.62.01h-2.62s-2.62.01-2.62.01h-2.63s-.32-2.69-.32-2.69Z"/><polygon class="cls-1" points="199.47 215.43 199.47 215.43 202.08 215.42 201.76 212.73 201.43 210.04 201.11 207.35 198.49 207.35 198.49 207.35 195.88 207.35 193.25 207.35 193.58 210.05 193.9 212.74 194.22 215.44 196.85 215.43 199.47 215.43"/><path class="cls-1" d="M249.54,202.05h-2.55s-2.56,0-2.56,0h0s-2.56,0-2.56,0h-2.56s-2.57,0-2.57,0h-2.57s.33,2.66.33,2.66l.33,2.67.33,2.67.33,2.67.33,2.67.33,2.67.33,2.67h2.57s2.57-.02,2.57-.02h2.57s2.56-.02,2.56-.02h0s2.56,0,2.56,0h2.56s2.55-.02,2.55-.02l-.34-2.66-.34-2.66-.34-2.66-.34-2.66-.34-2.66-.34-2.65-.34-2.65h-2.55ZM250.21,207.36l.34,2.66.34,2.66.34,2.66.34,2.66h-2.56s-2.56.01-2.56.01h0s-2.56,0-2.56,0h-2.57s-2.57.01-2.57.01l-.33-2.67-.33-2.67-.33-2.67-.33-2.67-.33-2.66h2.57s2.56,0,2.56,0h2.56s0,0,0,0h2.56s2.55,0,2.55,0l.34,2.66Z"/><polygon class="cls-1" points="245.07 207.36 242.51 207.36 239.95 207.36 240.28 210.02 240.62 212.69 240.95 215.35 243.51 215.35 246.08 215.34 246.08 215.34 248.64 215.34 248.3 212.68 247.96 210.02 247.63 207.36 245.07 207.36 245.07 207.36"/><path class="cls-1" d="M206.35,250.58l-2.63.03-2.63.03-2.63.03-2.64.03-2.64.03.32,2.73.32,2.73.32,2.73.33,2.73.33,2.73.33,2.73.33,2.74,2.64-.04,2.64-.04,2.64-.04,2.63-.04,2.63-.04,2.63-.04,2.62-.04-.33-2.72-.33-2.72-.33-2.72-.33-2.72-.33-2.72-.33-2.71-.33-2.71-2.62.03-2.62.03ZM209.63,255.99l.33,2.72.33,2.72.33,2.72.33,2.72-2.63.04-2.63.04-2.63.04-2.64.04-2.64.04-.33-2.73-.33-2.73-.33-2.73-.33-2.73-.33-2.73,2.64-.03,2.63-.03,2.63-.03,2.63-.03,2.62-.03.33,2.72Z"/><polygon class="cls-1" points="204.35 256.05 201.72 256.08 199.09 256.11 199.42 258.83 199.74 261.56 200.07 264.29 202.7 264.25 205.34 264.22 205.34 264.22 207.96 264.18 207.64 261.46 207.31 258.74 206.98 256.02 204.35 256.05 204.35 256.05"/><path class="cls-16" d="M310.3,414.88l-49.87-381.43c-1.61-12.34-12.72-22.79-24.88-23.38L51.71,1.18c-.75-.04-1.48-.03-2.21,0-12.28.49-21,10.14-19.73,22.5,0,0,42.2,404.5,42.23,404.77.84,8.39-2.54,11.14-3.65,11.81l.18.05.58-.03,1.67-2.39,1.99.49-3.57,1.9-.13.07-.03.04,230.22-12.24c6.84-.36,11.93-6.48,11.04-13.27Z"/><rect class="cls-17" x="444.05" y="164.58" width="168.95" height="262.31" rx="9.31" ry="9.31"/><g class="cls-23"><path class="cls-22" d="M528.53,214.73c8.93,0,16.17-7.24,16.17-16.17s-7.24-16.17-16.17-16.17-16.17,7.24-16.17,16.17,7.24,16.17,16.17,16.17"/><path class="cls-21" d="M528.8,191.17c1.69,0,3.22.6,4.43,1.58l3.5-3.5c-2.13-1.86-4.86-3-7.92-3-4.75,0-8.83,2.72-10.79,6.69l4.04,3.09c.93-2.83,3.59-4.87,6.74-4.87"/><path class="cls-8" d="M521.7,198.27c0-.78.13-1.53.36-2.23l-4.04-3.09c-.79,1.6-1.23,3.41-1.23,5.32s.44,3.72,1.23,5.32c0,0,0,0,0,0l4.04-3.09s0,0,0-.01c-.23-.7-.36-1.44-.36-2.22"/><path class="cls-2" d="M528.8,196.09v4.64h6.45c-.32,1.58-1.2,2.8-2.46,3.59l3.84,2.97c2.21-2.05,3.64-5.11,3.64-9.02,0-.71-.11-1.48-.27-2.19h-11.2Z"/><path class="cls-9" d="M528.8,205.37c-3.15,0-5.81-2.04-6.74-4.87l-4.04,3.09c1.95,3.97,6.04,6.69,10.79,6.69,2.93,0,5.73-1.04,7.83-3l-3.84-2.97c-1.08.68-2.45,1.05-3.99,1.05"/></g><path class="cls-22" d="M508.7,224.6c.19-.27.29-.6.29-1,0-.58-.19-1.03-.56-1.34-.37-.31-.9-.46-1.59-.46h-2.09v5.95h1.03v-2.29h1.15l1.19,2.29h1.11v-.05l-1.33-2.48c.34-.14.61-.35.8-.62ZM506.84,224.63h-1.06v-1.99h1.09c.36,0,.63.09.81.27.18.17.27.42.27.74s-.1.55-.29.72c-.2.17-.47.26-.82.26Z"/><path class="cls-22" d="M511.7,223.25c-.38,0-.72.1-1.03.29-.31.19-.55.46-.72.81-.17.35-.26.74-.26,1.18v.12c0,.66.2,1.19.59,1.58.39.4.9.59,1.53.59.37,0,.7-.07.99-.22.3-.15.53-.35.71-.62l-.54-.51c-.29.37-.66.55-1.11.55-.32,0-.59-.11-.81-.32s-.33-.5-.37-.87h2.89v-.4c0-.7-.16-1.25-.49-1.63-.33-.38-.79-.58-1.39-.58ZM512.61,225.13h-1.89c.05-.34.15-.61.32-.8.17-.19.39-.29.66-.29s.49.09.65.26.24.42.27.75v.07Z"/><polygon class="cls-22" points="515.87 226.49 514.92 223.33 513.89 223.33 515.43 227.75 516.3 227.75 517.83 223.33 516.8 223.33 515.87 226.49"/><rect class="cls-22" x="518.51" y="223.33" width=".99" height="4.42"/><path class="cls-22" d="M519.01,221.65c-.18,0-.32.05-.42.15-.1.1-.14.23-.14.38s.05.27.14.37.24.15.42.15.32-.05.42-.15c.1-.1.15-.22.15-.37s-.05-.28-.15-.38c-.1-.1-.24-.15-.42-.15Z"/><path class="cls-22" d="M522.42,223.25c-.38,0-.72.1-1.03.29-.31.19-.55.46-.72.81-.17.35-.26.74-.26,1.18v.12c0,.66.2,1.19.59,1.58.39.4.9.59,1.53.59.37,0,.7-.07.99-.22.3-.15.53-.35.71-.62l-.54-.51c-.29.37-.66.55-1.11.55-.32,0-.59-.11-.81-.32s-.33-.5-.37-.87h2.89v-.4c0-.7-.16-1.25-.49-1.63-.33-.38-.79-.58-1.39-.58ZM523.32,225.13h-1.89c.05-.34.15-.61.32-.8.17-.19.39-.29.66-.29s.49.09.65.26.24.42.27.75v.07Z"/><polygon class="cls-22" points="528.95 226.38 528.04 223.33 527.29 223.33 526.38 226.35 525.67 223.33 524.7 223.33 525.91 227.75 526.72 227.75 527.66 224.72 528.6 227.75 529.42 227.75 530.62 223.33 529.66 223.33 528.95 226.38"/><path class="cls-22" d="M536.02,226.51c-.17.35-.49.52-.98.52s-.7-.28-.7-.84v-2.85h-.99v2.86c0,.53.12.94.37,1.22.25.28.61.42,1.09.42.54,0,.95-.17,1.24-.52l.02.43h.94v-4.42h-.99v3.17Z"/><path class="cls-22" d="M540.82,225.47c-.22-.12-.53-.22-.92-.31-.39-.09-.65-.17-.78-.25-.13-.08-.19-.2-.19-.36,0-.17.07-.3.21-.4s.31-.15.53-.15c.23,0,.42.06.56.19.14.13.21.29.21.48h.99c0-.42-.16-.76-.49-1.02s-.75-.39-1.28-.39c-.5,0-.9.13-1.23.38s-.48.57-.48.96c0,.46.25.8.74,1.04.23.11.51.2.85.27.34.07.58.15.73.24.15.09.22.23.22.4,0,.16-.07.29-.2.39-.14.1-.33.15-.6.15s-.49-.06-.65-.19c-.16-.13-.25-.31-.27-.54h-.96c0,.26.08.51.24.74.16.23.38.41.66.54.28.13.61.2.97.2.53,0,.97-.12,1.29-.37.33-.25.49-.57.49-.97,0-.24-.05-.44-.16-.6-.11-.17-.27-.31-.49-.43Z"/><path class="cls-22" d="M547.74,223.83c-.37-.38-.86-.58-1.45-.58-.4,0-.76.09-1.07.28-.31.19-.55.45-.72.8s-.26.74-.26,1.17v.05c0,.69.19,1.24.56,1.66.37.42.87.62,1.5.62.41,0,.77-.09,1.08-.28.31-.19.55-.45.72-.8.17-.34.25-.73.25-1.17v-.23c-.03-.63-.23-1.14-.61-1.53ZM547.08,226.65c-.19.26-.45.39-.78.39s-.6-.13-.78-.39c-.19-.26-.28-.61-.28-1.07,0-.51.09-.9.29-1.15.19-.26.45-.39.77-.39s.59.13.78.39.29.62.29,1.06c0,.5-.09.89-.28,1.15Z"/><path class="cls-22" d="M551.42,223.25c-.53,0-.96.2-1.29.59l-.03-.51h-.94v4.42h.99v-3.14c.2-.36.5-.54.89-.54.28,0,.47.07.59.2s.18.34.18.62v2.86h.99v-2.92c-.02-1.05-.48-1.58-1.4-1.58Z"/><g class="cls-24"><path class="cls-22" d="M505.98,239.16h-10.35v3.07h7.34c-.36,4.3-3.95,6.15-7.33,6.15-4.46.02-8.09-3.58-8.11-8.04,0-.05,0-.1,0-.14,0-4.65,3.6-8.23,8.12-8.23,3.48,0,5.54,2.22,5.54,2.22l2.15-2.23s-2.76-3.07-7.8-3.07c-6.41,0-11.37,5.41-11.37,11.26s4.67,11.31,11.54,11.31c6.04,0,10.47-4.14,10.47-10.26,0-1.29-.19-2.04-.19-2.04h0Z"/><path class="cls-22" d="M514.5,239.78c2.09,0,4.07,1.69,4.07,4.41s-1.97,4.4-4.08,4.4c-2.32,0-4.13-1.85-4.13-4.42s1.8-4.39,4.15-4.39h0ZM514.46,236.93c-4.25,0-7.29,3.32-7.29,7.19s2.95,7.31,7.34,7.31c3.97,0,7.23-3.04,7.23-7.23,0-4.8-3.79-7.28-7.28-7.28h0Z"/><path class="cls-22" d="M530.36,239.78c2.09,0,4.07,1.69,4.07,4.41s-1.97,4.4-4.08,4.4c-2.32,0-4.13-1.85-4.13-4.42s1.8-4.39,4.15-4.39h0ZM530.32,236.93c-4.25,0-7.29,3.32-7.29,7.19s2.95,7.31,7.34,7.31c3.97,0,7.23-3.04,7.23-7.23,0-4.8-3.79-7.28-7.28-7.28h0Z"/><path class="cls-22" d="M546.16,239.79c1.91,0,3.88,1.63,3.88,4.42s-1.96,4.39-3.92,4.39c-2.08,0-4.01-1.69-4.01-4.37s2.01-4.45,4.05-4.45ZM545.88,236.94c-3.9,0-6.96,3.42-6.96,7.25,0,4.37,3.55,7.26,6.9,7.26,2.07,0,3.17-.82,3.97-1.76v1.43c0,2.5-1.52,4-3.81,4s-3.33-1.65-3.72-2.58l-2.79,1.16c.99,2.09,2.98,4.27,6.53,4.27,3.89,0,6.83-2.44,6.83-7.56v-13.03h-3.03v1.23c-.93-1.01-2.21-1.66-3.91-1.66h0Z"/><path class="cls-22" d="M566.49,239.72c1.33,0,2.28.7,2.68,1.55l-6.5,2.72c-.28-2.1,1.71-4.27,3.8-4.27h0ZM566.36,236.93c-3.68,0-6.77,2.93-6.77,7.24,0,4.57,3.44,7.28,7.11,7.28,3.07,0,4.96-1.68,6.08-3.18l-2.51-1.67c-.65,1.01-1.74,2-3.55,2-2.04,0-2.98-1.12-3.56-2.2l9.73-4.04-.5-1.18c-.94-2.32-3.13-4.25-6.03-4.25h0Z"/></g><rect class="cls-22" x="554.95" y="229.64" width="3.2" height="21.38"/><g class="cls-26"><polygon class="cls-8" points="498.4 265.98 494.46 265.6 493.78 265.54 491.94 261.19 490.1 265.54 485.48 265.99 488.96 269.12 488.4 271.7 487.95 273.74 491.94 271.32 495.93 273.74 494.91 269.11 498.4 265.98"/><polygon class="cls-8" points="516.69 265.98 512.75 265.6 512.07 265.54 510.23 261.19 508.39 265.54 503.77 265.99 507.26 269.12 506.69 271.7 506.24 273.74 510.24 271.32 514.23 273.74 513.21 269.11 516.69 265.98"/><polygon class="cls-8" points="534.99 265.98 531.05 265.6 530.37 265.54 528.52 261.19 526.69 265.54 522.07 265.99 525.55 269.12 524.99 271.7 524.54 273.74 528.53 271.32 532.52 273.74 531.5 269.11 534.99 265.98"/><polygon class="cls-8" points="553.28 265.98 549.34 265.6 548.66 265.54 546.82 261.19 544.98 265.54 540.36 265.99 543.85 269.12 543.28 271.7 542.83 273.74 546.82 271.32 550.82 273.74 549.8 269.11 553.28 265.98"/><polygon class="cls-8" points="571.57 265.98 567.63 265.6 566.95 265.54 565.11 261.19 563.27 265.54 558.65 265.99 562.14 269.12 561.57 271.7 561.13 273.74 565.12 271.32 569.11 273.74 568.09 269.11 571.57 265.98"/></g><polygon class="cls-22" points="508.63 283.71 510.07 283.71 510.07 288.12 510.99 288.12 510.99 283.71 512.43 283.71 512.43 283 508.63 283 508.63 283.71"/><path class="cls-22" d="M514.26,284.13c-.55,0-1.04.14-1.49.41l.28.56c.2-.1.38-.17.56-.22.18-.05.37-.07.58-.07.23,0,.41.05.52.16.11.1.17.27.17.5v.26h-.72c-.5,0-.9.1-1.19.31s-.43.48-.43.82v.26c0,.22.06.41.18.58.12.17.27.3.47.39s.41.13.65.13c.45,0,.84-.16,1.16-.47l.07.37h.71v-2.63c0-.43-.13-.76-.38-1.01-.25-.24-.63-.36-1.13-.36ZM514.88,287.16c-.11.13-.24.22-.39.29-.15.06-.31.09-.47.09-.19,0-.33-.05-.43-.14-.1-.09-.14-.21-.14-.37v-.15c0-.4.27-.59.8-.59h.63v.86Z"/><path class="cls-22" d="M519.66,284.35c-.22-.15-.48-.23-.76-.23-.45,0-.82.16-1.1.48l-.05-.37h-.78v5.36h.91v-1.68c.26.21.56.31.9.31.3,0,.57-.08.81-.24.24-.16.43-.38.57-.66.14-.28.21-.6.21-.96v-.39c0-.37-.06-.69-.19-.97-.12-.28-.3-.5-.52-.65ZM519.45,286.39c0,.38-.07.66-.22.86-.15.2-.35.29-.62.29-.28,0-.52-.09-.74-.27v-2.04c.1-.13.22-.23.36-.3.14-.07.29-.11.45-.11.24,0,.43.09.57.29.13.19.2.47.2.84v.45Z"/><path class="cls-22" d="M525.8,284.36c-.28-.16-.61-.23-1-.23s-.72.08-1,.23-.48.37-.62.65c-.14.28-.21.6-.21.96v.39c0,.56.16,1.01.48,1.35.32.34.77.5,1.35.5s1.04-.17,1.36-.5c.32-.34.48-.79.48-1.35v-.39c0-.36-.07-.68-.21-.96-.14-.28-.35-.5-.63-.65ZM525.73,286.37c0,.39-.08.68-.24.88-.16.2-.39.3-.7.3s-.53-.1-.68-.3c-.15-.2-.23-.49-.23-.88v-.41c0-.38.08-.66.23-.85.16-.19.38-.29.68-.29s.53.1.7.29c.16.2.24.48.24.85v.41Z"/><path class="cls-22" d="M528.86,284.31c-.19.12-.33.29-.44.53l-.15-.61h-.66v3.89h.91v-2.33c.1-.27.24-.47.41-.59.17-.12.38-.18.61-.18.08,0,.16,0,.23.02l.16-.84c-.15-.05-.3-.07-.47-.07-.22,0-.42.06-.61.17Z"/><path class="cls-22" d="M534.76,285.2l-.68-.22c-.29-.09-.5-.19-.63-.29-.13-.11-.19-.23-.19-.36v-.12c0-.16.08-.3.24-.42s.4-.18.7-.18c.26,0,.48.04.67.1s.4.19.64.37l.45-.5c-.24-.22-.5-.39-.8-.5-.29-.11-.63-.17-1-.17s-.7.06-.98.18c-.28.12-.49.28-.63.48-.14.2-.22.42-.22.65v.17c0,.6.4,1.04,1.21,1.3l.75.25c.3.1.51.2.62.31.11.11.17.25.17.44v.09c0,.19-.09.36-.28.5s-.45.22-.8.22c-.22,0-.41-.02-.56-.06-.16-.04-.29-.09-.4-.15-.11-.06-.26-.15-.45-.28l-.46.55c.48.44,1.12.67,1.92.67.38,0,.72-.06,1.01-.18.29-.12.53-.29.69-.51s.25-.47.25-.75v-.2c0-.37-.11-.66-.33-.87s-.52-.38-.91-.51Z"/><path class="cls-22" d="M537.89,285.11c.16-.2.38-.3.68-.3.17,0,.32.02.45.07s.25.13.37.23l.43-.48c-.18-.18-.38-.31-.58-.39-.21-.08-.44-.12-.7-.12-.57,0-1,.17-1.32.51-.31.34-.47.8-.47,1.37v.33c0,.57.16,1.03.47,1.37.31.34.75.51,1.3.51.23,0,.46-.04.68-.13.23-.09.42-.2.59-.33l-.37-.53c-.15.1-.29.18-.42.23s-.28.08-.44.08c-.3,0-.52-.1-.68-.3-.15-.2-.23-.5-.23-.89v-.36c0-.39.08-.68.24-.88Z"/><path class="cls-22" d="M542.01,284.13c-.55,0-1.04.14-1.49.41l.28.56c.2-.1.38-.17.56-.22.18-.05.37-.07.58-.07.23,0,.41.05.52.16.11.1.17.27.17.5v.26h-.72c-.5,0-.9.1-1.19.31s-.43.48-.43.82v.26c0,.22.06.41.18.58.12.17.27.3.47.39s.41.13.65.13c.45,0,.84-.16,1.16-.47l.07.37h.71v-2.63c0-.43-.13-.76-.38-1.01-.25-.24-.63-.36-1.13-.36ZM542.63,287.16c-.11.13-.24.22-.39.29-.15.06-.31.09-.47.09-.19,0-.33-.05-.43-.14-.1-.09-.14-.21-.14-.37v-.15c0-.4.27-.59.8-.59h.63v.86Z"/><path class="cls-22" d="M547.62,284.47c-.24-.23-.54-.34-.92-.34-.49,0-.88.17-1.16.5l-.06-.39h-.78v3.89h.91v-2.83c.23-.32.51-.48.84-.48.41,0,.61.23.61.69v2.62h.91v-2.69c0-.41-.12-.73-.35-.96Z"/><g class="cls-25"><path class="cls-22" d="M487.03,292.77c-2.46,0-4.45,1.95-4.45,4.35v89.97c0,2.4,1.99,4.35,4.45,4.35h82.99c2.46,0,4.45-1.95,4.45-4.35v-89.97c0-2.4-1.99-4.35-4.45-4.35h-82.99Z"/></g><path class="cls-12" d="M503.89,407.24c-.39,0-.7.12-.93.37v-1.59h-.78v4.64h.78v-2.41c.19-.28.43-.43.72-.43.35,0,.53.2.53.59v2.25h.78v-2.31c0-.35-.1-.62-.31-.82-.21-.2-.47-.29-.79-.29Z"/><path class="cls-12" d="M507.94,409.74c-.1.13-.21.24-.35.31-.13.08-.27.11-.41.11-.16,0-.27-.04-.35-.12s-.12-.2-.12-.35v-2.37h-.78v2.4c0,.2.05.38.14.54.09.15.22.27.38.35s.34.13.54.13c.39,0,.73-.15,1-.45l.06.37h.66v-3.34h-.78v2.41Z"/><path class="cls-12" d="M510.54,408.09c.14-.17.33-.25.58-.25.15,0,.27.02.38.06.11.04.22.11.32.2l.37-.41c-.15-.15-.32-.26-.5-.33-.18-.07-.38-.11-.6-.11-.48,0-.86.15-1.13.44-.27.29-.4.68-.4,1.18v.28c0,.49.13.88.4,1.17.27.29.64.44,1.11.44.2,0,.39-.04.59-.11s.36-.17.5-.29l-.32-.46c-.13.09-.25.15-.36.2-.11.04-.24.07-.38.07-.25,0-.45-.09-.58-.26-.13-.17-.2-.42-.2-.76v-.31c0-.33.07-.59.2-.76Z"/><polygon class="cls-12" points="515.65 407.33 514.8 407.33 513.66 408.62 513.66 406.03 512.88 406.03 512.88 410.67 513.66 410.67 513.66 409.47 513.94 409.15 514.99 410.67 515.86 410.67 514.46 408.68 515.65 407.33"/><path class="cls-12" d="M517.3,410.15c-.08,0-.14-.02-.18-.06-.03-.04-.05-.11-.05-.2v-3.87h-.78v3.98c0,.24.07.43.21.56.14.13.33.19.56.19.14,0,.29-.03.45-.08l-.08-.53c-.07,0-.11.01-.13.01Z"/><path class="cls-12" d="M519.54,407.24c-.3,0-.56.07-.79.21-.23.14-.4.33-.52.57s-.18.51-.18.81v.34c0,.31.06.58.19.81.12.24.31.42.55.56.24.14.53.21.86.21.23,0,.45-.04.67-.11.21-.08.4-.17.55-.28l-.28-.46c-.16.09-.31.16-.44.2-.14.05-.29.07-.45.07-.29,0-.51-.07-.66-.22-.15-.15-.22-.38-.23-.7h2.15c.02-.13.03-.26.03-.38,0-.53-.13-.93-.38-1.21-.25-.28-.61-.42-1.07-.42ZM520.28,408.74h-1.48c0-.31.07-.54.2-.69.12-.15.3-.23.54-.23s.43.08.55.23c.12.15.19.37.19.66v.03Z"/><path class="cls-12" d="M524.11,407.44c-.19-.13-.41-.2-.67-.2-.36,0-.64.12-.87.35v-1.56h-.78v4.64h.61l.07-.28c.23.24.53.36.87.36.25,0,.48-.07.69-.21.21-.13.37-.32.49-.57.12-.24.18-.52.18-.82v-.34c0-.32-.05-.6-.16-.83-.1-.24-.25-.42-.44-.55ZM523.93,409.19c0,.31-.06.55-.19.72-.13.17-.3.25-.52.25-.25,0-.46-.09-.64-.28v-1.7c.08-.11.19-.2.31-.26.12-.06.25-.09.4-.09.43,0,.65.32.65.97v.39Z"/><path class="cls-12" d="M526.83,407.24c-.3,0-.56.07-.79.21-.23.14-.4.33-.52.57s-.18.51-.18.81v.34c0,.31.06.58.19.81.12.24.31.42.55.56.24.14.53.21.86.21.23,0,.45-.04.67-.11.21-.08.4-.17.55-.28l-.28-.46c-.16.09-.31.16-.44.2-.14.05-.29.07-.45.07-.29,0-.51-.07-.66-.22-.15-.15-.22-.38-.23-.7h2.15c.02-.13.03-.26.03-.38,0-.53-.13-.93-.38-1.21-.25-.28-.61-.42-1.07-.42ZM527.57,408.74h-1.48c0-.31.07-.54.2-.69.12-.15.3-.23.54-.23s.43.08.55.23c.12.15.19.37.19.66v.03Z"/><path class="cls-12" d="M530.16,407.4c-.16.1-.29.25-.38.46l-.12-.53h-.57v3.34h.78v-2c.09-.23.21-.4.35-.5s.32-.15.52-.15c.07,0,.14,0,.2.02l.14-.72c-.12-.04-.26-.06-.4-.06-.19,0-.36.05-.52.15Z"/><path class="cls-12" d="M532.77,407.4c-.16.1-.29.25-.38.46l-.12-.53h-.57v3.34h.78v-2c.09-.23.21-.4.35-.5s.32-.15.52-.15c.07,0,.14,0,.2.02l.14-.72c-.12-.04-.26-.06-.4-.06-.19,0-.36.05-.52.15Z"/><path class="cls-12" d="M535.64,410.09l-.79-2.76h-.8l1.07,3.34h.34l-.11.36c-.04.15-.1.26-.19.32-.09.06-.21.1-.36.1-.11,0-.23-.01-.35-.04l-.11.51c.06.02.13.04.22.06.09.01.18.02.27.02.3,0,.54-.07.73-.21.19-.14.33-.38.43-.72l1.13-3.75h-.77l-.72,2.76Z"/><polygon class="cls-12" points="540.85 410.02 540.24 407.33 539.38 407.33 538.78 410.02 538.29 407.33 537.51 407.33 538.26 410.67 539.2 410.67 539.8 408.01 540.38 410.67 541.34 410.67 542.08 407.33 541.32 407.33 540.85 410.02"/><path class="cls-12" d="M544,407.24c-.47,0-.9.12-1.28.35l.24.48c.17-.08.33-.15.48-.19.15-.04.32-.06.49-.06.2,0,.35.04.45.13.1.09.15.23.15.43v.23h-.61c-.43,0-.77.09-1.02.26s-.37.41-.37.7v.22c0,.19.05.35.15.5s.24.26.41.33c.17.08.35.12.55.12.39,0,.72-.13.99-.4l.06.32h.61v-2.25c0-.37-.11-.66-.33-.86-.22-.21-.54-.31-.97-.31ZM544.53,409.85c-.1.11-.21.19-.33.25-.13.05-.26.08-.41.08-.16,0-.29-.04-.37-.12-.08-.08-.12-.18-.12-.32v-.13c0-.34.23-.51.69-.51h.54v.74Z"/><path class="cls-12" d="M547.44,410.09l-.79-2.76h-.8l1.07,3.34h.34l-.11.36c-.04.15-.1.26-.19.32-.09.06-.21.1-.36.1-.11,0-.23-.01-.35-.04l-.11.51c.06.02.13.04.22.06.09.01.18.02.27.02.3,0,.54-.07.73-.21.19-.14.33-.38.43-.72l1.13-3.75h-.77l-.72,2.76Z"/><path class="cls-12" d="M549.8,409.76c-.14,0-.25.05-.35.15-.1.1-.14.21-.14.35s.05.26.14.35c.1.1.21.14.35.14s.25-.05.35-.14c.09-.1.14-.21.14-.35s-.05-.25-.14-.35c-.09-.1-.21-.14-.35-.14Z"/><path class="cls-12" d="M551.9,408.09c.14-.17.33-.25.58-.25.15,0,.27.02.38.06.11.04.22.11.32.2l.37-.41c-.15-.15-.32-.26-.5-.33-.18-.07-.38-.11-.6-.11-.48,0-.86.15-1.13.44-.27.29-.4.68-.4,1.18v.28c0,.49.13.88.4,1.17.27.29.64.44,1.11.44.2,0,.39-.04.59-.11s.36-.17.5-.29l-.32-.46c-.13.09-.25.15-.36.2-.11.04-.24.07-.38.07-.25,0-.45-.09-.58-.26-.13-.17-.2-.42-.2-.76v-.31c0-.33.07-.59.2-.76Z"/><path class="cls-12" d="M556.4,407.56c-.22-.21-.54-.31-.97-.31-.47,0-.9.12-1.28.35l.24.48c.17-.08.33-.15.48-.19.15-.04.32-.06.49-.06.2,0,.35.04.45.13.1.09.15.23.15.43v.23h-.61c-.43,0-.77.09-1.02.26s-.37.41-.37.7v.22c0,.19.05.35.15.5s.24.26.41.33c.17.08.35.12.55.12.39,0,.72-.13.99-.4l.06.32h.61v-2.25c0-.37-.11-.66-.33-.86ZM555.96,409.85c-.1.11-.21.19-.33.25-.13.05-.26.08-.41.08-.16,0-.29-.04-.37-.12-.08-.08-.12-.18-.12-.32v-.13c0-.34.23-.51.69-.51h.54v.74Z"/><rect class="cls-3" x="444.05" y="164.58" width="168.95" height="262.31"/><rect class="cls-10" x="530.23" y="310.05" width="3.2" height="3.2"/><polygon class="cls-10" points="520.63 316.45 520.63 319.65 520.63 322.85 523.83 322.85 523.83 319.65 523.83 316.45 523.83 313.25 520.63 313.25 520.63 316.45"/><rect class="cls-10" x="527.03" y="313.25" width="3.2" height="3.2"/><polygon class="cls-10" points="517.43 319.65 517.43 316.45 514.23 316.45 514.23 319.65 514.23 322.85 517.43 322.85 517.43 319.65"/><polygon class="cls-10" points="536.63 319.65 539.83 319.65 539.83 316.45 543.03 316.45 543.03 313.25 543.03 310.05 543.03 306.85 543.03 303.65 539.83 303.65 536.63 303.65 533.43 303.65 530.23 303.65 527.03 303.65 523.83 303.65 523.83 306.85 520.63 306.85 520.63 303.65 520.63 300.45 517.43 300.45 517.43 303.65 514.23 303.65 514.23 306.85 517.43 306.85 517.43 310.05 514.23 310.05 514.23 313.25 517.43 313.25 520.63 313.25 520.63 310.05 523.83 310.05 523.83 313.25 527.03 313.25 527.03 310.05 527.03 306.85 530.23 306.85 533.43 306.85 533.43 310.05 536.63 310.05 536.63 306.85 539.83 306.85 539.83 310.05 536.63 310.05 536.63 313.25 536.63 316.45 533.43 316.45 530.23 316.45 530.23 319.65 533.43 319.65 533.43 322.85 530.23 322.85 530.23 319.65 527.03 319.65 527.03 322.85 527.03 326.05 527.03 329.25 530.23 329.25 530.23 326.05 533.43 326.05 536.63 326.05 536.63 322.85 536.63 319.65"/><polygon class="cls-10" points="539.83 326.05 543.03 326.05 543.03 322.85 543.03 319.65 539.83 319.65 539.83 322.85 539.83 326.05"/><rect class="cls-10" x="536.63" y="326.05" width="3.2" height="3.2"/><rect class="cls-10" x="543.03" y="326.05" width="3.2" height="3.2"/><rect class="cls-10" x="549.43" y="326.05" width="3.2" height="3.2"/><rect class="cls-10" x="555.83" y="326.05" width="3.2" height="3.2"/><rect class="cls-10" x="562.23" y="326.05" width="3.2" height="3.2"/><rect class="cls-10" x="565.43" y="329.25" width="3.2" height="3.2"/><polygon class="cls-10" points="552.63 335.65 555.83 335.65 555.83 332.45 555.83 329.25 552.63 329.25 552.63 332.45 552.63 335.65"/><rect class="cls-10" x="559.03" y="332.45" width="3.2" height="3.2"/><rect class="cls-10" x="507.83" y="338.85" width="3.2" height="3.2"/><polygon class="cls-10" points="562.23 338.85 562.23 342.05 565.43 342.05 565.43 345.25 568.63 345.25 568.63 342.05 568.63 338.85 565.43 338.85 562.23 338.85"/><rect class="cls-10" x="520.63" y="342.05" width="3.2" height="3.2"/><rect class="cls-10" x="559.03" y="345.25" width="3.2" height="3.2"/><path class="cls-10" d="M514.23,348.45h6.4v-3.2h-3.2v-3.2h3.2v-3.2h3.2v3.2h3.2v9.6h3.2v-3.2h9.6v-3.2h3.2v3.2h6.4v-3.2h3.2v3.2h3.2v-6.4h3.2v-3.2h-6.4v-3.2h-3.2v3.2h-3.2v-3.2h3.2v-6.4h-3.2v3.2h-3.2v3.2h-3.2v3.2h-3.2v-3.2h3.2v-3.2h-3.2v-3.2h-3.2v3.2h-9.6v3.2h-3.2v-6.4h3.2v-3.2h-16v3.2h6.4v16h-9.6v-6.4h3.2v-3.2h3.2v-3.2h-3.2v-3.2h-3.2v3.2h-3.2v-3.2h3.2v-3.2h-16v28.8h3.2v-12.8h3.2v-3.2h-3.2v-3.2h3.2v-3.2h-3.2v-3.2h6.4v6.4h3.2v6.4h-3.2v3.2h-3.2v6.4h6.4v-3.2h3.2v6.4h9.6v-6.4ZM530.23,345.25v-3.2h3.2v3.2h-3.2ZM530.23,335.65h3.2v3.2h-6.4v-3.2h3.2ZM507.83,351.65v-3.2h3.2v3.2h-3.2Z"/><polygon class="cls-10" points="562.23 348.45 562.23 351.65 565.43 351.65 565.43 354.85 565.43 358.05 562.23 358.05 559.03 358.05 559.03 361.25 562.23 361.25 565.43 361.25 568.63 361.25 568.63 358.05 568.63 354.85 568.63 351.65 568.63 348.45 565.43 348.45 562.23 348.45"/><rect class="cls-10" x="546.23" y="358.05" width="3.2" height="3.2"/><path class="cls-10" d="M555.83,358.05v-3.2h3.2v-3.2h-16v-3.2h-3.2v3.2h-3.2v3.2h-3.2v3.2h-3.2v-3.2h-3.2v6.4h3.2v3.2h6.4v-3.2h3.2v6.4h-6.4v3.2h9.6v-3.2h3.2v3.2h3.2v3.2h3.2v3.2h3.2v3.2h12.8v-3.2h-3.2v-3.2h-3.2v-3.2h-3.2v3.2h-3.2v-3.2h3.2v-9.6h-3.2v-3.2ZM552.63,364.45h-9.6v-9.6h9.6v9.6Z"/><polygon class="cls-10" points="546.23 370.85 543.03 370.85 543.03 374.05 539.83 374.05 539.83 377.25 536.63 377.25 533.43 377.25 533.43 374.05 533.43 370.85 530.23 370.85 530.23 367.65 527.03 367.65 523.83 367.65 520.63 367.65 520.63 364.45 523.83 364.45 527.03 364.45 527.03 361.25 523.83 361.25 520.63 361.25 520.63 358.05 517.43 358.05 517.43 354.85 514.23 354.85 514.23 358.05 514.23 361.25 517.43 361.25 517.43 364.45 514.23 364.45 514.23 367.65 514.23 370.85 514.23 374.05 514.23 377.25 514.23 380.45 517.43 380.45 517.43 377.25 520.63 377.25 520.63 374.05 517.43 374.05 517.43 370.85 520.63 370.85 520.63 374.05 523.83 374.05 523.83 370.85 527.03 370.85 527.03 374.05 530.23 374.05 530.23 377.25 527.03 377.25 527.03 380.45 530.23 380.45 533.43 380.45 536.63 380.45 539.83 380.45 543.03 380.45 543.03 377.25 546.23 377.25 549.43 377.25 549.43 374.05 546.23 374.05 546.23 370.85"/><polygon class="cls-10" points="565.43 374.05 568.63 374.05 568.63 370.85 568.63 367.65 565.43 367.65 562.23 367.65 562.23 370.85 565.43 370.85 565.43 374.05"/><rect class="cls-10" x="523.83" y="374.05" width="3.2" height="3.2"/><path class="cls-10" d="M495.06,322.85h16v-22.4h-22.4v22.4h6.4ZM491.86,316.45v-12.8h16v16h-16v-3.2Z"/><polygon class="cls-10" points="501.43 316.45 501.43 316.45 504.63 316.45 504.63 313.25 504.63 310.05 504.63 306.85 501.43 306.85 501.43 306.85 498.23 306.85 495.03 306.85 495.03 310.05 495.03 313.25 495.03 316.45 498.23 316.45 501.43 316.45"/><path class="cls-10" d="M565.46,300.45h-19.2v22.4h22.4v-22.4h-3.2ZM565.46,306.85v12.8h-16v-16h16v3.2Z"/><polygon class="cls-10" points="559.03 306.85 555.83 306.85 552.63 306.85 552.63 310.05 552.63 313.25 552.63 316.45 555.83 316.45 559.03 316.45 559.03 316.45 562.23 316.45 562.23 313.25 562.23 310.05 562.23 306.85 559.03 306.85 559.03 306.85"/><path class="cls-10" d="M504.66,358.05h-16v22.4h22.4v-22.4h-6.4ZM507.86,364.45v12.8h-16v-16h16v3.2Z"/><polygon class="cls-10" points="501.43 364.45 498.23 364.45 495.03 364.45 495.03 367.65 495.03 370.85 495.03 374.05 498.23 374.05 501.43 374.05 501.43 374.05 504.63 374.05 504.63 370.85 504.63 367.65 504.63 364.45 501.43 364.45 501.43 364.45"/><ellipse class="cls-6" cx="362.25" cy="332.59" rx="168" ry="114.67"/><rect class="cls-27" x="291.25" y="211.92" width="168" height="263" rx="8.17" ry="8.17"/><path class="cls-22" d="M433.37,226.96c-4.75,0-8.62,3.84-8.62,8.56s3.87,8.56,8.62,8.56,8.62-3.84,8.62-8.56-3.87-8.56-8.62-8.56M433.37,244.83c-5.17,0-9.37-4.18-9.37-9.31s4.2-9.31,9.37-9.31,9.37,4.18,9.37,9.31-4.2,9.31-9.37,9.31"/><path class="cls-22" d="M437.31,235.65c-.07,2.47-1.1,4.5-3.17,5.99-.1.07-.2.15-.31.2-.27.13-.52.1-.7-.16-.18-.27-.12-.53.13-.73.29-.23.61-.43.88-.68,3.06-2.78,2.73-7.56-.68-9.92-.06-.04-.12-.07-.17-.12-.27-.2-.37-.46-.17-.75.2-.29.47-.3.76-.13.16.1.33.21.48.33,1.92,1.5,2.88,3.47,2.94,5.96"/><path class="cls-22" d="M434.89,235.59c-.05,1.89-.82,3.39-2.38,4.49-.37.26-.68.24-.88-.03-.2-.27-.11-.57.26-.83,2.59-1.85,2.59-5.37,0-7.25-.37-.27-.46-.55-.26-.82.2-.27.5-.3.87-.04,1.57,1.09,2.33,2.6,2.39,4.48"/><path class="cls-22" d="M432.41,235.6c-.06,1.17-.52,2.05-1.42,2.7-.33.24-.65.23-.85-.02-.21-.27-.13-.57.22-.83,1.31-1,1.31-2.72,0-3.73-.34-.26-.42-.53-.23-.8.19-.28.52-.31.87-.04.94.7,1.4,1.64,1.41,2.73"/><path class="cls-22" d="M373.55,349.26c29.85,0,54.05-24.05,54.05-53.73,0-29.67-24.2-53.73-54.05-53.73-29.85,0-54.05,24.05-54.05,53.73s24.2,53.73,54.05,53.73"/><path class="cls-21" d="M374.46,271c5.66,0,10.77,2,14.79,5.26l11.69-11.62c-7.12-6.17-16.25-9.98-26.48-9.98-15.88,0-29.52,9.04-36.05,22.24l13.52,10.28c3.12-9.41,12-16.18,22.54-16.18"/><path class="cls-8" d="M350.72,294.59c0-2.59.43-5.08,1.2-7.41l-13.52-10.28c-2.64,5.33-4.12,11.33-4.12,17.69,0,6.36,1.48,12.35,4.11,17.68,0,0,0,0,0,.01l13.52-10.28s0-.02-.01-.03c-.77-2.32-1.19-4.8-1.19-7.38"/><path class="cls-2" d="M374.46,287.33v15.43s21.55,0,21.55,0c-1.08,5.26-4.01,9.3-8.21,11.94l12.83,9.88c7.37-6.81,12.17-16.96,12.17-29.98,0-2.36-.37-4.9-.91-7.26h-37.43Z"/><path class="cls-9" d="M374.46,318.19c-10.54,0-19.42-6.77-22.54-16.18l-13.52,10.28c6.53,13.21,20.18,22.24,36.05,22.24,9.8,0,19.16-3.46,26.18-9.95l-12.83-9.88c-3.62,2.27-8.18,3.49-13.34,3.49"/><path class="cls-22" d="M342.94,382.92c.29-.4.43-.9.43-1.5,0-.87-.28-1.54-.84-2-.56-.46-1.36-.69-2.39-.69h-3.15s0,8.9,0,8.9h1.56s0-3.42,0-3.42h1.73s1.8,3.42,1.8,3.42h1.67s0-.08,0-.08l-2.01-3.71c.52-.22.92-.52,1.21-.93ZM340.15,382.96h-1.6v-2.98h1.64c.54,0,.95.14,1.22.4s.41.63.41,1.11-.15.82-.44,1.08-.71.39-1.23.39Z"/><path class="cls-22" d="M347.47,380.9c-.57,0-1.09.14-1.55.43s-.82.69-1.08,1.21-.38,1.11-.38,1.77v.18c0,.99.29,1.78.88,2.37s1.36.89,2.3.89c.55,0,1.05-.11,1.5-.33s.8-.52,1.07-.92l-.81-.76c-.43.55-.99.83-1.67.83-.49,0-.89-.16-1.22-.48s-.51-.75-.55-1.3h4.35s0-.6,0-.6c0-1.05-.25-1.87-.74-2.44s-1.19-.86-2.1-.86ZM348.83,383.71h-2.85c.07-.51.23-.91.48-1.19s.58-.43.99-.43.74.13.97.38.37.63.4,1.13v.11Z"/><polygon class="cls-22" points="353.74 385.75 352.31 381.02 350.76 381.02 353.09 387.63 354.39 387.63 356.7 381.02 355.15 381.02 353.74 385.75"/><rect class="cls-22" x="357.72" y="381.02" width="1.5" height="6.62"/><path class="cls-22" d="M358.47,378.5c-.27,0-.48.08-.62.23s-.22.34-.22.57.07.41.22.56.35.22.62.22.48-.07.63-.22.22-.34.22-.56-.07-.42-.22-.57-.36-.23-.63-.23Z"/><path class="cls-22" d="M363.6,380.9c-.57,0-1.09.14-1.55.43s-.82.69-1.08,1.21-.39,1.11-.39,1.77v.18c0,.99.3,1.78.88,2.37s1.36.89,2.3.89c.55,0,1.05-.11,1.5-.33s.8-.52,1.07-.92l-.81-.76c-.43.55-.99.83-1.67.83-.49,0-.89-.16-1.21-.48s-.51-.75-.55-1.3h4.35s0-.6,0-.6c0-1.05-.25-1.87-.74-2.44s-1.2-.86-2.1-.86ZM364.97,383.71h-2.85c.07-.51.23-.91.48-1.19s.58-.43.99-.43.74.13.97.38.37.63.4,1.13v.11Z"/><polygon class="cls-22" points="373.45 385.59 372.07 381.02 370.94 381.02 369.58 385.54 368.5 381.02 367.04 381.02 368.86 387.63 370.1 387.63 371.5 383.09 372.93 387.63 374.16 387.63 375.97 381.02 374.51 381.02 373.45 385.59"/><path class="cls-22" d="M384.09,385.77c-.25.52-.74.78-1.47.78s-1.05-.42-1.05-1.26v-4.27s-1.5,0-1.5,0v4.29c0,.79.19,1.4.56,1.82s.92.63,1.64.63c.81,0,1.43-.26,1.87-.77l.04.65h1.41s0-6.62,0-6.62h-1.5s0,4.75,0,4.75Z"/><path class="cls-22" d="M391.32,384.21c-.33-.18-.79-.33-1.38-.46s-.98-.26-1.17-.38-.29-.3-.29-.53c0-.25.1-.45.31-.61s.47-.23.8-.23c.35,0,.64.09.85.28s.32.43.32.71h1.5c0-.62-.25-1.13-.74-1.52s-1.13-.59-1.93-.59c-.75,0-1.36.19-1.85.57s-.73.86-.73,1.43c0,.68.37,1.2,1.12,1.56.34.16.76.3,1.27.4s.87.23,1.09.37.33.34.33.61c0,.24-.1.44-.31.58s-.5.22-.9.22-.73-.09-.98-.28-.38-.46-.4-.81h-1.45c0,.4.12.76.36,1.11s.57.61,1,.81.91.29,1.46.29c.8,0,1.45-.18,1.95-.55s.74-.85.74-1.45c0-.35-.08-.66-.24-.91s-.41-.46-.74-.64Z"/><path class="cls-22" d="M401.75,381.76c-.56-.57-1.29-.86-2.19-.86-.61,0-1.14.14-1.61.42s-.83.68-1.09,1.2-.39,1.1-.39,1.75v.07c0,1.04.28,1.86.85,2.49s1.32.93,2.25.93c.62,0,1.16-.14,1.63-.42s.83-.68,1.08-1.19.38-1.1.38-1.75v-.35c-.05-.95-.35-1.71-.91-2.29ZM400.75,385.98c-.28.39-.67.59-1.18.59s-.9-.19-1.18-.58-.42-.92-.42-1.6c0-.77.14-1.34.43-1.73s.67-.58,1.16-.58.89.2,1.18.59.43.92.43,1.59c0,.75-.14,1.33-.42,1.72Z"/><path class="cls-22" d="M407.29,380.9c-.8,0-1.45.3-1.94.89l-.04-.76h-1.41s0,6.62,0,6.62h1.5s0-4.71,0-4.71c.3-.54.74-.81,1.35-.81.41,0,.71.1.9.3s.27.51.27.93v4.29s1.5,0,1.5,0v-4.37c-.02-1.58-.73-2.37-2.12-2.37Z"/><path class="cls-22" d="M339.74,404.63h-15.52s0,4.58,0,4.58h11.01c-.54,6.41-5.92,9.16-10.99,9.16-6.68.03-12.12-5.33-12.15-11.97,0-.07,0-.14,0-.21,0-6.93,5.4-12.26,12.17-12.26,5.22,0,8.3,3.31,8.3,3.31l3.22-3.32s-4.14-4.58-11.69-4.58c-9.61,0-17.05,8.07-17.05,16.78,0,8.53,7,16.86,17.29,16.86,9.06,0,15.69-6.17,15.69-15.29,0-1.92-.28-3.04-.28-3.04h0Z"/><path class="cls-22" d="M352.52,405.56c3.13,0,6.1,2.52,6.1,6.57s-2.96,6.56-6.11,6.56c-3.47,0-6.2-2.76-6.2-6.59s2.7-6.54,6.22-6.54h0ZM352.46,401.31c-6.37,0-10.93,4.95-10.93,10.72,0,5.86,4.43,10.9,11.01,10.9,5.96,0,10.84-4.53,10.84-10.77,0-7.15-5.68-10.85-10.91-10.85h0Z"/><path class="cls-22" d="M376.3,405.56c3.13,0,6.1,2.52,6.1,6.57s-2.96,6.56-6.11,6.56c-3.47,0-6.2-2.76-6.2-6.59s2.7-6.54,6.22-6.54h0ZM376.24,401.31c-6.37,0-10.93,4.95-10.93,10.72s4.43,10.9,11.01,10.9c5.96,0,10.84-4.53,10.84-10.77,0-7.15-5.68-10.85-10.91-10.85h0Z"/><path class="cls-22" d="M399.98,405.56c2.87,0,5.81,2.43,5.81,6.59,0,4.22-2.94,6.55-5.87,6.55-3.12,0-6.02-2.51-6.02-6.51,0-4.15,3.01-6.63,6.08-6.63h0ZM399.56,401.32c-5.85,0-10.44,5.09-10.44,10.8,0,6.51,5.33,10.82,10.34,10.82,3.1,0,4.75-1.22,5.95-2.63v2.13c0,3.73-2.28,5.96-5.72,5.96s-4.99-2.46-5.58-3.85l-4.18,1.73c1.48,3.12,4.47,6.37,9.79,6.37,5.83,0,10.24-3.64,10.24-11.27v-19.42s-4.54,0-4.54,0v1.83c-1.4-1.5-3.32-2.48-5.86-2.48h0Z"/><path class="cls-22" d="M430.46,405.46c1.99,0,3.42,1.05,4.02,2.31l-9.74,4.05c-.42-3.13,2.57-6.35,5.7-6.35h.01ZM430.27,401.3c-5.51,0-10.14,4.36-10.14,10.79,0,6.81,5.16,10.85,10.66,10.85,4.6,0,7.44-2.5,9.11-4.74l-3.76-2.49c-.98,1.5-2.61,2.98-5.33,2.98-3.06,0-4.46-1.66-5.34-3.28l14.58-6.01-.74-1.76c-1.41-3.45-4.69-6.33-9.04-6.33h0Z"/><rect class="cls-22" x="413.16" y="390.44" width="4.79" height="31.86"/><polygon class="cls-8" points="342.76 442.57 338.73 442.18 338.03 442.11 336.15 437.58 334.27 442.11 329.55 442.58 333.11 445.84 332.54 448.52 332.54 448.52 332.08 450.65 336.16 448.13 340.24 450.65 339.2 445.83 342.76 442.57"/><polygon class="cls-8" points="361.45 442.57 357.43 442.18 356.73 442.11 354.85 437.58 352.97 442.11 348.25 442.58 351.81 445.84 351.23 448.52 351.23 448.52 350.77 450.65 354.85 448.13 358.93 450.65 357.89 445.83 361.45 442.57"/><polygon class="cls-8" points="380.15 442.57 376.12 442.18 375.43 442.11 373.54 437.58 371.67 442.11 366.94 442.58 370.51 445.84 369.93 448.52 369.93 448.52 369.47 450.65 373.55 448.13 377.63 450.65 376.59 445.83 380.15 442.57"/><polygon class="cls-8" points="398.84 442.57 394.82 442.18 394.12 442.11 392.24 437.58 390.36 442.11 385.64 442.58 389.2 445.84 388.62 448.52 388.62 448.52 388.17 450.65 392.25 448.13 396.33 450.65 395.28 445.83 398.84 442.57"/><polygon class="cls-8" points="417.54 442.57 413.51 442.18 412.82 442.11 410.94 437.58 409.06 442.11 404.34 442.58 407.9 445.84 407.32 448.52 407.32 448.52 406.86 450.65 410.94 448.13 415.02 450.65 413.98 445.83 417.54 442.57"/><path class="cls-22" d="M442.64,359.88l-.23-.26c-.28-.32-.58-.65-.87-.98-.3-.33-.5-.69-.62-1.08-.16-.52-.23-1.11-.22-1.8.02-.91-.04-1.6-.18-2.24v-.03c-.08-.32-.16-.65-.26-.96h0c-.14-.42-.28-.85-.48-1.24-.21-.43-.46-.85-.7-1.26-.06-.11-.13-.22-.19-.32-.31-.54-.75-.93-1.29-1.19-.4-.19-.73-.33-1.03-.46-.1-.04-.14-.09-.16-.21-.52-2.85-1-5.42-1.45-7.87-.03-.17-.09-.32-.16-.44-.28-.45-.76-.66-1.32-.56-2.79.47-5.67.95-8.54,1.43-.18.03-.35.09-.49.18-.45.29-.63.7-.54,1.23.12.67.25,1.34.37,2l.18,1v.05s.02.04.02.07c0,.02,0,.02,0,.03,0,0-.01,0-.03,0-.04,0-.09-.01-.13-.02-.05,0-.1-.01-.15-.02-.53-.08-.92,0-1.25.25-.25.19-.41.48-.44.8-.03.31.07.63.28.85.22.24.5.41.77.56.06.03.11.07.17.1.35.21.71.39,1.07.57.07.03.14.07.21.1.08.04.12.09.14.18.05.29.11.59.16.87.05.25.09.49.14.74.02.11.08.18.18.23.2.08.39.17.58.27.31.16.59.31.8.54.13.14.19.33.17.51-.02.17-.1.31-.23.41-.2.15-.42.21-.68.18-.64-.06-1.23-.31-1.75-.74-.15-.12-.29-.26-.36-.45-.1-.32,0-.6.29-.88.17-.16.39-.24.56-.3.1-.03.18-.1.22-.18.04-.08.05-.16.02-.23-.06-.17-.27-.26-.44-.21-.39.13-.7.31-.94.55-.56.57-.59,1.38-.08,1.93.26.28.55.51.88.69,0,0,0,0-.01,0-.18-.06-.37.02-.45.19-.04.08-.07.16-.09.25-.13.5-.04.9.29,1.23.14.14.29.27.45.37.59.4,1.16.61,1.74.62.21,0,.38.07.53.19.06.05.11.09.17.14.14.11.29.23.41.37.09.1.12.21.1.33-.03.13-.12.26-.27.33-.16.08-.33.06-.47.03-.66-.13-1.24-.42-1.73-.85-.12-.11-.18-.24-.18-.41,0-.06.01-.12.03-.18,0-.02.01-.05.02-.07.04-.18-.06-.34-.23-.39-.17-.05-.36.04-.42.2-.17.46-.08.93.23,1.24.49.48,1.11.82,1.85,1.03.08.02.1.05.11.12.09.49.17.94.25,1.35v.06c.04.16.07.32.13.48.18.51.76.82,1.34.73.22-.03.44-.07.65-.11.1-.02.2-.03.3-.05.08-.01.13-.02.16-.01.02,0,.05.05.09.12h0c.26.39.58.75.97,1.08.7.6,1.56,1.03,2.54,1.27.2.05.42.09.62.13.12.02.24.04.36.07.54.11,1.04.36,1.59.78.2.16.39.33.58.5.07.06.14.13.21.19.09.08.18.12.27.12.04,0,.07,0,.11-.02.15-.06.23-.17.21-.31,0-.08-.06-.17-.13-.25-.44-.47-.94-.85-1.46-1.16-.45-.25-.87-.42-1.3-.5-.5-.09-.91-.18-1.32-.31-.97-.29-1.78-.83-2.41-1.58-.06-.07-.11-.14-.17-.21-.01-.02-.03-.04-.04-.06.02,0,.03,0,.04-.01l1.36-.23c1.1-.18,2.19-.37,3.29-.55.06-.01.07,0,.08.05.05.26.1.47.15.66.07.28.14.51.21.72.03.09.09.16.17.2.08.04.17.04.26.01.17-.06.26-.23.2-.41-.22-.74-.36-1.36-.42-1.93-.07-.65-.05-1.32.06-1.98.14-.89.42-1.73.68-2.44.23-.63.34-1.3.43-1.92.04-.27-.06-.49-.29-.65-.17-.12-.37-.26-.57-.41-.47-.38-.98-.85-1.2-1.55-.08-.25-.07-.51.03-.78.03-.07.07-.12.12-.15.05-.02.13-.02.21,0,.08.03.17.06.24.11.53.37,1.13.69,1.9,1,.34.14.62.35.85.65.32.41.61.89.92,1.49.41.79.68,1.53.83,2.25l.02.11c.06.31.13.63.15.95.02.33.03.66.03.99,0,.18,0,.37,0,.56.02.8.13,1.4.35,1.94.18.44.37.77.6,1.04.28.32.57.63.85.93.1.11.21.22.31.33.07.08.16.12.25.13.08,0,.16-.02.23-.08.15-.13.16-.31.03-.47ZM424.93,347.41l-.06-.03c-.09-.05-.17-.09-.26-.14-.07-.04-.14-.08-.21-.11-.16-.08-.33-.17-.47-.27-.08-.06-.17-.11-.26-.16-.17-.09-.32-.18-.43-.33-.09-.13-.11-.31-.04-.48.06-.16.19-.27.34-.3.06-.01.13-.02.2-.02.09,0,.18,0,.26.01h.01c.11,0,.22.03.33.04.07.01.13.02.19.03.05,0,.07.02.08.06.06.33.12.67.18,1,.04.23.09.46.13.7h0ZM427.15,354.15c-.19.13-.42.16-.73.11-.51-.08-.97-.3-1.42-.67-.23-.19-.31-.42-.24-.7.01-.05.03-.1.05-.16,0-.02.01-.04.02-.06.05-.15,0-.3-.12-.38.4.21.84.35,1.33.41.05,0,.11,0,.16,0,.08,0,.16,0,.22.03.33.14.59.32.79.55.13.15.2.33.17.5-.02.14-.1.27-.23.36ZM435.55,347.45c-.29-.14-.53-.18-.78-.13-.36.08-.59.3-.7.7-.15.54-.06,1.09.28,1.65.3.5.73.94,1.36,1.4l.03.02c.1.07.2.14.3.21.06.04.08.09.07.15-.03.16-.07.32-.1.48-.08.37-.16.76-.26,1.13-.1.35-.21.71-.32,1.05-.08.25-.17.52-.25.78-.07.24-.12.5-.16.74v.06s-.12.86-.12.86h0c0,.35,0,.71.01,1.07v.04c0,.1.01.16,0,.18-.02.02-.1.03-.2.05-.56.09-1.11.19-1.66.28-1.53.25-3.1.52-4.65.78-.2.03-.39,0-.53-.11-.13-.1-.22-.25-.22-.42-.01-.18-.05-.36-.09-.53-.01-.04-.02-.09-.03-.13l-.13-.73h0c-.01-.05,0-.06,0-.06,0,0,0-.01.05-.02.53-.09.88-.39.99-.86.09-.37-.03-.73-.34-1.04-.12-.11-.24-.21-.37-.32-.04-.04-.09-.07-.13-.11,0,0,.01-.01.02-.02.05-.04.11-.1.16-.15.38-.44.38-1.07,0-1.5-.11-.12-.23-.23-.35-.33-.05-.05-.11-.09-.16-.14h0s.07-.08.11-.12c.1-.11.2-.22.29-.35.16-.23.2-.51.12-.87-.12-.57-.57-.87-.99-1.11-.19-.11-.39-.2-.58-.29l-.11-.05c-.07-.03-.09-.06-.1-.12-.46-2.53-.87-4.74-1.25-6.77l-.15-.81s0-.06-.01-.08c-.02-.11-.04-.23-.05-.35-.01-.26.18-.48.45-.52,1.54-.26,3.08-.52,4.62-.77l1.79-.3c.2-.03.41-.07.61-.1.52-.09,1.05-.18,1.58-.27.14-.03.31.01.44.1.11.08.18.19.2.31.02.13.04.27.07.4l1.3,7.08s-.06-.03-.08-.04Z"/><path class="cls-22" d="M431.16,341.53l-3.34.56c-.17.03-.28.18-.25.34.03.14.16.24.31.24.02,0,.03,0,.05,0l3.34-.56c.17-.03.28-.18.25-.34-.03-.16-.19-.27-.36-.24Z"/><path class="cls-22" d="M433.67,337.76c.49-.15.96-.11,1.34.13.37.24.6.63.63,1.1.02.29.17.46.41.45,0,0,.02,0,.03,0,.24-.02.39-.2.37-.49-.03-.7-.36-1.26-.99-1.7h0c-.63-.39-1.34-.47-2.06-.22-.16.06-.28.14-.33.25-.04.09-.04.19,0,.28.07.15.22.31.59.19Z"/><path class="cls-22" d="M427.89,360.6c-.49.15-.96.11-1.34-.13-.38-.24-.6-.63-.63-1.1-.01-.15-.05-.26-.13-.34-.08-.08-.18-.12-.31-.11-.24.02-.38.2-.37.49.03.7.36,1.26.99,1.7h0c.4.25.83.37,1.28.36.26,0,.52-.05.78-.14.16-.06.28-.14.33-.25.04-.09.04-.19,0-.28-.07-.15-.22-.31-.59-.19Z"/><path class="cls-22" d="M403.01,362.73c-2.19.27-4.38-.21-6.15-1.35-2.08-1.34-3.6-3.52-4.53-6.48.68.41,1.54.96,2.06,1.45.16.15.42.15.58-.01.16-.16.15-.42-.01-.57-1.04-.99-3.2-2.13-3.29-2.18-.1-.05-.22-.06-.33-.02-.11.04-.2.13-.24.23,0,.01-.56,1.43-1.36,3.2-.03.07-.04.14-.03.21.02.14.1.26.24.32.21.09.45,0,.54-.2.42-.94.77-1.78,1.02-2.36.98,3.24,2.64,5.63,4.92,7.1,1.94,1.25,4.31,1.77,6.69,1.47.22-.03.38-.23.36-.45-.03-.22-.23-.38-.46-.35Z"/><path class="cls-22" d="M406.51,354.39c.15.09.28.13.4.1.06-.01.15-.05.26-.1s.25-.12.41-.2c-.02.88-.06,1.62-.11,2.23-.05.6-.04,1.07.05,1.4.03.13.12.26.27.37.14.11.32.19.54.24.22.04.45.04.68-.02.18-.04.37-.13.56-.26.19-.13.37-.28.54-.45.17-.17.3-.34.39-.5s.12-.3.09-.41c-.04-.14-.12-.19-.26-.16-.04,0-.11.05-.22.13-.11.08-.25.17-.4.28-.16.11-.32.2-.49.3-.17.09-.33.16-.49.2-.17.04-.26,0-.3-.15-.01-.04-.01-.16,0-.38,0-.21.01-.48.02-.79,0-.31.02-.63.03-.96.01-.33.02-.63.04-.9.01-.27.02-.47.02-.6.53-.23.92-.42,1.17-.57.25-.15.41-.26.48-.34.07-.08.1-.14.09-.18-.05-.2-.3-.24-.75-.13-.13.03-.27.08-.44.13-.17.06-.35.12-.57.19,0-.24,0-.45,0-.63s-.03-.32-.06-.44c-.05-.19-.14-.33-.27-.42-.13-.09-.27-.15-.4-.18-.13-.03-.23-.04-.29-.02-.15.04-.2.17-.14.39.12.47.19,1.04.21,1.69-.93.4-1.37.7-1.33.87.03.11.11.21.26.31Z"/><path class="cls-22" d="M415.25,353.69c-.02-.08-.09-.17-.21-.26.07-.17.1-.34.11-.49,0-.15,0-.3-.04-.44-.04-.14-.11-.27-.22-.4-.11-.13-.25-.25-.43-.39-.37-.26-.72-.35-1.06-.27-.25.06-.49.22-.74.47-.25.25-.48.57-.69.94-.21.37-.39.77-.53,1.2-.15.43-.25.85-.29,1.26-.05.41-.03.78.05,1.11.05.21.18.4.39.56.21.17.45.29.72.37.27.08.52.09.74.03.57-.14,1.08-.71,1.53-1.72.02.09.06.2.11.34.05.14.11.27.18.4.07.13.15.24.23.31.09.08.17.1.26.08.11-.03.16-.14.13-.33-.07-.67-.12-1.24-.13-1.7-.02-.47-.06-.84-.13-1.11ZM414.27,353.54c0,.48-.07.94-.23,1.36-.15.43-.34.78-.57,1.07-.23.29-.46.46-.7.52-.14.03-.27.03-.4-.03-.13-.05-.2-.14-.23-.27-.05-.19-.06-.44-.02-.74.04-.3.11-.62.21-.97.11-.34.23-.67.37-.97.15-.31.31-.57.48-.78.18-.21.36-.34.55-.39.28-.07.5.24.67.93-.1.06-.14.15-.14.26Z"/><path class="cls-22" d="M416.79,357.08c0,.5,0,.9.01,1.18,0,.28.02.46.04.54.02.07.07.16.15.25.08.09.17.17.27.23.09.06.16.08.21.07.07-.02.13-.09.16-.23s.05-.34.06-.63c0-.25.01-.48,0-.69,0-.22-.01-.45-.01-.7s0-.56-.01-.92c.16,0,.31-.02.44-.05.32-.08.64-.24.95-.47.31-.23.61-.51.88-.85.27-.34.5-.7.7-1.08.19-.38.33-.77.39-1.15.07-.38.06-.74-.02-1.07-.04-.18-.12-.37-.23-.56-.11-.2-.24-.38-.39-.55-.15-.17-.32-.3-.5-.39-.18-.09-.36-.11-.55-.07-.69.17-1.26.77-1.7,1.79,0-.13-.02-.27-.05-.4-.04-.16-.12-.3-.25-.42-.13-.12-.26-.21-.41-.27-.15-.06-.26-.08-.35-.06-.16.04-.22.17-.16.39.25,1,.38,3.04.39,6.1ZM417.65,354.46c0-.43.06-.84.18-1.25.12-.4.26-.77.44-1.1.18-.33.37-.59.56-.8.19-.21.36-.33.5-.36.29-.07.52.2.67.82.08.32.07.66-.02,1.03-.09.37-.25.73-.47,1.08-.23.35-.5.65-.82.91s-.67.43-1.05.53v-.85Z"/><path class="cls-22" d="M410.6,363.07c-.06-.22-.17-.44-.36-.64-.18-.2-.38-.36-.58-.48-.21-.12-.38-.16-.5-.13-.07.02-.16.06-.26.11-.1.06-.21.17-.33.33-.13.17-.27.41-.42.74-.16.33-.33.76-.53,1.31-.2.55-.41,1.25-.64,2.09h-.03c.05-.62.08-1.25.09-1.89.01-.64,0-1.24-.01-1.82-.02-.57-.05-1.08-.1-1.53-.04-.44-.1-.79-.16-1.03-.03-.14-.11-.28-.22-.41-.11-.13-.23-.23-.37-.31-.14-.08-.25-.11-.35-.09-.18.04-.23.21-.16.5.08.32.15.72.2,1.19.06.48.1.99.13,1.54s.06,1.11.07,1.66c.02.56.03,1.08.03,1.57,0,.49,0,.9,0,1.24,0,.16,0,.29,0,.39,0,.1.01.19.03.28.02.09.08.18.18.27.1.09.2.16.32.22.11.06.2.07.26.06.07-.02.16-.15.26-.39.1-.24.22-.55.34-.92.12-.38.25-.77.39-1.19.14-.42.28-.82.43-1.2.15-.38.3-.7.45-.95.15-.25.3-.4.44-.43.1-.03.2,0,.29.05.09.06.16.17.19.32.06.24.09.53.08.87,0,.35-.02.7-.06,1.06-.03.36-.06.7-.07,1-.01.31,0,.55.05.73.06.22.17.31.33.27.14-.03.25-.15.33-.34.09-.19.15-.44.21-.73.05-.29.09-.61.12-.95.02-.34.03-.67.03-.99,0-.32-.01-.61-.03-.86s-.04-.43-.07-.54Z"/><path class="cls-22" d="M415.1,364.93s-.15.07-.32.18c-.17.11-.37.23-.61.36-.24.13-.49.23-.76.3-.37.09-.66.09-.85-.01-.2-.1-.33-.28-.39-.54-.06-.25-.08-.55-.06-.91.46.01.93-.04,1.41-.16.22-.06.46-.14.7-.25.25-.11.47-.25.66-.41.2-.16.35-.35.45-.55.1-.21.12-.43.06-.68-.05-.19-.15-.39-.3-.58-.15-.19-.33-.36-.55-.5-.21-.14-.44-.25-.67-.31-.23-.06-.46-.07-.69-.01-.3.07-.57.23-.8.45s-.44.51-.62.83c-.18.33-.31.68-.42,1.04-.1.37-.16.73-.18,1.09-.02.36.01.69.09.98.09.35.25.64.49.87.24.23.52.39.86.48.33.09.7.08,1.08-.02.22-.05.43-.14.65-.27.22-.13.42-.26.59-.41.18-.15.31-.3.41-.45.1-.15.13-.27.11-.37-.04-.15-.15-.2-.35-.15ZM412.7,362.35c.23-.36.48-.57.76-.64.12-.03.26-.01.41.05.15.06.29.16.41.28.12.12.2.25.23.39.05.2-.05.4-.3.59-.25.19-.57.34-.95.43s-.73.14-1.04.15c.1-.47.27-.89.5-1.25Z"/><path class="cls-22" d="M418.27,359.59c-.58.14-1.08.79-1.48,1.93-.02-.15-.05-.32-.09-.51-.06-.24-.17-.45-.34-.63-.17-.18-.34-.25-.52-.2-.08.02-.13.08-.15.17s-.02.19.01.3c.04.14.08.3.14.47.05.17.1.33.14.47.12.49.2.93.22,1.32.03.39.03.73.02,1.03-.01.3-.03.56-.04.79-.01.23,0,.43.04.6.03.11.1.23.21.36.11.13.24.18.37.14.08-.02.15-.08.21-.17s.09-.22.1-.38c.04-.81.09-1.48.15-2.04.06-.55.15-1.01.26-1.37.11-.36.25-.66.41-.9.16-.24.36-.45.58-.63.17-.13.28-.24.34-.34.06-.1.08-.2.05-.29-.05-.18-.25-.22-.62-.13Z"/><path class="cls-22" d="M422.97,362.98s-.15.07-.32.18c-.17.11-.37.23-.61.36-.24.13-.49.23-.76.3-.37.09-.66.09-.85-.01-.2-.1-.33-.28-.39-.54-.06-.25-.08-.55-.06-.91.46.01.93-.04,1.41-.16.22-.06.46-.14.7-.25.25-.11.47-.25.66-.41.2-.16.34-.35.44-.55.1-.21.12-.43.06-.68-.05-.19-.15-.39-.3-.58-.15-.19-.33-.36-.55-.5-.22-.14-.44-.25-.67-.31-.23-.06-.46-.07-.69-.01-.3.07-.57.23-.8.45-.24.23-.44.51-.62.83-.18.33-.31.67-.42,1.04-.1.37-.16.73-.18,1.09-.02.36.01.69.09.98.09.35.25.64.49.87.24.23.52.39.86.48.33.09.7.08,1.08-.02.22-.05.44-.14.65-.27.22-.13.42-.26.59-.41.18-.15.31-.3.41-.45.1-.15.13-.27.11-.37-.04-.15-.15-.2-.35-.15ZM420.57,360.4c.23-.36.48-.57.76-.64.12-.03.26-.01.41.05s.29.16.41.28c.12.12.2.25.23.39.05.2-.05.4-.3.59-.25.19-.57.34-.95.43s-.73.14-1.04.15c.1-.47.27-.89.5-1.25Z"/></g></svg>