<?xml version="1.0" encoding="utf-8"?>
<!-- Generator: Adobe Illustrator 26.0.3, SVG Export Plug-In . SVG Version: 6.00 Build 0)  -->
<svg version="1.1" id="Capa_1" xmlns="http://www.w3.org/2000/svg" xmlns:xlink="http://www.w3.org/1999/xlink" x="0px" y="0px"
	 viewBox="0 0 512 512" style="enable-background:new 0 0 512 512;" xml:space="preserve">
<style type="text/css">
	.st0{fill:#F8CBAE;}
</style>
<g>
	<g>
		<path id="Facebook" class="st0" d="M188.18,99.16c0,12.9,0,70.49,0,70.49h-51.64v86.2h51.64V512h106.09V255.86h71.19
			c0,0,6.67-41.33,9.9-86.52c-9.27,0-80.69,0-80.69,0s0-50.15,0-58.94c0-8.81,11.57-20.66,23-20.66c11.41,0,35.49,0,57.8,0
			c0-11.74,0-52.29,0-89.74c-29.78,0-63.66,0-78.59,0C185.55,0,188.18,86.28,188.18,99.16z"/>
	</g>
</g>
</svg>
