<svg width="57" height="134" viewBox="0 0 57 134" fill="none" xmlns="http://www.w3.org/2000/svg">
<g clip-path="url(#clip0)">
<path d="M25.068 1.46623C21.1389 2.93256 18.7039 6.03441 16.5457 9.30545C15.0515 11.6177 13.6127 13.9864 12.3952 16.4115C9.01946 23.01 6.97188 30.0597 5.64373 37.3349C3.54082 48.8964 3.59616 60.4014 6.58451 71.7937C7.80198 76.3618 9.57286 80.7044 12.3952 84.5394C13.668 86.2314 15.1622 87.6977 16.8777 89.6716C16.601 85.5546 16.1583 82.1144 16.2136 78.7305C16.269 73.26 17.7631 68.1842 20.9729 63.7852C26.5622 56.1152 34.0884 52.7314 43.3855 54.4797C52.4059 56.1716 57.2758 63.5597 55.8369 72.7524C53.734 86.175 40.8399 98.1312 28.3884 97.7928C28.001 97.7928 27.6136 97.9056 26.9496 97.962C27.3923 98.8644 27.6136 99.5975 28.0564 100.218C30.6573 103.489 33.0923 106.873 35.9699 109.862C40.7845 114.938 45.8204 119.788 50.801 124.751C51.1331 125.089 51.5758 125.315 52.2399 125.822C52.0738 122.044 51.8525 118.716 51.7418 115.332C51.6865 114.204 51.6865 113.076 51.8525 111.949C52.0185 110.877 52.5719 109.918 53.7894 109.975C55.1175 110.031 55.2835 111.046 55.3942 112.174C55.8923 117.193 56.3903 122.156 56.9437 127.176C57.2204 129.601 56.501 130.898 54.1767 131.518C51.9632 132.139 49.6942 132.534 47.3699 132.928C44.9903 133.323 42.6107 133.605 40.1758 133.831C39.2903 133.943 38.3496 133.943 37.4641 133.718C36.1913 133.38 35.8039 131.97 36.8 131.067C37.6301 130.39 38.6816 129.826 39.6777 129.544C42.4447 128.699 45.267 127.965 48.4767 127.063C47.5913 126.386 47.0379 125.935 46.4292 125.54C38.1282 119.449 30.6573 112.456 24.3486 104.335C22.6331 102.079 21.7476 99.1464 19.9214 97.0597C18.0952 95.0294 15.3835 93.7886 13.2253 91.9839C8.85344 88.2617 6.14179 83.4115 4.09421 78.1102C1.32722 70.9477 0.165088 63.5033 -0.000931703 55.8332C-0.277631 43.9898 1.60392 32.4283 5.97577 21.3181C8.46606 15.0016 11.7311 9.07986 16.435 4.1733C17.8738 2.65057 19.7 1.46623 21.5263 0.451074C22.6331 -0.225694 24.0165 -0.338488 25.068 1.46623ZM21.1389 79.9713C21.803 83.2423 22.301 86.5698 23.1865 89.8408C24.0719 93.2246 24.4039 93.3374 27.7797 93.3938C39.235 93.563 50.967 82.34 51.4098 70.6657C51.4098 70.1581 51.4098 69.6506 51.4098 69.143C51.1331 64.2364 48.4767 60.8526 43.8835 59.6118C38.0175 58.0327 32.7049 59.4427 28.2224 63.4469C23.2971 67.7895 21.4156 73.4856 21.1389 79.9713Z" fill="black"/>
</g>
<defs>
<clipPath id="clip0">
<rect width="57" height="134" fill="white"/>
</clipPath>
</defs>
</svg>
