<?xml version="1.0" encoding="utf-8"?>
<!-- Generator: Adobe Illustrator 26.0.3, SVG Export Plug-In . SVG Version: 6.00 Build 0)  -->
<svg version="1.1" id="Layer_1" xmlns="http://www.w3.org/2000/svg" xmlns:xlink="http://www.w3.org/1999/xlink" x="0px" y="0px"
	 viewBox="0 0 215 199" style="enable-background:new 0 0 215 199;" xml:space="preserve">
<style type="text/css">
	.st0{fill:#8E5E40;}
</style>
<g>
	<path class="st0" d="M50.3,124c0-2.8,0.1-5.8,1.3-8.4l37.5-92.2C90.6,19.3,94.3,5,99.8,5c1.7,0,2.7,2.3,2.7,3.8
		C88.6,33.7,60.6,97,58.7,123.7c9.6-14.1,18.8-28.3,28.9-42.3c0-1.3,0.2-3.4,1.7-3.9l1.1,0.4c12.1-17,49.1-67.8,70.3-67.8
		c1.9,0,4.1,1.5,4.1,3.7c0,3.4-7.8,3.7-10.3,4.2c-24.4,7.3-47.9,43.2-63,63.1c0,20.8,22.3,65.9,44.7,68.7c2.7,0.3,4.6,0.1,4.6,3.9
		c0,2.3-1.9,3.8-3.9,3.8c-23.3,0-46.3-51.5-49.1-71c-6.2,8.9-12.2,18-18,27.2c-2.6,4.3-4.7,9.4-8.1,13.1
		C58.4,131.3,50.3,130.4,50.3,124z"/>
</g>
<path class="st0" d="M142.8,187.2c-1.1-3.6-2.8-2.7-5.3-2.1c-17.6,4.3-44.6-23.6-66-27.3c-4.2-1.1-21.4-1.4-22.8,4.6
	c-0.3,1,0.7,1.5,1.6,1.7c3.5,0.9,13.4-4.4,22.6-2.1c7.1,1.8,13.6,4.9,20,8.5c19.8,13.2,35.6,26.1,47.6,21.5
	C142.2,191.4,143.5,189.3,142.8,187.2z"/>
</svg>
