<?xml version="1.0" encoding="utf-8"?>
<!-- Generator: Adobe Illustrator 26.0.3, SVG Export Plug-In . SVG Version: 6.00 Build 0)  -->
<svg version="1.1" id="Capa_1" xmlns="http://www.w3.org/2000/svg" xmlns:xlink="http://www.w3.org/1999/xlink" x="0px" y="0px"
	 viewBox="0 0 512 512" style="enable-background:new 0 0 512 512;" xml:space="preserve">
<style type="text/css">
	.st0{fill:#F8CBAE;}
</style>
<g>
	<g>
		<g>
			<path class="st0" d="M262.96,0C122.63,0,48.01,89.92,48.01,187.98c0,45.47,25.41,102.18,66.08,120.17
				c6.18,2.78,9.54,1.6,10.91-4.13c1.22-4.35,6.56-25.31,9.15-35.2c0.8-3.17,0.38-5.92-2.18-8.9
				c-13.5-15.62-24.23-44.07-24.23-70.76c0-68.39,54.37-134.79,146.89-134.79c80,0,135.97,51.97,135.97,126.31
				c0,84-44.45,142.12-102.21,142.12c-31.97,0-55.78-25.09-48.23-56.13c9.12-36.96,27.01-76.71,27.01-103.36
				c0-23.91-13.5-43.68-41.09-43.68c-32.55,0-58.95,32.23-58.95,75.49c0,27.49,9.73,46.05,9.73,46.05s-32.19,130.05-38.18,154.34
				c-10.11,41.12,1.38,107.72,2.37,113.45c0.61,3.17,4.16,4.16,6.14,1.57c3.17-4.16,42.08-59.68,52.99-99.81
				c3.97-14.62,20.26-73.92,20.26-73.92c10.72,19.36,41.67,35.59,74.63,35.59c98.05,0,168.9-86.18,168.9-193.13
				C463.64,76.71,375.89,0,262.96,0z"/>
		</g>
	</g>
</g>
</svg>
