<?xml version="1.0" encoding="utf-8"?>
<!-- Generator: Adobe Illustrator 26.0.3, SVG Export Plug-In . SVG Version: 6.00 Build 0)  -->
<svg version="1.1" id="Layer_1" xmlns="http://www.w3.org/2000/svg" xmlns:xlink="http://www.w3.org/1999/xlink" x="0px" y="0px"
	 viewBox="0 0 59.88 80.28" style="enable-background:new 0 0 59.88 80.28;" xml:space="preserve">
<style type="text/css">
	.st0{fill:#CCAB97;}
</style>
<g>
	<path class="st0" d="M24.92,65.39c-6.43,7.98-13.91,13.64-24.2,14.89c-1.61-2.74-0.37-3.51,1.95-4.32c4-1.38,7.86-3.2,13.09-5.38
		c-5.95-2.52-8.8-5.98-9.62-10.78c-0.77-4.5-0.6-8.94,2.47-12.71c6.91,1.03,12.1,5.97,14.78,13.53c1.87-4.25,3.74-8.5,5.28-12.02
		c-3.84-3.4-7.04-6.37-10.4-9.13c-0.96-0.78-2.39-1-3.62-1.44C6.73,35.19,3.28,26.31,7.15,18.8c0.75-1.45,1.62-2.93,1.93-4.49
		c2.85-14.25,11.09-18,23.87-10.62c0.5-0.3,1.06-0.64,1.61-0.98c10.03-6.11,20-1.2,21.64,10.5c0.42,3,1.36,6.01,2.54,8.81
		c3.69,8.83-1.95,18.53-11.39,18.77c-2.57,0.06-4.13,0.81-6.01,2.4c-2.22,1.87-5.09,2.96-8.39,4.77c-0.41,1.21-1.1,3.23-2.06,6.04
		c6.12-3.38,11.62-3.28,16.83,0.46C46.11,65.85,34.19,71.69,24.92,65.39z M33.11,32.02c-6.23-5.3-7.75-7.91-7.27-12.55
		c0.36-3.5,2.19-5.35,5.84-5.44c5.37-0.12,6.26,3.69,6.64,7.91c5.78-3.46,6.03-9.05,0.93-12.37c-3.78-2.45-10.39-1.95-14.05,1.06
		c-4.02,3.32-5.49,9.07-3.59,14.04C23.6,29.84,27.52,32.35,33.11,32.02z M42.6,36.09c4.5,1.79,8.35,1.31,11.34-2.53
		c2.3-2.94,2.94-6.05,0.92-9.47c-6.88,7.68-14.8,12.35-25.24,12.15c-2.18-0.04-4.38,1.34-6.88,2.16
		C29.61,45.44,35.02,44.7,42.6,36.09z M34.99,27.17c6.55,2.5,11.09,1.52,14.45-2.72c3.73-4.71,4.11-11.54,0.86-16.32
		c-2.51-3.69-5.88-4.97-10.83-3.39c5.22,3.34,8.33,7.45,6.99,13.43C45.13,24.1,40.34,25.95,34.99,27.17z M26.8,4.85
		c-6.63-1.43-9.86-0.09-12.16,4.39c-2.89,5.65-1.82,11.88,2.95,16.38C15.71,16.81,18.03,9.83,26.8,4.85z M22.87,33.75
		c-4.45-3.42-8.73-6.72-12.79-9.85C8.57,31.6,14.48,36.45,22.87,33.75z"/>
</g>
</svg>
